<svg width="18" height="20" viewBox="0 0 18 20" fill="none" xmlns="http://www.w3.org/2000/svg">
<g clip-path="url(#clip0)">
<path d="M11.5039 4.85843C11.5039 9.73061 9.60912 13.9261 4.33092 16.6329L2.97754 14.8735C6.76701 12.9787 8.79709 10.4073 9.2031 6.75317H3.78957V4.85843H11.5039ZM18.0001 11.3547H15.6993V19.475H13.3986V3.23438H15.6993V9.45994H18.0001V11.3547Z" fill="#BCD9E8"/>
<path d="M8.1203 2.28617C8.1203 6.88767 6.09023 10.9478 0.947368 13.6546L0 12.3012C3.92481 10.2711 5.95489 7.42903 6.3609 3.77489H0.81203V2.28617H8.1203ZM14.7519 8.51173H12.3158V16.632H10.5564V0.662109H12.3158V6.88767H14.7519V8.51173Z" fill="#666666"/>
</g>
<defs>
<clipPath id="clip0">
<rect width="18" height="18.6767" fill="white" transform="translate(0 0.662109)"/>
</clipPath>
</defs>
</svg>
