<svg width="18" height="14" viewBox="0 0 18 14" fill="none" xmlns="http://www.w3.org/2000/svg">
<path d="M1 0C0.447715 0 0 0.447715 0 1C0 1.55228 0.447715 2 1 2H17C17.5523 2 18 1.55228 18 1C18 0.447715 17.5523 0 17 0H1Z" fill="#999999"/>
<path d="M1 4C0.447715 4 0 4.44772 0 5C0 5.55228 0.447715 6 1 6H17C17.5523 6 18 5.55228 18 5C18 4.44772 17.5523 4 17 4H1Z" fill="#999999"/>
<path d="M0 9C0 8.44771 0.447715 8 1 8H17C17.5523 8 18 8.44771 18 9C18 9.55229 17.5523 10 17 10H1C0.447715 10 0 9.55229 0 9Z" fill="#999999"/>
<path d="M1 12C0.447715 12 0 12.4477 0 13C0 13.5523 0.447715 14 1 14H17C17.5523 14 18 13.5523 18 13C18 12.4477 17.5523 12 17 12H1Z" fill="#999999"/>
</svg>
