<svg width="18" height="14" viewBox="0 0 18 14" fill="none" xmlns="http://www.w3.org/2000/svg">
<path d="M1 0C0.447715 0 0 0.447715 0 1C0 1.55228 0.447715 2 1 2H17C17.5523 2 18 1.55228 18 1C18 0.447715 17.5523 0 17 0H1Z" fill="#999999"/>
<path d="M1 8C0.447715 8 0 8.44771 0 9C0 9.55229 0.447715 10 1 10H17C17.5523 10 18 9.55229 18 9C18 8.44771 17.5523 8 17 8H1Z" fill="#999999"/>
<path d="M3 5C3 4.44772 3.44772 4 4 4H14C14.5523 4 15 4.44772 15 5C15 5.55228 14.5523 6 14 6H4C3.44772 6 3 5.55228 3 5Z" fill="#999999"/>
<path d="M4 12C3.44772 12 3 12.4477 3 13C3 13.5523 3.44772 14 4 14H14C14.5523 14 15 13.5523 15 13C15 12.4477 14.5523 12 14 12H4Z" fill="#999999"/>
</svg>
