<svg width="18" height="14" viewBox="0 0 18 14" fill="none" xmlns="http://www.w3.org/2000/svg">
<path d="M17 0C17.5523 0 18 0.447715 18 1C18 1.55228 17.5523 2 17 2H1C0.447716 2 0 1.55228 0 1C0 0.447715 0.447716 0 1 0H17Z" fill="#999999"/>
<path d="M17 4C17.5523 4 18 4.44772 18 5C18 5.55228 17.5523 6 17 6H9C8.44771 6 8 5.55228 8 5C8 4.44772 8.44771 4 9 4H17Z" fill="#999999"/>
<path d="M18 9C18 8.44771 17.5523 8 17 8H1C0.447716 8 0 8.44771 0 9C0 9.55229 0.447716 10 1 10H17C17.5523 10 18 9.55229 18 9Z" fill="#999999"/>
<path d="M17 12C17.5523 12 18 12.4477 18 13C18 13.5523 17.5523 14 17 14H9C8.44771 14 8 13.5523 8 13C8 12.4477 8.44771 12 9 12H17Z" fill="#999999"/>
</svg>
