<svg width="28" height="12" viewBox="0 0 28 12" fill="none" xmlns="http://www.w3.org/2000/svg">
<path d="M8.24967 1.33333C8.24967 4.83333 6.74967 8 2.74967 9.83333L2.08301 8.83333C5.08301 7.33333 6.58301 5.16667 6.91634 2.5H2.74967V1.33333H8.24967ZM13.2497 5.83333H11.4163V12H10.083V0H11.4163V4.83333H13.2497V5.83333Z" fill="#666666"/>
<path d="M16.2498 7.83333C17.9165 7.83333 19.5832 7.66667 21.4165 7.33333L21.5832 8.5C19.5832 8.83333 17.5832 9 15.9165 9H14.9165V1.16667H16.2498V7.83333ZM25.5832 5.83333H23.7498V12H22.4165V0H23.7498V4.66667H25.5832V5.83333Z" fill="#666666"/>
<path d="M26.25 5.5H1.75" stroke="#41A1EA" stroke-miterlimit="10" stroke-linecap="round" stroke-linejoin="round"/>
</svg>
