<svg width="410" height="58" viewBox="0 0 410 58" fill="none" xmlns="http://www.w3.org/2000/svg">
<path d="M42.0285 26.008C41.6925 26.008 41.3845 25.9427 41.1045 25.812C40.8432 25.6813 40.6192 25.504 40.4325 25.28C40.2645 25.0747 40.1338 24.8413 40.0405 24.58C39.9472 24.3187 39.9005 24.048 39.9005 23.768C39.9005 23.2267 40.0685 22.732 40.4045 22.284C40.7405 21.836 41.2818 21.612 42.0285 21.612H42.6165V9.936C42.6165 9.096 42.8592 8.48 43.3445 8.088C43.8298 7.67733 44.4832 7.472 45.3045 7.472C46.1072 7.472 46.7512 7.67733 47.2365 8.088C47.7218 8.49867 47.9645 9.11467 47.9645 9.936V21.612H50.0365V9.936C50.0365 9.096 50.2698 8.48 50.7365 8.088C51.2218 7.67733 51.8752 7.472 52.6965 7.472C53.4992 7.472 54.1432 7.67733 54.6285 8.088C55.1325 8.49867 55.3845 9.11467 55.3845 9.936V21.612H56.1685C56.9152 21.612 57.4565 21.836 57.7925 22.284C58.1285 22.732 58.2965 23.2267 58.2965 23.768C58.2965 24.048 58.2499 24.3187 58.1565 24.58C58.0632 24.8413 57.9232 25.0747 57.7365 25.28C57.5685 25.504 57.3445 25.6813 57.0645 25.812C56.8032 25.9427 56.5045 26.008 56.1685 26.008H42.0285ZM59.2205 3.552C59.2205 2.656 59.5005 1.984 60.0605 1.536C60.6205 1.06933 61.2645 0.835999 61.9925 0.835999C62.3472 0.835999 62.6925 0.901332 63.0285 1.032C63.3645 1.144 63.6538 1.312 63.8965 1.536C64.1579 1.76 64.3632 2.04 64.5125 2.376C64.6805 2.712 64.7645 3.104 64.7645 3.552V10.636H65.6885C66.1179 10.636 66.4725 10.7107 66.7525 10.86C67.0325 11.0093 67.2565 11.2053 67.4245 11.448C67.5925 11.672 67.7139 11.9333 67.7885 12.232C67.8632 12.512 67.9005 12.792 67.9005 13.072C67.9005 13.352 67.8632 13.6413 67.7885 13.94C67.7139 14.22 67.5925 14.4813 67.4245 14.724C67.2565 14.948 67.0232 15.1347 66.7245 15.284C66.4445 15.4333 66.0992 15.508 65.6885 15.508H64.7645V27.128H59.2205V3.552ZM42.3645 6.408C42.0285 6.408 41.7205 6.34267 41.4405 6.212C41.1792 6.08133 40.9552 5.91333 40.7685 5.708C40.5818 5.484 40.4418 5.24133 40.3485 4.98C40.2552 4.7 40.2085 4.42 40.2085 4.14C40.2085 3.86 40.2458 3.58933 40.3205 3.328C40.4138 3.048 40.5445 2.796 40.7125 2.572C40.8992 2.348 41.1232 2.17067 41.3845 2.04C41.6645 1.89066 41.9912 1.816 42.3645 1.816H55.4405C55.8139 1.816 56.1312 1.89066 56.3925 2.04C56.6725 2.17067 56.8965 2.348 57.0645 2.572C57.2512 2.796 57.3818 3.048 57.4565 3.328C57.5498 3.58933 57.5965 3.86 57.5965 4.14C57.5965 4.42 57.5498 4.7 57.4565 4.98C57.3632 5.24133 57.2232 5.484 57.0365 5.708C56.8499 5.91333 56.6165 6.08133 56.3365 6.212C56.0752 6.34267 55.7765 6.408 55.4405 6.408H42.3645ZM87.9205 3.608C87.9205 2.69333 88.2005 2.00267 88.7605 1.536C89.3392 1.06933 90.0018 0.835999 90.7485 0.835999C91.1032 0.835999 91.4485 0.901332 91.7845 1.032C92.1392 1.144 92.4472 1.32133 92.7085 1.564C92.9698 1.788 93.1752 2.07733 93.3245 2.432C93.4925 2.768 93.5765 3.16 93.5765 3.608V14.332H87.9205V3.608ZM68.7405 7.304C68.7405 6.184 68.9272 5.24133 69.3005 4.476C69.6925 3.692 70.2338 3.05733 70.9245 2.572C71.6338 2.068 72.4738 1.704 73.4445 1.48C74.4338 1.256 75.5258 1.144 76.7205 1.144C77.9152 1.144 78.9978 1.256 79.9685 1.48C80.9578 1.704 81.7978 2.068 82.4885 2.572C83.1978 3.05733 83.7392 3.692 84.1125 4.476C84.5045 5.24133 84.7005 6.184 84.7005 7.304V8.06C84.7005 9.18 84.5045 10.132 84.1125 10.916C83.7392 11.6813 83.1978 12.316 82.4885 12.82C81.7978 13.3053 80.9578 13.66 79.9685 13.884C78.9978 14.108 77.9152 14.22 76.7205 14.22C75.5258 14.22 74.4338 14.108 73.4445 13.884C72.4738 13.66 71.6338 13.3053 70.9245 12.82C70.2338 12.316 69.6925 11.6813 69.3005 10.916C68.9272 10.132 68.7405 9.18 68.7405 8.06V7.304ZM74.2565 8.256C74.2565 8.96533 74.4805 9.47867 74.9285 9.796C75.3765 10.1133 75.9738 10.272 76.7205 10.272C77.4672 10.272 78.0645 10.1133 78.5125 9.796C78.9605 9.47867 79.1845 8.96533 79.1845 8.256V7.108C79.1845 6.41733 78.9605 5.91333 78.5125 5.596C78.0645 5.26 77.4672 5.092 76.7205 5.092C75.9738 5.092 75.3765 5.26 74.9285 5.596C74.4805 5.91333 74.2565 6.41733 74.2565 7.108V8.256ZM73.8085 27.128C73.1738 27.128 72.6045 27.0253 72.1005 26.82C71.6152 26.6147 71.2045 26.3347 70.8685 25.98C70.5325 25.6253 70.2712 25.224 70.0845 24.776C69.9165 24.3093 69.8325 23.824 69.8325 23.32V22.984C69.8325 21.976 70.1685 21.1733 70.8405 20.576C71.5312 19.9787 72.5205 19.68 73.8085 19.68H87.8925V18.952C87.8925 18.784 87.8645 18.672 87.8085 18.616C87.7525 18.5413 87.6312 18.504 87.4445 18.504H71.6805C71.1392 18.504 70.7472 18.336 70.5045 18C70.2618 17.664 70.1405 17.2813 70.1405 16.852C70.1405 16.46 70.2618 16.096 70.5045 15.76C70.7472 15.4053 71.1392 15.228 71.6805 15.228H90.1605C91.4112 15.228 92.2885 15.4427 92.7925 15.872C93.3152 16.3013 93.5765 17.0667 93.5765 18.168V22.648H76.3565C76.1512 22.648 75.9925 22.704 75.8805 22.816C75.7872 22.9093 75.7405 23.0307 75.7405 23.18V23.264C75.7405 23.4133 75.7872 23.544 75.8805 23.656C75.9925 23.7493 76.1512 23.796 76.3565 23.796H92.7085C93.2685 23.796 93.6699 23.9733 93.9125 24.328C94.1739 24.6827 94.3045 25.0747 94.3045 25.504C94.3045 25.896 94.1832 26.26 93.9405 26.596C93.6979 26.9507 93.2872 27.128 92.7085 27.128H73.8085ZM121.437 5.624C121.437 6.25867 121.334 6.856 121.129 7.416C120.923 7.95733 120.606 8.43333 120.177 8.844C119.766 9.236 119.243 9.55333 118.609 9.796C117.974 10.02 117.218 10.132 116.341 10.132H102.117C101.239 10.132 100.483 10.02 99.8485 9.796C99.2138 9.55333 98.6818 9.236 98.2525 8.844C97.8418 8.43333 97.5338 7.95733 97.3285 7.416C97.1232 6.856 97.0205 6.25867 97.0205 5.624C97.0205 4.98933 97.1232 4.40133 97.3285 3.86C97.5338 3.31867 97.8418 2.84267 98.2525 2.432C98.6818 2.02133 99.2138 1.704 99.8485 1.48C100.483 1.23733 101.239 1.116 102.117 1.116H116.341C117.218 1.116 117.974 1.23733 118.609 1.48C119.243 1.704 119.766 2.02133 120.177 2.432C120.606 2.84267 120.923 3.31867 121.129 3.86C121.334 4.40133 121.437 4.98933 121.437 5.624ZM115.697 5.624C115.697 5.36267 115.613 5.15733 115.445 5.008C115.295 4.84 115.006 4.756 114.577 4.756H103.881C103.451 4.756 103.153 4.84 102.985 5.008C102.835 5.15733 102.761 5.36267 102.761 5.624C102.761 5.88533 102.835 6.1 102.985 6.268C103.153 6.41733 103.451 6.492 103.881 6.492H114.577C115.006 6.492 115.295 6.41733 115.445 6.268C115.613 6.1 115.697 5.88533 115.697 5.624ZM100.437 27.128C99.8392 27.128 99.3165 27.0253 98.8685 26.82C98.4205 26.6333 98.0472 26.372 97.7485 26.036C97.4685 25.7187 97.2538 25.3453 97.1045 24.916C96.9738 24.4867 96.9085 24.0293 96.9085 23.544V23.46C96.9085 22.4707 97.1885 21.668 97.7485 21.052C98.3085 20.436 99.2045 20.128 100.437 20.128H115.417V19.596C115.417 19.2973 115.221 19.148 114.829 19.148H98.7845C98.2618 19.148 97.8605 18.9893 97.5805 18.672C97.3192 18.336 97.1885 17.9813 97.1885 17.608C97.1885 17.2347 97.3098 16.88 97.5525 16.544C97.8138 16.208 98.2245 16.04 98.7845 16.04H118.049C119.243 16.04 120.065 16.264 120.513 16.712C120.961 17.1413 121.185 17.7853 121.185 18.644V23.012H103.461C103.255 23.012 103.115 23.0587 103.041 23.152C102.966 23.2267 102.929 23.3387 102.929 23.488C102.929 23.6373 102.966 23.7587 103.041 23.852C103.115 23.9453 103.255 23.992 103.461 23.992H120.457C120.998 23.992 121.381 24.16 121.605 24.496C121.847 24.8133 121.969 25.168 121.969 25.56C121.969 25.896 121.857 26.2413 121.633 26.596C121.409 26.9507 121.017 27.128 120.457 27.128H100.437ZM120.317 11.14C121.063 11.14 121.586 11.336 121.885 11.728C122.183 12.12 122.333 12.5587 122.333 13.044C122.333 13.548 122.174 13.996 121.857 14.388C121.558 14.7613 121.045 14.948 120.317 14.948H98.1405C97.4125 14.948 96.8898 14.7613 96.5725 14.388C96.2738 13.996 96.1245 13.548 96.1245 13.044C96.1245 12.5587 96.2738 12.12 96.5725 11.728C96.8712 11.336 97.3938 11.14 98.1405 11.14H120.317ZM151.908 27.128V20.464H147.904C147.643 22.5173 146.831 24.048 145.468 25.056C144.124 26.0827 142.435 26.596 140.4 26.596C139.28 26.596 138.244 26.4373 137.292 26.12C136.359 25.8213 135.547 25.364 134.856 24.748C134.184 24.1133 133.652 23.3293 133.26 22.396C132.887 21.444 132.7 20.3427 132.7 19.092V8.788C132.7 7.53733 132.887 6.44533 133.26 5.512C133.652 4.56 134.184 3.776 134.856 3.16C135.547 2.52533 136.359 2.05867 137.292 1.76C138.244 1.44267 139.28 1.284 140.4 1.284C142.304 1.284 143.91 1.732 145.216 2.628C146.542 3.524 147.4 4.85867 147.792 6.632H151.908V3.608C151.908 2.69333 152.179 2.00267 152.72 1.536C153.262 1.06933 153.906 0.835999 154.652 0.835999C155.38 0.835999 156.024 1.07867 156.584 1.564C157.144 2.03067 157.424 2.712 157.424 3.608V27.128H151.908ZM138.104 19.288C138.104 20.2587 138.319 20.9587 138.748 21.388C139.196 21.8173 139.747 22.032 140.4 22.032C141.054 22.032 141.595 21.8173 142.024 21.388C142.472 20.9587 142.696 20.2587 142.696 19.288V8.592C142.696 7.64 142.472 6.94933 142.024 6.52C141.595 6.072 141.054 5.848 140.4 5.848C139.747 5.848 139.196 6.072 138.748 6.52C138.319 6.94933 138.104 7.64 138.104 8.592V19.288ZM148.016 15.816H151.908V11.28H148.016V15.816ZM179.824 27.128V3.608C179.824 2.69333 180.104 2.00267 180.664 1.536C181.224 1.06933 181.878 0.835999 182.624 0.835999C183.371 0.835999 184.024 1.06933 184.584 1.536C185.144 2.00267 185.424 2.69333 185.424 3.608V27.128H179.824ZM162.52 21.36C163.696 21.248 164.76 21.024 165.712 20.688C166.683 20.3333 167.504 19.8013 168.176 19.092C168.848 18.3827 169.362 17.4493 169.716 16.292C170.09 15.1347 170.276 13.6973 170.276 11.98V7.444C170.276 7.23867 170.211 7.07067 170.08 6.94C169.968 6.80933 169.8 6.744 169.576 6.744H163.192C162.763 6.744 162.39 6.67867 162.072 6.548C161.774 6.39867 161.522 6.212 161.316 5.988C161.111 5.764 160.952 5.512 160.84 5.232C160.747 4.93333 160.7 4.63467 160.7 4.336C160.7 4.056 160.747 3.776 160.84 3.496C160.952 3.19733 161.111 2.936 161.316 2.712C161.522 2.46933 161.774 2.27333 162.072 2.124C162.39 1.97467 162.763 1.9 163.192 1.9H171.48C173.067 1.9 174.196 2.25467 174.868 2.964C175.54 3.67333 175.876 4.68133 175.876 5.988V12.008C175.876 14.5093 175.54 16.6373 174.868 18.392C174.215 20.1467 173.31 21.584 172.152 22.704C170.995 23.824 169.632 24.6453 168.064 25.168C166.515 25.6907 164.844 25.9707 163.052 26.008C162.716 26.008 162.38 25.9613 162.044 25.868C161.708 25.7747 161.41 25.6253 161.148 25.42C160.906 25.2333 160.71 24.9907 160.56 24.692C160.411 24.3933 160.346 24.0293 160.364 23.6C160.402 23.0027 160.588 22.4987 160.924 22.088C161.279 21.6773 161.811 21.4347 162.52 21.36ZM198.956 5.26C198.116 5.26 197.509 5.07333 197.136 4.7C196.781 4.308 196.604 3.81333 196.604 3.216C196.604 2.67467 196.781 2.208 197.136 1.816C197.509 1.424 198.116 1.228 198.956 1.228H217.184C218.378 1.228 219.246 1.41467 219.788 1.788C220.329 2.14266 220.6 2.84267 220.6 3.888V6.464C220.6 7.37867 220.534 8.18133 220.404 8.872C220.292 9.56267 220.142 10.1507 219.956 10.636H220.012C220.385 10.636 220.693 10.7013 220.936 10.832C221.197 10.944 221.402 11.0933 221.552 11.28C221.72 11.4667 221.841 11.6813 221.916 11.924C221.99 12.148 222.028 12.3813 222.028 12.624C222.028 13.128 221.869 13.5853 221.552 13.996C221.253 14.4067 220.74 14.612 220.012 14.612H197.836C197.108 14.612 196.585 14.4067 196.268 13.996C195.969 13.5853 195.82 13.128 195.82 12.624C195.82 12.3813 195.857 12.148 195.932 11.924C196.006 11.6813 196.118 11.4667 196.268 11.28C196.436 11.0933 196.641 10.944 196.884 10.832C197.145 10.7013 197.462 10.636 197.836 10.636H202.764C203.249 10.0387 203.576 9.42267 203.744 8.788C203.93 8.15333 204.024 7.472 204.024 6.744V5.848C204.024 5.68 203.986 5.54 203.912 5.428C203.856 5.316 203.725 5.26 203.52 5.26H198.956ZM200.132 27.128C199.534 27.128 199.012 27.0253 198.564 26.82C198.116 26.6333 197.742 26.372 197.444 26.036C197.164 25.7 196.949 25.3173 196.8 24.888C196.669 24.44 196.604 23.9733 196.604 23.488V23.404C196.604 22.4147 196.884 21.6027 197.444 20.968C198.004 20.3333 198.9 20.016 200.132 20.016H215.112V19.428C215.112 19.1293 214.916 18.98 214.524 18.98H198.48C197.957 18.98 197.556 18.812 197.276 18.476C197.014 18.14 196.884 17.7853 196.884 17.412C196.884 17.0387 197.005 16.684 197.248 16.348C197.509 15.9933 197.92 15.816 198.48 15.816H217.744C218.938 15.816 219.76 16.04 220.208 16.488C220.656 16.9173 220.88 17.5613 220.88 18.42V22.9H203.156C202.95 22.9 202.81 22.956 202.736 23.068C202.661 23.1613 202.624 23.2827 202.624 23.432C202.624 23.5813 202.661 23.7027 202.736 23.796C202.81 23.8893 202.95 23.936 203.156 23.936H220.152C220.693 23.936 221.076 24.104 221.3 24.44C221.542 24.776 221.664 25.14 221.664 25.532C221.664 25.868 221.552 26.2133 221.328 26.568C221.104 26.9413 220.712 27.128 220.152 27.128H200.132ZM209.512 6.352C209.512 7.34133 209.418 8.18133 209.232 8.872C209.064 9.544 208.765 10.132 208.336 10.636H214.468C214.692 10.0947 214.85 9.516 214.944 8.9C215.056 8.284 215.112 7.64933 215.112 6.996V5.792C215.112 5.4 214.897 5.204 214.468 5.204H209.512V6.352ZM243.7 15.732H240.032V19.064C240.032 20.296 239.845 21.388 239.472 22.34C239.098 23.2733 238.576 24.0573 237.904 24.692C237.232 25.3267 236.42 25.8027 235.468 26.12C234.516 26.4373 233.461 26.596 232.304 26.596C231.146 26.596 230.092 26.4373 229.14 26.12C228.188 25.8027 227.366 25.3267 226.676 24.692C226.004 24.0573 225.481 23.2733 225.108 22.34C224.734 21.388 224.548 20.296 224.548 19.064V8.816C224.548 7.584 224.734 6.50133 225.108 5.568C225.481 4.616 226.004 3.82267 226.676 3.188C227.366 2.55333 228.188 2.07733 229.14 1.76C230.092 1.44267 231.146 1.284 232.304 1.284C233.461 1.284 234.516 1.44267 235.468 1.76C236.42 2.07733 237.232 2.55333 237.904 3.188C238.576 3.82267 239.098 4.616 239.472 5.568C239.845 6.50133 240.032 7.584 240.032 8.816V10.944H243.7V3.552C243.7 2.656 243.98 1.984 244.54 1.536C245.1 1.06933 245.744 0.835999 246.472 0.835999C246.826 0.835999 247.172 0.901332 247.508 1.032C247.844 1.144 248.142 1.312 248.404 1.536C248.665 1.76 248.87 2.04 249.02 2.376C249.188 2.712 249.272 3.104 249.272 3.552V27.128H243.7V15.732ZM230.036 19.204C230.036 20.156 230.241 20.8653 230.652 21.332C231.081 21.78 231.632 22.004 232.304 22.004C232.976 22.004 233.517 21.78 233.928 21.332C234.357 20.8653 234.572 20.156 234.572 19.204V8.676C234.572 7.724 234.357 7.024 233.928 6.576C233.517 6.10933 232.976 5.876 232.304 5.876C231.632 5.876 231.081 6.10933 230.652 6.576C230.241 7.024 230.036 7.724 230.036 8.676V19.204ZM257 26.008C256.085 26.008 255.348 25.9427 254.788 25.812C254.228 25.6813 253.789 25.448 253.472 25.112C253.173 24.7947 252.968 24.356 252.856 23.796C252.744 23.236 252.688 22.5173 252.688 21.64V6.156C252.688 5.27867 252.744 4.56 252.856 4C252.968 3.44 253.173 3.00133 253.472 2.684C253.789 2.348 254.228 2.124 254.788 2.012C255.348 1.88133 256.085 1.816 257 1.816H265.904C266.314 1.816 266.65 1.89066 266.912 2.04C267.192 2.18933 267.406 2.376 267.556 2.6C267.724 2.824 267.836 3.076 267.892 3.356C267.966 3.636 268.004 3.90667 268.004 4.168C268.004 4.448 267.966 4.728 267.892 5.008C267.836 5.288 267.724 5.54 267.556 5.764C267.388 5.988 267.164 6.17467 266.884 6.324C266.622 6.47333 266.296 6.548 265.904 6.548H258.932C258.67 6.548 258.484 6.604 258.372 6.716C258.26 6.828 258.204 7.04267 258.204 7.36V20.52C258.204 20.8373 258.26 21.052 258.372 21.164C258.484 21.276 258.67 21.332 258.932 21.332H267.192C267.602 21.332 267.938 21.4067 268.2 21.556C268.48 21.7053 268.694 21.892 268.844 22.116C269.012 22.34 269.124 22.592 269.18 22.872C269.254 23.152 269.292 23.4227 269.292 23.684C269.292 23.964 269.254 24.244 269.18 24.524C269.124 24.7853 269.012 25.028 268.844 25.252C268.676 25.476 268.452 25.6533 268.172 25.784C267.91 25.9333 267.584 26.008 267.192 26.008H257ZM270.916 3.552C270.916 2.656 271.196 1.984 271.756 1.536C272.316 1.06933 272.96 0.835999 273.688 0.835999C274.042 0.835999 274.388 0.901332 274.724 1.032C275.06 1.144 275.349 1.312 275.592 1.536C275.853 1.76 276.058 2.04 276.208 2.376C276.376 2.712 276.46 3.104 276.46 3.552V10.636H277.384C277.813 10.636 278.168 10.7107 278.448 10.86C278.728 11.0093 278.952 11.2053 279.12 11.448C279.288 11.672 279.409 11.9333 279.484 12.232C279.558 12.512 279.596 12.792 279.596 13.072C279.596 13.352 279.558 13.6413 279.484 13.94C279.409 14.22 279.288 14.4813 279.12 14.724C278.952 14.948 278.718 15.1347 278.42 15.284C278.14 15.4333 277.794 15.508 277.384 15.508H276.46V27.128H270.916V3.552ZM303.599 9.404V10.916H311.859C312.233 10.916 312.541 10.9813 312.783 11.112C313.045 11.2427 313.25 11.4107 313.399 11.616C313.567 11.8213 313.689 12.0453 313.763 12.288C313.838 12.5307 313.875 12.7733 313.875 13.016C313.875 13.52 313.717 13.996 313.399 14.444C313.101 14.892 312.587 15.116 311.859 15.116H289.683C288.955 15.116 288.433 14.892 288.115 14.444C287.817 13.996 287.667 13.52 287.667 13.016C287.667 12.7733 287.705 12.5307 287.779 12.288C287.854 12.0453 287.966 11.8213 288.115 11.616C288.283 11.4107 288.489 11.2427 288.731 11.112C288.993 10.9813 289.31 10.916 289.683 10.916H297.943V9.404H292.735C292.026 9.404 291.419 9.348 290.915 9.236C290.411 9.124 290.001 8.928 289.683 8.648C289.385 8.368 289.161 7.99467 289.011 7.528C288.881 7.06133 288.815 6.47333 288.815 5.764V3.804C288.815 3.33733 288.89 2.936 289.039 2.6C289.207 2.24533 289.422 1.956 289.683 1.732C289.963 1.508 290.281 1.34 290.635 1.228C290.99 1.116 291.354 1.06 291.727 1.06C292.493 1.06 293.146 1.284 293.687 1.732C294.247 2.18 294.527 2.87067 294.527 3.804V4.812C294.527 5.11067 294.574 5.29733 294.667 5.372C294.761 5.44667 294.966 5.484 295.283 5.484H310.571C311.411 5.484 311.999 5.68933 312.335 6.1C312.671 6.492 312.839 6.95867 312.839 7.5C312.839 8.06 312.671 8.51733 312.335 8.872C311.999 9.22667 311.411 9.404 310.571 9.404H303.599ZM295.367 27.128C294.341 27.128 293.454 27.016 292.707 26.792C291.961 26.568 291.345 26.2507 290.859 25.84C290.393 25.4293 290.047 24.9347 289.823 24.356C289.599 23.7773 289.487 23.1427 289.487 22.452C289.487 22.1533 289.562 21.8267 289.711 21.472C289.17 21.3973 288.741 21.1827 288.423 20.828C288.125 20.4733 287.975 20.0253 287.975 19.484C287.975 18.8867 288.162 18.42 288.535 18.084C288.909 17.7293 289.441 17.552 290.131 17.552H297.803C297.953 16.9173 298.289 16.46 298.811 16.18C299.334 15.8813 299.987 15.732 300.771 15.732C301.555 15.732 302.199 15.8813 302.703 16.18C303.226 16.46 303.562 16.9173 303.711 17.552H311.383C312.074 17.552 312.606 17.7293 312.979 18.084C313.353 18.42 313.539 18.8867 313.539 19.484C313.539 20.0253 313.381 20.4733 313.063 20.828C312.765 21.1827 312.335 21.3973 311.775 21.472C311.943 21.808 312.027 22.1347 312.027 22.452C312.027 23.1427 311.915 23.7773 311.691 24.356C311.467 24.9347 311.113 25.4293 310.627 25.84C310.161 26.2507 309.554 26.568 308.807 26.792C308.061 27.016 307.174 27.128 306.147 27.128H295.367ZM296.515 21.22C296.03 21.22 295.666 21.3227 295.423 21.528C295.199 21.7333 295.087 22.004 295.087 22.34C295.087 22.6573 295.19 22.928 295.395 23.152C295.619 23.376 295.974 23.488 296.459 23.488H305.083C305.569 23.488 305.914 23.376 306.119 23.152C306.325 22.928 306.427 22.6573 306.427 22.34C306.427 22.004 306.315 21.7333 306.091 21.528C305.867 21.3227 305.513 21.22 305.027 21.22H296.515ZM318.131 21.36C319.214 21.2293 320.222 20.996 321.155 20.66C322.107 20.324 322.919 19.82 323.591 19.148C324.282 18.4573 324.823 17.552 325.215 16.432C325.607 15.312 325.803 13.8933 325.803 12.176V7.444C325.803 7.23867 325.738 7.07067 325.607 6.94C325.495 6.80933 325.327 6.744 325.103 6.744H318.747C318.318 6.744 317.954 6.66933 317.655 6.52C317.375 6.37067 317.133 6.184 316.927 5.96C316.741 5.71733 316.601 5.456 316.507 5.176C316.433 4.87733 316.395 4.588 316.395 4.308C316.395 4.028 316.433 3.748 316.507 3.468C316.601 3.16933 316.741 2.908 316.927 2.684C317.114 2.46 317.357 2.27333 317.655 2.124C317.954 1.97467 318.318 1.9 318.747 1.9H326.979C328.566 1.9 329.695 2.25467 330.367 2.964C331.039 3.67333 331.375 4.68133 331.375 5.988V10.804H335.631V3.552C335.631 2.656 335.911 1.984 336.471 1.536C337.031 1.06933 337.675 0.835999 338.403 0.835999C338.758 0.835999 339.103 0.901332 339.439 1.032C339.775 1.144 340.074 1.312 340.335 1.536C340.597 1.76 340.802 2.04 340.951 2.376C341.119 2.712 341.203 3.104 341.203 3.552V27.128H335.631V15.564H331.123C330.843 17.3933 330.33 18.952 329.583 20.24C328.855 21.5093 327.95 22.5547 326.867 23.376C325.785 24.1973 324.553 24.8133 323.171 25.224C321.79 25.6533 320.315 25.9147 318.747 26.008C318.411 26.0267 318.075 25.9893 317.739 25.896C317.422 25.8027 317.133 25.6533 316.871 25.448C316.629 25.2427 316.433 24.9907 316.283 24.692C316.134 24.3747 316.059 24.0107 316.059 23.6C316.059 23.0027 316.227 22.508 316.563 22.116C316.899 21.7053 317.422 21.4533 318.131 21.36ZM359.039 20.996C359.45 20.996 359.786 21.0707 360.047 21.22C360.327 21.3693 360.542 21.556 360.691 21.78C360.859 22.004 360.971 22.256 361.027 22.536C361.102 22.816 361.139 23.0867 361.139 23.348C361.139 23.628 361.102 23.908 361.027 24.188C360.971 24.468 360.859 24.72 360.691 24.944C360.523 25.168 360.299 25.3547 360.019 25.504C359.758 25.6533 359.431 25.728 359.039 25.728H348.819C347.979 25.728 347.279 25.6533 346.719 25.504C346.178 25.3547 345.749 25.112 345.431 24.776C345.114 24.4213 344.89 23.9733 344.759 23.432C344.629 22.872 344.563 22.1907 344.563 21.388V4.616C344.563 3.68267 344.834 3.01067 345.375 2.6C345.935 2.17067 346.598 1.956 347.363 1.956C348.147 1.956 348.801 2.17067 349.323 2.6C349.846 3.01067 350.107 3.68267 350.107 4.616V20.24C350.107 20.5573 350.154 20.7627 350.247 20.856C350.359 20.9493 350.574 20.996 350.891 20.996H359.039ZM362.763 3.552C362.763 2.656 363.043 1.984 363.603 1.536C364.163 1.06933 364.807 0.835999 365.535 0.835999C365.89 0.835999 366.235 0.901332 366.571 1.032C366.907 1.144 367.197 1.312 367.439 1.536C367.701 1.76 367.906 2.04 368.055 2.376C368.223 2.712 368.307 3.104 368.307 3.552V10.636H369.231C369.661 10.636 370.015 10.7107 370.295 10.86C370.575 11.0093 370.799 11.2053 370.967 11.448C371.135 11.672 371.257 11.9333 371.331 12.232C371.406 12.512 371.443 12.792 371.443 13.072C371.443 13.352 371.406 13.6413 371.331 13.94C371.257 14.22 371.135 14.4813 370.967 14.724C370.799 14.948 370.566 15.1347 370.267 15.284C369.987 15.4333 369.642 15.508 369.231 15.508H368.307V27.128H362.763V3.552ZM4.47953 33.216C4.1622 33.384 3.9102 33.6267 3.72353 33.944C3.55553 34.2427 3.47153 34.5973 3.47153 35.008V35.036C4.25553 35.1107 4.88086 35.3907 5.34753 35.876C5.8142 36.3427 6.04753 36.968 6.04753 37.752C6.04753 38.6107 5.77687 39.292 5.23553 39.796C4.6942 40.2813 3.97553 40.524 3.07953 40.524C2.63153 40.524 2.22086 40.44 1.84753 40.272C1.49286 40.0853 1.18486 39.852 0.923531 39.572C0.662198 39.292 0.456865 38.9747 0.307531 38.62C0.176865 38.2467 0.111531 37.864 0.111531 37.472V37.22C0.111531 35.7267 0.419531 34.4667 1.03553 33.44C1.65153 32.4133 2.4542 31.7133 3.44353 31.34C3.6862 31.2467 3.92886 31.1813 4.17153 31.144C4.4142 31.088 4.64753 31.0787 4.87153 31.116C5.1142 31.1533 5.34753 31.2467 5.57153 31.396C5.79553 31.5453 5.88886 31.8067 5.85153 32.18C5.8142 32.628 5.55286 32.908 5.06753 33.02C4.9742 33.0573 4.88086 33.0853 4.78753 33.104C4.6942 33.1227 4.59153 33.16 4.47953 33.216ZM9.94063 56.008C9.60463 56.008 9.29663 55.9427 9.01663 55.812C8.75529 55.6813 8.53129 55.504 8.34463 55.28C8.17663 55.0747 8.04596 54.8413 7.95263 54.58C7.85929 54.3187 7.81263 54.048 7.81263 53.768C7.81263 53.2267 7.98063 52.732 8.31663 52.284C8.65263 51.836 9.19396 51.612 9.94063 51.612H10.5286V39.936C10.5286 39.096 10.7713 38.48 11.2566 38.088C11.742 37.6773 12.3953 37.472 13.2166 37.472C14.0193 37.472 14.6633 37.6773 15.1486 38.088C15.634 38.4987 15.8766 39.1147 15.8766 39.936V51.612H17.9486V39.936C17.9486 39.096 18.182 38.48 18.6486 38.088C19.134 37.6773 19.7873 37.472 20.6086 37.472C21.4113 37.472 22.0553 37.6773 22.5406 38.088C23.0446 38.4987 23.2966 39.1147 23.2966 39.936V51.612H24.0806C24.8273 51.612 25.3686 51.836 25.7046 52.284C26.0406 52.732 26.2086 53.2267 26.2086 53.768C26.2086 54.048 26.162 54.3187 26.0686 54.58C25.9753 54.8413 25.8353 55.0747 25.6486 55.28C25.4806 55.504 25.2566 55.6813 24.9766 55.812C24.7153 55.9427 24.4166 56.008 24.0806 56.008H9.94063ZM27.1326 33.552C27.1326 32.656 27.4126 31.984 27.9726 31.536C28.5326 31.0693 29.1766 30.836 29.9046 30.836C30.2593 30.836 30.6046 30.9013 30.9406 31.032C31.2766 31.144 31.566 31.312 31.8086 31.536C32.07 31.76 32.2753 32.04 32.4246 32.376C32.5926 32.712 32.6766 33.104 32.6766 33.552V40.636H33.6006C34.03 40.636 34.3846 40.7107 34.6646 40.86C34.9446 41.0093 35.1686 41.2053 35.3366 41.448C35.5046 41.672 35.626 41.9333 35.7006 42.232C35.7753 42.512 35.8126 42.792 35.8126 43.072C35.8126 43.352 35.7753 43.6413 35.7006 43.94C35.626 44.22 35.5046 44.4813 35.3366 44.724C35.1686 44.948 34.9353 45.1347 34.6366 45.284C34.3566 45.4333 34.0113 45.508 33.6006 45.508H32.6766V57.128H27.1326V33.552ZM10.2766 36.408C9.94063 36.408 9.63263 36.3427 9.35263 36.212C9.09129 36.0813 8.86729 35.9133 8.68063 35.708C8.49396 35.484 8.35396 35.2413 8.26063 34.98C8.16729 34.7 8.12063 34.42 8.12063 34.14C8.12063 33.86 8.15796 33.5893 8.23263 33.328C8.32596 33.048 8.45663 32.796 8.62463 32.572C8.81129 32.348 9.03529 32.1707 9.29663 32.04C9.57663 31.8907 9.90329 31.816 10.2766 31.816H23.3526C23.726 31.816 24.0433 31.8907 24.3046 32.04C24.5846 32.1707 24.8086 32.348 24.9766 32.572C25.1633 32.796 25.294 33.048 25.3686 33.328C25.462 33.5893 25.5086 33.86 25.5086 34.14C25.5086 34.42 25.462 34.7 25.3686 34.98C25.2753 35.2413 25.1353 35.484 24.9486 35.708C24.762 35.9133 24.5286 36.0813 24.2486 36.212C23.9873 36.3427 23.6886 36.408 23.3526 36.408H10.2766ZM55.8326 33.608C55.8326 32.6933 56.1126 32.0027 56.6726 31.536C57.2513 31.0693 57.914 30.836 58.6606 30.836C59.0153 30.836 59.3606 30.9013 59.6966 31.032C60.0513 31.144 60.3593 31.3213 60.6206 31.564C60.882 31.788 61.0873 32.0773 61.2366 32.432C61.4046 32.768 61.4886 33.16 61.4886 33.608V44.332H55.8326V33.608ZM36.6526 37.304C36.6526 36.184 36.8393 35.2413 37.2126 34.476C37.6046 33.692 38.146 33.0573 38.8366 32.572C39.546 32.068 40.386 31.704 41.3566 31.48C42.346 31.256 43.438 31.144 44.6326 31.144C45.8273 31.144 46.91 31.256 47.8806 31.48C48.87 31.704 49.71 32.068 50.4006 32.572C51.11 33.0573 51.6513 33.692 52.0246 34.476C52.4166 35.2413 52.6126 36.184 52.6126 37.304V38.06C52.6126 39.18 52.4166 40.132 52.0246 40.916C51.6513 41.6813 51.11 42.316 50.4006 42.82C49.71 43.3053 48.87 43.66 47.8806 43.884C46.91 44.108 45.8273 44.22 44.6326 44.22C43.438 44.22 42.346 44.108 41.3566 43.884C40.386 43.66 39.546 43.3053 38.8366 42.82C38.146 42.316 37.6046 41.6813 37.2126 40.916C36.8393 40.132 36.6526 39.18 36.6526 38.06V37.304ZM42.1686 38.256C42.1686 38.9653 42.3926 39.4787 42.8406 39.796C43.2886 40.1133 43.886 40.272 44.6326 40.272C45.3793 40.272 45.9766 40.1133 46.4246 39.796C46.8726 39.4787 47.0966 38.9653 47.0966 38.256V37.108C47.0966 36.4173 46.8726 35.9133 46.4246 35.596C45.9766 35.26 45.3793 35.092 44.6326 35.092C43.886 35.092 43.2886 35.26 42.8406 35.596C42.3926 35.9133 42.1686 36.4173 42.1686 37.108V38.256ZM41.7206 57.128C41.086 57.128 40.5166 57.0253 40.0126 56.82C39.5273 56.6147 39.1166 56.3347 38.7806 55.98C38.4446 55.6253 38.1833 55.224 37.9966 54.776C37.8286 54.3093 37.7446 53.824 37.7446 53.32V52.984C37.7446 51.976 38.0806 51.1733 38.7526 50.576C39.4433 49.9787 40.4326 49.68 41.7206 49.68H55.8046V48.952C55.8046 48.784 55.7766 48.672 55.7206 48.616C55.6646 48.5413 55.5433 48.504 55.3566 48.504H39.5926C39.0513 48.504 38.6593 48.336 38.4166 48C38.174 47.664 38.0526 47.2813 38.0526 46.852C38.0526 46.46 38.174 46.096 38.4166 45.76C38.6593 45.4053 39.0513 45.228 39.5926 45.228H58.0726C59.3233 45.228 60.2006 45.4427 60.7046 45.872C61.2273 46.3013 61.4886 47.0667 61.4886 48.168V52.648H44.2686C44.0633 52.648 43.9046 52.704 43.7926 52.816C43.6993 52.9093 43.6526 53.0307 43.6526 53.18V53.264C43.6526 53.4133 43.6993 53.544 43.7926 53.656C43.9046 53.7493 44.0633 53.796 44.2686 53.796H60.6206C61.1806 53.796 61.582 53.9733 61.8246 54.328C62.086 54.6827 62.2166 55.0747 62.2166 55.504C62.2166 55.896 62.0953 56.26 61.8526 56.596C61.61 56.9507 61.1993 57.128 60.6206 57.128H41.7206ZM72.5003 37.584C72.5003 36.4453 72.6869 35.4747 73.0603 34.672C73.4523 33.8693 73.9936 33.216 74.6843 32.712C75.3749 32.1893 76.1963 31.816 77.1483 31.592C78.1189 31.3493 79.1829 31.228 80.3403 31.228C82.3563 31.228 84.0363 31.6013 85.3803 32.348C86.7243 33.076 87.5643 34.2613 87.9003 35.904H91.7643V33.552C91.7643 32.656 92.0443 31.984 92.6043 31.536C93.1643 31.0693 93.8083 30.836 94.5363 30.836C94.8909 30.836 95.2363 30.9013 95.5723 31.032C95.9083 31.144 96.2069 31.312 96.4683 31.536C96.7296 31.76 96.9349 32.04 97.0843 32.376C97.2523 32.712 97.3363 33.104 97.3363 33.552V45.032H91.7643V40.272H87.8723C87.4989 41.8773 86.6403 43.0347 85.2963 43.744C83.9709 44.4533 82.3189 44.808 80.3403 44.808C79.1643 44.808 78.0909 44.696 77.1203 44.472C76.1496 44.2293 75.3189 43.856 74.6283 43.352C73.9563 42.8293 73.4336 42.1667 73.0603 41.364C72.6869 40.5613 72.5003 39.5907 72.5003 38.452V37.584ZM77.7643 57.128C76.9803 57.128 76.3269 57.0533 75.8043 56.904C75.3003 56.7547 74.8989 56.5213 74.6003 56.204C74.3016 55.8867 74.0869 55.4667 73.9563 54.944C73.8443 54.4213 73.7883 53.7867 73.7883 53.04V48.588C73.7883 47.636 74.0589 46.9547 74.6003 46.544C75.1603 46.1147 75.8323 45.9 76.6163 45.9C77.3256 45.9 77.9323 46.0773 78.4363 46.432C78.9589 46.7867 79.2669 47.356 79.3603 48.14H91.9043C91.9976 47.356 92.3056 46.7867 92.8283 46.432C93.3509 46.0773 93.9763 45.9 94.7043 45.9C95.4883 45.9 96.1416 46.1147 96.6643 46.544C97.2056 46.9547 97.4763 47.636 97.4763 48.588V57.128H77.7643ZM77.9603 38.732C77.9603 39.4413 78.1749 39.9733 78.6043 40.328C79.0523 40.664 79.6309 40.832 80.3403 40.832C81.0496 40.832 81.6189 40.664 82.0483 40.328C82.4963 39.9733 82.7203 39.4413 82.7203 38.732V37.304C82.7203 36.5947 82.4963 36.072 82.0483 35.736C81.6189 35.3813 81.0496 35.204 80.3403 35.204C79.6309 35.204 79.0523 35.3813 78.6043 35.736C78.1749 36.072 77.9603 36.5947 77.9603 37.304V38.732ZM91.8763 53.404V51.724H79.3883V52.704C79.3883 53.0213 79.4349 53.2173 79.5283 53.292C79.6216 53.3667 79.8269 53.404 80.1443 53.404H91.8763ZM110.132 52.032V48.084H106.464C104.598 48.084 103.198 47.6547 102.264 46.796C101.35 45.9187 100.892 44.724 100.892 43.212V42.68C100.892 41.168 101.35 39.9733 102.264 39.096C103.198 38.2187 104.598 37.78 106.464 37.78H118.756V36.94C118.756 36.7533 118.71 36.576 118.616 36.408C118.523 36.24 118.318 36.156 118 36.156H103.356C102.684 36.156 102.152 35.932 101.76 35.484C101.387 35.0173 101.2 34.4947 101.2 33.916C101.2 33.356 101.387 32.8427 101.76 32.376C102.152 31.9093 102.684 31.676 103.356 31.676H119.568C120.539 31.676 121.342 31.788 121.976 32.012C122.611 32.2173 123.115 32.516 123.488 32.908C123.862 33.2813 124.123 33.7387 124.272 34.28C124.44 34.8213 124.524 35.428 124.524 36.1V42.036H107.836C107.202 42.036 106.884 42.2973 106.884 42.82V42.96C106.884 43.4827 107.202 43.744 107.836 43.744H123.012C123.404 43.744 123.731 43.8093 123.992 43.94C124.272 44.0707 124.496 44.2387 124.664 44.444C124.851 44.6493 124.982 44.8827 125.056 45.144C125.131 45.4053 125.168 45.6667 125.168 45.928C125.168 46.4693 125 46.964 124.664 47.412C124.328 47.86 123.778 48.084 123.012 48.084H115.844V52.032H123.74C124.17 52.032 124.534 52.0973 124.832 52.228C125.131 52.3587 125.374 52.536 125.56 52.76C125.747 52.9653 125.878 53.208 125.952 53.488C126.046 53.7493 126.092 54.02 126.092 54.3C126.092 54.8787 125.906 55.4013 125.532 55.868C125.178 56.3347 124.58 56.568 123.74 56.568H102.236C101.396 56.568 100.79 56.3347 100.416 55.868C100.062 55.4013 99.8843 54.8787 99.8843 54.3C99.8843 54.02 99.9216 53.7493 99.9963 53.488C100.09 53.208 100.23 52.9653 100.416 52.76C100.603 52.536 100.846 52.3587 101.144 52.228C101.443 52.0973 101.807 52.032 102.236 52.032H110.132ZM150.032 31.732C150.424 31.732 150.76 31.8067 151.04 31.956C151.32 32.1053 151.544 32.292 151.712 32.516C151.88 32.74 152.002 32.992 152.076 33.272C152.151 33.552 152.188 33.8227 152.188 34.084C152.188 34.3453 152.151 34.616 152.076 34.896C152.002 35.176 151.871 35.428 151.684 35.652C151.516 35.876 151.292 36.0627 151.012 36.212C150.751 36.3427 150.424 36.408 150.032 36.408H135.864C135.566 36.408 135.36 36.464 135.248 36.576C135.136 36.6693 135.08 36.8653 135.08 37.164V41.476C135.08 41.7747 135.136 41.98 135.248 42.092C135.36 42.204 135.566 42.26 135.864 42.26H150.48C150.872 42.26 151.208 42.3347 151.488 42.484C151.768 42.6333 151.992 42.82 152.16 43.044C152.328 43.268 152.45 43.52 152.524 43.8C152.618 44.0613 152.664 44.3227 152.664 44.584C152.664 44.8453 152.618 45.116 152.524 45.396C152.45 45.676 152.319 45.928 152.132 46.152C151.964 46.376 151.74 46.5627 151.46 46.712C151.199 46.8613 150.872 46.936 150.48 46.936H133.876C133.036 46.936 132.327 46.8613 131.748 46.712C131.17 46.544 130.703 46.2827 130.348 45.928C130.012 45.5733 129.76 45.116 129.592 44.556C129.443 43.996 129.368 43.3053 129.368 42.484V36.156C129.368 35.3533 129.443 34.672 129.592 34.112C129.76 33.552 130.012 33.0947 130.348 32.74C130.703 32.3853 131.17 32.1333 131.748 31.984C132.327 31.816 133.036 31.732 133.876 31.732H150.032ZM151.684 51.836C152.114 51.836 152.478 51.9107 152.776 52.06C153.094 52.1907 153.346 52.368 153.532 52.592C153.738 52.816 153.878 53.0773 153.952 53.376C154.046 53.656 154.092 53.936 154.092 54.216C154.092 54.5147 154.046 54.804 153.952 55.084C153.859 55.364 153.71 55.616 153.504 55.84C153.318 56.064 153.075 56.2413 152.776 56.372C152.478 56.5027 152.114 56.568 151.684 56.568H130.292C129.863 56.568 129.499 56.5027 129.2 56.372C128.902 56.2413 128.65 56.064 128.444 55.84C128.258 55.616 128.118 55.364 128.024 55.084C127.931 54.804 127.884 54.5147 127.884 54.216C127.884 53.936 127.922 53.656 127.996 53.376C128.09 53.0773 128.23 52.816 128.416 52.592C128.622 52.368 128.874 52.1907 129.172 52.06C129.49 51.9107 129.863 51.836 130.292 51.836H151.684ZM157.648 38.368C157.966 38.2 158.208 37.9667 158.376 37.668C158.563 37.3507 158.656 36.9867 158.656 36.576C157.872 36.5013 157.247 36.2307 156.78 35.764C156.314 35.2787 156.08 34.6347 156.08 33.832C156.08 32.9733 156.351 32.3013 156.892 31.816C157.434 31.312 158.152 31.06 159.048 31.06C159.496 31.06 159.898 31.1533 160.252 31.34C160.626 31.508 160.943 31.732 161.204 32.012C161.466 32.292 161.662 32.6187 161.792 32.992C161.942 33.3467 162.016 33.72 162.016 34.112V34.364C162.016 35.8573 161.708 37.1173 161.092 38.144C160.476 39.1707 159.674 39.8707 158.684 40.244C158.442 40.3373 158.199 40.412 157.956 40.468C157.714 40.5053 157.48 40.5053 157.256 40.468C157.014 40.4307 156.78 40.3373 156.556 40.188C156.332 40.0387 156.239 39.7773 156.276 39.404C156.314 38.956 156.575 38.676 157.06 38.564C157.154 38.5267 157.247 38.4987 157.34 38.48C157.434 38.4613 157.536 38.424 157.648 38.368ZM176.725 55.924C175.904 55.924 175.232 55.8493 174.709 55.7C174.186 55.5507 173.776 55.308 173.477 54.972C173.178 54.636 172.964 54.2067 172.833 53.684C172.721 53.1427 172.665 52.4893 172.665 51.724V34.532C172.665 33.5427 172.926 32.8333 173.449 32.404C173.972 31.9747 174.644 31.76 175.465 31.76C176.268 31.76 176.912 31.984 177.397 32.432C177.901 32.8613 178.153 33.5613 178.153 34.532V38.816H182.913V34.532C182.913 33.5427 183.165 32.8333 183.669 32.404C184.173 31.9747 184.826 31.76 185.629 31.76C186.45 31.76 187.104 31.984 187.589 32.432C188.093 32.8613 188.345 33.5613 188.345 34.532V40.804H191.733V33.552C191.733 32.656 192.013 31.984 192.573 31.536C193.133 31.0693 193.777 30.836 194.505 30.836C194.86 30.836 195.205 30.9013 195.541 31.032C195.877 31.144 196.176 31.312 196.437 31.536C196.698 31.76 196.904 32.04 197.053 32.376C197.221 32.712 197.305 33.104 197.305 33.552V57.128H191.733V45.592H188.345V55.924H176.725ZM182.913 51.304V43.38H178.153V50.576C178.153 50.8933 178.2 51.0987 178.293 51.192C178.405 51.2667 178.62 51.304 178.937 51.304H182.913ZM205.257 57.128C204.473 57.128 203.82 57.0533 203.297 56.904C202.774 56.7733 202.364 56.5493 202.065 56.232C201.766 55.9147 201.552 55.504 201.421 55C201.309 54.4773 201.253 53.8333 201.253 53.068V51.584C201.253 50.632 201.542 49.9693 202.121 49.596C202.7 49.204 203.381 49.008 204.165 49.008C204.949 49.008 205.612 49.204 206.153 49.596C206.713 49.988 206.993 50.6507 206.993 51.584V52.34C206.993 52.5827 207.03 52.7413 207.105 52.816C207.18 52.872 207.348 52.9 207.609 52.9H222.841C223.7 52.9 224.306 53.1147 224.661 53.544C225.016 53.9547 225.193 54.44 225.193 55C225.193 55.5787 225.006 56.0733 224.633 56.484C224.278 56.9133 223.681 57.128 222.841 57.128H205.257ZM223.877 44.052C224.269 44.052 224.605 44.1173 224.885 44.248C225.165 44.36 225.389 44.5187 225.557 44.724C225.744 44.9293 225.874 45.1627 225.949 45.424C226.024 45.6667 226.061 45.9187 226.061 46.18C226.061 46.7213 225.893 47.216 225.557 47.664C225.221 48.0933 224.661 48.308 223.877 48.308H202.037C201.253 48.308 200.693 48.0933 200.357 47.664C200.021 47.216 199.853 46.7213 199.853 46.18C199.853 45.9187 199.89 45.6667 199.965 45.424C200.04 45.1627 200.161 44.9293 200.329 44.724C200.516 44.5187 200.749 44.36 201.029 44.248C201.309 44.1173 201.645 44.052 202.037 44.052H223.877ZM223.233 31.144C223.812 31.144 224.222 31.3307 224.465 31.704C224.726 32.0587 224.857 32.4227 224.857 32.796C224.857 33.2067 224.726 33.5893 224.465 33.944C224.204 34.2987 223.793 34.476 223.233 34.476H207.161C206.788 34.476 206.601 34.6347 206.601 34.952V35.54H223.093C223.69 35.54 224.101 35.6987 224.325 36.016C224.568 36.3333 224.689 36.6787 224.689 37.052C224.689 37.444 224.568 37.7987 224.325 38.116C224.101 38.4333 223.69 38.592 223.093 38.592H206.601V39.152C206.601 39.3573 206.638 39.4973 206.713 39.572C206.806 39.628 206.956 39.656 207.161 39.656H223.597C224.157 39.656 224.558 39.8333 224.801 40.188C225.044 40.5427 225.165 40.8973 225.165 41.252C225.165 41.6813 225.034 42.0733 224.773 42.428C224.53 42.764 224.138 42.932 223.597 42.932H204.305C203.092 42.932 202.242 42.68 201.757 42.176C201.272 41.672 201.029 40.86 201.029 39.74V34.364C201.029 33.2253 201.272 32.404 201.757 31.9C202.242 31.396 203.092 31.144 204.305 31.144H223.233ZM253.165 35.624C253.165 36.2587 253.062 36.856 252.857 37.416C252.652 37.9573 252.334 38.4333 251.905 38.844C251.494 39.236 250.972 39.5533 250.337 39.796C249.702 40.02 248.946 40.132 248.069 40.132H233.845C232.968 40.132 232.212 40.02 231.577 39.796C230.942 39.5533 230.41 39.236 229.981 38.844C229.57 38.4333 229.262 37.9573 229.057 37.416C228.852 36.856 228.749 36.2587 228.749 35.624C228.749 34.9893 228.852 34.4013 229.057 33.86C229.262 33.3187 229.57 32.8427 229.981 32.432C230.41 32.0213 230.942 31.704 231.577 31.48C232.212 31.2373 232.968 31.116 233.845 31.116H248.069C248.946 31.116 249.702 31.2373 250.337 31.48C250.972 31.704 251.494 32.0213 251.905 32.432C252.334 32.8427 252.652 33.3187 252.857 33.86C253.062 34.4013 253.165 34.9893 253.165 35.624ZM247.425 35.624C247.425 35.3627 247.341 35.1573 247.173 35.008C247.024 34.84 246.734 34.756 246.305 34.756H235.609C235.18 34.756 234.881 34.84 234.713 35.008C234.564 35.1573 234.489 35.3627 234.489 35.624C234.489 35.8853 234.564 36.1 234.713 36.268C234.881 36.4173 235.18 36.492 235.609 36.492H246.305C246.734 36.492 247.024 36.4173 247.173 36.268C247.341 36.1 247.425 35.8853 247.425 35.624ZM232.165 57.128C231.568 57.128 231.045 57.0253 230.597 56.82C230.149 56.6333 229.776 56.372 229.477 56.036C229.197 55.7187 228.982 55.3453 228.833 54.916C228.702 54.4867 228.637 54.0293 228.637 53.544V53.46C228.637 52.4707 228.917 51.668 229.477 51.052C230.037 50.436 230.933 50.128 232.165 50.128H247.145V49.596C247.145 49.2973 246.949 49.148 246.557 49.148H230.513C229.99 49.148 229.589 48.9893 229.309 48.672C229.048 48.336 228.917 47.9813 228.917 47.608C228.917 47.2347 229.038 46.88 229.281 46.544C229.542 46.208 229.953 46.04 230.513 46.04H249.777C250.972 46.04 251.793 46.264 252.241 46.712C252.689 47.1413 252.913 47.7853 252.913 48.644V53.012H235.189C234.984 53.012 234.844 53.0587 234.769 53.152C234.694 53.2267 234.657 53.3387 234.657 53.488C234.657 53.6373 234.694 53.7587 234.769 53.852C234.844 53.9453 234.984 53.992 235.189 53.992H252.185C252.726 53.992 253.109 54.16 253.333 54.496C253.576 54.8133 253.697 55.168 253.697 55.56C253.697 55.896 253.585 56.2413 253.361 56.596C253.137 56.9507 252.745 57.128 252.185 57.128H232.165ZM252.045 41.14C252.792 41.14 253.314 41.336 253.613 41.728C253.912 42.12 254.061 42.5587 254.061 43.044C254.061 43.548 253.902 43.996 253.585 44.388C253.286 44.7613 252.773 44.948 252.045 44.948H229.869C229.141 44.948 228.618 44.7613 228.301 44.388C228.002 43.996 227.853 43.548 227.853 43.044C227.853 42.5587 228.002 42.12 228.301 41.728C228.6 41.336 229.122 41.14 229.869 41.14H252.045ZM263.813 51.5C264.839 50.8093 265.689 50.0067 266.361 49.092C267.033 48.1587 267.574 47.0853 267.985 45.872C268.395 44.6587 268.685 43.2867 268.853 41.756C269.021 40.2253 269.105 38.4987 269.105 36.576V34.392C269.105 33.496 269.385 32.824 269.945 32.376C270.505 31.9093 271.149 31.676 271.877 31.676C272.231 31.676 272.577 31.7413 272.913 31.872C273.249 31.984 273.538 32.1613 273.781 32.404C274.042 32.628 274.247 32.908 274.397 33.244C274.565 33.58 274.649 33.9627 274.649 34.392V36.548C274.649 37.388 274.63 38.2 274.593 38.984C274.555 39.7493 274.499 40.496 274.425 41.224C275.601 41.6907 276.627 42.3067 277.505 43.072C278.382 43.8187 279.091 44.7707 279.633 45.928C280.193 47.0667 280.575 48.4293 280.781 50.016C281.005 51.584 281.042 53.4227 280.893 55.532H275.461C275.778 53.2733 275.759 51.4067 275.405 49.932C275.069 48.4387 274.425 47.2907 273.473 46.488C272.259 50.7067 270.187 53.6093 267.257 55.196C266.902 55.3827 266.538 55.5133 266.165 55.588C265.791 55.6813 265.427 55.7093 265.073 55.672C264.718 55.6533 264.391 55.5693 264.093 55.42C263.813 55.2893 263.579 55.1027 263.393 54.86C263.206 54.636 263.057 54.384 262.945 54.104C262.851 53.8053 262.814 53.5067 262.833 53.208C262.851 52.8907 262.935 52.5827 263.085 52.284C263.253 51.9853 263.495 51.724 263.813 51.5ZM282.797 33.552C282.797 32.656 283.077 31.984 283.637 31.536C284.197 31.0693 284.841 30.836 285.569 30.836C285.923 30.836 286.269 30.9013 286.605 31.032C286.941 31.144 287.23 31.312 287.473 31.536C287.734 31.76 287.939 32.04 288.089 32.376C288.257 32.712 288.341 33.104 288.341 33.552V40.636H289.265C289.694 40.636 290.049 40.7107 290.329 40.86C290.609 41.0093 290.833 41.2053 291.001 41.448C291.169 41.672 291.29 41.9333 291.365 42.232C291.439 42.512 291.477 42.792 291.477 43.072C291.477 43.352 291.439 43.6413 291.365 43.94C291.29 44.22 291.169 44.4813 291.001 44.724C290.833 44.948 290.599 45.1347 290.301 45.284C290.021 45.4333 289.675 45.508 289.265 45.508H288.341V57.128H282.797V33.552ZM296.853 42.372V40.496C295.415 40.328 294.333 39.824 293.605 38.984C292.895 38.1253 292.541 37.0987 292.541 35.904V35.848C292.541 35.176 292.653 34.56 292.877 34C293.101 33.4213 293.437 32.9267 293.885 32.516C294.333 32.0867 294.893 31.76 295.565 31.536C296.237 31.2933 297.011 31.172 297.889 31.172H311.721C312.598 31.172 313.373 31.2933 314.045 31.536C314.717 31.76 315.277 32.0867 315.725 32.516C316.173 32.9267 316.509 33.4213 316.733 34C316.957 34.56 317.069 35.176 317.069 35.848V35.904C317.069 37.0987 316.705 38.1253 315.977 38.984C315.267 39.824 314.194 40.328 312.757 40.496V42.372H315.725C316.527 42.372 317.087 42.5867 317.405 43.016C317.741 43.4453 317.909 43.9213 317.909 44.444C317.909 44.9853 317.741 45.4613 317.405 45.872C317.069 46.2827 316.509 46.488 315.725 46.488H293.885C293.101 46.488 292.541 46.2827 292.205 45.872C291.869 45.4613 291.701 44.9853 291.701 44.444C291.701 43.9213 291.859 43.4453 292.177 43.016C292.513 42.5867 293.082 42.372 293.885 42.372H296.853ZM311.749 47.748C312.626 47.748 313.391 47.8693 314.045 48.112C314.698 48.3547 315.239 48.6907 315.669 49.12C316.117 49.5307 316.443 50.0253 316.649 50.604C316.873 51.1827 316.985 51.808 316.985 52.48C316.985 53.152 316.873 53.7773 316.649 54.356C316.443 54.9347 316.117 55.4293 315.669 55.84C315.239 56.2693 314.698 56.6053 314.045 56.848C313.391 57.0907 312.626 57.212 311.749 57.212H297.861C296.983 57.212 296.209 57.0907 295.537 56.848C294.883 56.6053 294.342 56.2693 293.913 55.84C293.483 55.4293 293.157 54.9347 292.933 54.356C292.727 53.7773 292.625 53.152 292.625 52.48C292.625 51.808 292.727 51.1827 292.933 50.604C293.157 50.0253 293.483 49.5307 293.913 49.12C294.342 48.6907 294.883 48.3547 295.537 48.112C296.209 47.8693 296.983 47.748 297.861 47.748H311.749ZM310.013 53.432C310.554 53.432 310.899 53.3293 311.049 53.124C311.198 52.9 311.273 52.6853 311.273 52.48C311.273 52.2747 311.198 52.0693 311.049 51.864C310.899 51.64 310.554 51.528 310.013 51.528H299.597C299.055 51.528 298.71 51.64 298.561 51.864C298.411 52.0693 298.337 52.2747 298.337 52.48C298.337 52.6853 298.411 52.9 298.561 53.124C298.71 53.3293 299.055 53.432 299.597 53.432H310.013ZM298.197 35.932C298.197 36.1747 298.281 36.3707 298.449 36.52C298.617 36.6693 298.953 36.744 299.457 36.744H310.153C310.657 36.744 310.993 36.6693 311.161 36.52C311.329 36.3707 311.413 36.1747 311.413 35.932V35.82C311.413 35.6147 311.329 35.4373 311.161 35.288C310.993 35.12 310.657 35.036 310.153 35.036H299.457C298.953 35.036 298.617 35.12 298.449 35.288C298.281 35.4373 298.197 35.6147 298.197 35.82V35.932ZM302.201 42.372H307.409V40.552H302.201V42.372ZM328.185 30.752C329.081 30.752 329.781 31.004 330.285 31.508C330.807 31.9933 331.069 32.684 331.069 33.58V33.832H334.989C335.679 33.832 336.202 34.0467 336.557 34.476C336.911 34.9053 337.089 35.4187 337.089 36.016C337.089 36.6133 336.902 37.1267 336.529 37.556C336.174 37.9853 335.661 38.2 334.989 38.2H334.933C335.082 38.5733 335.203 38.9653 335.297 39.376C335.39 39.768 335.437 40.2067 335.437 40.692V49.4C335.437 50.632 335.25 51.7053 334.877 52.62C334.503 53.516 333.99 54.2627 333.337 54.86C332.702 55.4387 331.937 55.868 331.041 56.148C330.163 56.4467 329.211 56.596 328.185 56.596C327.158 56.596 326.206 56.4467 325.329 56.148C324.451 55.868 323.686 55.4387 323.033 54.86C322.398 54.2627 321.894 53.516 321.521 52.62C321.147 51.7053 320.961 50.632 320.961 49.4V40.692C320.961 39.7773 321.119 38.9467 321.437 38.2C320.765 38.2 320.242 37.9853 319.869 37.556C319.514 37.1267 319.337 36.6133 319.337 36.016C319.337 35.4187 319.505 34.9053 319.841 34.476C320.195 34.0467 320.718 33.832 321.409 33.832H325.301V33.58C325.301 32.684 325.553 31.9933 326.057 31.508C326.579 31.004 327.289 30.752 328.185 30.752ZM338.797 33.552C338.797 32.656 339.077 31.984 339.637 31.536C340.197 31.0693 340.841 30.836 341.569 30.836C341.923 30.836 342.269 30.9013 342.605 31.032C342.941 31.144 343.23 31.312 343.473 31.536C343.734 31.76 343.939 32.04 344.089 32.376C344.257 32.712 344.341 33.104 344.341 33.552V40.636H345.265C345.694 40.636 346.049 40.7107 346.329 40.86C346.609 41.0093 346.833 41.2053 347.001 41.448C347.169 41.672 347.29 41.9333 347.365 42.232C347.439 42.512 347.477 42.792 347.477 43.072C347.477 43.352 347.439 43.6413 347.365 43.94C347.29 44.22 347.169 44.4813 347.001 44.724C346.833 44.948 346.599 45.1347 346.301 45.284C346.021 45.4333 345.675 45.508 345.265 45.508H344.341V57.128H338.797V33.552ZM328.185 52.06C328.726 52.06 329.202 51.8547 329.613 51.444C330.023 51.0147 330.229 50.352 330.229 49.456V40.468C330.229 39.5533 330.023 38.9093 329.613 38.536C329.221 38.1627 328.745 37.976 328.185 37.976C327.643 37.976 327.167 38.1627 326.757 38.536C326.365 38.9093 326.169 39.5533 326.169 40.468V49.456C326.169 50.352 326.365 51.0147 326.757 51.444C327.167 51.8547 327.643 52.06 328.185 52.06ZM347.869 51.472C348.597 50.8187 349.194 50.0907 349.661 49.288C350.146 48.4667 350.529 47.5053 350.809 46.404C351.089 45.284 351.285 43.9773 351.397 42.484C351.509 40.972 351.565 39.1893 351.565 37.136V34.308C351.565 33.412 351.817 32.7493 352.321 32.32C352.825 31.8907 353.441 31.676 354.169 31.676C354.878 31.676 355.494 31.9 356.017 32.348C356.539 32.796 356.801 33.4493 356.801 34.308V37.108C356.801 39.348 356.689 41.392 356.465 43.24C357.323 43.6507 358.079 44.1827 358.733 44.836C359.405 45.4707 359.955 46.2827 360.385 47.272C360.814 48.2427 361.113 49.4093 361.281 50.772C361.449 52.116 361.477 53.7027 361.365 55.532H356.269C356.493 53.8707 356.521 52.48 356.353 51.36C356.203 50.24 355.877 49.3347 355.373 48.644C354.887 50.2867 354.29 51.6493 353.581 52.732C352.871 53.8147 352.087 54.6547 351.229 55.252C350.967 55.4387 350.659 55.588 350.305 55.7C349.969 55.812 349.623 55.868 349.269 55.868C348.914 55.8867 348.569 55.8307 348.233 55.7C347.897 55.588 347.607 55.3827 347.365 55.084C347.141 54.8227 346.991 54.5333 346.917 54.216C346.842 53.8987 346.823 53.5813 346.861 53.264C346.917 52.928 347.029 52.6107 347.197 52.312C347.365 51.9947 347.589 51.7147 347.869 51.472ZM362.485 43.492H360.189C359.759 43.492 359.395 43.4267 359.097 43.296C358.817 43.1467 358.574 42.96 358.369 42.736C358.182 42.4933 358.042 42.232 357.949 41.952C357.874 41.6533 357.837 41.364 357.837 41.084C357.837 40.804 357.874 40.524 357.949 40.244C358.042 39.9453 358.182 39.684 358.369 39.46C358.555 39.236 358.798 39.0493 359.097 38.9C359.395 38.7507 359.759 38.676 360.189 38.676H362.485V33.216C362.485 32.432 362.718 31.844 363.185 31.452C363.651 31.0413 364.211 30.836 364.865 30.836C365.499 30.836 366.059 31.0413 366.545 31.452C367.049 31.844 367.301 32.432 367.301 33.216V57.128H362.485V43.492ZM368.617 33.216C368.617 32.432 368.869 31.844 369.373 31.452C369.877 31.0413 370.455 30.836 371.109 30.836C371.426 30.836 371.734 30.892 372.033 31.004C372.331 31.0973 372.593 31.2467 372.817 31.452C373.059 31.6573 373.246 31.9093 373.377 32.208C373.526 32.488 373.601 32.824 373.601 33.216V57.128H368.617V33.216ZM376.485 38.732C376.485 37.78 376.643 36.8653 376.961 35.988C377.278 35.1107 377.745 34.3453 378.361 33.692C378.977 33.0387 379.733 32.516 380.629 32.124C381.543 31.732 382.589 31.536 383.765 31.536H393.845C395.021 31.536 396.057 31.732 396.953 32.124C397.867 32.516 398.633 33.0387 399.249 33.692C399.865 34.3453 400.331 35.1107 400.649 35.988C400.966 36.8653 401.125 37.78 401.125 38.732V39.068C401.125 40.02 400.966 40.9347 400.649 41.812C400.331 42.6707 399.865 43.436 399.249 44.108C398.633 44.7613 397.867 45.284 396.953 45.676C396.057 46.0493 395.021 46.236 393.845 46.236H383.765C382.589 46.236 381.543 46.0493 380.629 45.676C379.733 45.284 378.977 44.7613 378.361 44.108C377.745 43.436 377.278 42.6707 376.961 41.812C376.643 40.9347 376.485 40.02 376.485 39.068V38.732ZM380.769 52.088V49.54C380.769 49.092 380.843 48.7187 380.993 48.42C381.142 48.1027 381.338 47.8507 381.581 47.664C381.842 47.4773 382.141 47.3467 382.477 47.272C382.813 47.1973 383.167 47.16 383.541 47.16C383.895 47.16 384.241 47.2067 384.577 47.3C384.913 47.3747 385.211 47.5053 385.473 47.692C385.734 47.86 385.939 48.1027 386.089 48.42C386.238 48.7187 386.313 49.092 386.313 49.54V52.088H391.297V49.54C391.297 49.092 391.371 48.7187 391.521 48.42C391.67 48.1027 391.866 47.8507 392.109 47.664C392.37 47.4773 392.669 47.3467 393.005 47.272C393.341 47.1973 393.695 47.16 394.069 47.16C394.423 47.16 394.769 47.2067 395.105 47.3C395.441 47.3747 395.739 47.5053 396.001 47.692C396.262 47.86 396.467 48.1027 396.617 48.42C396.766 48.7187 396.841 49.092 396.841 49.54V52.088H399.557C400.415 52.088 401.022 52.3213 401.377 52.788C401.731 53.2547 401.909 53.768 401.909 54.328C401.909 54.9067 401.722 55.42 401.349 55.868C400.994 56.3347 400.397 56.568 399.557 56.568H378.053C377.213 56.568 376.606 56.3347 376.233 55.868C375.878 55.42 375.701 54.9067 375.701 54.328C375.701 53.768 375.878 53.2547 376.233 52.788C376.587 52.3213 377.194 52.088 378.053 52.088H380.769ZM395.301 38.676C395.301 37.9293 395.03 37.3133 394.489 36.828C393.966 36.3427 393.238 36.1 392.305 36.1H385.305C384.371 36.1 383.634 36.3427 383.093 36.828C382.57 37.3133 382.309 37.9293 382.309 38.676V39.124C382.309 39.8707 382.57 40.4867 383.093 40.972C383.634 41.4573 384.371 41.7 385.305 41.7H392.305C393.238 41.7 393.966 41.4573 394.489 40.972C395.03 40.4867 395.301 39.8707 395.301 39.124V38.676ZM403.897 52.76C403.897 51.8827 404.158 51.192 404.681 50.688C405.203 50.184 405.941 49.932 406.893 49.932C407.845 49.932 408.582 50.1933 409.105 50.716C409.627 51.22 409.889 51.9013 409.889 52.76C409.889 53.6187 409.627 54.3093 409.105 54.832C408.582 55.336 407.845 55.588 406.893 55.588C405.941 55.588 405.203 55.336 404.681 54.832C404.158 54.328 403.897 53.6373 403.897 52.76Z" fill="#999999"/>
</svg>
