<svg width="77" height="148" viewBox="0 0 77 148" fill="none" xmlns="http://www.w3.org/2000/svg">
<path fill-rule="evenodd" clip-rule="evenodd" d="M8.9096 71.0434C9.39732 71.1684 9.69137 71.6651 9.56638 72.1528L7.24172 81.2235C7.11673 81.7113 6.62003 82.0053 6.13231 81.8803C5.64459 81.7553 5.35054 81.2586 5.47554 80.7709L7.80019 71.7002C7.92519 71.2125 8.42189 70.9184 8.9096 71.0434Z" fill="#4BB9F7"/>
<path fill-rule="evenodd" clip-rule="evenodd" d="M38.3332 76.8097C38.8458 77.2749 38.8843 78.0676 38.419 78.5803L23.8785 94.6022C23.5735 94.9383 23.1106 95.0833 22.6683 94.9811L8.65197 91.7449C7.97743 91.5891 7.55687 90.916 7.71262 90.2415C7.86836 89.567 8.54144 89.1464 9.21598 89.3021L22.5161 92.373L36.5626 76.8955C37.0278 76.3828 37.8206 76.3444 38.3332 76.8097Z" fill="#666666"/>
<path fill-rule="evenodd" clip-rule="evenodd" d="M48.4466 77.621C48.8892 77.0887 49.6795 77.016 50.2118 77.4587L69.4245 93.435C69.7031 93.6667 69.8679 94.0078 69.8762 94.3701C69.8845 94.7325 69.7355 95.0807 69.4677 95.3249L57.7988 105.968C57.2874 106.435 56.4945 106.398 56.028 105.887C55.5615 105.375 55.5979 104.582 56.1094 104.116L66.715 94.4425L48.6089 79.3863C48.0766 78.9436 48.004 78.1533 48.4466 77.621Z" fill="#666666"/>
<path fill-rule="evenodd" clip-rule="evenodd" d="M51.9857 115.366C52.678 115.366 53.2392 115.927 53.2392 116.62V143.057C53.2392 143.749 52.678 144.31 51.9857 144.31C51.2934 144.31 50.7322 143.749 50.7322 143.057V116.62C50.7322 115.927 51.2934 115.366 51.9857 115.366Z" fill="#666666"/>
<path d="M49.8662 138.636V140.641H47.7922C47.1769 140.163 46.3792 139.889 45.5131 139.958C43.8494 140.072 42.5276 141.462 42.4592 143.126C42.3908 145.017 43.895 146.567 45.7638 146.567H49.6383C49.7066 146.567 49.775 146.567 49.8662 146.544V146.567H53.3076V138.636H49.8662Z" fill="#EFEFEF"/>
<path fill-rule="evenodd" clip-rule="evenodd" d="M48.7266 138.636C48.7266 138.006 49.2368 137.496 49.8662 137.496H53.3076C53.9369 137.496 54.4471 138.006 54.4471 138.636V146.567C54.4471 147.196 53.9369 147.706 53.3076 147.706H49.8662C49.8381 147.706 49.8103 147.705 49.7827 147.703C49.725 147.706 49.6788 147.706 49.6471 147.706C49.644 147.706 49.6411 147.706 49.6383 147.706H45.7638C43.2483 147.706 41.2287 145.62 41.3204 143.084L41.3206 143.079C41.4122 140.85 43.175 138.979 45.4293 138.821C46.4392 138.743 47.3812 139.01 48.1515 139.502H48.7266V138.636ZM51.0057 139.775V140.641C51.0057 141.271 50.4955 141.781 49.8662 141.781H47.7922C47.5388 141.781 47.2926 141.696 47.0926 141.541C46.688 141.226 46.1687 141.049 45.6028 141.093L45.591 141.094C44.5217 141.168 43.6443 142.074 43.5979 143.169C43.5544 144.416 44.5426 145.427 45.7638 145.427H49.6383C49.6387 145.427 49.639 145.427 49.6394 145.427C49.7906 145.397 49.9448 145.397 50.0929 145.427H52.168V139.775H51.0057Z" fill="#666666"/>
<path fill-rule="evenodd" clip-rule="evenodd" d="M35.622 115.366C36.3142 115.366 36.8755 115.927 36.8755 116.62V143.057C36.8755 143.749 36.3142 144.31 35.622 144.31C34.9297 144.31 34.3685 143.749 34.3685 143.057V116.62C34.3685 115.927 34.9297 115.366 35.622 115.366Z" fill="#666666"/>
<path d="M42.8694 123.866C31.9755 123.866 20.4205 120.676 20.4205 114.796C20.4205 103.378 38.3341 76.9175 42.6415 70.7412C46.949 76.8947 64.8397 103.059 64.8397 114.796C64.8397 118.169 61.3072 120.266 58.3671 121.405C54.3104 123 48.8178 123.866 42.8694 123.866Z" fill="#EFEFEF"/>
<path d="M42.6415 72.7244C44.8294 75.8695 48.6127 81.4988 52.3732 87.7891C61.7402 103.492 63.7002 111.15 63.7002 114.796C63.7002 116.3 62.6974 118.488 57.9341 120.357C54.0825 121.861 48.5899 122.727 42.8694 122.727C37.0806 122.727 31.474 121.838 27.4856 120.311C25.2749 119.468 21.5601 117.599 21.5601 114.796C21.5601 111.264 23.5201 103.72 32.9098 87.9258C36.6703 81.59 40.4536 75.9151 42.6415 72.7244ZM42.6415 68.7588C42.6415 68.7588 19.281 101.372 19.281 114.796C19.281 121.565 31.1094 125.006 42.8694 125.006C54.4699 125.006 65.9792 121.656 65.9792 114.796C65.9792 100.985 42.6415 68.7588 42.6415 68.7588Z" fill="#666666"/>
<path d="M41.2513 73.5908C41.2513 73.5908 22.3122 102.376 22.3122 112.745C22.3122 123.115 60.7602 123.434 60.7602 112.745C60.7602 102.056 41.2513 73.5908 41.2513 73.5908Z" fill="white"/>
<path d="M50.0713 96.6319C48.8862 96.6319 47.9062 95.6747 47.9062 94.4668V90.8887H52.2136V94.4668C52.2364 95.6747 51.2792 96.6319 50.0713 96.6319Z" fill="white"/>
<path fill-rule="evenodd" clip-rule="evenodd" d="M47.1085 90.8885C47.1085 90.448 47.4657 90.0908 47.9062 90.0908H52.2137C52.6542 90.0908 53.0113 90.448 53.0113 90.8885V94.4597C53.0383 96.1189 51.7142 97.4294 50.0713 97.4294C48.4511 97.4294 47.1085 96.1206 47.1085 94.4666V90.8885ZM48.7039 91.6862V94.4666C48.7039 95.2286 49.3213 95.8341 50.0713 95.8341C50.8416 95.8341 51.4303 95.2345 51.4161 94.4817C51.416 94.4767 51.416 94.4717 51.416 94.4666V91.6862H48.7039Z" fill="#666666"/>
<path fill-rule="evenodd" clip-rule="evenodd" d="M47.3364 92.2329C47.3364 91.7294 47.7446 91.3213 48.2481 91.3213H52.0313C52.5348 91.3213 52.943 91.7294 52.943 92.2329C52.943 92.7364 52.5348 93.1445 52.0313 93.1445H48.2481C47.7446 93.1445 47.3364 92.7364 47.3364 92.2329Z" fill="#666666"/>
<path fill-rule="evenodd" clip-rule="evenodd" d="M46.4324 140.606C46.5652 140.321 46.9041 140.197 47.1894 140.33L46.949 140.846C47.1894 140.33 47.1897 140.33 47.1899 140.33L47.1904 140.33L47.1915 140.331L47.194 140.332L47.2006 140.335C47.2056 140.337 47.2118 140.341 47.2193 140.344C47.2342 140.352 47.2538 140.362 47.2775 140.375C47.3249 140.4 47.3889 140.437 47.4636 140.486C47.6119 140.582 47.809 140.728 48.0028 140.929C48.3935 141.334 48.7909 141.987 48.701 142.886C48.6697 143.199 48.3905 143.427 48.0774 143.396C47.7643 143.365 47.5358 143.085 47.5671 142.772C47.614 142.304 47.4188 141.965 47.1828 141.721C47.0633 141.597 46.9384 141.504 46.8431 141.442C46.7961 141.411 46.7579 141.389 46.7334 141.376C46.7213 141.369 46.7127 141.365 46.7083 141.363C46.7068 141.362 46.7059 141.362 46.7053 141.361C46.7053 141.361 46.7053 141.361 46.7053 141.361C46.4223 141.228 46.3001 140.89 46.4324 140.606Z" fill="#666666"/>
<path d="M33.4796 138.636V140.641H31.4057C30.7903 140.163 29.9927 139.889 29.1266 139.958C27.4629 140.072 26.141 141.462 26.0726 143.126C26.0043 145.017 27.5085 146.567 29.3773 146.567H33.2517C33.3201 146.567 33.3885 146.567 33.4796 146.544V146.567H36.921V138.636H33.4796Z" fill="#EFEFEF"/>
<path fill-rule="evenodd" clip-rule="evenodd" d="M32.3401 138.636C32.3401 138.006 32.8503 137.496 33.4796 137.496H36.921C37.5504 137.496 38.0606 138.006 38.0606 138.636V146.567C38.0606 147.196 37.5504 147.706 36.921 147.706H33.4796C33.4516 147.706 33.4237 147.705 33.3962 147.703C33.3385 147.706 33.2923 147.706 33.2606 147.706C33.2575 147.706 33.2545 147.706 33.2517 147.706H29.3773C26.8618 147.706 24.8422 145.62 24.9338 143.084L24.9341 143.079C25.0257 140.85 26.7884 138.979 29.0428 138.821C30.0527 138.743 30.9947 139.01 31.765 139.502H32.3401V138.636ZM34.6192 139.775V140.641C34.6192 141.271 34.109 141.781 33.4796 141.781H31.4057C31.1523 141.781 30.9061 141.696 30.7061 141.541C30.3014 141.226 29.7821 141.049 29.2163 141.093L29.2045 141.094C28.1352 141.168 27.2578 142.074 27.2113 143.169C27.1678 144.416 28.156 145.427 29.3773 145.427H33.2517C33.2521 145.427 33.2525 145.427 33.2529 145.427C33.4041 145.397 33.5583 145.397 33.7064 145.427H35.7815V139.775H34.6192Z" fill="#666666"/>
<path fill-rule="evenodd" clip-rule="evenodd" d="M30.0459 140.606C30.1787 140.321 30.5176 140.197 30.8029 140.33L30.5624 140.846C30.8029 140.33 30.8031 140.33 30.8034 140.33L30.8038 140.33L30.8049 140.331L30.8075 140.332L30.814 140.335C30.819 140.337 30.8253 140.341 30.8328 140.344C30.8476 140.352 30.8673 140.362 30.891 140.375C30.9383 140.4 31.0023 140.437 31.0771 140.486C31.2254 140.582 31.4224 140.728 31.6163 140.929C32.007 141.334 32.4044 141.987 32.3145 142.886C32.2832 143.199 32.004 143.427 31.6909 143.396C31.3777 143.365 31.1493 143.085 31.1806 142.772C31.2275 142.304 31.0323 141.965 30.7962 141.721C30.6767 141.597 30.5519 141.504 30.4566 141.442C30.4096 141.411 30.3713 141.389 30.3469 141.376C30.3347 141.369 30.3261 141.365 30.3217 141.363C30.3203 141.362 30.3193 141.362 30.3188 141.361C30.3188 141.361 30.3188 141.361 30.3188 141.361C30.0358 141.228 29.9136 140.89 30.0459 140.606Z" fill="#666666"/>
<path fill-rule="evenodd" clip-rule="evenodd" d="M34.8256 78.7038C35.2615 78.7674 35.5633 79.1724 35.4996 79.6083L34.7103 79.4931C35.4996 79.6083 35.4997 79.6081 35.4997 79.6079C35.4997 79.6079 35.4997 79.608 35.4996 79.6083L35.4991 79.6123C35.4985 79.6163 35.4976 79.623 35.4963 79.6323C35.4938 79.6509 35.49 79.6798 35.4853 79.7183C35.4759 79.7953 35.4626 79.9108 35.4483 80.0592C35.4197 80.3562 35.387 80.7836 35.3716 81.2975C35.3406 82.3306 35.3803 83.6891 35.6518 85.0328C35.9248 86.3844 36.4188 87.6538 37.246 88.575C38.0481 89.4681 39.2123 90.0908 40.9778 90.0908C42.739 90.0908 43.9953 89.4657 44.9231 88.5425C45.8711 87.5992 46.5094 86.309 46.9308 84.9539C47.3505 83.6045 47.5391 82.2429 47.6213 81.2103C47.6623 80.6961 47.6765 80.2687 47.6805 79.9719C47.6825 79.8236 47.682 79.7083 47.681 79.6313C47.6805 79.5929 47.6799 79.5641 47.6795 79.5456C47.6792 79.5363 47.679 79.5297 47.6789 79.5257L47.6788 79.5218L48.476 79.4931C47.6788 79.5218 47.6788 79.5216 47.6788 79.5214C47.6632 79.0813 48.0071 78.7118 48.4473 78.6959C48.8875 78.6801 49.2573 79.0241 49.2731 79.4644L48.4856 79.4927C49.2731 79.4644 49.2731 79.4647 49.2731 79.4651L49.2732 79.466L49.2733 79.4686L49.2735 79.477C49.2737 79.484 49.274 79.4937 49.2743 79.506C49.2749 79.5306 49.2757 79.5658 49.2762 79.6108C49.2774 79.7008 49.278 79.8303 49.2757 79.9936C49.2713 80.3199 49.2558 80.7828 49.2116 81.337C49.1237 82.441 48.9205 83.9282 48.4542 85.4277C47.9897 86.9214 47.2477 88.4801 46.0484 89.6734C44.8288 90.8869 43.1708 91.6862 40.9778 91.6862C38.7778 91.6862 37.1757 90.8844 36.059 89.6409C34.9675 88.4254 34.3904 86.846 34.088 85.3487C33.784 83.8436 33.7439 82.3533 33.777 81.2497C33.7936 80.6953 33.8289 80.2325 33.8603 79.9063C33.8761 79.7431 33.8908 79.6137 33.9019 79.5238C33.9074 79.4789 33.912 79.4438 33.9153 79.4192C33.9169 79.407 33.9183 79.3973 33.9192 79.3904L33.9204 79.382L33.9209 79.3785C33.921 79.3782 33.921 79.3779 34.7103 79.4931L33.921 79.3779C33.9847 78.9419 34.3897 78.6401 34.8256 78.7038Z" fill="#666666"/>
<path d="M45.2169 88.8379H36.602V99.8686H45.2169V88.8379Z" fill="#4BB9F7"/>
<path fill-rule="evenodd" clip-rule="evenodd" d="M35.6903 88.8374C35.6903 88.3339 36.0985 87.9258 36.602 87.9258H45.2169C45.7204 87.9258 46.1285 88.3339 46.1285 88.8374V99.8681C46.1285 100.372 45.7204 100.78 45.2169 100.78H36.602C36.0985 100.78 35.6903 100.372 35.6903 99.8681V88.8374ZM37.5136 89.749V98.9565H44.3052V89.749H37.5136Z" fill="#666666"/>
<path fill-rule="evenodd" clip-rule="evenodd" d="M39.3369 92.4158C39.3369 91.9753 39.694 91.6182 40.1345 91.6182H41.6843C42.1248 91.6182 42.482 91.9753 42.482 92.4158V94.3758C42.482 94.8164 42.1248 95.1735 41.6843 95.1735H40.1345C39.694 95.1735 39.3369 94.8164 39.3369 94.3758V92.4158Z" fill="#666666"/>
<path fill-rule="evenodd" clip-rule="evenodd" d="M39.1317 96.8367C39.1317 96.5849 39.3358 96.3809 39.5876 96.3809H42.2085C42.4602 96.3809 42.6643 96.5849 42.6643 96.8367C42.6643 97.0884 42.4602 97.2925 42.2085 97.2925H39.5876C39.3358 97.2925 39.1317 97.0884 39.1317 96.8367Z" fill="#666666"/>
<path d="M36.0094 78.4219L32.9554 82.9117L38.2201 84.0512L41.2741 78.4219H36.0094Z" fill="#EFEFEF"/>
<path fill-rule="evenodd" clip-rule="evenodd" d="M35.3499 77.9731C35.4984 77.7547 35.7453 77.624 36.0094 77.624H41.2741C41.5553 77.624 41.8157 77.7721 41.9595 78.0137C42.1034 78.2554 42.1093 78.5549 41.9752 78.8021L38.9213 84.4314C38.7522 84.743 38.3978 84.9056 38.0514 84.8306L32.7867 83.6911C32.5275 83.635 32.3131 83.4537 32.2147 83.2075C32.1163 82.9612 32.1467 82.6821 32.2959 82.4628L35.3499 77.9731ZM36.4316 79.2194L34.2803 82.3821L37.8042 83.1448L39.9338 79.2194H36.4316Z" fill="#666666"/>
<path d="M47.7694 78.4219L51.5299 82.9117L45.0346 84.0512L41.2741 78.4219H47.7694Z" fill="#EFEFEF"/>
<path fill-rule="evenodd" clip-rule="evenodd" d="M40.5706 78.0456C40.7094 77.7861 40.9798 77.624 41.2741 77.624H47.7695C48.0055 77.624 48.2294 77.7286 48.381 77.9095L52.1414 82.3993C52.3244 82.6178 52.377 82.9173 52.2793 83.185C52.1816 83.4527 51.9485 83.6479 51.6678 83.6972L45.1724 84.8367C44.8611 84.8913 44.5468 84.7569 44.3713 84.4941L40.6108 78.8648C40.4473 78.6201 40.4319 78.3052 40.5706 78.0456ZM42.7662 79.2194L45.409 83.1755L50.0313 82.3645L47.3971 79.2194H42.7662Z" fill="#666666"/>
<path fill-rule="evenodd" clip-rule="evenodd" d="M33.488 11.8517C33.5861 12.4598 33.1818 13.0386 32.5729 13.1528C31.9543 13.2688 31.3588 12.8613 31.2429 12.2428L32.3603 12.0332C31.2429 12.2428 31.2425 12.241 31.2422 12.2392L31.2415 12.2354L31.24 12.2271C31.239 12.2213 31.2379 12.2149 31.2368 12.2079C31.2345 12.1939 31.2321 12.1774 31.2295 12.1587C31.2245 12.1213 31.2192 12.0746 31.2149 12.0193C31.2063 11.9088 31.2015 11.7634 31.2101 11.5887C31.2273 11.2385 31.2983 10.7717 31.4993 10.2361C31.9081 9.14672 32.8156 7.87359 34.6741 6.7293C38.3219 4.48328 45.7198 2.67717 60.8153 3.57864C61.13 3.59022 61.4698 3.59679 61.8255 3.60367C63.0596 3.62752 64.4846 3.65506 65.7137 3.90854C67.3644 4.24895 69.0552 5.07164 69.6886 7.11432C69.875 7.71543 69.5388 8.35383 68.9377 8.54022C68.3366 8.72662 67.6982 8.39042 67.5118 7.7893C67.2335 6.89197 66.5314 6.4042 65.2534 6.14065C64.2507 5.93386 63.1313 5.91135 61.9418 5.88742C61.5411 5.87936 61.1325 5.87114 60.7177 5.85566C60.7092 5.85535 60.7007 5.85493 60.6921 5.85442C45.6897 4.95723 38.8921 6.80865 35.869 8.67001C34.3915 9.57974 33.8446 10.4732 33.6331 11.0368C33.5239 11.3278 33.4933 11.5591 33.4864 11.7004C33.4829 11.7715 33.4854 11.8201 33.4871 11.8423C33.4874 11.8464 33.4877 11.8495 33.488 11.8517Z" fill="#666666"/>
<path fill-rule="evenodd" clip-rule="evenodd" d="M23.7129 13.7036C23.6214 14.3224 23.0476 14.7524 22.4271 14.6653C21.8039 14.5777 21.3696 14.0015 21.4572 13.3783L22.5856 13.5368C21.4572 13.3783 21.4573 13.377 21.4575 13.3757L21.4579 13.3729L21.4589 13.3662C21.4596 13.3614 21.4605 13.3557 21.4615 13.3492C21.4636 13.3361 21.4663 13.3198 21.4697 13.3002C21.4766 13.2612 21.4865 13.2093 21.5001 13.1456C21.5274 13.0182 21.5698 12.8431 21.6342 12.6277C21.7629 12.1968 21.9792 11.6039 22.3363 10.9078C23.0527 9.51141 24.3279 7.71535 26.5702 5.98537C31.0575 2.52332 39.283 -0.576723 54.3381 0.0913678L54.339 0.0914074C56.2062 0.175733 58.0742 0.56828 59.5152 1.4114C61.0005 2.28042 62.082 3.67419 62.082 5.6284C62.082 6.25775 61.5718 6.76794 60.9425 6.76794C60.3131 6.76794 59.8029 6.25775 59.8029 5.6284C59.8029 4.6654 59.3233 3.93963 58.3643 3.37852C57.3611 2.79158 55.9018 2.44344 54.2366 2.36818C39.5045 1.71449 31.8791 4.76793 27.9624 7.78982C26.0026 9.30182 24.9375 10.8304 24.3641 11.9481C24.0763 12.509 23.9103 12.9706 23.818 13.2799C23.7718 13.4345 23.744 13.551 23.7287 13.6225C23.7211 13.6583 23.7165 13.6828 23.7143 13.6953C23.7136 13.6994 23.7131 13.7022 23.7129 13.7036Z" fill="#666666"/>
<path d="M68.6002 78.4216H21.4461C16.5461 78.4216 12.5577 74.5472 12.5577 69.7611V29.5582C12.5577 19.2568 21.1042 10.8926 31.6792 10.8926H68.6002" fill="#EFEFEF"/>
<path fill-rule="evenodd" clip-rule="evenodd" d="M31.6792 12.033C21.7084 12.033 13.6973 19.9119 13.6973 29.5591V69.762C13.6973 73.89 17.1464 77.2829 21.4461 77.2829H68.6002C69.2296 77.2829 69.7397 77.7931 69.7397 78.4225C69.7397 79.0518 69.2296 79.562 68.6002 79.562H21.4461C15.9459 79.562 11.4182 75.2061 11.4182 69.762V29.5591C11.4182 18.6034 20.5001 9.75391 31.6792 9.75391H68.6002C69.2296 9.75391 69.7397 10.2641 69.7397 10.8934C69.7397 11.5228 69.2296 12.033 68.6002 12.033H31.6792Z" fill="#666666"/>
<path d="M68.623 77.26H24.6596C20.261 77.26 16.7056 73.4996 16.7056 68.873V30.0832C16.7056 20.1236 24.3633 12.0557 33.8215 12.0557H68.6002" fill="white"/>
<path fill-rule="evenodd" clip-rule="evenodd" d="M12.0563 44.3273C12.0563 43.7609 12.5155 43.3018 13.0819 43.3018H24.5001C25.0665 43.3018 25.5256 43.7609 25.5256 44.3273C25.5256 44.8938 25.0665 45.3529 24.5001 45.3529H13.0819C12.5155 45.3529 12.0563 44.8938 12.0563 44.3273Z" fill="#666666"/>
<path fill-rule="evenodd" clip-rule="evenodd" d="M42.4136 44.3273C42.4136 43.7609 42.8728 43.3018 43.4392 43.3018H58.5267C59.0931 43.3018 59.5523 43.7609 59.5523 44.3273C59.5523 44.8938 59.0931 45.3529 58.5267 45.3529H43.4392C42.8728 45.3529 42.4136 44.8938 42.4136 44.3273Z" fill="#666666"/>
<path fill-rule="evenodd" clip-rule="evenodd" d="M29.6052 49.9111C30.0457 49.9111 30.4029 50.2683 30.4029 50.7088V51.2558C30.4029 51.6963 30.0457 52.0535 29.6052 52.0535C29.1647 52.0535 28.8075 51.6963 28.8075 51.2558V50.7088C28.8075 50.2683 29.1647 49.9111 29.6052 49.9111Z" fill="#666666"/>
<path fill-rule="evenodd" clip-rule="evenodd" d="M34.2545 49.9111C34.6951 49.9111 35.0522 50.2683 35.0522 50.7088V51.2558C35.0522 51.6963 34.6951 52.0535 34.2545 52.0535C33.814 52.0535 33.4568 51.6963 33.4568 51.2558V50.7088C33.4568 50.2683 33.814 49.9111 34.2545 49.9111Z" fill="#666666"/>
<path fill-rule="evenodd" clip-rule="evenodd" d="M28.8075 67.8016C28.8075 67.361 29.1647 67.0039 29.6052 67.0039H38.4936C38.9341 67.0039 39.2913 67.361 39.2913 67.8016C39.2913 68.2421 38.9341 68.5993 38.4936 68.5993H29.6052C29.1647 68.5993 28.8075 68.2421 28.8075 67.8016Z" fill="#666666"/>
<path fill-rule="evenodd" clip-rule="evenodd" d="M75.3562 3.42048C75.946 3.63996 76.2463 4.29604 76.0268 4.88588C75.6139 5.99563 75.0651 6.85262 74.3767 7.48587C73.6835 8.12355 72.904 8.48334 72.1105 8.67774C71.3326 8.86831 70.539 8.90029 69.8061 8.89056C69.4377 8.88566 69.0686 8.86971 68.7181 8.85441L68.6992 8.85358C68.3499 8.83833 68.0189 8.82388 67.6928 8.81857C67.6855 8.81846 67.6783 8.81827 67.671 8.81801C53.838 8.32804 47.7784 9.14494 45.2059 9.99983C44.3475 10.2851 43.988 10.5388 43.8494 10.6645C43.9408 11.1124 43.7557 11.5904 43.3478 11.8519C42.8181 12.1917 42.1132 12.0376 41.7734 11.5078L42.7299 10.8945C41.7734 11.5078 41.7721 11.5057 41.7707 11.5035L41.7678 11.499L41.7619 11.4895C41.7579 11.483 41.7537 11.4761 41.7494 11.4687C41.7407 11.4541 41.7315 11.4377 41.7218 11.4197C41.7025 11.3838 41.6814 11.3409 41.6604 11.2913C41.6184 11.1925 41.5751 11.0635 41.5483 10.9086C41.4925 10.5861 41.515 10.1841 41.7162 9.76223C42.1009 8.95568 43.006 8.32925 44.4872 7.83704C47.4862 6.84043 53.9134 6.05074 67.7409 6.53998C68.095 6.54594 68.4495 6.56142 68.7859 6.57612L68.8175 6.5775C69.1725 6.593 69.5079 6.60732 69.8364 6.61168C70.4974 6.62046 71.0669 6.58692 71.5682 6.46412C72.0538 6.34514 72.4694 6.14371 72.8338 5.80851C73.203 5.46888 73.5744 4.94133 73.8908 4.09108C74.1103 3.50124 74.7664 3.201 75.3562 3.42048Z" fill="#666666"/>
<path d="M11.3042 97.3383H2.27906L1.13953 81.4531H12.4437L11.3042 97.3383Z" fill="white"/>
<path fill-rule="evenodd" clip-rule="evenodd" d="M0.305436 80.6766C0.521005 80.445 0.823152 80.3135 1.13954 80.3135H12.4438C12.7601 80.3135 13.0623 80.445 13.2779 80.6766C13.4934 80.9082 13.603 81.219 13.5804 81.5346L12.4408 97.4197C12.3981 98.0159 11.9019 98.4777 11.3042 98.4777H2.27908C1.68137 98.4777 1.18523 98.0159 1.14246 97.4197L0.00292369 81.5346C-0.0197146 81.219 0.089868 80.9082 0.305436 80.6766ZM2.36375 82.5926L3.3398 96.1986H10.2435L11.2195 82.5926H2.36375Z" fill="#666666"/>
<path d="M1.91443 85.9883H11.4182L10.9168 92.1418H2.2335L1.91443 85.9883Z" fill="#4BB9F7"/>
<path fill-rule="evenodd" clip-rule="evenodd" d="M1.25334 85.3611C1.42546 85.1798 1.66447 85.0771 1.91444 85.0771H11.4182C11.6728 85.0771 11.9159 85.1837 12.0885 85.3709C12.2611 85.5581 12.3475 85.809 12.3268 86.0628L11.8254 92.2163C11.7869 92.6895 11.3916 93.0539 10.9168 93.0539H2.23351C1.74838 93.0539 1.34822 92.674 1.3231 92.1895L1.00403 86.036C0.991088 85.7863 1.08122 85.5423 1.25334 85.3611ZM2.87456 86.9004L3.0991 91.2307H10.0764L10.4293 86.9004H2.87456Z" fill="#666666"/>
<path d="M10.78 92.3249C9.04795 91.8235 7.97678 90.2737 8.38702 88.8379C8.79725 87.4021 10.5293 86.65 12.2614 87.1514C13.9935 87.6528 15.0647 89.2026 14.6545 90.6384C14.2442 92.0742 12.5121 92.8263 10.78 92.3249Z" fill="white"/>
<path fill-rule="evenodd" clip-rule="evenodd" d="M9.48561 89.1497C9.30276 89.7847 9.76236 90.8421 11.0935 91.2254C12.4246 91.6087 13.3761 90.9577 13.5589 90.3227C13.7418 89.6877 13.2822 88.6303 11.9511 88.247C10.62 87.8637 9.66846 88.5147 9.48561 89.1497ZM10.4628 93.4153C8.33481 92.8026 6.65655 90.7385 7.29565 88.5191C7.93474 86.2997 10.4537 85.4443 12.5817 86.0571C14.7097 86.6698 16.388 88.7339 15.7489 90.9533C15.1098 93.1727 12.5909 94.0281 10.4628 93.4153Z" fill="#666666"/>
</svg>
