<svg width="23" height="17" viewBox="0 0 23 17" fill="none" xmlns="http://www.w3.org/2000/svg">
<path fill-rule="evenodd" clip-rule="evenodd" d="M11.5722 10.0484C10.6271 10.0484 9.85803 9.27927 9.85803 8.33417C9.85803 7.38906 10.6271 6.61995 11.5722 6.61995C12.5173 6.61995 13.2865 7.38906 13.2865 8.33417C13.2865 9.27927 12.5173 10.0484 11.5722 10.0484ZM11.5723 4.33436C9.36663 4.33436 7.57242 6.12857 7.57242 8.33419C7.57242 10.5398 9.36663 12.334 11.5723 12.334C13.7779 12.334 15.5721 10.5398 15.5721 8.33419C15.5721 6.12857 13.7779 4.33436 11.5723 4.33436ZM11.8233 14.0459C6.9024 14.1602 3.69225 9.95121 2.62715 8.32956C3.79967 6.49536 6.75269 2.74009 11.3216 2.62352C16.2231 2.49896 19.4516 6.7182 20.5167 8.33985C19.3453 10.1741 16.3911 13.9293 11.8233 14.0459ZM22.8491 7.76586C22.12 6.49506 18.0928 0.125045 11.2633 0.33875C4.9459 0.498743 1.27177 6.06422 0.295812 7.76586C0.0935347 8.11785 0.0935347 8.55097 0.295812 8.90296C1.01464 10.1566 4.90019 16.3335 11.6005 16.3335C11.6942 16.3335 11.7879 16.3324 11.8816 16.3301C18.1979 16.1689 21.8732 10.6046 22.8491 8.90296C23.0503 8.55097 23.0503 8.11785 22.8491 7.76586Z" fill="#666666"/>
</svg>
