<svg width="20" height="20" viewBox="0 0 16 17" fill="none" xmlns="http://www.w3.org/2000/svg">
<path fill-rule="evenodd" clip-rule="evenodd" d="M11.2 11.5333C11.2 11.9733 10.84 12.3333 10.4 12.3333C9.96 12.3333 9.6 11.9733 9.6 11.5333V8.33325C9.6 7.89325 9.96 7.53325 10.4 7.53325C10.84 7.53325 11.2 7.89325 11.2 8.33325V11.5333ZM6.4 2.19565C6.4 2.07165 6.5712 1.93325 6.8 1.93325H9.2C9.4288 1.93325 9.6 2.07165 9.6 2.19565V3.53325H6.4V2.19565ZM6.4 11.5333C6.4 11.9733 6.04 12.3333 5.6 12.3333C5.16 12.3333 4.8 11.9733 4.8 11.5333V8.33325C4.8 7.89325 5.16 7.53325 5.6 7.53325C6.04 7.53325 6.4 7.89325 6.4 8.33325V11.5333ZM15.2 3.53325H11.2V2.19565C11.2 1.16845 10.3032 0.333252 9.2 0.333252H6.8C5.6968 0.333252 4.8 1.16845 4.8 2.19565V3.53325H0.8C0.36 3.53325 0 3.89325 0 4.33325C0 4.77325 0.36 5.13325 0.8 5.13325H1.6V13.9333C1.6 15.2565 2.6768 16.3333 4 16.3333H12C13.3232 16.3333 14.4 15.2565 14.4 13.9333V5.13325H15.2C15.64 5.13325 16 4.77325 16 4.33325C16 3.89325 15.64 3.53325 15.2 3.53325Z" fill="#666666"/>
</svg>
