<svg width="15" height="16" viewBox="0 0 15 16" fill="none" xmlns="http://www.w3.org/2000/svg">
<path d="M7.66667 0.5C7.11438 0.5 6.66667 0.947715 6.66667 1.5L6.66667 6.16667C6.66667 6.71895 7.11438 7.16667 7.66667 7.16667L14 7.16667C14.5523 7.16667 15 6.71895 15 6.16667L15 1.5C15 0.947714 14.5523 0.5 14 0.5L7.66667 0.5ZM1 0.499999C0.447716 0.499999 -1.95703e-08 0.947715 -4.37114e-08 1.5L-2.47698e-07 6.16667C-2.71839e-07 6.71895 0.447715 7.16667 1 7.16667L4 7.16667C4.55228 7.16667 5 6.71895 5 6.16667L5 1.5C5 0.947714 4.55229 0.5 4 0.5L1 0.499999ZM1 8.83333C0.447714 8.83333 -3.83832e-07 9.28105 -4.07973e-07 9.83333L-6.11959e-07 14.5C-6.36101e-07 15.0523 0.447715 15.5 0.999999 15.5L7.33333 15.5C7.88562 15.5 8.33333 15.0523 8.33333 14.5L8.33333 9.83333C8.33333 9.28105 7.88562 8.83333 7.33333 8.83333L1 8.83333ZM15 9.83333C15 9.28105 14.5523 8.83333 14 8.83333L11 8.83333C10.4477 8.83333 10 9.28105 10 9.83333L10 14.5C10 15.0523 10.4477 15.5 11 15.5L14 15.5C14.5523 15.5 15 15.0523 15 14.5L15 9.83333Z" fill="#666666"/>
</svg>
