<svg width="4" height="17" viewBox="0 0 4 17" fill="none" xmlns="http://www.w3.org/2000/svg">
<path d="M4 2.3335C4 3.43807 3.10457 4.3335 2 4.3335C0.89543 4.3335 0 3.43807 0 2.3335C0 1.22893 0.89543 0.333496 2 0.333496C3.10457 0.333496 4 1.22893 4 2.3335Z" fill="#666666"/>
<path d="M4 8.3335C4 9.43807 3.10457 10.3335 2 10.3335C0.89543 10.3335 0 9.43807 0 8.3335C0 7.22893 0.89543 6.3335 2 6.3335C3.10457 6.3335 4 7.22893 4 8.3335Z" fill="#666666"/>
<path d="M4 14.3335C4 15.4381 3.10457 16.3335 2 16.3335C0.89543 16.3335 0 15.4381 0 14.3335C0 13.2289 0.89543 12.3335 2 12.3335C3.10457 12.3335 4 13.2289 4 14.3335Z" fill="#666666"/>
</svg>
