<svg width="323" height="248" viewBox="0 0 323 248" fill="none" xmlns="http://www.w3.org/2000/svg">
<path d="M231.751 45.0438C225.011 30.0292 215.679 18.6388 204.273 11.3904C192.867 3.62422 178.35 0 161.241 0C143.613 0 129.615 3.62422 118.209 10.8727C106.803 18.1211 97.9888 29.5115 90.7303 44.5261L0 248H323C322.482 245.929 231.751 45.0438 231.751 45.0438ZM100.581 190.53L118.209 150.664L150.353 74.0376C151.39 70.9311 152.945 69.3779 155.019 68.3424C157.093 67.3069 159.167 66.7891 161.241 66.7891C163.833 66.7891 165.907 67.3069 167.462 68.3424C169.536 69.3779 171.091 71.4489 172.128 74.0376L202.199 142.898L222.937 190.013H100.581V190.53Z" fill="#1B75BC" fill-opacity="0.3"/>
</svg>
