<svg width="122" height="20" viewBox="0 0 122 20" fill="none" xmlns="http://www.w3.org/2000/svg">
<path d="M2.65149 19.31H19.8058V14.4623H5.50385C5.22263 14.4623 5.06194 14.3007 5.06194 13.9775V11.6748H19.7255V8.03894H5.06194V5.89784C5.06194 5.57465 5.22263 5.41306 5.50385 5.41306H19.8058V0.363281H2.69166C0.88383 0.363281 0 1.21164 0 2.94877V16.6842C0 18.4213 0.88383 19.31 2.65149 19.31Z" fill="white"/>
<path d="M33.2294 14.1397C32.9884 13.8973 32.8678 13.4125 32.8678 12.7258V0.404297H27.8059V13.1701C27.8059 14.1801 27.9264 15.1092 28.1273 15.8768C28.3282 16.6444 28.6897 17.2907 29.1317 17.8159C29.6137 18.3411 30.2565 18.7047 31.0198 18.9471C31.8233 19.1895 32.7875 19.3107 33.9124 19.3107H47.5716V14.4629H34.5552C33.9124 14.5033 33.4705 14.3821 33.2294 14.1397Z" fill="white"/>
<path d="M60.6335 0.363281H55.5715V19.31H60.6335V0.363281Z" fill="white"/>
<path d="M83.8593 14.0589C83.8593 14.3013 83.7388 14.4629 83.4977 14.4629H78.6768C77.793 14.4629 77.0297 14.3013 76.4271 14.0185C75.8245 13.7357 75.3022 13.3721 74.9005 12.9277C74.5389 12.5238 74.2577 12.0794 74.0166 11.5542C73.8158 11.029 73.6952 10.5038 73.6952 9.89788C73.6952 9.2515 73.8158 8.64553 74.0568 8.12036C74.2978 7.55478 74.6594 7.07 75.0612 6.66602C75.4629 6.30244 75.945 5.97925 76.5074 5.77726C77.0699 5.53487 77.7528 5.45407 78.6367 5.45407H88.8007V0.404297H78.6367C77.11 0.404297 75.7843 0.606288 74.6192 1.05067C73.4944 1.49505 72.49 2.10102 71.6464 2.86859C70.6822 3.75735 69.959 4.7673 69.4368 5.97925C68.9145 7.1912 68.6333 8.44354 68.6333 9.85748C68.6333 11.1098 68.8342 12.2814 69.2761 13.3721C69.718 14.4629 70.2804 15.4324 71.0437 16.2404C71.9276 17.21 72.9721 17.9371 74.2175 18.5027C75.4629 19.0683 76.9493 19.3107 78.6367 19.3107H87.6356C88.4391 19.3107 88.8409 18.9067 88.8409 18.0987V9.00912H83.8191V14.0589H83.8593Z" fill="white"/>
<path d="M114.759 3.47425C114.236 2.3027 113.513 1.41394 112.629 0.848362C111.746 0.282788 110.661 0 109.335 0C107.969 0 106.885 0.282788 106.001 0.848362C105.117 1.41394 104.434 2.3027 103.872 3.47425L96.8411 19.3103H121.87C121.789 19.1488 114.759 3.47425 114.759 3.47425ZM104.595 14.8261L105.961 11.7155L108.492 5.73655C108.572 5.49416 108.692 5.37296 108.853 5.29216C109.014 5.21137 109.175 5.17097 109.335 5.17097C109.536 5.17097 109.697 5.21137 109.817 5.29216C109.978 5.37296 110.099 5.53455 110.179 5.73655L112.469 11.1095L114.076 14.7857H104.595V14.8261Z" fill="#1B75BC"/>
</svg>
