<svg width="290" height="47" viewBox="0 0 290 47" fill="none" xmlns="http://www.w3.org/2000/svg">
<path d="M6.40777 46.3604H47.8641V34.7218H13.301C12.6214 34.7218 12.233 34.3339 12.233 33.558V28.0296H47.6699V19.3006H12.233V14.1602C12.233 13.3843 12.6214 12.9964 13.301 12.9964H47.8641V0.872803H6.50486C2.13592 0.872803 0 2.90956 0 7.08007V40.0562C0 44.2267 2.13592 46.3604 6.40777 46.3604Z" fill="black"/>
<path d="M79.9029 33.8489C79.3204 33.267 79.0292 32.1031 79.0292 30.4543V0.872803H66.7961V31.5212C66.7961 33.9459 67.0874 36.1766 67.5728 38.0194C68.0583 39.8622 68.9321 41.414 70 42.6749C71.1651 43.9357 72.7185 44.8086 74.5631 45.3906C76.5049 45.9725 78.835 46.2635 81.5534 46.2635H114.563V34.6248H83.1068C81.5534 34.7218 80.4855 34.4309 79.9029 33.8489Z" fill="black"/>
<path d="M145.146 0.872803H132.913V46.3604H145.146V0.872803Z" fill="black"/>
<path d="M200.097 33.6549C200.097 34.2369 199.806 34.6248 199.223 34.6248H187.573C185.437 34.6248 183.592 34.2369 182.136 33.558C180.68 32.879 179.417 32.0061 178.447 30.9393C177.573 29.9694 176.893 28.9025 176.311 27.6417C175.825 26.3808 175.534 25.1199 175.534 23.6651C175.534 22.1133 175.825 20.6585 176.408 19.3976C176.99 18.0398 177.864 16.8759 178.835 15.906C179.806 15.0331 180.971 14.2572 182.33 13.7723C183.689 13.1904 185.34 12.9964 187.476 12.9964H212.039V0.872803H187.476C183.786 0.872803 180.583 1.35775 177.767 2.42462C175.049 3.49149 172.621 4.94632 170.583 6.78911C168.252 8.92286 166.505 11.3476 165.243 14.2572C163.981 17.1669 163.301 20.1735 163.301 23.5681C163.301 26.5748 163.786 29.3874 164.854 32.0061C165.922 34.6248 167.282 36.9526 169.126 38.8923C171.262 41.2201 173.786 42.9658 176.796 44.3237C179.806 45.6815 183.398 46.2635 187.476 46.2635H209.223C211.165 46.2635 212.136 45.2936 212.136 43.3538V21.5314H200V33.6549H200.097Z" fill="black"/>
<path d="M272.816 8.34102C271.553 5.52835 269.806 3.3946 267.67 2.03676C265.534 0.67892 262.913 0 259.709 0C256.408 0 253.786 0.67892 251.65 2.03676C249.515 3.3946 247.864 5.52835 246.505 8.34102L229.515 46.3605H290C289.806 45.9726 272.816 8.34102 272.816 8.34102ZM248.252 35.5948L251.553 28.1267L257.67 13.7724C257.864 13.1904 258.155 12.8995 258.544 12.7055C258.932 12.5115 259.32 12.4145 259.709 12.4145C260.194 12.4145 260.583 12.5115 260.874 12.7055C261.262 12.8995 261.553 13.2874 261.748 13.7724L267.282 26.6719L271.165 35.4978H248.252V35.5948Z" fill="#1B75BC"/>
</svg>
