<svg width="14" height="15" viewBox="0 0 14 15" fill="none" xmlns="http://www.w3.org/2000/svg">
<path d="M6.3 11.7H7.7V10.3H6.3V11.7ZM7 0.5C3.136 0.5 0 3.636 0 7.5C0 11.364 3.136 14.5 7 14.5C10.864 14.5 14 11.364 14 7.5C14 3.636 10.864 0.5 7 0.5ZM7 13.1C3.913 13.1 1.4 10.587 1.4 7.5C1.4 4.413 3.913 1.9 7 1.9C10.087 1.9 12.6 4.413 12.6 7.5C12.6 10.587 10.087 13.1 7 13.1ZM7 3.3C5.453 3.3 4.2 4.553 4.2 6.1H5.6C5.6 5.33 6.23 4.7 7 4.7C7.77 4.7 8.4 5.33 8.4 6.1C8.4 7.5 6.3 7.325 6.3 9.6H7.7C7.7 8.025 9.8 7.85 9.8 6.1C9.8 4.553 8.547 3.3 7 3.3Z" fill="#999999"/>
</svg>
