<svg width="432" height="236" viewBox="0 0 432 236" fill="none" xmlns="http://www.w3.org/2000/svg">
<rect width="432" height="236" fill="#FFA7A7"/>
<path d="M215.986 74.6211C200.387 74.6211 187.727 87.2705 187.727 102.856C187.727 118.442 200.387 131.092 215.986 131.092C231.586 131.092 244.246 118.442 244.246 102.856C244.246 87.2705 231.586 74.6211 215.986 74.6211ZM218.812 116.974H213.16V111.327H218.812V116.974ZM218.812 105.68H213.16V88.7387H218.812V105.68Z" fill="#B53B3B"/>
<path d="M66.8068 149.568H68.7748V156.304C68.1188 156.336 67.4468 156.368 66.8068 156.384V149.568ZM70.3748 149.568H71.7828V148.24H63.7988V149.568H65.2068V156.416C64.5828 156.416 63.9748 156.416 63.4308 156.416L63.6068 157.776C66.1188 157.776 69.4628 157.728 72.4548 157.232L72.3588 156.016C71.7188 156.096 71.0468 156.16 70.3748 156.224V149.568ZM77.0468 152.432H74.7908V146.784H73.1428V161.248H74.7908V153.792H77.0468V152.432ZM90.2296 146.768H88.5816V154.112H90.2296V146.768ZM80.1976 150.512C80.1976 149.36 81.1256 148.608 82.3736 148.608C83.6376 148.608 84.5816 149.36 84.5816 150.512C84.5816 151.664 83.6376 152.416 82.3736 152.416C81.1256 152.416 80.1976 151.664 80.1976 150.512ZM86.1816 150.512C86.1816 148.608 84.5656 147.248 82.3736 147.248C80.1976 147.248 78.5976 148.608 78.5976 150.512C78.5976 152.416 80.1976 153.76 82.3736 153.76C84.5656 153.76 86.1816 152.416 86.1816 150.512ZM82.4056 159.76V158.48H90.2296V154.768H80.7576V156.064H88.5976V157.264H80.7896V161.056H90.6616V159.76H82.4056ZM96.1483 151.504H102.996V153.872H96.1483V151.504ZM100.388 158.112V155.2H104.628V147.744H102.996V150.176H96.1483V147.744H94.5163V155.2H98.7403V158.112H93.0443V159.472H106.132V158.112H100.388ZM115.395 152.976C115.747 151.104 115.747 149.68 115.747 148.704V147.872H108.483V149.216H114.131C114.115 150.112 114.067 151.248 113.779 152.8L115.395 152.976ZM116.595 153.696C115.171 153.92 113.619 154.016 112.115 154.08V151.168H110.483V154.128C109.459 154.16 108.467 154.16 107.603 154.16L107.779 155.504C110.291 155.504 113.699 155.424 116.707 154.896L116.595 153.696ZM111.443 156.672H109.779V160.96H119.603V159.616H111.443V156.672ZM119.139 151.36V146.784H117.475V157.632H119.139V152.72H121.059V151.36H119.139ZM131.026 148.208H127.586V146.672H125.938V148.208H122.498V149.52H131.026V148.208ZM124.834 152.704C124.834 151.872 125.602 151.36 126.754 151.36C127.906 151.36 128.69 151.872 128.69 152.704C128.69 153.552 127.906 154.064 126.754 154.064C125.602 154.064 124.834 153.552 124.834 152.704ZM130.258 152.704C130.258 151.152 128.85 150.112 126.754 150.112C124.674 150.112 123.25 151.152 123.25 152.704C123.25 154.272 124.674 155.296 126.754 155.296C128.85 155.296 130.258 154.272 130.258 152.704ZM126.162 157.52H132.146V159.744H126.162V157.52ZM124.53 161.056H133.762V156.224H124.53V161.056ZM135.81 150.496H133.762V146.784H132.114V155.488H133.762V151.856H135.81V150.496ZM140.449 156.608C139.457 156.608 138.849 155.312 138.849 153.024C138.849 150.736 139.457 149.456 140.449 149.456C141.441 149.456 142.049 150.736 142.049 153.024C142.049 155.312 141.441 156.608 140.449 156.608ZM145.073 152.256H143.521C143.345 149.552 142.177 147.904 140.449 147.904C138.577 147.904 137.345 149.856 137.345 153.024C137.345 156.192 138.577 158.16 140.449 158.16C142.209 158.16 143.393 156.432 143.537 153.616H145.073V160.544H146.609V147.056H145.073V152.256ZM147.969 146.784V161.216H149.537V146.784H147.969ZM157.151 147.952H155.487V150.336C155.487 153.04 154.079 155.824 151.823 156.928L152.863 158.24C154.511 157.392 155.695 155.712 156.335 153.664C156.959 155.6 158.127 157.184 159.759 158L160.735 156.672C158.527 155.648 157.151 153.024 157.151 150.336V147.952ZM162.255 146.752V151.504H159.167V152.848H162.255V161.248H163.919V146.752H162.255ZM173.752 156.624C172.776 156.624 172.088 155.84 172.088 154.64C172.088 153.44 172.776 152.64 173.752 152.64C174.728 152.64 175.416 153.44 175.416 154.64C175.416 155.84 174.728 156.624 173.752 156.624ZM173.752 151.28C171.928 151.28 170.616 152.64 170.616 154.64C170.616 156.624 171.928 158 173.752 158C175.576 158 176.888 156.624 176.888 154.64C176.888 152.64 175.576 151.28 173.752 151.28ZM174.568 147.2H172.936V149.136H170.2V150.464H177.272V149.136H174.568V147.2ZM180.968 146.784V152.768H179.432V147.088H177.896V160.56H179.432V154.128H180.968V161.232H182.536V146.784H180.968ZM193.239 152.48C191.479 152.864 189.927 152.944 187.159 152.96V149.168H191.943V147.824H185.511V154.304H186.679C189.815 154.304 191.527 154.208 193.415 153.824L193.239 152.48ZM191.575 159.904C189.575 159.904 188.391 159.36 188.391 158.384C188.391 157.408 189.575 156.88 191.575 156.88C193.575 156.88 194.759 157.408 194.759 158.384C194.759 159.36 193.575 159.904 191.575 159.904ZM191.575 155.552C188.615 155.552 186.759 156.624 186.759 158.384C186.759 160.16 188.615 161.248 191.575 161.248C194.535 161.248 196.391 160.16 196.391 158.384C196.391 156.624 194.535 155.552 191.575 155.552ZM196.263 150.384V146.784H194.583V155.264H196.263V151.744H198.279V150.384H196.263ZM206.463 149.568H208.431V156.304C207.775 156.336 207.103 156.368 206.463 156.384V149.568ZM210.031 149.568H211.439V148.24H203.455V149.568H204.863V156.416C204.239 156.416 203.631 156.416 203.087 156.416L203.263 157.776C205.775 157.776 209.119 157.728 212.111 157.232L212.015 156.016C211.375 156.096 210.703 156.16 210.031 156.224V149.568ZM216.703 152.432H214.447V146.784H212.799V161.248H214.447V153.792H216.703V152.432ZM229.886 146.768H228.238V154.112H229.886V146.768ZM219.854 150.512C219.854 149.36 220.782 148.608 222.03 148.608C223.294 148.608 224.238 149.36 224.238 150.512C224.238 151.664 223.294 152.416 222.03 152.416C220.782 152.416 219.854 151.664 219.854 150.512ZM225.838 150.512C225.838 148.608 224.222 147.248 222.03 147.248C219.854 147.248 218.254 148.608 218.254 150.512C218.254 152.416 219.854 153.76 222.03 153.76C224.222 153.76 225.838 152.416 225.838 150.512ZM222.062 159.76V158.48H229.886V154.768H220.414V156.064H228.254V157.264H220.446V161.056H230.318V159.76H222.062ZM239.229 148.24C241.469 148.24 242.669 148.672 242.669 149.504C242.669 150.32 241.469 150.752 239.229 150.752C236.989 150.752 235.789 150.32 235.789 149.504C235.789 148.672 236.989 148.24 239.229 148.24ZM239.229 151.984C242.461 151.984 244.381 151.104 244.381 149.504C244.381 147.888 242.461 147.008 239.229 147.008C235.981 147.008 234.077 147.888 234.077 149.504C234.077 151.104 235.981 151.984 239.229 151.984ZM235.901 158.64H244.125V155.184H234.237V156.432H242.509V157.472H234.269V161.104H244.541V159.84H235.901V158.64ZM232.685 152.832V154.144H245.773V152.832H232.685ZM259.541 153.488C257.349 152.896 256.101 151.36 256.101 149.76V149.648H259.141V148.336H256.117V146.72H254.453V148.336H251.413V149.648H254.453V149.76C254.453 151.504 253.189 153.12 250.965 153.744L251.733 155.024C253.445 154.528 254.661 153.456 255.317 152.08C255.941 153.328 257.141 154.304 258.789 154.768L259.541 153.488ZM262.501 157.12V155.808H252.965V157.12H256.821C256.533 158.432 254.821 159.6 252.357 159.92L252.981 161.184C255.189 160.848 256.917 159.888 257.749 158.544C258.565 159.872 260.293 160.88 262.485 161.2L263.093 159.952C260.661 159.6 258.949 158.4 258.645 157.12H262.501ZM262.293 150.208V146.784H260.645V155.104H262.293V151.568H264.341V150.208H262.293ZM272.26 148.24C274.5 148.24 275.7 148.672 275.7 149.504C275.7 150.32 274.5 150.752 272.26 150.752C270.02 150.752 268.82 150.32 268.82 149.504C268.82 148.672 270.02 148.24 272.26 148.24ZM272.26 151.984C275.492 151.984 277.412 151.104 277.412 149.504C277.412 147.888 275.492 147.008 272.26 147.008C269.012 147.008 267.108 147.888 267.108 149.504C267.108 151.104 269.012 151.984 272.26 151.984ZM268.932 158.64H277.156V155.184H267.268V156.432H275.54V157.472H267.3V161.104H277.572V159.84H268.932V158.64ZM265.716 152.832V154.144H278.804V152.832H265.716ZM296.54 152.112C293.628 151.696 291.452 149.888 291.452 148.016V147.248H289.708V148.016C289.708 149.92 287.564 151.696 284.62 152.112L285.26 153.44C287.66 153.056 289.66 151.856 290.588 150.176C291.532 151.84 293.5 153.056 295.9 153.44L296.54 152.112ZM297.1 154.8H284.044V156.144H289.708V161.248H291.356V156.144H297.1V154.8ZM304.133 150.736C304.133 149.536 305.045 148.752 306.309 148.752C307.573 148.752 308.501 149.536 308.501 150.736C308.501 151.952 307.573 152.752 306.309 152.752C305.045 152.752 304.133 151.952 304.133 150.736ZM312.677 151.392V154.432H314.325V146.8H312.677V150.032H309.989C309.669 148.448 308.213 147.392 306.309 147.392C304.149 147.392 302.549 148.768 302.549 150.736C302.549 152.736 304.149 154.112 306.309 154.112C308.229 154.112 309.685 153.024 310.005 151.392H312.677ZM307.573 159.792H305.509V158.112H307.573V159.792ZM307.573 155.264V156.896H305.509V155.264H303.973V161.056H309.093V155.264H307.573ZM313.285 155.152H311.653V156.304C311.653 157.728 310.837 159.232 309.093 159.952L309.925 161.2C311.157 160.688 311.973 159.76 312.453 158.672C312.901 159.776 313.733 160.704 315.013 161.2L315.829 159.952C314.085 159.312 313.285 157.84 313.285 156.304V155.152ZM329.444 151.104C326.58 150.736 324.452 149.152 324.452 147.488V146.928H322.756V147.488C322.756 149.168 320.66 150.736 317.764 151.104L318.372 152.384C320.724 152.064 322.676 150.976 323.604 149.472C324.548 150.976 326.5 152.064 328.852 152.384L329.444 151.104ZM326.82 159.744H320.308V158.192H326.82V159.744ZM326.82 156.928H320.308V155.456H318.676V161.056H328.468V155.456H326.82V156.928ZM317.06 153.248V154.56H330.148V153.248H317.06ZM334.274 148.192H332.642V157.584H333.874C336.114 157.584 338.45 157.408 340.93 156.896L340.754 155.52C338.482 155.984 336.322 156.16 334.274 156.176V148.192ZM342.082 146.784V161.232H343.73V146.784H342.082ZM348.737 149.488H353.809V148.144H347.089V157.696H348.273C350.881 157.696 352.833 157.616 355.025 157.216L354.849 155.856C352.833 156.208 351.073 156.304 348.737 156.32V149.488ZM359.953 152.336H357.697V146.768H356.049V161.248H357.697V153.696H359.953V152.336ZM362.8 160.208C363.488 160.208 364.032 159.68 364.032 158.928C364.032 158.176 363.488 157.616 362.8 157.616C362.112 157.616 361.568 158.176 361.568 158.928C361.568 159.68 362.112 160.208 362.8 160.208ZM99.8381 173.568H101.806V180.304C101.15 180.336 100.478 180.368 99.8381 180.384V173.568ZM103.406 173.568H104.814V172.24H96.8301V173.568H98.2381V180.416C97.6141 180.416 97.0061 180.416 96.4621 180.416L96.6381 181.776C99.1501 181.776 102.494 181.728 105.486 181.232L105.39 180.016C104.75 180.096 104.078 180.16 103.406 180.224V173.568ZM110.078 176.432H107.822V170.784H106.174V185.248H107.822V177.792H110.078V176.432ZM123.261 170.768H121.613V178.112H123.261V170.768ZM113.229 174.512C113.229 173.36 114.157 172.608 115.405 172.608C116.669 172.608 117.613 173.36 117.613 174.512C117.613 175.664 116.669 176.416 115.405 176.416C114.157 176.416 113.229 175.664 113.229 174.512ZM119.213 174.512C119.213 172.608 117.597 171.248 115.405 171.248C113.229 171.248 111.629 172.608 111.629 174.512C111.629 176.416 113.229 177.76 115.405 177.76C117.597 177.76 119.213 176.416 119.213 174.512ZM115.437 183.76V182.48H123.261V178.768H113.789V180.064H121.629V181.264H113.821V185.056H123.693V183.76H115.437ZM132.604 172.24C134.844 172.24 136.044 172.672 136.044 173.504C136.044 174.32 134.844 174.752 132.604 174.752C130.364 174.752 129.164 174.32 129.164 173.504C129.164 172.672 130.364 172.24 132.604 172.24ZM132.604 175.984C135.836 175.984 137.756 175.104 137.756 173.504C137.756 171.888 135.836 171.008 132.604 171.008C129.356 171.008 127.452 171.888 127.452 173.504C127.452 175.104 129.356 175.984 132.604 175.984ZM129.276 182.64H137.5V179.184H127.612V180.432H135.884V181.472H127.644V185.104H137.916V183.84H129.276V182.64ZM126.06 176.832V178.144H139.148V176.832H126.06ZM152.852 177.408C150.692 176.688 149.46 174.944 149.46 173.088V171.536H147.796V172.944C147.796 174.992 146.564 176.848 144.292 177.616L145.124 178.928C146.82 178.352 148.004 177.152 148.644 175.632C149.252 177.04 150.42 178.16 152.02 178.688L152.852 177.408ZM146.164 181.52H154.02V185.232H155.668V180.192H146.164V181.52ZM157.716 174.48H155.668V170.8H154.02V179.52H155.668V175.84H157.716V174.48ZM163.491 173.712H165.875V172.352H159.347V173.712H161.891V174.752C161.891 177.328 160.931 179.936 158.883 181.216L159.875 182.432C161.267 181.552 162.195 180 162.707 178.176C163.219 179.856 164.115 181.28 165.475 182.08L166.435 180.88C164.419 179.712 163.491 177.216 163.491 174.752V173.712ZM166.947 175.856H164.819V177.2H166.947V184.528H168.499V171.056H166.947V175.856ZM169.859 170.768V185.216H171.427V170.768H169.859ZM178.034 180.768C176.866 180.768 176.018 179.968 176.018 178.752C176.018 177.536 176.866 176.736 178.034 176.736C179.202 176.736 180.05 177.536 180.05 178.752C180.05 179.968 179.202 180.768 178.034 180.768ZM178.034 175.376C175.954 175.376 174.45 176.784 174.45 178.752C174.45 180.736 175.954 182.128 178.034 182.128C180.098 182.128 181.618 180.736 181.618 178.752C181.618 176.784 180.098 175.376 178.034 175.376ZM178.834 170.992H177.186V173.008H173.746V174.352H182.21V173.008H178.834V170.992ZM187.266 176.592H185.042V170.784H183.378V185.248H185.042V177.968H187.266V176.592ZM193.872 171.984H192.224V174.352C192.224 177.136 190.72 179.904 188.416 180.944L189.392 182.32C191.136 181.472 192.416 179.76 193.072 177.664C193.728 179.616 194.992 181.216 196.656 182L197.616 180.688C195.344 179.664 193.872 177.008 193.872 174.352V171.984ZM198.768 170.768V185.264H200.432V170.768H198.768ZM213.247 173.552C213.247 175.28 213.247 177.328 212.687 180.16L214.351 180.336C214.911 177.344 214.911 175.344 214.911 173.552V172.128H204.623V173.472H213.247V173.552ZM209.791 181.984V176.896H208.127V181.984H203.263V183.344H216.319V181.984H209.791ZM225.976 173.728H228.392V172.368H221.768V173.728H224.376V174.528C224.376 177.392 223.464 179.904 221.368 181.12L222.376 182.352C223.8 181.504 224.728 180.032 225.224 178.192C225.752 179.792 226.648 181.104 228.024 181.856L228.984 180.592C226.888 179.504 225.976 177.136 225.976 174.528V173.728ZM232.408 170.768V176.48H230.824V171.04H229.272V184.56H230.824V177.84H232.408V185.232H233.976V170.768H232.408ZM247.862 175.008H239.558V172.608H247.766V171.28H237.926V176.336H247.862V175.008ZM242.79 183.952C240.678 183.952 239.494 183.488 239.494 182.592C239.494 181.712 240.678 181.232 242.79 181.232C244.902 181.232 246.102 181.712 246.102 182.592C246.102 183.488 244.902 183.952 242.79 183.952ZM242.79 179.968C239.702 179.968 237.814 180.928 237.814 182.592C237.814 184.272 239.702 185.232 242.79 185.232C245.894 185.232 247.766 184.272 247.766 182.592C247.766 180.928 245.894 179.968 242.79 179.968ZM236.31 177.536V178.896H249.366V177.536H236.31ZM252.469 182.272H260.885V185.152H262.533V180.944H252.469V182.272ZM258.373 178.64V177.328H262.741V176.064H254.293V174.784H262.453V171.12H252.645V172.384H260.821V173.6H252.677V177.328H256.725V178.64H250.997V179.968H264.101V178.64H258.373ZM272.846 180.624C271.87 180.624 271.182 179.84 271.182 178.64C271.182 177.44 271.87 176.64 272.846 176.64C273.822 176.64 274.51 177.44 274.51 178.64C274.51 179.84 273.822 180.624 272.846 180.624ZM272.846 175.28C271.022 175.28 269.71 176.64 269.71 178.64C269.71 180.624 271.022 182 272.846 182C274.67 182 275.982 180.624 275.982 178.64C275.982 176.64 274.67 175.28 272.846 175.28ZM273.662 171.2H272.03V173.136H269.294V174.464H276.366V173.136H273.662V171.2ZM280.062 170.784V176.768H278.526V171.088H276.99V184.56H278.526V178.128H280.062V185.232H281.63V170.784H280.062ZM285.356 177.856C287.74 177.504 289.692 176.32 290.572 174.72C291.452 176.32 293.42 177.504 295.804 177.856L296.396 176.56C293.644 176.192 291.612 174.608 291.516 172.928H295.884V171.6H285.244V172.928H289.644C289.548 174.608 287.516 176.192 284.764 176.56L285.356 177.856ZM297.116 178.912H284.044V180.24H289.708V185.248H291.356V180.24H297.1L297.116 178.912ZM303.195 172.112H301.595V174.72C301.595 177.184 300.603 179.776 298.555 180.992L299.563 182.24C300.955 181.392 301.899 179.872 302.411 178.096C302.907 179.712 303.771 181.12 305.083 181.92L306.011 180.64C304.075 179.424 303.195 176.976 303.195 174.64V172.112ZM306.587 175.84H304.459V177.184H306.587V184.56H308.139V171.056H306.587V175.84ZM309.531 170.784V185.232H311.099V170.784H309.531ZM318.186 178.976C318.746 179.104 319.37 179.168 320.01 179.168C320.65 179.168 321.274 179.104 321.834 178.96V182.112H318.186V178.976ZM320.01 172.912C322.186 172.912 323.706 173.872 323.706 175.392C323.706 176.928 322.186 177.888 320.01 177.888C317.818 177.888 316.298 176.928 316.298 175.392C316.298 173.872 317.818 172.912 320.01 172.912ZM323.482 182.112V178.352C324.634 177.696 325.322 176.672 325.322 175.392C325.322 173.088 323.082 171.616 320.01 171.616C316.922 171.616 314.698 173.088 314.698 175.392C314.698 176.672 315.386 177.712 316.538 178.352V182.112H313.482V183.456H326.57V182.112H323.482ZM329.769 184.208C330.457 184.208 331.001 183.68 331.001 182.928C331.001 182.176 330.457 181.616 329.769 181.616C329.081 181.616 328.537 182.176 328.537 182.928C328.537 183.68 329.081 184.208 329.769 184.208Z" fill="white"/>
</svg>
