<svg width="18" height="25" viewBox="0 0 18 25" fill="none" xmlns="http://www.w3.org/2000/svg">
<path d="M3.72454 1.59493C6.12009 0.221328 9.1756 1.04978 10.5492 3.44533L16.5183 13.8554C18.4414 17.2092 17.2816 21.4869 13.9278 23.4099C10.574 25.333 6.2963 24.1731 4.37325 20.8194L0.393835 13.8793L2.12885 12.8845L6.10826 19.8245C7.48187 22.2201 10.5374 23.0485 12.9329 21.6749C15.3285 20.3013 16.1569 17.2458 14.7833 14.8503L8.8142 4.44018C7.99003 3.00285 6.15673 2.50578 4.7194 3.32995C3.28207 4.15411 2.785 5.98741 3.60916 7.42474L9.57829 17.8348C9.85301 18.3139 10.4641 18.4796 10.9432 18.2049C11.4223 17.9302 11.588 17.3191 11.3133 16.84L5.8416 7.2974L7.57661 6.30254L13.0483 15.8451C13.8725 17.2824 13.3754 19.1157 11.9381 19.9399C10.5007 20.7641 8.66744 20.267 7.84327 18.8297L1.87415 8.4196C0.500543 6.02405 1.32899 2.96854 3.72454 1.59493Z" fill="#999999"/>
</svg>
