<svg width="40" height="42" viewBox="0 0 40 42" fill="none" xmlns="http://www.w3.org/2000/svg">
<rect y="0.344727" width="40" height="41.3103" rx="6" fill="#1A73B7"/>
<path d="M25.4035 9.81897C24.8812 8.64742 24.1581 7.75866 23.2743 7.19309C22.3904 6.62751 21.3057 6.34473 19.98 6.34473C18.6141 6.34473 17.5294 6.62751 16.6455 7.19309C15.7617 7.75866 15.0787 8.64742 14.5163 9.81897L7.48584 25.6551H32.5143C32.434 25.4935 25.4035 9.81897 25.4035 9.81897ZM15.2394 21.1709L16.6054 18.0602L19.1363 12.0813C19.2167 11.8389 19.3372 11.7177 19.4979 11.6369C19.6586 11.5561 19.8193 11.5157 19.98 11.5157C20.1809 11.5157 20.3416 11.5561 20.4621 11.6369C20.6228 11.7177 20.7433 11.8793 20.8236 12.0813L23.1136 17.4542L24.7205 21.1305H15.2394V21.1709Z" fill="white"/>
<path d="M6.0286 34.6553H9.2836V33.7873H7.0646V32.4013H8.8846V31.5333H7.0646V30.3363H9.2066V29.4753H6.0286V34.6553ZM10.3352 34.6553H13.4712V33.7873H11.3712V29.4753H10.3352V34.6553ZM14.3753 34.6553H15.4113V29.4753H14.3753V34.6553ZM18.9118 34.7533C19.6328 34.7533 20.2418 34.4733 20.5918 34.1303V31.7923H18.7508V32.6393H19.6678V33.6613C19.5208 33.7873 19.2688 33.8573 19.0168 33.8573C18.0018 33.8573 17.4838 33.1783 17.4838 32.0513C17.4838 30.9383 18.0858 30.2663 18.9468 30.2663C19.4158 30.2663 19.7098 30.4553 19.9618 30.7003L20.5148 30.0423C20.1788 29.6993 19.6608 29.3773 18.9118 29.3773C17.5328 29.3773 16.4268 30.3783 16.4268 32.0863C16.4268 33.8153 17.4978 34.7533 18.9118 34.7533ZM22.6764 32.5203L22.8304 31.9533C22.9844 31.4143 23.1384 30.8263 23.2714 30.2593H23.2994C23.4534 30.8193 23.5934 31.4143 23.7544 31.9533L23.9084 32.5203H22.6764ZM24.4964 34.6553H25.5814L23.9154 29.4753H22.6974L21.0384 34.6553H22.0884L22.4524 33.3253H24.1324L24.4964 34.6553ZM26.5238 34.7463C26.7758 34.7463 26.9858 34.5503 26.9858 34.2633C26.9858 33.9763 26.7758 33.7663 26.5238 33.7663C26.2718 33.7663 26.0618 33.9763 26.0618 34.2633C26.0618 34.5503 26.2718 34.7463 26.5238 34.7463ZM28.136 34.6553H29.172V33.1993L29.851 32.3313L31.188 34.6553H32.329L30.467 31.5123L32.049 29.4753H30.908L29.193 31.7223H29.172V29.4753H28.136V34.6553ZM32.9349 34.6553H33.9709V29.4753H32.9349V34.6553Z" fill="white"/>
</svg>
