<svg width="12" height="17" viewBox="0 0 12 17" fill="none" xmlns="http://www.w3.org/2000/svg">
<path d="M2.24557 0.992197C3.85504 0.0693287 5.9079 0.625929 6.83077 2.2354L10.8412 9.22949C12.1332 11.4827 11.354 14.3568 9.10069 15.6488C6.84744 16.9408 3.97342 16.1616 2.68141 13.9083L0.00780309 9.24557L1.17348 8.57717L3.84709 13.2399C4.76996 14.8494 6.82282 15.406 8.43229 14.4831C10.0418 13.5602 10.5984 11.5074 9.67549 9.89789L5.66509 2.9038C5.11137 1.93812 3.87965 1.60416 2.91397 2.15788C1.94829 2.7116 1.61432 3.94332 2.16805 4.909L6.17845 11.9031C6.36302 12.225 6.7736 12.3363 7.09549 12.1517C7.41739 11.9672 7.52871 11.5566 7.34413 11.2347L3.66793 4.82344L4.83361 4.15504L8.50981 10.5663C9.06354 11.532 8.72958 12.7637 7.76389 13.3174C6.79821 13.8711 5.56649 13.5372 5.01277 12.5715L1.00236 5.5774C0.079496 3.96793 0.636096 1.91507 2.24557 0.992197Z" fill="#999999"/>
</svg>
