<svg width="15" height="12" viewBox="0 0 15 12" fill="none" xmlns="http://www.w3.org/2000/svg">
<path d="M4.70446 11.8334C4.40009 11.8334 4.10895 11.715 3.8906 11.498L0.33745 7.96657C0.1191 7.74956 0 7.46678 0 7.1577C0 6.8552 0.1191 6.56584 0.33745 6.34883C0.555801 6.13182 0.840318 6.01345 1.1513 6.01345C1.45567 6.01345 1.7468 6.13182 1.96515 6.34883L4.70446 9.08452L13.0348 0.805112C13.2532 0.588098 13.5377 0.469727 13.8487 0.469727C14.1531 0.469727 14.4442 0.588098 14.6626 0.805112C14.8809 1.02213 15 1.3049 15 1.61398C15 1.91649 14.8809 2.20584 14.6626 2.42285L5.51831 11.5046C5.29996 11.715 5.00882 11.8334 4.70446 11.8334Z" fill="#39B54A"/>
</svg>
