<svg width="16" height="17" viewBox="0 0 16 17" fill="none" xmlns="http://www.w3.org/2000/svg">
<path d="M8.0008 16.4372C3.58409 16.4323 0.00485038 12.8531 0 8.43636V8.27634C0.087954 3.87953 3.70804 0.377921 8.10535 0.436266C12.5027 0.49461 16.0286 4.09103 15.9998 8.48864C15.9711 12.8862 12.3985 16.4363 8.0008 16.4372ZM4.89303 8.67075C4.58104 8.35996 4.07632 8.36044 3.76492 8.67184C3.4531 8.98366 3.4531 9.48922 3.76492 9.80104L5.59721 11.6333C6.04093 12.0771 6.76035 12.0771 7.20407 11.6333L12.2372 6.60018C12.5491 6.28834 12.55 5.78301 12.2392 5.47007C11.9269 5.15556 11.4185 5.15466 11.1051 5.46807L6.40064 10.1725L4.89303 8.67075Z" fill="#51CF66"/>
</svg>
