<svg width="40" height="40" viewBox="0 0 40 40" fill="none" xmlns="http://www.w3.org/2000/svg">
<circle cx="20" cy="20" r="20" fill="#F7BCBC"/>
<circle cx="20" cy="20" r="15" fill="#F05B5B"/>
<path d="M13.9815 24.13C15.8215 24.13 17.1115 22.66 17.1115 20.31C17.1115 17.96 15.8215 16.53 13.9815 16.53C12.1415 16.53 10.8515 17.96 10.8515 20.31C10.8515 22.66 12.1415 24.13 13.9815 24.13ZM13.9815 23.32C12.6615 23.32 11.8015 22.14 11.8015 20.31C11.8015 18.47 12.6615 17.34 13.9815 17.34C15.2915 17.34 16.1615 18.47 16.1615 20.31C16.1615 22.14 15.2915 23.32 13.9815 23.32ZM18.6934 24H19.6234V20.71H22.4234V19.93H19.6234V17.45H22.9234V16.67H18.6934V24ZM24.2109 24H25.1409V20.71H27.9409V19.93H25.1409V17.45H28.4409V16.67H24.2109V24Z" fill="white"/>
</svg>
