<svg width="16" height="17" viewBox="0 0 16 17" fill="none" xmlns="http://www.w3.org/2000/svg">
<path fill-rule="evenodd" clip-rule="evenodd" d="M8 16.2046C12.4183 16.2046 16 12.6229 16 8.20459C16 3.78631 12.4183 0.20459 8 0.20459C3.58172 0.20459 0 3.78631 0 8.20459C0 12.6229 3.58172 16.2046 8 16.2046ZM10.2331 5.32682C10.4111 5.14883 10.6997 5.14883 10.8777 5.32682C11.0557 5.50481 11.0557 5.7934 10.8777 5.97139L8.64452 8.20453L10.8777 10.4377C11.0557 10.6157 11.0557 10.9043 10.8777 11.0822C10.6997 11.2602 10.4111 11.2602 10.2331 11.0822L7.99994 8.84911L5.74713 11.1019C5.58 11.269 5.30903 11.269 5.1419 11.1019C4.95304 10.9131 4.95304 10.6069 5.1419 10.418L7.35537 8.20453L5.12223 5.97139C4.94424 5.7934 4.94424 5.50481 5.12223 5.32682C5.30022 5.14883 5.58881 5.14883 5.7668 5.32682L7.99994 7.55996L10.2331 5.32682Z" fill="#D45151"/>
</svg>
