<svg width="16" height="17" viewBox="0 0 16 17" fill="none" xmlns="http://www.w3.org/2000/svg">
<path d="M8 0.49707C3.584 0.49707 0 4.08107 0 8.49707C0 12.9131 3.584 16.4971 8 16.4971C12.416 16.4971 16 12.9131 16 8.49707C16 4.08107 12.416 0.49707 8 0.49707ZM10.888 5.56907C11.744 5.56907 12.432 6.25707 12.432 7.11307C12.432 7.96907 11.744 8.65707 10.888 8.65707C10.032 8.65707 9.344 7.96907 9.344 7.11307C9.336 6.25707 10.032 5.56907 10.888 5.56907ZM6.088 4.30507C7.128 4.30507 7.976 5.15307 7.976 6.19307C7.976 7.23307 7.128 8.08107 6.088 8.08107C5.048 8.08107 4.2 7.23307 4.2 6.19307C4.2 5.14507 5.04 4.30507 6.088 4.30507ZM6.088 11.6091V14.6091C4.168 14.0091 2.648 12.5291 1.976 10.6411C2.816 9.74507 4.912 9.28907 6.088 9.28907C6.512 9.28907 7.048 9.35307 7.608 9.46507C6.296 10.1611 6.088 11.0811 6.088 11.6091ZM8 14.8971C7.784 14.8971 7.576 14.8891 7.368 14.8651V11.6091C7.368 10.4731 9.72 9.90507 10.888 9.90507C11.744 9.90507 13.224 10.2171 13.96 10.8251C13.024 13.2011 10.712 14.8971 8 14.8971Z" fill="black" fill-opacity="0.54"/>
</svg>
