<svg width="11" height="11" viewBox="0 0 11 11" fill="none" xmlns="http://www.w3.org/2000/svg">
<path d="M5.49429 6.98293L6.13711 7.62575L8.06559 5.69728L6.13711 3.76881L5.49429 4.41163L6.32539 5.24274H2.89942V6.15183H6.32539L5.49429 6.98293Z" fill="#333333"/>
<path fill-rule="evenodd" clip-rule="evenodd" d="M0.470703 8.87908C0.470703 9.88324 1.28473 10.6973 2.28888 10.6973H8.65252C9.65668 10.6973 10.4707 9.88324 10.4707 8.87908V2.51545C10.4707 1.51129 9.65668 0.697266 8.65252 0.697266H2.28888C1.28473 0.697266 0.470703 1.51129 0.470703 2.51545V8.87908ZM2.28888 9.78817H8.65252C9.1546 9.78817 9.56161 9.38116 9.56161 8.87908V2.51545C9.56161 2.01337 9.1546 1.60636 8.65252 1.60636H2.28888C1.78681 1.60636 1.37979 2.01337 1.37979 2.51545V8.87908C1.37979 9.38116 1.78681 9.78817 2.28888 9.78817Z" fill="#333333"/>
</svg>
