<svg width="87" height="14" viewBox="0 0 87 14" fill="none" xmlns="http://www.w3.org/2000/svg">
<path d="M0 1.98217L5.59642 1.23024V6.69715L0.00522645 6.73955L0 1.98217ZM5.59642 7.30405V12.83L0.00444088 12.0637L0.00412024 7.30405H5.59642ZM6.3104 1.13244L13.9982 0V6.63711L6.3104 6.69715V1.13244ZM14 7.39277L13.9982 14L6.3104 12.9473V7.39277H14Z" fill="#00AEF0"/>
<path d="M21.3018 8.8623L21.4932 10.1748L21.7734 8.99219L23.7422 2.04688H24.8496L26.7705 8.99219L27.0439 10.1953L27.2559 8.85547L28.8008 2.04688H30.1201L27.707 12H26.5107L24.46 4.74707L24.3027 3.98828L24.1455 4.74707L22.0195 12H20.8232L18.417 2.04688H19.7295L21.3018 8.8623ZM32.7588 12H31.4941V4.60352H32.7588V12ZM31.3916 2.6416C31.3916 2.43652 31.4531 2.26335 31.5762 2.12207C31.7038 1.98079 31.8906 1.91016 32.1367 1.91016C32.3828 1.91016 32.5697 1.98079 32.6973 2.12207C32.8249 2.26335 32.8887 2.43652 32.8887 2.6416C32.8887 2.84668 32.8249 3.01758 32.6973 3.1543C32.5697 3.29102 32.3828 3.35938 32.1367 3.35938C31.8906 3.35938 31.7038 3.29102 31.5762 3.1543C31.4531 3.01758 31.3916 2.84668 31.3916 2.6416ZM35.9854 4.60352L36.0264 5.5332C36.5915 4.82227 37.3298 4.4668 38.2412 4.4668C39.8044 4.4668 40.5928 5.34863 40.6064 7.1123V12H39.3418V7.10547C39.3372 6.57227 39.2142 6.17806 38.9727 5.92285C38.7357 5.66764 38.3643 5.54004 37.8584 5.54004C37.4482 5.54004 37.0882 5.64941 36.7783 5.86816C36.4684 6.08691 36.2269 6.37402 36.0537 6.72949V12H34.7891V4.60352H35.9854ZM42.2061 8.24023C42.2061 7.10547 42.4749 6.19401 43.0127 5.50586C43.5505 4.81315 44.2546 4.4668 45.125 4.4668C45.9909 4.4668 46.6768 4.76302 47.1826 5.35547V1.5H48.4473V12H47.2852L47.2236 11.207C46.7178 11.8268 46.0137 12.1367 45.1113 12.1367C44.2546 12.1367 43.555 11.7858 43.0127 11.084C42.4749 10.3822 42.2061 9.46615 42.2061 8.33594V8.24023ZM43.4707 8.38379C43.4707 9.22233 43.6439 9.87858 43.9902 10.3525C44.3366 10.8265 44.8151 11.0635 45.4258 11.0635C46.2279 11.0635 46.8135 10.7035 47.1826 9.9834V6.58594C46.8044 5.88867 46.2233 5.54004 45.4395 5.54004C44.8197 5.54004 44.3366 5.7793 43.9902 6.25781C43.6439 6.73633 43.4707 7.44499 43.4707 8.38379ZM50.0811 8.2334C50.0811 7.50879 50.2223 6.8571 50.5049 6.27832C50.792 5.69954 51.1885 5.25293 51.6943 4.93848C52.2048 4.62402 52.7858 4.4668 53.4375 4.4668C54.4447 4.4668 55.2581 4.81543 55.8779 5.5127C56.5023 6.20996 56.8145 7.13737 56.8145 8.29492V8.38379C56.8145 9.10384 56.6755 9.75098 56.3975 10.3252C56.124 10.8949 55.7298 11.3392 55.2148 11.6582C54.7044 11.9772 54.1165 12.1367 53.4512 12.1367C52.4486 12.1367 51.6351 11.7881 51.0107 11.0908C50.391 10.3936 50.0811 9.4707 50.0811 8.32227V8.2334ZM51.3525 8.38379C51.3525 9.2041 51.5417 9.86263 51.9199 10.3594C52.3027 10.8561 52.8132 11.1045 53.4512 11.1045C54.0938 11.1045 54.6042 10.8538 54.9824 10.3525C55.3607 9.84668 55.5498 9.1403 55.5498 8.2334C55.5498 7.4222 55.3561 6.76595 54.9688 6.26465C54.5859 5.75879 54.0755 5.50586 53.4375 5.50586C52.8132 5.50586 52.3096 5.75423 51.9268 6.25098C51.5439 6.74772 51.3525 7.45866 51.3525 8.38379ZM64.9492 10.2568L66.3711 4.60352H67.6357L65.4824 12H64.457L62.6592 6.39453L60.9092 12H59.8838L57.7373 4.60352H58.9951L60.4512 10.1406L62.1738 4.60352H63.1924L64.9492 10.2568ZM73.2344 10.0381C73.2344 9.69629 73.1045 9.43197 72.8447 9.24512C72.5895 9.05371 72.1406 8.88965 71.498 8.75293C70.86 8.61621 70.3519 8.45215 69.9736 8.26074C69.5999 8.06934 69.3219 7.84147 69.1396 7.57715C68.9619 7.31283 68.873 6.99837 68.873 6.63379C68.873 6.02767 69.1283 5.51497 69.6387 5.0957C70.1536 4.67643 70.8099 4.4668 71.6074 4.4668C72.446 4.4668 73.125 4.68327 73.6445 5.11621C74.1686 5.54915 74.4307 6.10286 74.4307 6.77734H73.1592C73.1592 6.43099 73.0111 6.13249 72.7148 5.88184C72.4232 5.63118 72.054 5.50586 71.6074 5.50586C71.1471 5.50586 70.7871 5.60612 70.5273 5.80664C70.2676 6.00716 70.1377 6.26921 70.1377 6.59277C70.1377 6.89811 70.2585 7.12826 70.5 7.2832C70.7415 7.43815 71.1768 7.58626 71.8057 7.72754C72.4391 7.86882 72.9518 8.03743 73.3438 8.2334C73.7357 8.42936 74.0251 8.66634 74.2119 8.94434C74.4033 9.21777 74.499 9.55273 74.499 9.94922C74.499 10.61 74.2347 11.141 73.7061 11.542C73.1774 11.9385 72.4915 12.1367 71.6484 12.1367C71.056 12.1367 70.5319 12.0319 70.0762 11.8223C69.6204 11.6126 69.2627 11.321 69.0029 10.9473C68.7477 10.569 68.6201 10.1611 68.6201 9.72363H69.8848C69.9076 10.1475 70.0762 10.4847 70.3906 10.7354C70.7096 10.9814 71.1289 11.1045 71.6484 11.1045C72.127 11.1045 72.5098 11.0088 72.7969 10.8174C73.0885 10.6214 73.2344 10.3617 73.2344 10.0381Z" fill="#00AEF0"/>
<path d="M82.5837 1H83.6172V8.485L85.2928 6.80943L86.0235 7.5402L83.1004 10.4633L80.1774 7.5402L80.9081 6.80943L82.5837 8.48501V1Z" fill="#00AEF0"/>
<path d="M86.2008 10.9665H80V12H86.2008V10.9665Z" fill="#00AEF0"/>
</svg>
