<svg width="21" height="21" viewBox="0 0 21 21" fill="none" xmlns="http://www.w3.org/2000/svg">
<path class="hover-color" fill-rule="evenodd" clip-rule="evenodd" d="M12.2252 15.8394L7.75329 12.7786C7.60688 12.6797 7.43418 12.6255 7.25709 12.6255H3.45844V8.37562H7.25709C7.43418 8.37562 7.60688 8.32137 7.75329 8.22249L12.2252 5.16174V15.8394ZM13.5104 2.72662C13.222 2.57437 12.874 2.5945 12.6066 2.77825L6.98532 6.62562H2.58176C2.09783 6.62562 1.70508 7.01675 1.70508 7.50062V13.5005C1.70508 13.9844 2.09783 14.3755 2.58176 14.3755H6.98532L12.6066 18.2229C12.7547 18.3244 12.9283 18.3751 13.1019 18.3751C13.2422 18.3751 13.3824 18.3419 13.5104 18.2745C13.798 18.1231 13.9786 17.8256 13.9786 17.5001V3.50012C13.9786 3.1755 13.798 2.878 13.5104 2.72662ZM16.4151 7.32685C16.1109 6.9506 15.5595 6.89198 15.1825 7.19385C14.8056 7.4966 14.7451 8.04698 15.0484 8.4241C15.9566 9.54935 15.9566 11.4516 15.0484 12.5769C14.7451 12.954 14.8056 13.5044 15.1825 13.8071C15.3447 13.9375 15.5385 14.0005 15.7313 14.0005C15.9873 14.0005 16.2416 13.8885 16.4151 13.6741C17.8494 11.8944 17.8494 9.1066 16.4151 7.32685ZM16.3717 4.69266C16.6803 4.31991 17.2334 4.26828 17.606 4.57628C19.5067 6.14778 20.5534 8.25216 20.5534 10.5009C20.5534 12.7488 19.5067 14.8532 17.606 16.4247C17.4421 16.5594 17.244 16.6259 17.0476 16.6259C16.7951 16.6259 16.5452 16.5174 16.3717 16.3083C16.0631 15.9364 16.1148 15.3852 16.4883 15.0763C17.9786 13.8434 18.8001 12.2185 18.8001 10.5009C18.8001 8.78241 17.9786 7.15753 16.4883 5.92466C16.1148 5.61578 16.0631 5.06453 16.3717 4.69266Z" fill="#666666"/>
</svg>
