<svg width="24" height="24" viewBox="0 0 24 24" fill="none" xmlns="http://www.w3.org/2000/svg">
<path d="M4.66667 0H0V4.66667H1.33333V1.33333H4.66667V0Z" fill="#666666"/>
<path d="M7.33333 1.33333V0H10.6667V1.33333H7.33333Z" fill="#666666"/>
<path d="M13.3333 1.33333H16.6667V0H13.3333V1.33333Z" fill="#666666"/>
<path d="M19.3333 0V1.33333H22.6667V4.66667H24V0H19.3333Z" fill="#666666"/>
<path d="M24 7.33333H22.6667V10.6667H24V7.33333Z" fill="#666666"/>
<path d="M24 13.3333H22.6667V16.6667H24V13.3333Z" fill="#666666"/>
<path d="M24 19.3333H22.6667V22.6667H19.3333V24H24V19.3333Z" fill="#666666"/>
<path d="M16.6667 24V22.6667H13.3333V24H16.6667Z" fill="#666666"/>
<path d="M10.6667 24V22.6667H7.33333V24H10.6667Z" fill="#666666"/>
<path d="M4.66667 24V22.6667H1.33333V19.3333H0V24H4.66667Z" fill="#666666"/>
<path d="M0 16.6667H1.33333V13.3333H0V16.6667Z" fill="#666666"/>
<path d="M0 10.6667H1.33333V7.33333H0V10.6667Z" fill="#666666"/>
<path d="M10.6667 8.66667H5.33333V6H18.6667V8.66667H13.3333V18H10.6667V8.66667Z" fill="#666666"/>
</svg>
