<svg width="24" height="24" viewBox="0 0 24 24" fill="none" xmlns="http://www.w3.org/2000/svg">
<path fill-rule="evenodd" clip-rule="evenodd" d="M12.0001 3.60005C12.0001 5.5883 10.3883 7.2001 8.40005 7.2001C6.41179 7.2001 4.79999 5.5883 4.79999 3.60005C4.79999 1.6118 6.41179 0 8.40005 0C10.3883 0 12.0001 1.6118 12.0001 3.60005ZM2.40003 10.2003C3.72554 10.2003 4.80007 9.12576 4.80007 7.80026C4.80007 6.47475 3.72554 5.40022 2.40003 5.40022C1.07453 5.40022 0 6.47475 0 7.80026C0 9.12576 1.07453 10.2003 2.40003 10.2003ZM8.09997 12.0002C8.92841 12.0002 9.59999 11.3286 9.59999 10.5001C9.59999 9.67171 8.92841 9.00013 8.09997 9.00013C7.27153 9.00013 6.59995 9.67171 6.59995 10.5001C6.59995 11.3286 7.27153 12.0002 8.09997 12.0002Z" fill="#666666"/>
<path d="M16.5 5L9 23.29L9.71 24L16.5 21L23.29 24L24 23.29L16.5 5Z" fill="#666666"/>
</svg>
