<svg width="24" height="24" viewBox="0 0 24 24" fill="none" xmlns="http://www.w3.org/2000/svg">
<path d="M20.4881 8.48806V3.51194H15.5119L12 0L8.48806 3.51194H3.51194V8.48806L0 12L3.51194 15.5119V20.4881H8.48806L12 24L15.5119 20.4881H20.4881V15.5119L24 12L20.4881 8.48806ZM12 18.366C11.0557 18.366 10.1538 18.1538 9.34748 17.7825C11.5332 16.7745 13.061 14.5676 13.061 12C13.061 9.43236 11.5332 7.22546 9.34748 6.21751C10.1538 5.84615 11.0557 5.63395 12 5.63395C15.5119 5.63395 18.366 8.48806 18.366 12C18.366 15.5119 15.5119 18.366 12 18.366Z" fill="#666666"/>
</svg>
