<svg width="8" height="10" viewBox="0 0 8 10" fill="none" xmlns="http://www.w3.org/2000/svg">
<path class="lock" fill-rule="evenodd" clip-rule="evenodd" d="M3.99979 1.00028C3.44829 1.00028 2.99979 1.47378 2.99979 2.05578V3.00028H4.99979V2.05578C4.99979 1.47378 4.55129 1.00028 3.99979 1.00028ZM6.49993 8.99972C6.77593 8.99972 6.99993 8.77572 6.99993 8.49972V4.49972C6.99993 4.22372 6.77593 3.99972 6.49993 3.99972H5.99993H4.99993H2.99993H1.99993H1.49993C1.22393 3.99972 0.99993 4.22372 0.99993 4.49972V8.49972C0.99993 8.77572 1.22393 8.99972 1.49993 8.99972H6.49993ZM6 3H6.5C7.327 3 8 3.673 8 4.5V8.5C8 9.327 7.327 10 6.5 10H1.5C0.673 10 0 9.327 0 8.5V4.5C0 3.673 0.673 3 1.5 3H2V2.0555C2 0.9225 2.897 0 4 0C5.103 0 6 0.9225 6 2.0555V3ZM3.49993 6.50028C3.49993 6.77628 3.72393 7.00028 3.99993 7.00028C4.27593 7.00028 4.49993 6.77628 4.49993 6.50028C4.49993 6.22428 4.27593 6.00028 3.99993 6.00028C3.72393 6.00028 3.49993 6.22428 3.49993 6.50028ZM2.5 6.5C2.5 5.673 3.173 5 4 5C4.827 5 5.5 5.673 5.5 6.5C5.5 7.327 4.827 8 4 8C3.173 8 2.5 7.327 2.5 6.5Z" fill="#666666"/>
</svg>
