<svg width="24" height="24" viewBox="0 0 24 24" fill="none" xmlns="http://www.w3.org/2000/svg">
<path d="M1.86902 20.499C1.48306 21.1656 1.96411 22 2.73445 22H21.2656C22.0359 22 22.5169 21.1656 22.131 20.499L12.8654 4.49482C12.4803 3.82954 11.5197 3.82954 11.1346 4.49483L1.86902 20.499ZM13 18C13 18.5523 12.5523 19 12 19V19C11.4477 19 11 18.5523 11 18V18C11 17.4477 11.4477 17 12 17V17C12.5523 17 13 17.4477 13 18V18ZM13 14C13 14.5523 12.5523 15 12 15V15C11.4477 15 11 14.5523 11 14V12C11 11.4477 11.4477 11 12 11V11C12.5523 11 13 11.4477 13 12V14Z" fill="#F05B5B"/>
</svg>
