<svg width="20" height="20" viewBox="0 0 20 20" fill="none" xmlns="http://www.w3.org/2000/svg">
<path d="M3.33333 6.66667C3.79357 6.66667 4.16667 6.29357 4.16667 5.83333C4.16667 5.3731 3.79357 5 3.33333 5C2.8731 5 2.5 5.3731 2.5 5.83333C2.5 6.29357 2.8731 6.66667 3.33333 6.66667Z" fill="#555555"/>
<path d="M3.33333 10.8337C3.79357 10.8337 4.16667 10.4606 4.16667 10.0003C4.16667 9.54009 3.79357 9.16699 3.33333 9.16699C2.8731 9.16699 2.5 9.54009 2.5 10.0003C2.5 10.4606 2.8731 10.8337 3.33333 10.8337Z" fill="#555555"/>
<path d="M3.33333 14.9997C3.79357 14.9997 4.16667 14.6266 4.16667 14.1663C4.16667 13.7061 3.79357 13.333 3.33333 13.333C2.8731 13.333 2.5 13.7061 2.5 14.1663C2.5 14.6266 2.8731 14.9997 3.33333 14.9997Z" fill="#555555"/>
<path d="M16.7163 9.16699H6.61634C6.18372 9.16699 5.83301 9.5177 5.83301 9.95033V10.0503C5.83301 10.4829 6.18372 10.8337 6.61634 10.8337H16.7163C17.149 10.8337 17.4997 10.4829 17.4997 10.0503V9.95033C17.4997 9.5177 17.149 9.16699 16.7163 9.16699Z" fill="#555555"/>
<path d="M16.7163 13.333H6.61634C6.18372 13.333 5.83301 13.6837 5.83301 14.1163V14.2163C5.83301 14.649 6.18372 14.9997 6.61634 14.9997H16.7163C17.149 14.9997 17.4997 14.649 17.4997 14.2163V14.1163C17.4997 13.6837 17.149 13.333 16.7163 13.333Z" fill="#555555"/>
<path d="M16.7163 5H6.61634C6.18372 5 5.83301 5.35071 5.83301 5.78333V5.88333C5.83301 6.31596 6.18372 6.66667 6.61634 6.66667H16.7163C17.149 6.66667 17.4997 6.31596 17.4997 5.88333V5.78333C17.4997 5.35071 17.149 5 16.7163 5Z" fill="#555555"/>
</svg>
