<svg width="22" height="22" viewBox="0 0 22 22" fill="none" xmlns="http://www.w3.org/2000/svg">
<path d="M10.9998 7.79215C11.1205 7.79145 11.2401 7.81457 11.3517 7.86019C11.4634 7.90581 11.565 7.97302 11.6507 8.05798L15.3173 11.7246C15.4028 11.8101 15.4706 11.9116 15.5169 12.0233C15.5631 12.1349 15.5869 12.2546 15.5869 12.3755C15.5869 12.4964 15.5631 12.616 15.5169 12.7277C15.4706 12.8394 15.4028 12.9408 15.3173 13.0263C15.2319 13.1118 15.1304 13.1796 15.0187 13.2258C14.9071 13.2721 14.7874 13.2959 14.6665 13.2959C14.5456 13.2959 14.4259 13.2721 14.3143 13.2258C14.2026 13.1796 14.1011 13.1118 14.0157 13.0263L10.9998 9.99215L7.97483 12.9071C7.8905 13.0009 7.78774 13.0763 7.67296 13.1285C7.55818 13.1807 7.43386 13.2087 7.30777 13.2107C7.18168 13.2127 7.05653 13.1887 6.94016 13.1401C6.82378 13.0915 6.71868 13.0195 6.63143 12.9284C6.54417 12.8374 6.47664 12.7293 6.43306 12.611C6.38948 12.4926 6.37078 12.3666 6.37814 12.2407C6.3855 12.1148 6.41876 11.9918 6.47583 11.8793C6.5329 11.7669 6.61256 11.6674 6.70983 11.5871L10.3765 8.04881C10.5441 7.88719 10.767 7.79542 10.9998 7.79215Z" fill="#555555"/>
</svg>
