<svg width="22" height="22" viewBox="0 0 22 22" fill="none" xmlns="http://www.w3.org/2000/svg">
<path d="M11.0002 14.2079C10.8795 14.2086 10.7599 14.1854 10.6483 14.1398C10.5366 14.0942 10.435 14.027 10.3493 13.942L6.68267 10.2754C6.5972 10.1899 6.5294 10.0884 6.48315 9.97675C6.43689 9.86508 6.41309 9.74539 6.41309 9.62452C6.41309 9.50365 6.43689 9.38396 6.48315 9.27229C6.5294 9.16062 6.5972 9.05915 6.68267 8.97369C6.76814 8.88822 6.8696 8.82042 6.98127 8.77416C7.09295 8.72791 7.21263 8.7041 7.3335 8.7041C7.45437 8.7041 7.57406 8.72791 7.68573 8.77416C7.7974 8.82042 7.89887 8.88822 7.98434 8.97369L11.0002 12.0079L14.0252 9.09285C14.1095 8.99909 14.2123 8.92373 14.327 8.87149C14.4418 8.81925 14.5661 8.79126 14.6922 8.78926C14.8183 8.78727 14.9435 8.81131 15.0598 8.85988C15.1762 8.90846 15.2813 8.98052 15.3686 9.07157C15.4558 9.16262 15.5234 9.27069 15.5669 9.38902C15.6105 9.50736 15.6292 9.63342 15.6219 9.75931C15.6145 9.8852 15.5812 10.0082 15.5242 10.1207C15.4671 10.2331 15.3874 10.3326 15.2902 10.4129L11.6235 13.9512C11.4559 14.1128 11.233 14.2046 11.0002 14.2079Z" fill="#555555"/>
</svg>
