<svg width="20" height="20" viewBox="0 0 20 20" fill="none" xmlns="http://www.w3.org/2000/svg">
<path d="M15 17.5H10C9.33696 17.5 8.70107 17.2366 8.23223 16.7678C7.76339 16.2989 7.5 15.663 7.5 15V10C7.5 9.33696 7.76339 8.70107 8.23223 8.23223C8.70107 7.76339 9.33696 7.5 10 7.5H15C15.663 7.5 16.2989 7.76339 16.7678 8.23223C17.2366 8.70107 17.5 9.33696 17.5 10V15C17.5 15.663 17.2366 16.2989 16.7678 16.7678C16.2989 17.2366 15.663 17.5 15 17.5ZM10 9.16667C9.77899 9.16667 9.56702 9.25446 9.41074 9.41074C9.25446 9.56702 9.16667 9.77899 9.16667 10V15C9.16667 15.221 9.25446 15.433 9.41074 15.5893C9.56702 15.7455 9.77899 15.8333 10 15.8333H15C15.221 15.8333 15.433 15.7455 15.5893 15.5893C15.7455 15.433 15.8333 15.221 15.8333 15V10C15.8333 9.77899 15.7455 9.56702 15.5893 9.41074C15.433 9.25446 15.221 9.16667 15 9.16667H10Z" fill="#555555"/>
<path d="M8.10833 12.5H4.725C4.13557 12.4978 3.57091 12.2627 3.15411 11.8459C2.73732 11.4291 2.5022 10.8644 2.5 10.275V4.725C2.5022 4.13557 2.73732 3.57091 3.15411 3.15411C3.57091 2.73732 4.13557 2.5022 4.725 2.5H10.275C10.8644 2.5022 11.4291 2.73732 11.8459 3.15411C12.2627 3.57091 12.4978 4.13557 12.5 4.725V7.83333H10.8333V4.725C10.8333 4.57692 10.7745 4.43491 10.6698 4.3302C10.5651 4.22549 10.4231 4.16667 10.275 4.16667H4.725C4.57692 4.16667 4.43491 4.22549 4.3302 4.3302C4.22549 4.43491 4.16667 4.57692 4.16667 4.725V10.275C4.16667 10.4231 4.22549 10.5651 4.3302 10.6698C4.43491 10.7745 4.57692 10.8333 4.725 10.8333H8.10833V12.5Z" fill="#555555"/>
</svg>
