<svg width="20" height="20" viewBox="0 0 20 20" fill="none" xmlns="http://www.w3.org/2000/svg">
<path d="M10.0003 1.66699C8.35215 1.66699 6.74099 2.15573 5.37058 3.07141C4.00017 3.98709 2.93206 5.28858 2.30133 6.8113C1.6706 8.33401 1.50558 10.0096 1.82712 11.6261C2.14866 13.2426 2.94234 14.7274 4.10777 15.8929C5.27321 17.0583 6.75807 17.852 8.37458 18.1735C9.99109 18.4951 11.6666 18.3301 13.1894 17.6993C14.7121 17.0686 16.0136 16.0005 16.9292 14.6301C17.8449 13.2597 18.3337 11.6485 18.3337 10.0003C18.3337 8.90598 18.1181 7.82234 17.6993 6.8113C17.2805 5.80025 16.6667 4.88159 15.8929 4.10777C15.1191 3.33395 14.2004 2.72012 13.1894 2.30133C12.1783 1.88254 11.0947 1.66699 10.0003 1.66699ZM10.0003 16.667C8.68179 16.667 7.39286 16.276 6.29653 15.5435C5.2002 14.8109 4.34572 13.7697 3.84113 12.5515C3.33655 11.3334 3.20453 9.99293 3.46176 8.69972C3.719 7.40652 4.35393 6.21863 5.28628 5.28628C6.21863 4.35393 7.40652 3.71899 8.69973 3.46176C9.99293 3.20452 11.3334 3.33654 12.5516 3.84113C13.7697 4.34571 14.8109 5.2002 15.5435 6.29652C16.276 7.39285 16.667 8.68178 16.667 10.0003C16.667 11.7684 15.9646 13.4641 14.7144 14.7144C13.4641 15.9646 11.7684 16.667 10.0003 16.667Z" fill="#555555"/>
<path d="M10.2832 6.20791C10.079 6.01974 9.82403 5.89572 9.54993 5.85128C9.27584 5.80683 8.99473 5.84391 8.74154 5.95791C8.49575 6.05734 8.28519 6.22778 8.13675 6.44747C7.98831 6.66716 7.90874 6.92611 7.9082 7.19125V12.8079C7.90874 13.073 7.98831 13.332 8.13675 13.5517C8.28519 13.7714 8.49575 13.9418 8.74154 14.0412C8.92218 14.1232 9.11818 14.1658 9.31654 14.1662C9.67397 14.1647 10.0182 14.0311 10.2832 13.7912L13.3332 10.9829C13.4696 10.858 13.5785 10.7061 13.6531 10.5368C13.7276 10.3675 13.7661 10.1845 13.7661 9.99958C13.7661 9.81461 13.7276 9.63167 13.6531 9.46238C13.5785 9.29309 13.4696 9.14116 13.3332 9.01624L10.2832 6.20791ZM9.5832 12.1662V7.83291L11.9249 9.99958L9.5832 12.1662Z" fill="#555555"/>
</svg>
