<svg width="20" height="20" viewBox="0 0 20 20" fill="none" xmlns="http://www.w3.org/2000/svg">
<path d="M7.5 2.5H4.16667C3.72464 2.5 3.30072 2.67559 2.98816 2.98816C2.67559 3.30072 2.5 3.72464 2.5 4.16667V7.5C2.5 7.94203 2.67559 8.36595 2.98816 8.67851C3.30072 8.99107 3.72464 9.16667 4.16667 9.16667H7.5C7.94203 9.16667 8.36595 8.99107 8.67851 8.67851C8.99107 8.36595 9.16667 7.94203 9.16667 7.5V4.16667C9.16667 3.72464 8.99107 3.30072 8.67851 2.98816C8.36595 2.67559 7.94203 2.5 7.5 2.5ZM4.16667 7.5V4.16667H7.5V7.5H4.16667Z" fill="#555555"/>
<path d="M15.833 2.5H12.4997C12.0576 2.5 11.6337 2.67559 11.3212 2.98816C11.0086 3.30072 10.833 3.72464 10.833 4.16667V7.5C10.833 7.94203 11.0086 8.36595 11.3212 8.67851C11.6337 8.99107 12.0576 9.16667 12.4997 9.16667H15.833C16.275 9.16667 16.699 8.99107 17.0115 8.67851C17.3241 8.36595 17.4997 7.94203 17.4997 7.5V4.16667C17.4997 3.72464 17.3241 3.30072 17.0115 2.98816C16.699 2.67559 16.275 2.5 15.833 2.5ZM12.4997 7.5V4.16667H15.833V7.5H12.4997Z" fill="#555555"/>
<path d="M7.5 10.833H4.16667C3.72464 10.833 3.30072 11.0086 2.98816 11.3212C2.67559 11.6337 2.5 12.0576 2.5 12.4997V15.833C2.5 16.275 2.67559 16.699 2.98816 17.0115C3.30072 17.3241 3.72464 17.4997 4.16667 17.4997H7.5C7.94203 17.4997 8.36595 17.3241 8.67851 17.0115C8.99107 16.699 9.16667 16.275 9.16667 15.833V12.4997C9.16667 12.0576 8.99107 11.6337 8.67851 11.3212C8.36595 11.0086 7.94203 10.833 7.5 10.833ZM4.16667 15.833V12.4997H7.5V15.833H4.16667Z" fill="#555555"/>
<path d="M15.833 10.833H12.4997C12.0576 10.833 11.6337 11.0086 11.3212 11.3212C11.0086 11.6337 10.833 12.0576 10.833 12.4997V15.833C10.833 16.275 11.0086 16.699 11.3212 17.0115C11.6337 17.3241 12.0576 17.4997 12.4997 17.4997H15.833C16.275 17.4997 16.699 17.3241 17.0115 17.0115C17.3241 16.699 17.4997 16.275 17.4997 15.833V12.4997C17.4997 12.0576 17.3241 11.6337 17.0115 11.3212C16.699 11.0086 16.275 10.833 15.833 10.833ZM12.4997 15.833V12.4997H15.833V15.833H12.4997Z" fill="#555555"/>
</svg>
