<svg width="20" height="20" viewBox="0 0 20 20" fill="none" xmlns="http://www.w3.org/2000/svg">
<path d="M4.16699 5L15.8337 5C16.2939 5 16.667 4.6269 16.667 4.16667C16.667 3.70643 16.2939 3.33333 15.8337 3.33333L4.16699 3.33333C3.70676 3.33333 3.33366 3.70643 3.33366 4.16667C3.33366 4.6269 3.70676 5 4.16699 5Z" fill="#555555"/>
<path d="M16.667 5.83301V4.16634C16.667 3.7061 16.2939 3.33301 15.8337 3.33301C15.3734 3.33301 15.0003 3.7061 15.0003 4.16634V5.83301C15.0003 6.29325 15.3734 6.66634 15.8337 6.66634C16.2939 6.66634 16.667 6.29325 16.667 5.83301Z" fill="#555555"/>
<path d="M5 5.83301V4.16634C5 3.7061 4.6269 3.33301 4.16667 3.33301C3.70643 3.33301 3.33333 3.7061 3.33333 4.16634V5.83301C3.33333 6.29325 3.70643 6.66634 4.16667 6.66634C4.6269 6.66634 5 6.29325 5 5.83301Z" fill="#555555"/>
<path d="M6.66634 11.6673C6.53697 11.6673 6.40938 11.6372 6.29366 11.5794C6.17795 11.5215 6.0773 11.4375 5.99967 11.334C5.93401 11.2465 5.88624 11.1468 5.85908 11.0408C5.83192 10.9348 5.82591 10.8245 5.84138 10.7161C5.85686 10.6078 5.89352 10.5036 5.94928 10.4094C6.00504 10.3153 6.07879 10.233 6.16634 10.1673L9.49967 7.66733C9.64239 7.56304 9.81458 7.50684 9.99134 7.50684C10.1681 7.50684 10.3403 7.56304 10.483 7.66733L13.8163 10.0173C13.996 10.1448 14.1179 10.3382 14.1554 10.5552C14.1928 10.7723 14.1429 10.9954 14.0163 11.1757C13.9532 11.2658 13.8728 11.3425 13.7798 11.4014C13.6869 11.4603 13.5832 11.5002 13.4747 11.5188C13.3662 11.5374 13.2551 11.5343 13.1479 11.5098C13.0406 11.4852 12.9392 11.4396 12.8497 11.3757L9.99967 9.36733L7.16634 11.5007C7.02209 11.6089 6.84665 11.6673 6.66634 11.6673Z" fill="#555555"/>
<path d="M10.0003 17.5003C9.77931 17.5003 9.56735 17.4125 9.41107 17.2562C9.25479 17.1 9.16699 16.888 9.16699 16.667V10.0003C9.16699 9.77931 9.25479 9.56735 9.41107 9.41107C9.56735 9.25479 9.77931 9.16699 10.0003 9.16699C10.2213 9.16699 10.4333 9.25479 10.5896 9.41107C10.7459 9.56735 10.8337 9.77931 10.8337 10.0003V16.667C10.8337 16.888 10.7459 17.1 10.5896 17.2562C10.4333 17.4125 10.2213 17.5003 10.0003 17.5003Z" fill="#555555"/>
</svg>
