<svg width="20" height="20" viewBox="0 0 20 20" fill="none" xmlns="http://www.w3.org/2000/svg">
<path d="M10.0003 1.66699C8.35215 1.66699 6.74099 2.15573 5.37058 3.07141C4.00017 3.98709 2.93206 5.28858 2.30133 6.8113C1.6706 8.33401 1.50558 10.0096 1.82712 11.6261C2.14866 13.2426 2.94234 14.7274 4.10777 15.8929C5.27321 17.0583 6.75807 17.852 8.37458 18.1735C9.99109 18.4951 11.6666 18.3301 13.1894 17.6993C14.7121 17.0686 16.0136 16.0005 16.9292 14.6301C17.8449 13.2597 18.3337 11.6485 18.3337 10.0003C18.3337 8.90598 18.1181 7.82234 17.6993 6.8113C17.2805 5.80025 16.6667 4.88159 15.8929 4.10777C15.1191 3.33395 14.2004 2.72012 13.1894 2.30133C12.1783 1.88254 11.0947 1.66699 10.0003 1.66699ZM10.0003 16.667C8.68179 16.667 7.39286 16.276 6.29653 15.5435C5.2002 14.8109 4.34572 13.7697 3.84113 12.5515C3.33655 11.3334 3.20453 9.99293 3.46176 8.69972C3.719 7.40652 4.35393 6.21863 5.28628 5.28628C6.21863 4.35393 7.40652 3.71899 8.69973 3.46176C9.99293 3.20452 11.3334 3.33654 12.5516 3.84113C13.7697 4.34571 14.8109 5.2002 15.5435 6.29652C16.276 7.39285 16.667 8.68178 16.667 10.0003C16.667 11.7684 15.9646 13.4641 14.7144 14.7144C13.4641 15.9646 11.7684 16.667 10.0003 16.667Z" fill="#555555"/>
<path d="M13.3337 9.16634H10.8337V6.66634C10.8337 6.44533 10.7459 6.23337 10.5896 6.07709C10.4333 5.92081 10.2213 5.83301 10.0003 5.83301C9.77931 5.83301 9.56735 5.92081 9.41107 6.07709C9.25479 6.23337 9.16699 6.44533 9.16699 6.66634V9.99968C9.16699 10.2207 9.25479 10.4327 9.41107 10.5889C9.56735 10.7452 9.77931 10.833 10.0003 10.833H13.3337C13.5547 10.833 13.7666 10.7452 13.9229 10.5889C14.0792 10.4327 14.167 10.2207 14.167 9.99968C14.167 9.77866 14.0792 9.5667 13.9229 9.41042C13.7666 9.25414 13.5547 9.16634 13.3337 9.16634Z" fill="#555555"/>
</svg>
