<svg width="20" height="20" viewBox="0 0 20 20" fill="none" xmlns="http://www.w3.org/2000/svg">
<path d="M17.5003 4.99952H13.3337V3.60785C13.3141 3.07437 13.0838 2.5704 12.6933 2.20643C12.3028 1.84246 11.7839 1.64818 11.2503 1.66619H8.75033C8.21679 1.64818 7.69788 1.84246 7.30735 2.20643C6.91682 2.5704 6.68654 3.07437 6.66699 3.60785V4.99952H2.50033C2.27931 4.99952 2.06735 5.08732 1.91107 5.2436C1.75479 5.39988 1.66699 5.61184 1.66699 5.83285C1.66699 6.05387 1.75479 6.26583 1.91107 6.42211C2.06735 6.57839 2.27931 6.66619 2.50033 6.66619H3.33366V15.8329C3.33366 16.4959 3.59705 17.1318 4.06589 17.6006C4.53473 18.0695 5.17062 18.3329 5.83366 18.3329H14.167C14.83 18.3329 15.4659 18.0695 15.9348 17.6006C16.4036 17.1318 16.667 16.4959 16.667 15.8329V6.66619H17.5003C17.7213 6.66619 17.9333 6.57839 18.0896 6.42211C18.2459 6.26583 18.3337 6.05387 18.3337 5.83285C18.3337 5.61184 18.2459 5.39988 18.0896 5.2436C17.9333 5.08732 17.7213 4.99952 17.5003 4.99952ZM8.33366 3.60785C8.33366 3.47452 8.50866 3.33285 8.75033 3.33285H11.2503C11.492 3.33285 11.667 3.47452 11.667 3.60785V4.99952H8.33366V3.60785ZM15.0003 15.8329C15.0003 16.0539 14.9125 16.2658 14.7562 16.4221C14.6 16.5784 14.388 16.6662 14.167 16.6662H5.83366C5.61265 16.6662 5.40068 16.5784 5.2444 16.4221C5.08812 16.2658 5.00033 16.0539 5.00033 15.8329V6.66619H15.0003V15.8329Z" fill="#555555"/>
<path d="M7.50033 14.167C7.72134 14.167 7.9333 14.0792 8.08958 13.9229C8.24586 13.7666 8.33366 13.5547 8.33366 13.3337V10.0003C8.33366 9.77931 8.24586 9.56735 8.08958 9.41107C7.9333 9.25479 7.72134 9.16699 7.50033 9.16699C7.27931 9.16699 7.06735 9.25479 6.91107 9.41107C6.75479 9.56735 6.66699 9.77931 6.66699 10.0003V13.3337C6.66699 13.5547 6.75479 13.7666 6.91107 13.9229C7.06735 14.0792 7.27931 14.167 7.50033 14.167Z" fill="#555555"/>
<path d="M12.5003 14.167C12.7213 14.167 12.9333 14.0792 13.0896 13.9229C13.2459 13.7666 13.3337 13.5547 13.3337 13.3337V10.0003C13.3337 9.77931 13.2459 9.56735 13.0896 9.41107C12.9333 9.25479 12.7213 9.16699 12.5003 9.16699C12.2793 9.16699 12.0674 9.25479 11.9111 9.41107C11.7548 9.56735 11.667 9.77931 11.667 10.0003V13.3337C11.667 13.5547 11.7548 13.7666 11.9111 13.9229C12.0674 14.0792 12.2793 14.167 12.5003 14.167Z" fill="#555555"/>
</svg>
