<svg width="20" height="20" viewBox="0 0 20 20" fill="none" xmlns="http://www.w3.org/2000/svg">
<path d="M15.2332 6.9746C15.094 6.80221 14.892 6.6922 14.6716 6.66875C14.4513 6.64531 14.2306 6.71037 14.0582 6.8496C13.8859 6.98884 13.7758 7.19086 13.7524 7.41122C13.729 7.63157 13.794 7.85221 13.9332 8.0246C14.3543 8.59703 14.5813 9.28902 14.5813 9.9996C14.5813 10.7102 14.3543 11.4022 13.9332 11.9746C13.8339 12.0971 13.7713 12.2452 13.7528 12.4018C13.7343 12.5584 13.7606 12.7171 13.8287 12.8593C13.8968 13.0016 14.0038 13.1216 14.1374 13.2054C14.2709 13.2893 14.4255 13.3335 14.5832 13.3329C14.7077 13.3334 14.8307 13.3059 14.9432 13.2525C15.0557 13.1992 15.1548 13.1213 15.2332 13.0246C15.8942 12.1547 16.2521 11.0922 16.2521 9.9996C16.2521 8.90703 15.8942 7.84454 15.2332 6.9746Z" fill="#555555"/>
<path d="M16.3672 4.35872C16.2829 4.28869 16.1857 4.23593 16.081 4.20347C15.9764 4.17101 15.8663 4.15948 15.7572 4.16954C15.6481 4.1796 15.5421 4.21105 15.4451 4.2621C15.3481 4.31315 15.2622 4.38279 15.1922 4.46706C15.1221 4.55132 15.0694 4.64856 15.0369 4.75321C15.0044 4.85786 14.9929 4.96788 15.003 5.07699C15.013 5.1861 15.0445 5.29216 15.0955 5.38911C15.1466 5.48607 15.2162 5.57202 15.3005 5.64206C15.9689 6.15862 16.5133 6.81806 16.8939 7.57215C17.2746 8.32624 17.4818 9.15588 17.5005 10.0004C17.4818 10.8449 17.2746 11.6745 16.8939 12.4286C16.5133 13.1827 15.9689 13.8422 15.3005 14.3587C15.2161 14.4287 15.1464 14.5146 15.0952 14.6116C15.0441 14.7085 15.0126 14.8146 15.0025 14.9237C14.9925 15.0329 15.004 15.143 15.0366 15.2476C15.0691 15.3523 15.122 15.4495 15.1922 15.5337C15.2705 15.6278 15.3686 15.7034 15.4795 15.7553C15.5904 15.8071 15.7114 15.8339 15.8338 15.8337C16.0285 15.8341 16.2172 15.7663 16.3672 15.6421C17.2259 14.9707 17.9231 14.1155 18.4077 13.1391C18.8923 12.1628 19.1518 11.0902 19.1672 10.0004C19.1518 8.91053 18.8923 7.83798 18.4077 6.86165C17.9231 5.88532 17.2259 5.03003 16.3672 4.35872Z" fill="#555555"/>
<path d="M12.4999 2.59993C12.3733 2.52679 12.2295 2.48828 12.0833 2.48828C11.937 2.48828 11.7933 2.52679 11.6666 2.59993L6.2666 6.30826H2.09993C1.87892 6.30826 1.66696 6.39606 1.51068 6.55234C1.3544 6.70862 1.2666 6.92058 1.2666 7.14159V12.8583C1.2666 13.0793 1.3544 13.2912 1.51068 13.4475C1.66696 13.6038 1.87892 13.6916 2.09993 13.6916H6.2666L11.6083 17.3583C11.7498 17.4498 11.9147 17.499 12.0833 17.4999C12.3043 17.4999 12.5162 17.4121 12.6725 17.2558C12.8288 17.0996 12.9166 16.8876 12.9166 16.6666V3.33326C12.9187 3.18501 12.8811 3.0389 12.8079 2.90999C12.7347 2.78108 12.6283 2.67404 12.4999 2.59993ZM11.2749 15.0999L6.99993 12.1666C6.85963 12.0723 6.69397 12.0229 6.52493 12.0249H2.9166V7.97493H6.52493C6.69397 7.97698 6.85963 7.92757 6.99993 7.83326L11.2499 4.91659L11.2749 15.0999Z" fill="#555555"/>
</svg>
