<svg width="10" height="5" viewBox="0 0 10 5" fill="none" xmlns="http://www.w3.org/2000/svg">
<path d="M5.00017 4.77082C4.87953 4.77142 4.75994 4.75145 4.64826 4.71205C4.53657 4.67266 4.43499 4.61461 4.34934 4.54123L0.68267 1.37457C0.597201 1.30075 0.529404 1.21312 0.483149 1.11668C0.436894 1.02024 0.413086 0.916872 0.413086 0.812484C0.413086 0.708095 0.436894 0.604729 0.483149 0.508286C0.529404 0.411844 0.597201 0.324214 0.68267 0.2504C0.768139 0.176587 0.869605 0.118034 0.981275 0.0780862C1.09295 0.0381385 1.21263 0.0175781 1.3335 0.0175781C1.45437 0.0175781 1.57406 0.0381385 1.68573 0.0780862C1.7974 0.118034 1.89887 0.176587 1.98434 0.2504L5.00017 2.87082L8.02517 0.353317C8.1095 0.272338 8.21226 0.207256 8.32704 0.162142C8.44182 0.117028 8.56614 0.0928525 8.69223 0.0911272C8.81832 0.089402 8.94347 0.110164 9.05984 0.152115C9.17622 0.194066 9.28132 0.256304 9.36857 0.334936C9.45583 0.413568 9.52336 0.506902 9.56694 0.609102C9.61052 0.711301 9.62922 0.820168 9.62186 0.928892C9.6145 1.03762 9.58124 1.14386 9.52417 1.24098C9.4671 1.3381 9.38744 1.424 9.29017 1.49332L5.6235 4.54915C5.45587 4.68873 5.23301 4.76799 5.00017 4.77082Z" fill="#666666"/>
</svg>
