<svg width="17" height="16" viewBox="0 0 17 16" fill="none" xmlns="http://www.w3.org/2000/svg">
<path fill-rule="evenodd" clip-rule="evenodd" d="M2.93911 14.2222C2.57467 14.2222 2.27778 13.9253 2.27778 13.5609L2.27778 12.4444L4.05556 12.4444L4.05556 14.2222L2.93911 14.2222ZM2.93911 1.77756L4.05556 1.77756L4.05556 3.55534L2.27778 3.55534L2.27778 2.43889C2.27778 2.07445 2.57467 1.77756 2.93911 1.77756ZM14.7224 2.43911L14.7224 3.55556L12.9447 3.55556L12.9447 1.77778L14.0611 1.77778C14.4256 1.77778 14.7224 2.07467 14.7224 2.43911ZM14.0609 14.2222L12.9444 14.2222L12.9444 12.4444L14.7222 12.4444L14.7222 13.5609C14.7222 13.9253 14.4253 14.2222 14.0609 14.2222ZM5.83333 12.4444L5.83333 14.2222L7.61111 14.2222L7.61111 12.4444L5.83333 12.4444ZM9.38889 12.4444L9.38889 14.2222L11.1667 14.2222L11.1667 12.4444L9.38889 12.4444ZM2.278 5.33333L2.278 10.6667L14.7224 10.6667L14.7224 5.33333L2.278 5.33333ZM5.83333 1.77756L5.83333 3.55534L7.61111 3.55534L7.61111 1.77756L5.83333 1.77756ZM9.38889 1.77778L9.38889 3.55556L11.1667 3.55556L11.1667 1.77778L9.38889 1.77778ZM16.5 13.5609L16.5 2.43911C16.5 1.09422 15.4049 -4.78688e-08 14.0609 -1.06617e-07L2.93911 -5.92765e-07C1.59422 -6.51552e-07 0.5 1.09422 0.5 2.43911L0.499999 13.5609C0.499999 14.9058 1.59422 16 2.93911 16L14.0609 16C15.4049 16 16.5 14.9058 16.5 13.5609Z" fill="#999999"/>
</svg>
