<svg width="7" height="5" viewBox="0 0 7 5" fill="none" xmlns="http://www.w3.org/2000/svg">
<path d="M3.50012 4.0155C3.41239 4.01593 3.32541 4.00141 3.24419 3.97276C3.16296 3.94411 3.08908 3.90189 3.02679 3.84853L0.360124 1.5455C0.297965 1.49181 0.248658 1.42808 0.215017 1.35794C0.181377 1.2878 0.164063 1.21263 0.164062 1.13671C0.164062 1.06079 0.181377 0.985612 0.215017 0.915472C0.248658 0.845332 0.297965 0.781602 0.360124 0.727919C0.422283 0.674236 0.496076 0.631653 0.577291 0.6026C0.658506 0.573547 0.745551 0.558594 0.833457 0.558594C0.921363 0.558594 1.00841 0.573547 1.08962 0.6026C1.17084 0.631653 1.24463 0.674236 1.30679 0.727919L3.50012 2.63368L5.70012 0.802768C5.76145 0.743873 5.83619 0.696541 5.91967 0.663731C6.00314 0.630921 6.09356 0.613339 6.18526 0.612084C6.27696 0.610829 6.36798 0.625929 6.45261 0.656439C6.53725 0.686949 6.61369 0.732213 6.67715 0.7894C6.7406 0.846586 6.78972 0.914466 6.82141 0.988793C6.85311 1.06312 6.8667 1.1423 6.86135 1.22137C6.856 1.30044 6.83181 1.37771 6.79031 1.44834C6.7488 1.51897 6.69086 1.58145 6.62012 1.63186L3.95346 3.85428C3.83154 3.9558 3.66946 4.01344 3.50012 4.0155Z" fill="#666666"/>
</svg>
