<svg width="7" height="5" viewBox="0 0 7 5" fill="none" xmlns="http://www.w3.org/2000/svg">
<path d="M3.49988 0.984504C3.58761 0.984066 3.67459 0.99859 3.75581 1.02724C3.83704 1.05589 3.91092 1.09811 3.97321 1.15147L6.63988 3.4545C6.70204 3.50819 6.75134 3.57192 6.78498 3.64206C6.81862 3.7122 6.83594 3.78737 6.83594 3.86329C6.83594 3.93921 6.81862 4.01439 6.78498 4.08453C6.75134 4.15467 6.70204 4.2184 6.63988 4.27208C6.57772 4.32576 6.50392 4.36835 6.42271 4.3974C6.34149 4.42645 6.25445 4.44141 6.16654 4.44141C6.07864 4.44141 5.99159 4.42645 5.91038 4.3974C5.82916 4.36835 5.75537 4.32576 5.69321 4.27208L3.49988 2.36632L1.29988 4.19723C1.23855 4.25613 1.16381 4.30346 1.08033 4.33627C0.996859 4.36908 0.906443 4.38666 0.814741 4.38792C0.723039 4.38917 0.632022 4.37407 0.547385 4.34356C0.462749 4.31305 0.386312 4.26779 0.322855 4.2106C0.259398 4.15341 0.210285 4.08553 0.178589 4.01121C0.146894 3.93688 0.133297 3.8577 0.138649 3.77863C0.144001 3.69956 0.168188 3.62229 0.209694 3.55166C0.251201 3.48103 0.309135 3.41855 0.379876 3.36814L3.04654 1.14572C3.16846 1.0442 3.33054 0.986563 3.49988 0.984504Z" fill="#666666"/>
</svg>
