<svg width="18" height="18" viewBox="0 0 18 18" fill="none" xmlns="http://www.w3.org/2000/svg">
<path fill-rule="evenodd" clip-rule="evenodd" d="M13.2511 12.2007C15.5126 9.29629 15.3084 5.09427 12.6383 2.42426C9.74715 -0.46694 5.05959 -0.46694 2.1684 2.42426C-0.722799 5.31545 -0.722799 10.003 2.1684 12.8942C4.83841 15.5642 9.04043 15.7685 11.9449 13.507C11.9574 13.5212 11.9704 13.535 11.984 13.5486L15.9102 17.4748C16.2716 17.8362 16.8576 17.8362 17.219 17.4748C17.5804 17.1134 17.5804 16.5275 17.219 16.1661L13.2927 12.2398C13.2792 12.2263 13.2653 12.2132 13.2511 12.2007ZM11.3296 3.733C13.498 5.9014 13.498 9.41707 11.3296 11.5855C9.16121 13.7539 5.64554 13.7539 3.47714 11.5855C1.30874 9.41707 1.30874 5.9014 3.47714 3.733C5.64554 1.5646 9.16121 1.5646 11.3296 3.733Z" fill="#666666"/>
</svg>
