<svg width="14" height="14" viewBox="0 0 14 14" fill="none" xmlns="http://www.w3.org/2000/svg">
<path class="remove" fill-rule="evenodd" clip-rule="evenodd" d="M5.66683 9.66732C5.66683 10.034 5.36683 10.334 5.00016 10.334C4.6335 10.334 4.3335 10.034 4.3335 9.66732V7.00065C4.3335 6.63398 4.6335 6.33398 5.00016 6.33398C5.36683 6.33398 5.66683 6.63398 5.66683 7.00065V9.66732ZM9.66683 9.66732C9.66683 10.034 9.36683 10.334 9.00016 10.334C8.6335 10.334 8.3335 10.034 8.3335 9.66732V7.00065C8.3335 6.63398 8.6335 6.33398 9.00016 6.33398C9.36683 6.33398 9.66683 6.63398 9.66683 7.00065V9.66732ZM11.0002 11.6673C11.0002 12.0347 10.7015 12.334 10.3335 12.334H3.66683C3.29883 12.334 3.00016 12.0347 3.00016 11.6673V4.33398H11.0002V11.6673ZM5.66683 1.88598C5.66683 1.78265 5.8095 1.66732 6.00016 1.66732H8.00016C8.19083 1.66732 8.3335 1.78265 8.3335 1.88598V3.00065H5.66683V1.88598ZM13.0002 3.00065H9.66683V1.88598C9.66683 1.02998 8.9195 0.333984 8.00016 0.333984H6.00016C5.08083 0.333984 4.3335 1.02998 4.3335 1.88598V3.00065H1.00016C0.633496 3.00065 0.333496 3.30065 0.333496 3.66732C0.333496 4.03398 0.633496 4.33398 1.00016 4.33398H1.66683V11.6673C1.66683 12.77 2.56416 13.6673 3.66683 13.6673H10.3335C11.4362 13.6673 12.3335 12.77 12.3335 11.6673V4.33398H13.0002C13.3668 4.33398 13.6668 4.03398 13.6668 3.66732C13.6668 3.30065 13.3668 3.00065 13.0002 3.00065Z" fill="#666666"/>
</svg>
