<svg width="100" height="29" viewBox="0 0 100 29" fill="none" xmlns="http://www.w3.org/2000/svg">
<path d="M5.93958 0.0513916H0V28.2052H8.49974V11.765L15.3098 18.3411C15.8218 18.8034 16.2314 18.6493 16.2314 17.9814V8.68247L8.49974 1.23303C7.8853 0.513771 6.96365 0.0513916 5.93958 0.0513916Z" fill="white"/>
<path d="M28.1106 0.0513916C27.0866 0.0513916 26.1649 0.513771 25.4993 1.23303L17.7676 8.68247V17.9814C17.7676 18.6493 18.1772 18.8548 18.6892 18.3411L25.4993 11.765V28.2052H33.999V0.0513916H28.1106Z" fill="white"/>
<path d="M100 0H91.5004V15.6181L80.2869 1.48989L79.9285 1.07888C79.058 0.205502 78.29 0 77.4707 0H70.7119V28.2051H79.2117V12.587C79.2117 12.587 90.5788 26.7666 90.63 26.818C90.6812 26.8694 90.7324 26.9721 90.7836 26.9721C90.8348 27.0235 90.9884 27.1776 91.0396 27.229C91.7053 27.8969 92.6781 28.1024 93.4462 28.1538H93.5998H94.0606H100V0Z" fill="white"/>
<path d="M64.0553 13.6659C65.7962 12.2788 66.9227 10.121 66.9227 7.70634C66.9227 3.69905 63.492 0.41102 59.5494 0.102767C59.4982 0.102767 59.447 0.102767 59.2422 0.0513916C59.0886 0.0513916 58.8325 0.0513916 58.7813 0.0513916H38.0952V12.8439V15.4127V28.2565H59.2934H59.9078C59.6006 28.2565 59.959 28.2565 60.4198 28.2565C60.5223 28.2565 60.6247 28.2565 60.7271 28.2565C60.7783 28.2565 60.8295 28.2565 60.8807 28.2565C64.9769 28.1024 68.2027 24.763 68.2027 20.6016C68.2027 17.5191 66.513 14.9503 64.0553 13.6659ZM46.6462 5.90819H56.0676C57.3476 5.90819 58.4229 6.98708 58.4229 8.27147C58.4229 9.55585 57.3476 10.6347 56.0676 10.6347H46.6462V5.90819ZM57.1428 22.1942H46.6462V17.1594H57.1428C58.5253 17.1594 59.6518 18.2897 59.6518 19.6768C59.6518 21.064 58.5253 22.1942 57.1428 22.1942Z" fill="white"/>
</svg>
