<?xml version="1.0" encoding="utf-8"?>
<!-- Generator: Adobe Illustrator 25.4.0, SVG Export Plug-In . SVG Version: 6.00 Build 0)  -->
<svg version="1.1" id="레이어_1" xmlns="http://www.w3.org/2000/svg" xmlns:xlink="http://www.w3.org/1999/xlink" x="0px"
	 y="0px" viewBox="0 0 436.2 73" style="enable-background:new 0 0 436.2 73;" xml:space="preserve">
<style type="text/css">
	.st0{fill:#FF6B00;}
</style>
<g>
	<path class="st0" d="M61,10.3H42.6c-3.8-4.6-10-7.6-17.4-7.6c-12.8,0-24.1,9-25.2,20.1C-1,34,8.5,43,21.3,43
		c7.2,0,13.9-2.8,18.6-7.3h18.6l-1.7,17.2h12.8l5-50.8H61.8L61,10.3z M22.2,34c-5.8,0-10-5-9.4-11.1s5.8-11.1,11.5-11.1
		s10,5,9.4,11.1C33.1,29,28,34,22.2,34z M59.3,28H45.2c0.7-1.6,1.1-3.4,1.3-5.1c0.2-1.7,0.1-3.3-0.2-4.8h14L59.3,28z"/>
	<path class="st0" d="M25.4,47.5H12.7l-2.2,22.5c-0.2,1.6,1,3,2.7,3h3.4h6.4h44.3l0.8-7.7H23.7L25.4,47.5z"/>
	<polygon class="st0" points="166.8,49 180.5,49 178.2,73 190.9,73 193.3,49 212.1,49 209.7,73 222.5,73 224.8,49 238.8,49 
		239.7,39.6 167.8,39.6 	"/>
	<path class="st0" d="M176.6,31.7h3.4h6.4h49.8l0.9-9.4h-49.8L189.2,3h-12.8l-2.5,25.8C173.7,30.4,174.9,31.7,176.6,31.7z"/>
	<polygon class="st0" points="153.9,2.2 141.1,2.2 137.3,41 150.1,41 151.9,22.4 163.5,22.4 164.2,14.6 152.7,14.6 	"/>
	<path class="st0" d="M136.4,50.7h-31.5l0.6-5.9H92.7l-2.5,25.2c-0.2,1.6,1,3,2.7,3h3.4h6.4h31.5h6.4h6.4l2.8-28.2H137L136.4,50.7z
		 M135,65.3h-31.5l0.7-6.8h31.5L135,65.3z"/>
	<path class="st0" d="M130.4,23.9c0.4-3.9-0.8-7.5-3.2-10.5h6.3l0.8-7.7h-18.9l0.6-5.6h-12.8l-0.6,5.6H83.7L83,13.4h6.3
		c-3,3-4.9,6.6-5.3,10.5c-1,10.1,8.6,18.3,21.4,18.3C118.2,42.1,129.4,34,130.4,23.9z M96.7,23.9c0.5-5.6,5.7-10.1,11.4-10.1
		c5.8,0,10,4.5,9.5,10.1C117.1,29.5,112,34,106.2,34C100.4,34,96.2,29.5,96.7,23.9z"/>
	<polygon class="st0" points="244.6,66.5 319,66.5 320,57.1 245.5,57.1 	"/>
	<path class="st0" d="M286.3,20.1c0,0,2,8,11.5,14.6s21.1,7.9,21.1,7.9l0.9-9.4c0,0-9.3-0.5-15.5-6.2c-9.9-9-7.8-24.9-7.8-24.9h-17
		c0,0-1,15.9-12.7,24.9c-7.3,5.7-16.7,6.2-16.7,6.2l-0.9,9.4c0,0,11.8-1.4,22.7-7.9C282.8,28.2,286.3,20.1,286.3,20.1z"/>
	<polyline class="st0" points="328.4,2.2 327.2,14.9 351.1,14.9 345.9,68.6 358.6,68.6 363.9,14.9 385.4,14.9 396,68.6 410.3,68.6 
		436.2,2.2 423.4,2.2 404.7,52.6 395.9,2.2 	"/>
</g>
</svg>
