<svg width="535" height="244" viewBox="0 0 535 244" fill="none" xmlns="http://www.w3.org/2000/svg">
<path d="M310.717 27.4447C306.611 18.2965 300.925 11.3564 293.975 6.94005C287.025 2.2082 278.18 0 267.756 0C257.016 0 248.487 2.2082 241.537 6.62459C234.587 11.041 229.217 17.981 224.795 27.1293L169.514 151.104H366.314C365.998 149.842 310.717 27.4447 310.717 27.4447ZM230.797 116.088L241.537 91.7979L261.122 45.1103C261.754 43.2176 262.702 42.2712 263.965 41.6403C265.229 41.0094 266.492 40.6939 267.756 40.6939C269.335 40.6939 270.599 41.0094 271.547 41.6403C272.81 42.2712 273.758 43.533 274.39 45.1103L292.711 87.0661L305.347 115.773H230.797V116.088Z" fill="#ADC8DD"/>
<path d="M338.27 144.494C337.687 144.041 336.932 143.782 336.112 143.847C334.537 143.955 333.285 145.27 333.221 146.844C333.156 148.633 334.58 149.884 336.349 149.884H340.017C340.88 149.884 341.593 149.172 341.593 148.31V142.316L338.27 144.494Z" fill="white"/>
<path fill-rule="evenodd" clip-rule="evenodd" d="M342.156 141.273C342.54 141.48 342.779 141.881 342.779 142.317V148.31C342.779 149.828 341.536 151.07 340.017 151.07H336.349C334.018 151.07 331.942 149.367 332.035 146.801L332.035 146.796C332.124 144.634 333.835 142.818 336.025 142.665C336.829 142.603 337.589 142.766 338.249 143.09L340.942 141.325C341.306 141.086 341.773 141.066 342.156 141.273ZM340.406 144.512L338.921 145.486C338.496 145.764 337.942 145.742 337.541 145.43C337.178 145.148 336.713 144.989 336.205 145.03L336.193 145.03C335.237 145.096 334.448 145.907 334.407 146.89C334.372 147.902 335.143 148.698 336.349 148.698H340.017C340.225 148.698 340.406 148.518 340.406 148.31V144.512Z" fill="#666666"/>
<path fill-rule="evenodd" clip-rule="evenodd" d="M336.713 144.505C336.814 144.289 337.071 144.196 337.287 144.296L337.104 144.687C337.287 144.296 337.287 144.296 337.287 144.296L337.287 144.297L337.288 144.297L337.29 144.298L337.296 144.301C337.3 144.303 337.305 144.305 337.312 144.309C337.325 144.315 337.343 144.324 337.364 144.336C337.407 144.359 337.465 144.392 337.533 144.437C337.668 144.524 337.848 144.658 338.025 144.841C338.38 145.208 338.737 145.796 338.656 146.606C338.632 146.843 338.421 147.016 338.184 146.992C337.946 146.968 337.773 146.757 337.797 146.52C337.846 146.036 337.642 145.686 337.404 145.439C337.283 145.315 337.158 145.222 337.063 145.16C337.016 145.129 336.977 145.107 336.952 145.094C336.939 145.087 336.93 145.082 336.925 145.079L336.92 145.077C336.706 144.976 336.613 144.72 336.713 144.505Z" fill="#666666"/>
<path fill-rule="evenodd" clip-rule="evenodd" d="M341.593 120.39C342.248 120.39 342.779 120.921 342.779 121.575V146.585C342.779 147.24 342.248 147.771 341.593 147.771C340.937 147.771 340.406 147.24 340.406 146.585V121.575C340.406 120.921 340.937 120.39 341.593 120.39Z" fill="#666666"/>
<path fill-rule="evenodd" clip-rule="evenodd" d="M326.079 120.39C326.734 120.39 327.266 120.921 327.266 121.575V146.585C327.266 147.24 326.734 147.771 326.079 147.771C325.423 147.771 324.892 147.24 324.892 146.585V121.575C324.892 120.921 325.423 120.39 326.079 120.39Z" fill="#666666"/>
<path fill-rule="evenodd" clip-rule="evenodd" d="M327.373 83.8947C327.858 84.3348 327.894 85.0848 327.454 85.5697L313.666 100.748C313.377 101.066 312.938 101.203 312.519 101.106L299.249 98.0227C298.61 97.8744 298.213 97.2371 298.362 96.5992C298.51 95.9613 299.148 95.5645 299.786 95.7128L312.377 98.6381L325.696 83.9757C326.137 83.4908 326.887 83.4545 327.373 83.8947Z" fill="#666666"/>
<path fill-rule="evenodd" clip-rule="evenodd" d="M337.717 84.175C338.131 83.6674 338.878 83.5912 339.386 84.0049L355.936 97.4797C356.441 97.8913 356.52 98.6333 356.112 99.1414L346.704 110.848C346.294 111.359 345.547 111.441 345.036 111.031C344.525 110.621 344.443 109.874 344.853 109.363L353.523 98.5745L337.887 85.8433C337.379 85.4297 337.303 84.6827 337.717 84.175Z" fill="#666666"/>
<path d="M332.962 128.432C322.648 128.432 311.709 125.413 311.709 119.851C311.709 109.049 328.668 84.0185 332.746 78.1758C336.824 83.9969 353.762 108.747 353.762 119.851C353.762 123.042 350.418 125.025 347.634 126.103C343.794 127.612 338.572 128.432 332.962 128.432Z" fill="#EFEFEF"/>
<path d="M332.746 80.0512C334.818 83.0265 338.399 88.3517 341.96 94.3022C350.828 109.157 352.683 116.401 352.683 119.851C352.683 121.273 351.734 123.343 347.224 125.111C343.578 126.534 338.378 127.353 332.962 127.353C327.481 127.353 322.173 126.513 318.397 125.068C316.304 124.27 312.787 122.502 312.787 119.851C312.787 116.509 314.643 109.372 323.533 94.4316C327.071 88.438 330.675 83.048 332.746 80.0512ZM332.725 76.2998C332.725 76.2998 310.608 107.152 310.608 119.851C310.608 126.254 321.807 129.509 332.94 129.509C343.923 129.509 354.819 126.34 354.819 119.851C354.841 106.785 332.725 76.2998 332.725 76.2998Z" fill="#666666"/>
<path d="M287.931 13.9709C287.931 13.9709 290.606 14.4883 291.815 18.2613C293.649 23.9531 298.201 23.6944 300.424 22.2714C304.006 19.9645 300.467 8.5163 287.931 13.9709Z" fill="#EFEFEF"/>
<path fill-rule="evenodd" clip-rule="evenodd" d="M302.825 19.2145C302.852 20.7409 302.332 22.325 301.009 23.1774L301.006 23.179C299.674 24.0322 297.663 24.5367 295.678 23.971C293.625 23.3859 291.794 21.7148 290.788 18.5916L290.787 18.5898C290.254 16.926 289.423 16.0405 288.782 15.5704C288.455 15.3309 288.165 15.1903 287.968 15.112C287.87 15.0728 287.796 15.0494 287.752 15.0371C287.731 15.031 287.717 15.0276 287.712 15.0265C287.712 15.0265 287.712 15.0265 287.712 15.0265C287.255 14.932 286.91 14.5538 286.859 14.0889C286.807 13.6195 287.067 13.1711 287.5 12.9825C290.775 11.5578 293.56 11.194 295.854 11.5792C298.158 11.966 299.896 13.0983 301.06 14.5315C302.211 15.9499 302.796 17.6581 302.825 19.2145ZM290.484 14.173C291.36 14.9348 292.262 16.1197 292.842 17.9318C293.67 20.4998 295.032 21.545 296.27 21.8977C297.575 22.2696 298.951 21.9338 299.841 21.3646C300.308 21.0631 300.687 20.3514 300.667 19.2538C300.648 18.1852 300.236 16.9398 299.384 15.8896C298.543 14.8542 297.27 14.003 295.497 13.7053C294.158 13.4806 292.496 13.5657 290.484 14.173Z" fill="#666666"/>
<path fill-rule="evenodd" clip-rule="evenodd" d="M294.535 15.8528C294.77 15.5085 295.24 15.4199 295.585 15.6548L295.159 16.2781C295.585 15.6548 295.585 15.655 295.585 15.6551L295.586 15.6555L295.587 15.6564L295.59 15.6588L295.601 15.6659C295.609 15.6718 295.621 15.6798 295.635 15.69C295.663 15.7104 295.703 15.7394 295.753 15.7771C295.853 15.8523 295.994 15.9622 296.165 16.1062C296.508 16.3942 296.975 16.8205 297.485 17.3829C298.495 18.4956 299.687 20.1561 300.411 22.3456C300.414 22.351 300.417 22.357 300.421 22.3636C300.446 22.4068 300.488 22.4752 300.549 22.5595C300.672 22.7286 300.869 22.9575 301.155 23.1779C301.711 23.6064 302.655 24.0434 304.18 23.8719C304.595 23.8253 304.968 24.1232 305.015 24.5374C305.062 24.9515 304.763 25.325 304.349 25.3716C302.422 25.5882 301.09 25.0334 300.232 24.3731C299.812 24.0492 299.518 23.7094 299.327 23.446C299.231 23.314 299.16 23.2001 299.111 23.1151C299.087 23.0726 299.068 23.0372 299.054 23.0102C299.047 22.9967 299.041 22.9853 299.036 22.9762C299.034 22.9716 299.032 22.9676 299.031 22.9642L299.028 22.9594L299.028 22.9574L299.027 22.9565C299.027 22.9561 299.027 22.9556 299.712 22.6382L299.027 22.9556C299.014 22.9282 299.003 22.9 298.994 22.8713C298.355 20.9077 297.284 19.4081 296.366 18.3965C295.908 17.8917 295.492 17.5122 295.193 17.2611C295.044 17.1357 294.925 17.0428 294.845 16.9826C294.805 16.9525 294.775 16.9307 294.756 16.9171C294.746 16.9103 294.739 16.9056 294.736 16.903L294.732 16.9006L294.733 16.9011C294.389 16.6661 294.3 16.1969 294.535 15.8528Z" fill="#666666"/>
<path d="M361.746 139.707L360.451 147.253L363.709 146.11L365.996 149.883L368.866 147.274L372.599 146.951L370.959 143.329L372.901 140.009L368.694 139.685L368.176 136.128L361.746 139.707Z" fill="#EFEFEF"/>
<path fill-rule="evenodd" clip-rule="evenodd" d="M368.654 135.162C368.972 135.319 369.192 135.623 369.243 135.974L369.637 138.677L372.984 138.935C373.354 138.963 373.684 139.18 373.856 139.509C374.029 139.838 374.02 140.233 373.832 140.553L372.172 143.393L373.582 146.507C373.726 146.826 373.707 147.195 373.53 147.496C373.353 147.798 373.041 147.996 372.692 148.026L369.322 148.318L366.722 150.681C366.484 150.898 366.161 150.997 365.841 150.951C365.522 150.904 365.241 150.718 365.073 150.442L363.24 147.418L360.808 148.271C360.448 148.397 360.047 148.324 359.755 148.077C359.463 147.831 359.323 147.448 359.388 147.071L360.682 139.526C360.737 139.204 360.935 138.925 361.221 138.766L367.65 135.187C367.96 135.015 368.335 135.005 368.654 135.162ZM362.722 140.398L361.824 145.63L363.352 145.094C363.833 144.925 364.367 145.116 364.632 145.552L366.24 148.205L368.14 146.478C368.315 146.319 368.537 146.222 368.773 146.201L370.988 146.009L369.976 143.774C369.832 143.456 369.851 143.087 370.027 142.786L371.1 140.952L368.611 140.761C368.107 140.722 367.698 140.34 367.626 139.841L367.333 137.832L362.722 140.398Z" fill="#666666"/>
<path fill-rule="evenodd" clip-rule="evenodd" d="M356.61 134.564C357.009 134.445 357.429 134.671 357.549 135.069L357.55 135.073C357.551 135.077 357.554 135.084 357.557 135.095C357.564 135.117 357.576 135.152 357.593 135.198C357.627 135.29 357.68 135.428 357.756 135.596C357.908 135.934 358.145 136.39 358.488 136.858C359.172 137.794 360.239 138.737 361.849 138.959C361.901 138.966 361.953 138.979 362.003 138.997L361.746 139.707C362.003 138.997 362.003 138.997 362.003 138.997L362.005 138.998L362.008 138.999L362.019 139.003C362.028 139.007 362.041 139.011 362.057 139.018C362.089 139.03 362.134 139.047 362.192 139.07C362.306 139.116 362.469 139.184 362.669 139.274C363.067 139.454 363.615 139.723 364.218 140.083C365.409 140.794 366.885 141.901 367.808 143.436C368.023 143.793 367.908 144.256 367.551 144.471C367.193 144.686 366.729 144.571 366.514 144.214C365.776 142.988 364.545 142.036 363.443 141.379C362.9 141.054 362.405 140.811 362.047 140.65C361.869 140.569 361.726 140.51 361.628 140.471C361.6 140.459 361.575 140.45 361.555 140.442C359.46 140.124 358.093 138.876 357.268 137.748C356.85 137.176 356.562 136.623 356.378 136.214C356.285 136.008 356.218 135.837 356.174 135.714C356.151 135.652 356.134 135.602 356.123 135.567C356.117 135.549 356.112 135.534 356.109 135.524L356.105 135.51L356.103 135.506L356.103 135.504L356.102 135.503C356.102 135.503 356.102 135.503 356.826 135.287L356.102 135.503C355.983 135.103 356.21 134.683 356.61 134.564Z" fill="#666666"/>
<path fill-rule="evenodd" clip-rule="evenodd" d="M324.08 22.4663C324.173 23.0415 323.79 23.5891 323.214 23.6971C322.628 23.8068 322.065 23.4214 321.955 22.8362L323.015 22.6375C321.955 22.8362 321.954 22.8345 321.954 22.8328L321.953 22.8292L321.952 22.8214C321.951 22.8159 321.95 22.8098 321.949 22.8032C321.947 22.7899 321.945 22.7744 321.942 22.7567C321.937 22.7213 321.932 22.6772 321.928 22.6249C321.92 22.5203 321.916 22.3827 321.924 22.2175C321.94 21.8862 322.007 21.4446 322.198 20.9379C322.585 19.9074 323.444 18.703 325.203 17.6206C328.657 15.4958 335.661 13.7873 349.952 14.6401C350.25 14.651 350.572 14.6572 350.909 14.6637C352.077 14.6863 353.426 14.7124 354.59 14.9521C356.152 15.2742 357.753 16.0524 358.353 17.9848C358.529 18.5534 358.211 19.1573 357.642 19.3337C357.073 19.51 356.469 19.1919 356.292 18.6233C356.029 17.7744 355.364 17.313 354.154 17.0637C353.205 16.8681 352.145 16.8468 351.019 16.8241C350.639 16.8165 350.252 16.8087 349.86 16.7941C349.852 16.7938 349.844 16.7934 349.836 16.7929C335.632 15.9442 329.197 17.6956 326.335 19.4564C324.936 20.317 324.418 21.1622 324.218 21.6954C324.114 21.9706 324.085 22.1895 324.079 22.3232C324.075 22.3904 324.078 22.4364 324.079 22.4574C324.08 22.4612 324.08 22.4642 324.08 22.4663Z" fill="#666666"/>
<path fill-rule="evenodd" clip-rule="evenodd" d="M314.826 24.2183C314.739 24.8037 314.196 25.2105 313.608 25.128C313.018 25.0452 312.607 24.5001 312.69 23.9106L313.758 24.0605C312.69 23.9106 312.69 23.9094 312.69 23.9082L312.691 23.9055L312.692 23.8992C312.692 23.8946 312.693 23.8892 312.694 23.883C312.696 23.8707 312.699 23.8552 312.702 23.8367C312.708 23.7998 312.718 23.7507 312.731 23.6904C312.757 23.5699 312.797 23.4043 312.858 23.2005C312.979 22.7929 313.184 22.232 313.522 21.5735C314.201 20.2525 315.408 18.5535 317.531 16.917C321.779 13.6419 329.567 10.7093 343.82 11.3413L343.821 11.3414C345.588 11.4211 347.357 11.7925 348.721 12.5901C350.127 13.4121 351.151 14.7306 351.151 16.5793C351.151 17.1746 350.668 17.6573 350.072 17.6573C349.477 17.6573 348.994 17.1746 348.994 16.5793C348.994 15.6683 348.54 14.9817 347.632 14.4509C346.682 13.8957 345.3 13.5663 343.724 13.4952C329.776 12.8768 322.557 15.7653 318.849 18.6239C316.993 20.0543 315.985 21.5003 315.442 22.5576C315.17 23.0882 315.013 23.5249 314.925 23.8174C314.881 23.9637 314.855 24.0739 314.841 24.1416C314.833 24.1755 314.829 24.1987 314.827 24.2104C314.826 24.2143 314.826 24.217 314.826 24.2183Z" fill="#666666"/>
<path d="M331.43 80.8486C331.43 80.8486 313.5 108.079 313.5 117.888C313.5 127.698 349.9 128 349.9 117.888C349.9 107.798 331.43 80.8486 331.43 80.8486Z" fill="white"/>
<path d="M357.301 85.4196H312.658C308.019 85.4196 304.243 81.7544 304.243 77.2269V39.217C304.243 29.472 312.334 21.5596 322.346 21.5596H357.301" fill="#EFEFEF"/>
<path fill-rule="evenodd" clip-rule="evenodd" d="M322.346 22.6374C312.906 22.6374 305.322 30.0908 305.322 39.2169V77.2267C305.322 81.1317 308.587 84.3414 312.658 84.3414H357.301C357.897 84.3414 358.38 84.8241 358.38 85.4194C358.38 86.0148 357.897 86.4974 357.301 86.4974H312.658C307.451 86.4974 303.164 82.3768 303.164 77.2267V39.2169C303.164 28.8529 311.762 20.4814 322.346 20.4814H357.301C357.897 20.4814 358.38 20.9641 358.38 21.5594C358.38 22.1548 357.897 22.6374 357.301 22.6374H322.346Z" fill="#666666"/>
<path d="M357.322 84.3417H315.722C311.557 84.3417 308.191 80.7844 308.191 76.4077V39.6915C308.191 30.2698 315.441 22.6377 324.396 22.6377H357.322" fill="white"/>
<path fill-rule="evenodd" clip-rule="evenodd" d="M303.768 46.7202C303.768 46.1844 304.203 45.75 304.739 45.75H315.549C316.086 45.75 316.52 46.1844 316.52 46.7202C316.52 47.256 316.086 47.6904 315.549 47.6904H304.739C304.203 47.6904 303.768 47.256 303.768 46.7202Z" fill="#666666"/>
<path fill-rule="evenodd" clip-rule="evenodd" d="M332.53 46.7202C332.53 46.1844 332.965 45.75 333.501 45.75H347.785C348.321 45.75 348.756 46.1844 348.756 46.7202C348.756 47.256 348.321 47.6904 347.785 47.6904H333.501C332.965 47.6904 332.53 47.256 332.53 46.7202Z" fill="#666666"/>
<path fill-rule="evenodd" clip-rule="evenodd" d="M320.383 52.002C320.8 52.002 321.138 52.3398 321.138 52.7565V53.274C321.138 53.6907 320.8 54.0286 320.383 54.0286C319.966 54.0286 319.627 53.6907 319.627 53.274V52.7565C319.627 52.3398 319.966 52.002 320.383 52.002Z" fill="#666666"/>
<path fill-rule="evenodd" clip-rule="evenodd" d="M324.806 52.002C325.223 52.002 325.561 52.3398 325.561 52.7565V53.274C325.561 53.6907 325.223 54.0286 324.806 54.0286C324.389 54.0286 324.051 53.6907 324.051 53.274V52.7565C324.051 52.3398 324.389 52.002 324.806 52.002Z" fill="#666666"/>
<path fill-rule="evenodd" clip-rule="evenodd" d="M319.627 68.9265C319.627 68.5097 319.966 68.1719 320.383 68.1719H328.798C329.215 68.1719 329.553 68.5097 329.553 68.9265C329.553 69.3432 329.215 69.681 328.798 69.681H320.383C319.966 69.681 319.627 69.3432 319.627 68.9265Z" fill="#666666"/>
<path d="M336.026 98.5063C336.026 100.878 334.084 102.818 331.711 102.818C329.337 102.818 327.395 100.878 327.395 98.5063C327.395 96.1347 329.337 94.1943 331.711 94.1943C334.084 94.1943 336.026 96.1132 336.026 98.5063Z" fill="#EFEFEF"/>
<path fill-rule="evenodd" clip-rule="evenodd" d="M331.71 95.2722C329.923 95.2722 328.474 96.7201 328.474 98.5061C328.474 100.292 329.923 101.74 331.71 101.74C333.498 101.74 334.947 100.292 334.947 98.5061C334.947 96.7201 333.498 95.2722 331.71 95.2722ZM326.316 98.5061C326.316 95.5294 328.731 93.1162 331.71 93.1162C334.69 93.1162 337.105 95.5294 337.105 98.5061C337.105 101.483 334.69 103.896 331.71 103.896C328.731 103.896 326.316 101.483 326.316 98.5061Z" fill="#666666"/>
<path d="M300.1 98.5927C298.46 98.1184 297.446 96.6524 297.835 95.2941C298.223 93.9358 299.863 93.2244 301.503 93.6987C303.142 94.173 304.157 95.6391 303.768 96.9973C303.38 98.3556 301.718 99.067 300.1 98.5927Z" fill="white"/>
<path fill-rule="evenodd" clip-rule="evenodd" d="M298.865 95.5976C298.692 96.1983 299.127 97.1985 300.388 97.5611C301.648 97.9237 302.549 97.3079 302.722 96.7072C302.895 96.1065 302.46 95.1062 301.2 94.7436C299.939 94.381 299.039 94.9969 298.865 95.5976ZM299.791 99.6328C297.776 99.0531 296.187 97.1005 296.792 95.001C297.397 92.9015 299.782 92.0923 301.797 92.672C303.811 93.2517 305.4 95.2042 304.795 97.3037C304.19 99.4033 301.805 100.212 299.791 99.6328Z" fill="#666666"/>
<path d="M353.18 106.85C353.784 108.424 353.223 110.106 351.928 110.602C350.634 111.097 349.102 110.235 348.497 108.661C347.893 107.087 348.454 105.406 349.749 104.91C351.022 104.392 352.576 105.276 353.18 106.85Z" fill="white"/>
<path fill-rule="evenodd" clip-rule="evenodd" d="M350.122 105.901C349.562 106.116 349.034 107.039 349.498 108.243C349.961 109.447 350.973 109.778 351.532 109.563C352.091 109.348 352.619 108.425 352.156 107.221C351.692 106.017 350.681 105.686 350.122 105.901ZM347.484 109.017C346.741 107.087 347.326 104.666 349.347 103.889C351.368 103.112 353.426 104.517 354.17 106.447C354.913 108.377 354.328 110.798 352.307 111.575C350.286 112.352 348.227 110.947 347.484 109.017Z" fill="#666666"/>
<path d="M326.834 85.4199L323.943 89.6888L328.927 90.7452L331.797 85.4199H326.834Z" fill="#EFEFEF"/>
<path fill-rule="evenodd" clip-rule="evenodd" d="M326.209 84.9967C326.349 84.7893 326.583 84.665 326.834 84.665H331.797C332.063 84.665 332.309 84.8047 332.445 85.0327C332.581 85.2607 332.588 85.5435 332.462 85.7774L329.592 91.1026C329.433 91.3976 329.098 91.5526 328.77 91.483L323.786 90.4266C323.54 90.3745 323.336 90.2036 323.242 89.9707C323.148 89.7378 323.176 89.4735 323.317 89.2655L326.209 84.9967ZM327.235 86.1742L325.197 89.1829L328.53 89.8894L330.532 86.1742H327.235Z" fill="#666666"/>
<path d="M337.946 85.4199L341.528 89.6888L335.379 90.7452L331.797 85.4199H337.946Z" fill="#EFEFEF"/>
<path fill-rule="evenodd" clip-rule="evenodd" d="M331.13 85.0648C331.261 84.8188 331.518 84.665 331.797 84.665H337.946C338.169 84.665 338.381 84.7638 338.525 84.9348L342.107 89.2037C342.28 89.4107 342.33 89.6946 342.237 89.9482C342.144 90.2018 341.922 90.3864 341.656 90.4321L335.506 91.4886C335.213 91.539 334.918 91.4126 334.752 91.1658L331.17 85.8405C331.014 85.6091 330.999 85.3109 331.13 85.0648ZM333.214 86.1742L335.732 89.9184L340.105 89.1672L337.594 86.1742H333.214Z" fill="#666666"/>
<path d="M322.756 144.494C322.174 144.041 321.418 143.782 320.599 143.847C319.023 143.955 317.772 145.27 317.707 146.844C317.642 148.633 319.067 149.884 320.836 149.884H324.504C325.367 149.884 326.079 149.172 326.079 148.31V142.316L322.756 144.494Z" fill="white"/>
<path fill-rule="evenodd" clip-rule="evenodd" d="M326.643 141.273C327.026 141.48 327.266 141.881 327.266 142.317V148.31C327.266 149.828 326.022 151.07 324.504 151.07H320.836C318.504 151.07 316.428 149.367 316.521 146.801L316.521 146.796C316.61 144.634 318.321 142.818 320.511 142.665C321.315 142.603 322.075 142.766 322.735 143.09L325.428 141.325C325.793 141.086 326.259 141.066 326.643 141.273ZM324.892 144.512L323.407 145.486C322.982 145.764 322.428 145.742 322.027 145.43C321.664 145.148 321.199 144.989 320.692 145.03L320.679 145.03C319.723 145.096 318.935 145.907 318.893 146.89C318.858 147.902 319.629 148.698 320.836 148.698H324.504C324.711 148.698 324.892 148.518 324.892 148.31V144.512Z" fill="#666666"/>
<path fill-rule="evenodd" clip-rule="evenodd" d="M321.221 144.505C321.322 144.289 321.578 144.196 321.794 144.296L321.612 144.687C321.794 144.296 321.795 144.296 321.795 144.296L321.795 144.297L321.796 144.297L321.798 144.298L321.804 144.301C321.808 144.303 321.813 144.305 321.82 144.309C321.833 144.315 321.851 144.324 321.872 144.336C321.915 144.359 321.973 144.392 322.041 144.437C322.176 144.524 322.356 144.658 322.532 144.841C322.888 145.208 323.245 145.796 323.164 146.606C323.14 146.843 322.929 147.016 322.691 146.992C322.454 146.968 322.281 146.757 322.305 146.52C322.353 146.036 322.149 145.686 321.911 145.439C321.791 145.315 321.666 145.222 321.571 145.16C321.524 145.129 321.485 145.107 321.46 145.094C321.447 145.087 321.438 145.082 321.433 145.079L321.428 145.077C321.214 144.976 321.121 144.72 321.221 144.505Z" fill="#666666"/>
<path fill-rule="evenodd" clip-rule="evenodd" d="M363.719 14.4918C364.277 14.6994 364.561 15.3201 364.353 15.878C363.963 16.9279 363.443 17.7386 362.791 18.3376C362.135 18.9408 361.397 19.2812 360.646 19.4651C359.909 19.6454 359.158 19.6756 358.464 19.6664C358.115 19.6618 357.766 19.6467 357.434 19.6322L357.416 19.6314C357.085 19.617 356.772 19.6033 356.463 19.5983C356.456 19.5982 356.45 19.598 356.443 19.5978C343.346 19.1343 337.61 19.9071 335.174 20.7158C334.361 20.9856 334.021 21.2256 333.89 21.3445C333.976 21.7682 333.801 22.2204 333.415 22.4678C332.913 22.7892 332.246 22.6435 331.924 22.1423L332.833 21.5604C331.924 22.1423 331.923 22.1403 331.922 22.1382L331.919 22.134L331.913 22.125C331.91 22.1188 331.906 22.1123 331.902 22.1053C331.893 22.0915 331.885 22.076 331.876 22.059C331.857 22.025 331.837 21.9844 331.817 21.9375C331.778 21.844 331.737 21.722 331.711 21.5754C331.658 21.2704 331.68 20.8901 331.87 20.491C332.234 19.728 333.091 19.1354 334.494 18.6698C337.333 17.727 343.418 16.98 356.509 17.4428C356.844 17.4484 357.18 17.4631 357.498 17.477L357.528 17.4783C357.864 17.493 358.182 17.5065 358.493 17.5106C359.119 17.5189 359.658 17.4872 360.132 17.371C360.592 17.2585 360.986 17.0679 361.33 16.7508C361.68 16.4296 362.032 15.9305 362.331 15.1262C362.539 14.5682 363.16 14.2842 363.719 14.4918Z" fill="#666666"/>
<path d="M336.263 99.3252H327.33C327.33 99.3252 327.978 102.818 331.646 102.818C335.314 102.818 336.263 99.3252 336.263 99.3252Z" fill="#4BB9F7"/>
<path fill-rule="evenodd" clip-rule="evenodd" d="M331.667 95.2722C329.88 95.2722 328.431 96.7201 328.431 98.5061C328.431 100.292 329.88 101.74 331.667 101.74C333.455 101.74 334.904 100.292 334.904 98.5061C334.904 96.7201 333.455 95.2722 331.667 95.2722ZM326.273 98.5061C326.273 95.5294 328.688 93.1162 331.667 93.1162C334.647 93.1162 337.062 95.5294 337.062 98.5061C337.062 101.483 334.647 103.896 331.667 103.896C328.688 103.896 326.273 101.483 326.273 98.5061Z" fill="#666666"/>
<path d="M166.238 189.688V187.552C166.238 186.688 166.462 186.064 166.91 185.68C167.374 185.296 167.974 185.104 168.71 185.104C169.43 185.104 170.014 185.304 170.462 185.704C170.91 186.088 171.134 186.704 171.134 187.552V189.688H175.406V187.552C175.406 186.688 175.63 186.064 176.078 185.68C176.542 185.296 177.142 185.104 177.878 185.104C178.598 185.104 179.182 185.304 179.63 185.704C180.078 186.088 180.302 186.704 180.302 187.552V189.688H181.934C182.67 189.688 183.19 189.888 183.494 190.288C183.798 190.688 183.95 191.128 183.95 191.608C183.95 192.104 183.79 192.552 183.47 192.952C183.166 193.336 182.654 193.528 181.934 193.528H164.606C163.886 193.528 163.366 193.336 163.046 192.952C162.742 192.552 162.59 192.104 162.59 191.608C162.59 191.128 162.742 190.688 163.046 190.288C163.35 189.888 163.87 189.688 164.606 189.688H166.238ZM182.438 197.392C182.806 197.392 183.118 197.456 183.374 197.584C183.646 197.696 183.862 197.848 184.022 198.04C184.198 198.232 184.318 198.456 184.382 198.712C184.462 198.952 184.502 199.192 184.502 199.432C184.502 199.688 184.462 199.936 184.382 200.176C184.302 200.416 184.174 200.632 183.998 200.824C183.838 201.016 183.63 201.168 183.374 201.28C183.118 201.392 182.806 201.448 182.438 201.448H164.102C163.734 201.448 163.422 201.392 163.166 201.28C162.91 201.168 162.694 201.016 162.518 200.824C162.358 200.632 162.238 200.416 162.158 200.176C162.078 199.936 162.038 199.688 162.038 199.432C162.038 199.192 162.07 198.952 162.134 198.712C162.214 198.456 162.334 198.232 162.494 198.04C162.67 197.848 162.886 197.696 163.142 197.584C163.414 197.456 163.734 197.392 164.102 197.392H182.438ZM181.646 180.184C182.014 180.184 182.326 180.248 182.582 180.376C182.838 180.488 183.046 180.64 183.206 180.832C183.366 181.024 183.478 181.24 183.542 181.48C183.622 181.72 183.662 181.96 183.662 182.2C183.662 182.44 183.622 182.68 183.542 182.92C183.478 183.16 183.358 183.376 183.182 183.568C183.022 183.76 182.814 183.92 182.558 184.048C182.302 184.16 181.998 184.216 181.646 184.216H164.894C164.526 184.216 164.214 184.16 163.958 184.048C163.718 183.92 163.51 183.76 163.334 183.568C163.174 183.376 163.054 183.16 162.974 182.92C162.91 182.68 162.878 182.44 162.878 182.2C162.878 181.96 162.91 181.72 162.974 181.48C163.054 181.24 163.174 181.024 163.334 180.832C163.494 180.64 163.702 180.488 163.958 180.376C164.214 180.248 164.526 180.184 164.894 180.184H181.646ZM191.102 196.024C191.102 196.44 191.166 196.704 191.294 196.816C191.438 196.928 191.718 196.984 192.134 196.984H195.734C196.086 196.984 196.382 197.04 196.622 197.152C196.878 197.264 197.078 197.416 197.222 197.608C197.382 197.784 197.494 197.992 197.558 198.232C197.638 198.456 197.678 198.688 197.678 198.928C197.678 199.424 197.526 199.88 197.222 200.296C196.918 200.712 196.422 200.92 195.734 200.92H190.214C189.478 200.92 188.87 200.864 188.39 200.752C187.926 200.656 187.558 200.472 187.286 200.2C187.014 199.944 186.822 199.592 186.71 199.144C186.614 198.68 186.566 198.088 186.566 197.368V191.896C186.566 191.176 186.614 190.592 186.71 190.144C186.822 189.696 187.014 189.344 187.286 189.088C187.558 188.816 187.926 188.632 188.39 188.536C188.87 188.44 189.478 188.392 190.214 188.392H191.486V184.816C191.486 184.576 191.438 184.416 191.342 184.336C191.246 184.24 191.078 184.192 190.838 184.192H188.63C187.91 184.192 187.39 183.992 187.07 183.592C186.75 183.176 186.59 182.72 186.59 182.224C186.59 181.984 186.622 181.744 186.686 181.504C186.766 181.264 186.886 181.056 187.046 180.88C187.222 180.688 187.438 180.536 187.694 180.424C187.95 180.296 188.262 180.232 188.63 180.232H192.206C193.022 180.232 193.67 180.28 194.15 180.376C194.646 180.472 195.022 180.64 195.278 180.88C195.55 181.12 195.726 181.448 195.806 181.864C195.886 182.264 195.926 182.776 195.926 183.4V192.304H192.134C191.718 192.304 191.438 192.36 191.294 192.472C191.166 192.584 191.102 192.848 191.102 193.264V196.024ZM198.782 191.656H198.134C197.766 191.656 197.462 191.6 197.222 191.488C196.998 191.376 196.814 191.224 196.67 191.032C196.542 190.84 196.446 190.616 196.382 190.36C196.334 190.104 196.31 189.832 196.31 189.544C196.31 189.272 196.334 189.008 196.382 188.752C196.446 188.496 196.542 188.272 196.67 188.08C196.814 187.888 196.998 187.736 197.222 187.624C197.462 187.496 197.766 187.432 198.134 187.432H198.782V181.432C198.782 180.76 198.982 180.256 199.382 179.92C199.782 179.568 200.262 179.392 200.822 179.392C201.366 179.392 201.846 179.568 202.262 179.92C202.694 180.256 202.91 180.76 202.91 181.432V201.928H198.782V191.656ZM204.014 181.432C204.014 180.76 204.222 180.256 204.638 179.92C205.07 179.568 205.566 179.392 206.126 179.392C206.67 179.392 207.158 179.568 207.59 179.92C208.022 180.256 208.238 180.76 208.238 181.432V201.928H204.014V181.432ZM215.078 201.928C214.358 201.928 213.774 201.864 213.326 201.736C212.878 201.624 212.526 201.424 212.27 201.136C212.03 200.864 211.862 200.496 211.766 200.032C211.686 199.568 211.646 198.984 211.646 198.28V196.336C211.646 195.648 211.686 195.072 211.766 194.608C211.862 194.128 212.03 193.752 212.27 193.48C212.526 193.192 212.878 192.992 213.326 192.88C213.774 192.752 214.358 192.688 215.078 192.688H228.542C229.262 192.688 229.846 192.752 230.294 192.88C230.742 192.992 231.086 193.192 231.326 193.48C231.582 193.752 231.75 194.128 231.83 194.608C231.926 195.072 231.974 195.648 231.974 196.336V201.928H215.078ZM217.43 191.632C216.406 191.632 215.47 191.528 214.622 191.32C213.79 191.112 213.07 190.792 212.462 190.36C211.87 189.912 211.406 189.344 211.07 188.656C210.734 187.952 210.566 187.112 210.566 186.136V185.224C210.566 184.248 210.734 183.416 211.07 182.728C211.406 182.024 211.87 181.456 212.462 181.024C213.07 180.576 213.79 180.248 214.622 180.04C215.47 179.832 216.406 179.728 217.43 179.728C218.454 179.728 219.382 179.832 220.214 180.04C221.062 180.248 221.782 180.576 222.374 181.024C222.982 181.456 223.454 182.024 223.79 182.728C224.126 183.416 224.294 184.248 224.294 185.224V186.136C224.294 187.112 224.126 187.952 223.79 188.656C223.454 189.344 222.982 189.912 222.374 190.36C221.782 190.792 221.062 191.112 220.214 191.32C219.382 191.528 218.454 191.632 217.43 191.632ZM227.006 181.768C227.006 180.984 227.246 180.392 227.726 179.992C228.222 179.592 228.79 179.392 229.43 179.392C229.734 179.392 230.03 179.448 230.318 179.56C230.622 179.656 230.886 179.808 231.11 180.016C231.334 180.208 231.51 180.456 231.638 180.76C231.782 181.048 231.854 181.384 231.854 181.768V191.8H227.006V181.768ZM216.374 197.896C216.374 198.184 216.406 198.368 216.47 198.448C216.55 198.512 216.71 198.544 216.95 198.544H227.246V196.672C227.246 196.4 227.206 196.232 227.126 196.168C227.046 196.088 226.886 196.048 226.646 196.048H216.95C216.71 196.048 216.55 196.088 216.47 196.168C216.406 196.232 216.374 196.4 216.374 196.672V197.896ZM217.43 188.2C218.07 188.2 218.59 188.056 218.99 187.768C219.39 187.464 219.59 186.992 219.59 186.352V185.008C219.59 184.384 219.39 183.92 218.99 183.616C218.59 183.312 218.07 183.16 217.43 183.16C216.79 183.16 216.27 183.312 215.87 183.616C215.47 183.92 215.27 184.384 215.27 185.008V186.352C215.27 186.992 215.47 187.464 215.87 187.768C216.27 188.056 216.79 188.2 217.43 188.2ZM234.662 186.28C234.662 185.224 234.83 184.296 235.166 183.496C235.502 182.68 235.966 182 236.558 181.456C237.166 180.896 237.886 180.48 238.718 180.208C239.55 179.92 240.47 179.776 241.478 179.776C242.486 179.776 243.406 179.92 244.238 180.208C245.07 180.48 245.79 180.888 246.398 181.432C247.006 181.976 247.478 182.656 247.814 183.472C248.15 184.288 248.318 185.224 248.318 186.28V194.968C248.318 196.024 248.15 196.96 247.814 197.776C247.478 198.592 247.006 199.272 246.398 199.816C245.806 200.36 245.086 200.768 244.238 201.04C243.406 201.328 242.494 201.472 241.502 201.472C240.494 201.472 239.574 201.328 238.742 201.04C237.91 200.768 237.19 200.36 236.582 199.816C235.974 199.272 235.502 198.592 235.166 197.776C234.83 196.96 234.662 196.024 234.662 194.968V186.28ZM239.414 195.064C239.414 195.88 239.606 196.496 239.99 196.912C240.39 197.312 240.886 197.512 241.478 197.512C242.07 197.512 242.566 197.312 242.966 196.912C243.366 196.496 243.566 195.88 243.566 195.064V186.184C243.566 185.368 243.366 184.752 242.966 184.336C242.566 183.92 242.07 183.72 241.478 183.736C240.886 183.752 240.39 183.968 239.99 184.384C239.606 184.784 239.414 185.384 239.414 186.184V195.064ZM251.054 201.928V181.768C251.054 180.984 251.294 180.392 251.774 179.992C252.254 179.592 252.814 179.392 253.454 179.392C254.094 179.392 254.654 179.592 255.134 179.992C255.614 180.392 255.854 180.984 255.854 181.768V201.928H251.054ZM265.292 185.176C265.292 184.2 265.452 183.368 265.772 182.68C266.108 181.992 266.572 181.432 267.164 181C267.756 180.552 268.46 180.232 269.276 180.04C270.108 179.832 271.02 179.728 272.012 179.728C273.74 179.728 275.18 180.048 276.332 180.688C277.484 181.312 278.204 182.328 278.492 183.736H281.804V181.72C281.804 180.952 282.044 180.376 282.524 179.992C283.004 179.592 283.556 179.392 284.18 179.392C284.484 179.392 284.78 179.448 285.068 179.56C285.356 179.656 285.612 179.8 285.836 179.992C286.06 180.184 286.236 180.424 286.364 180.712C286.508 181 286.58 181.336 286.58 181.72V191.56H281.804V187.48H278.468C278.148 188.856 277.412 189.848 276.26 190.456C275.124 191.064 273.708 191.368 272.012 191.368C271.004 191.368 270.084 191.272 269.252 191.08C268.42 190.872 267.708 190.552 267.116 190.12C266.54 189.672 266.092 189.104 265.772 188.416C265.452 187.728 265.292 186.896 265.292 185.92V185.176ZM268.82 201.928C268.244 201.928 267.764 201.872 267.38 201.76C267.012 201.664 266.724 201.496 266.516 201.256C266.308 201.016 266.164 200.704 266.084 200.32C266.004 199.952 265.964 199.488 265.964 198.928V194.152C265.964 193.432 266.14 192.936 266.492 192.664C266.844 192.376 267.324 192.232 267.932 192.232C268.524 192.232 268.988 192.376 269.324 192.664C269.66 192.952 269.836 193.432 269.852 194.104H272.444C272.444 193.416 272.612 192.936 272.948 192.664C273.284 192.376 273.756 192.232 274.364 192.232C274.972 192.232 275.436 192.376 275.756 192.664C276.092 192.952 276.26 193.448 276.26 194.152V201.928H268.82ZM277.7 198.76C278.1 198.616 278.452 198.424 278.756 198.184C279.06 197.944 279.308 197.648 279.5 197.296C279.708 196.928 279.868 196.496 279.98 196C280.092 195.488 280.156 194.88 280.172 194.176C280.188 193.472 280.404 192.968 280.82 192.664C281.252 192.344 281.772 192.184 282.38 192.184C283.004 192.184 283.5 192.36 283.868 192.712C284.252 193.048 284.444 193.56 284.444 194.248C284.444 194.536 284.428 194.816 284.396 195.088C284.38 195.344 284.356 195.6 284.324 195.856C285.556 196.096 286.5 196.696 287.156 197.656C287.812 198.616 288.108 200.04 288.044 201.928H283.82C283.948 201.272 283.964 200.712 283.868 200.248C283.788 199.784 283.58 199.432 283.244 199.192C282.7 200.12 282.028 200.832 281.228 201.328C280.444 201.84 279.62 202.136 278.756 202.216C278.18 202.264 277.708 202.168 277.34 201.928C276.972 201.704 276.74 201.384 276.644 200.968C276.548 200.504 276.572 200.072 276.716 199.672C276.876 199.256 277.204 198.952 277.7 198.76ZM269.972 186.16C269.972 186.768 270.156 187.224 270.524 187.528C270.908 187.816 271.404 187.96 272.012 187.96C272.62 187.96 273.108 187.816 273.476 187.528C273.86 187.224 274.052 186.768 274.052 186.16V184.936C274.052 184.328 273.86 183.88 273.476 183.592C273.108 183.288 272.62 183.136 272.012 183.136C271.404 183.136 270.908 183.288 270.524 183.592C270.156 183.88 269.972 184.328 269.972 184.936V186.16ZM272.444 198.952V197.032H269.852V198.4C269.852 198.64 269.884 198.792 269.948 198.856C270.012 198.92 270.164 198.952 270.404 198.952H272.444ZM292.292 192.976C292.82 192.976 293.308 193.104 293.756 193.36C294.204 193.616 294.492 194.024 294.62 194.584H305.348C305.46 193.976 305.74 193.56 306.188 193.336C306.636 193.096 307.148 192.976 307.724 192.976C308.028 192.976 308.324 193.016 308.612 193.096C308.9 193.16 309.156 193.272 309.38 193.432C309.62 193.592 309.804 193.808 309.932 194.08C310.076 194.336 310.148 194.656 310.148 195.04V201.928H293.276C292.556 201.928 291.972 201.864 291.524 201.736C291.076 201.624 290.724 201.424 290.468 201.136C290.228 200.864 290.06 200.496 289.964 200.032C289.884 199.568 289.844 198.984 289.844 198.28V195.04C289.844 194.656 289.908 194.336 290.036 194.08C290.18 193.808 290.364 193.592 290.588 193.432C290.812 193.272 291.068 193.16 291.356 193.096C291.66 193.016 291.972 192.976 292.292 192.976ZM302.252 181.6C302.252 181.648 302.244 181.696 302.228 181.744C302.228 181.776 302.228 181.808 302.228 181.84C303.156 181.792 304.076 181.872 304.988 182.08C305.9 182.272 306.732 182.616 307.484 183.112C308.252 183.592 308.908 184.24 309.452 185.056C309.996 185.856 310.38 186.84 310.604 188.008H305.732C305.54 187.48 305.252 187.024 304.868 186.64C304.5 186.256 304.068 185.96 303.572 185.752C303.092 185.528 302.556 185.392 301.964 185.344C301.372 185.296 300.764 185.328 300.14 185.44C299.612 185.904 299.004 186.312 298.316 186.664C297.644 187.016 296.932 187.304 296.18 187.528C295.428 187.752 294.652 187.912 293.852 188.008C293.052 188.104 292.26 188.12 291.476 188.056C290.756 188.008 290.22 187.8 289.868 187.432C289.532 187.048 289.372 186.616 289.388 186.136C289.388 185.896 289.436 185.656 289.532 185.416C289.628 185.176 289.764 184.968 289.94 184.792C290.132 184.6 290.364 184.456 290.636 184.36C290.908 184.248 291.228 184.192 291.596 184.192C292.172 184.208 292.772 184.144 293.396 184C294.036 183.856 294.62 183.648 295.148 183.376C295.692 183.104 296.164 182.776 296.564 182.392C296.964 182.008 297.228 181.576 297.356 181.096C297.548 180.36 297.908 179.84 298.436 179.536C298.98 179.232 299.58 179.12 300.236 179.2C300.876 179.28 301.38 179.504 301.748 179.872C302.132 180.24 302.3 180.816 302.252 181.6ZM309.356 188.776C310.044 188.776 310.524 188.96 310.796 189.328C311.084 189.68 311.228 190.08 311.228 190.528C311.228 190.992 311.084 191.4 310.796 191.752C310.508 192.104 310.028 192.28 309.356 192.28H290.636C289.964 192.28 289.484 192.104 289.196 191.752C288.908 191.4 288.764 190.992 288.764 190.528C288.764 190.08 288.9 189.68 289.172 189.328C289.46 188.96 289.948 188.776 290.636 188.776H309.356ZM305.324 198.808V197.536H294.668V198.064C294.668 198.304 294.716 198.488 294.812 198.616C294.924 198.744 295.124 198.808 295.412 198.808H305.324ZM326.42 196.672C326.772 196.672 327.06 196.736 327.284 196.864C327.524 196.976 327.708 197.128 327.836 197.32C327.98 197.512 328.076 197.728 328.124 197.968C328.188 198.208 328.22 198.44 328.22 198.664C328.22 198.904 328.188 199.144 328.124 199.384C328.076 199.624 327.98 199.848 327.836 200.056C327.692 200.248 327.5 200.408 327.26 200.536C327.036 200.664 326.756 200.728 326.42 200.728H317.204C316.484 200.728 315.884 200.656 315.404 200.512C314.94 200.384 314.564 200.176 314.276 199.888C314.004 199.584 313.812 199.2 313.7 198.736C313.588 198.256 313.532 197.672 313.532 196.984V182.68C313.532 182.28 313.596 181.936 313.724 181.648C313.868 181.344 314.052 181.096 314.276 180.904C314.5 180.712 314.756 180.576 315.044 180.496C315.348 180.4 315.66 180.352 315.98 180.352C316.652 180.352 317.212 180.544 317.66 180.928C318.124 181.296 318.356 181.88 318.356 182.68V196C318.356 196.272 318.404 196.456 318.5 196.552C318.596 196.632 318.78 196.672 319.052 196.672H326.42ZM329.78 201.928V181.768C329.78 180.984 330.02 180.392 330.5 179.992C330.98 179.592 331.54 179.392 332.18 179.392C332.82 179.392 333.38 179.592 333.86 179.992C334.34 180.392 334.58 180.984 334.58 181.768V201.928H329.78ZM341.204 200.968C340.42 200.968 339.788 200.912 339.308 200.8C338.828 200.688 338.452 200.488 338.18 200.2C337.924 199.928 337.748 199.552 337.652 199.072C337.556 198.592 337.508 197.976 337.508 197.224V183.952C337.508 183.2 337.556 182.584 337.652 182.104C337.748 181.624 337.924 181.248 338.18 180.976C338.452 180.688 338.828 180.496 339.308 180.4C339.788 180.288 340.42 180.232 341.204 180.232H348.836C349.188 180.232 349.476 180.296 349.7 180.424C349.94 180.552 350.124 180.712 350.252 180.904C350.396 181.096 350.492 181.312 350.54 181.552C350.604 181.792 350.636 182.024 350.636 182.248C350.636 182.488 350.604 182.728 350.54 182.968C350.492 183.208 350.396 183.424 350.252 183.616C350.108 183.808 349.916 183.968 349.676 184.096C349.452 184.224 349.172 184.288 348.836 184.288H342.86C342.636 184.288 342.476 184.336 342.38 184.432C342.284 184.528 342.236 184.712 342.236 184.984V196.264C342.236 196.536 342.284 196.72 342.38 196.816C342.476 196.912 342.636 196.96 342.86 196.96H349.94C350.292 196.96 350.58 197.024 350.804 197.152C351.044 197.28 351.228 197.44 351.356 197.632C351.5 197.824 351.596 198.04 351.644 198.28C351.708 198.52 351.74 198.752 351.74 198.976C351.74 199.216 351.708 199.456 351.644 199.696C351.596 199.92 351.5 200.128 351.356 200.32C351.212 200.512 351.02 200.664 350.78 200.776C350.556 200.904 350.276 200.968 349.94 200.968H341.204ZM353.132 181.72C353.132 180.952 353.372 180.376 353.852 179.992C354.332 179.592 354.884 179.392 355.508 179.392C355.812 179.392 356.108 179.448 356.396 179.56C356.684 179.656 356.932 179.8 357.14 179.992C357.364 180.184 357.54 180.424 357.668 180.712C357.812 181 357.884 181.336 357.884 181.72V187.792H358.676C359.044 187.792 359.348 187.856 359.588 187.984C359.828 188.112 360.02 188.28 360.164 188.488C360.308 188.68 360.412 188.904 360.476 189.16C360.54 189.4 360.572 189.64 360.572 189.88C360.572 190.12 360.54 190.368 360.476 190.624C360.412 190.864 360.308 191.088 360.164 191.296C360.02 191.488 359.82 191.648 359.564 191.776C359.324 191.904 359.028 191.968 358.676 191.968H357.884V201.928H353.132V181.72ZM360.932 198.184C360.932 197.432 361.156 196.84 361.604 196.408C362.052 195.976 362.684 195.76 363.5 195.76C364.316 195.76 364.948 195.984 365.396 196.432C365.844 196.864 366.068 197.448 366.068 198.184C366.068 198.92 365.844 199.512 365.396 199.96C364.948 200.392 364.316 200.608 363.5 200.608C362.684 200.608 362.052 200.392 361.604 199.96C361.156 199.528 360.932 198.936 360.932 198.184ZM5.30394 224.688V222.552C5.30394 221.688 5.52794 221.064 5.97594 220.68C6.43994 220.296 7.03994 220.104 7.77594 220.104C8.49594 220.104 9.07994 220.304 9.52794 220.704C9.97594 221.088 10.1999 221.704 10.1999 222.552V224.688H14.4719V222.552C14.4719 221.688 14.6959 221.064 15.1439 220.68C15.6079 220.296 16.2079 220.104 16.9439 220.104C17.6639 220.104 18.2479 220.304 18.6959 220.704C19.1439 221.088 19.3679 221.704 19.3679 222.552V224.688H20.9999C21.7359 224.688 22.2559 224.888 22.5599 225.288C22.8639 225.688 23.0159 226.128 23.0159 226.608C23.0159 227.104 22.8559 227.552 22.5359 227.952C22.2319 228.336 21.7199 228.528 20.9999 228.528H3.67194C2.95194 228.528 2.43194 228.336 2.11194 227.952C1.80794 227.552 1.65594 227.104 1.65594 226.608C1.65594 226.128 1.80794 225.688 2.11194 225.288C2.41594 224.888 2.93594 224.688 3.67194 224.688H5.30394ZM21.5039 232.392C21.8719 232.392 22.1839 232.456 22.4399 232.584C22.7119 232.696 22.9279 232.848 23.0879 233.04C23.2639 233.232 23.3839 233.456 23.4479 233.712C23.5279 233.952 23.5679 234.192 23.5679 234.432C23.5679 234.688 23.5279 234.936 23.4479 235.176C23.3679 235.416 23.2399 235.632 23.0639 235.824C22.9039 236.016 22.6959 236.168 22.4399 236.28C22.1839 236.392 21.8719 236.448 21.5039 236.448H3.16794C2.79994 236.448 2.48794 236.392 2.23194 236.28C1.97594 236.168 1.75994 236.016 1.58394 235.824C1.42394 235.632 1.30394 235.416 1.22394 235.176C1.14394 234.936 1.10394 234.688 1.10394 234.432C1.10394 234.192 1.13594 233.952 1.19994 233.712C1.27994 233.456 1.39994 233.232 1.55994 233.04C1.73594 232.848 1.95194 232.696 2.20794 232.584C2.47994 232.456 2.79994 232.392 3.16794 232.392H21.5039ZM20.7119 215.184C21.0799 215.184 21.3919 215.248 21.6479 215.376C21.9039 215.488 22.1119 215.64 22.2719 215.832C22.4319 216.024 22.5439 216.24 22.6079 216.48C22.6879 216.72 22.7279 216.96 22.7279 217.2C22.7279 217.44 22.6879 217.68 22.6079 217.92C22.5439 218.16 22.4239 218.376 22.2479 218.568C22.0879 218.76 21.8799 218.92 21.6239 219.048C21.3679 219.16 21.0639 219.216 20.7119 219.216H3.95994C3.59194 219.216 3.27994 219.16 3.02394 219.048C2.78394 218.92 2.57594 218.76 2.39994 218.568C2.23994 218.376 2.11994 218.16 2.03994 217.92C1.97594 217.68 1.94394 217.44 1.94394 217.2C1.94394 216.96 1.97594 216.72 2.03994 216.48C2.11994 216.24 2.23994 216.024 2.39994 215.832C2.55994 215.64 2.76794 215.488 3.02394 215.376C3.27994 215.248 3.59194 215.184 3.95994 215.184H20.7119ZM30.1679 231.024C30.1679 231.44 30.2319 231.704 30.3599 231.816C30.5039 231.928 30.7839 231.984 31.1999 231.984H34.7999C35.1519 231.984 35.4479 232.04 35.6879 232.152C35.9439 232.264 36.1439 232.416 36.2879 232.608C36.4479 232.784 36.5599 232.992 36.6239 233.232C36.7039 233.456 36.7439 233.688 36.7439 233.928C36.7439 234.424 36.5919 234.88 36.2879 235.296C35.9839 235.712 35.4879 235.92 34.7999 235.92H29.2799C28.5439 235.92 27.9359 235.864 27.4559 235.752C26.9919 235.656 26.6239 235.472 26.3519 235.2C26.0799 234.944 25.8879 234.592 25.7759 234.144C25.6799 233.68 25.6319 233.088 25.6319 232.368V226.896C25.6319 226.176 25.6799 225.592 25.7759 225.144C25.8879 224.696 26.0799 224.344 26.3519 224.088C26.6239 223.816 26.9919 223.632 27.4559 223.536C27.9359 223.44 28.5439 223.392 29.2799 223.392H30.5519V219.816C30.5519 219.576 30.5039 219.416 30.4079 219.336C30.3119 219.24 30.1439 219.192 29.9039 219.192H27.6959C26.9759 219.192 26.4559 218.992 26.1359 218.592C25.8159 218.176 25.6559 217.72 25.6559 217.224C25.6559 216.984 25.6879 216.744 25.7519 216.504C25.8319 216.264 25.9519 216.056 26.1119 215.88C26.2879 215.688 26.5039 215.536 26.7599 215.424C27.0159 215.296 27.3279 215.232 27.6959 215.232H31.2719C32.0879 215.232 32.7359 215.28 33.2159 215.376C33.7119 215.472 34.0879 215.64 34.3439 215.88C34.6159 216.12 34.7919 216.448 34.8719 216.864C34.9519 217.264 34.9919 217.776 34.9919 218.4V227.304H31.1999C30.7839 227.304 30.5039 227.36 30.3599 227.472C30.2319 227.584 30.1679 227.848 30.1679 228.264V231.024ZM37.8479 226.656H37.1999C36.8319 226.656 36.5279 226.6 36.2879 226.488C36.0639 226.376 35.8799 226.224 35.7359 226.032C35.6079 225.84 35.5119 225.616 35.4479 225.36C35.3999 225.104 35.3759 224.832 35.3759 224.544C35.3759 224.272 35.3999 224.008 35.4479 223.752C35.5119 223.496 35.6079 223.272 35.7359 223.08C35.8799 222.888 36.0639 222.736 36.2879 222.624C36.5279 222.496 36.8319 222.432 37.1999 222.432H37.8479V216.432C37.8479 215.76 38.0479 215.256 38.4479 214.92C38.8479 214.568 39.3279 214.392 39.8879 214.392C40.4319 214.392 40.9119 214.568 41.3279 214.92C41.7599 215.256 41.9759 215.76 41.9759 216.432V236.928H37.8479V226.656ZM43.0799 216.432C43.0799 215.76 43.2879 215.256 43.7039 214.92C44.1359 214.568 44.6319 214.392 45.1919 214.392C45.7359 214.392 46.2239 214.568 46.6559 214.92C47.0879 215.256 47.3039 215.76 47.3039 216.432V236.928H43.0799V216.432ZM54.1439 236.928C53.4239 236.928 52.8399 236.864 52.3919 236.736C51.9439 236.624 51.5919 236.424 51.3359 236.136C51.0959 235.864 50.9279 235.496 50.8319 235.032C50.7519 234.568 50.7119 233.984 50.7119 233.28V231.336C50.7119 230.648 50.7519 230.072 50.8319 229.608C50.9279 229.128 51.0959 228.752 51.3359 228.48C51.5919 228.192 51.9439 227.992 52.3919 227.88C52.8399 227.752 53.4239 227.688 54.1439 227.688H67.6079C68.3279 227.688 68.9119 227.752 69.3599 227.88C69.8079 227.992 70.1519 228.192 70.3919 228.48C70.6479 228.752 70.8159 229.128 70.8959 229.608C70.9919 230.072 71.0399 230.648 71.0399 231.336V236.928H54.1439ZM56.4959 226.632C55.4719 226.632 54.5359 226.528 53.6879 226.32C52.8559 226.112 52.1359 225.792 51.5279 225.36C50.9359 224.912 50.4719 224.344 50.1359 223.656C49.7999 222.952 49.6319 222.112 49.6319 221.136V220.224C49.6319 219.248 49.7999 218.416 50.1359 217.728C50.4719 217.024 50.9359 216.456 51.5279 216.024C52.1359 215.576 52.8559 215.248 53.6879 215.04C54.5359 214.832 55.4719 214.728 56.4959 214.728C57.5199 214.728 58.4479 214.832 59.2799 215.04C60.1279 215.248 60.8479 215.576 61.4399 216.024C62.0479 216.456 62.5199 217.024 62.8559 217.728C63.1919 218.416 63.3599 219.248 63.3599 220.224V221.136C63.3599 222.112 63.1919 222.952 62.8559 223.656C62.5199 224.344 62.0479 224.912 61.4399 225.36C60.8479 225.792 60.1279 226.112 59.2799 226.32C58.4479 226.528 57.5199 226.632 56.4959 226.632ZM66.0719 216.768C66.0719 215.984 66.3119 215.392 66.7919 214.992C67.2879 214.592 67.8559 214.392 68.4959 214.392C68.7999 214.392 69.0959 214.448 69.3839 214.56C69.6879 214.656 69.9519 214.808 70.1759 215.016C70.3999 215.208 70.5759 215.456 70.7039 215.76C70.8479 216.048 70.9199 216.384 70.9199 216.768V226.8H66.0719V216.768ZM55.4399 232.896C55.4399 233.184 55.4719 233.368 55.5359 233.448C55.6159 233.512 55.7759 233.544 56.0159 233.544H66.3119V231.672C66.3119 231.4 66.2719 231.232 66.1919 231.168C66.1119 231.088 65.9519 231.048 65.7119 231.048H56.0159C55.7759 231.048 55.6159 231.088 55.5359 231.168C55.4719 231.232 55.4399 231.4 55.4399 231.672V232.896ZM56.4959 223.2C57.1359 223.2 57.6559 223.056 58.0559 222.768C58.4559 222.464 58.6559 221.992 58.6559 221.352V220.008C58.6559 219.384 58.4559 218.92 58.0559 218.616C57.6559 218.312 57.1359 218.16 56.4959 218.16C55.8559 218.16 55.3359 218.312 54.9359 218.616C54.5359 218.92 54.3359 219.384 54.3359 220.008V221.352C54.3359 221.992 54.5359 222.464 54.9359 222.768C55.3359 223.056 55.8559 223.2 56.4959 223.2ZM93.3905 220.008C93.3425 220.376 93.2705 220.744 93.1745 221.112C94.2465 221.048 95.2785 221.112 96.2705 221.304C97.2625 221.496 98.1425 221.848 98.9105 222.36C99.6945 222.856 100.335 223.528 100.831 224.376C101.343 225.208 101.655 226.224 101.767 227.424H97.0385C96.8945 226.816 96.6225 226.304 96.2225 225.888C95.8385 225.456 95.3745 225.12 94.8305 224.88C94.2865 224.64 93.6785 224.496 93.0065 224.448C92.3505 224.384 91.6785 224.416 90.9905 224.544C90.4465 225.04 89.8465 225.472 89.1905 225.84C88.5345 226.208 87.8465 226.512 87.1265 226.752C86.4065 226.992 85.6705 227.168 84.9185 227.28C84.1665 227.392 83.4305 227.448 82.7105 227.448C82.0385 227.448 81.4785 227.288 81.0305 226.968C80.5825 226.648 80.3345 226.208 80.2865 225.648C80.2225 225.12 80.3505 224.656 80.6705 224.256C80.9905 223.84 81.4465 223.616 82.0385 223.584C82.8385 223.552 83.5905 223.464 84.2945 223.32C85.0145 223.176 85.6545 222.96 86.2145 222.672C86.7905 222.384 87.2705 222.024 87.6545 221.592C88.0385 221.144 88.3105 220.616 88.4705 220.008H82.7585C82.0385 220.008 81.5185 219.808 81.1985 219.408C80.8945 219.008 80.7425 218.56 80.7425 218.064C80.7425 217.824 80.7745 217.592 80.8385 217.368C80.9185 217.128 81.0385 216.92 81.1985 216.744C81.3585 216.552 81.5665 216.4 81.8225 216.288C82.0785 216.176 82.3905 216.12 82.7585 216.12H88.4945C88.5425 215.416 88.7905 214.88 89.2385 214.512C89.7025 214.144 90.3105 213.96 91.0625 213.96C91.7985 213.96 92.3905 214.152 92.8385 214.536C93.3025 214.904 93.5585 215.432 93.6065 216.12H99.3665C99.7345 216.12 100.047 216.176 100.303 216.288C100.559 216.4 100.767 216.552 100.927 216.744C101.087 216.92 101.199 217.128 101.263 217.368C101.343 217.592 101.383 217.824 101.383 218.064C101.383 218.56 101.223 219.008 100.903 219.408C100.599 219.808 100.087 220.008 99.3665 220.008H93.3905ZM93.5105 232.104V237.048H88.6145V232.104H81.8465C81.1265 232.104 80.6065 231.904 80.2865 231.504C79.9825 231.104 79.8305 230.656 79.8305 230.16C79.8305 229.92 79.8625 229.688 79.9265 229.464C80.0065 229.224 80.1265 229.008 80.2865 228.816C80.4465 228.624 80.6545 228.472 80.9105 228.36C81.1665 228.248 81.4785 228.192 81.8465 228.192H100.279C100.647 228.192 100.959 228.248 101.215 228.36C101.471 228.472 101.679 228.624 101.839 228.816C101.999 229.008 102.111 229.224 102.175 229.464C102.255 229.688 102.295 229.92 102.295 230.16C102.295 230.656 102.135 231.104 101.815 231.504C101.511 231.904 100.999 232.104 100.279 232.104H93.5105ZM105.943 231.984C106.887 231.872 107.759 231.672 108.559 231.384C109.375 231.096 110.071 230.656 110.647 230.064C111.239 229.472 111.703 228.696 112.039 227.736C112.375 226.76 112.543 225.536 112.543 224.064V220.056C112.543 219.88 112.487 219.736 112.375 219.624C112.279 219.512 112.135 219.456 111.943 219.456H106.471C106.103 219.456 105.791 219.392 105.535 219.264C105.295 219.136 105.087 218.976 104.911 218.784C104.751 218.576 104.631 218.352 104.551 218.112C104.487 217.856 104.455 217.608 104.455 217.368C104.455 217.128 104.487 216.888 104.551 216.648C104.631 216.392 104.751 216.168 104.911 215.976C105.071 215.784 105.279 215.624 105.535 215.496C105.791 215.368 106.103 215.304 106.471 215.304H113.527C114.887 215.304 115.855 215.608 116.431 216.216C117.007 216.824 117.295 217.688 117.295 218.808V224.088C117.295 226.216 117.023 228.016 116.479 229.488C115.935 230.96 115.175 232.168 114.199 233.112C113.239 234.04 112.095 234.728 110.767 235.176C109.455 235.624 108.023 235.888 106.471 235.968C106.183 235.984 105.895 235.952 105.607 235.872C105.335 235.792 105.087 235.664 104.863 235.488C104.655 235.312 104.487 235.096 104.359 234.84C104.231 234.568 104.167 234.256 104.167 233.904C104.167 233.392 104.311 232.968 104.599 232.632C104.887 232.28 105.335 232.064 105.943 231.984ZM120.199 216.72C120.199 215.952 120.439 215.376 120.919 214.992C121.399 214.592 121.951 214.392 122.575 214.392C122.879 214.392 123.175 214.448 123.463 214.56C123.751 214.656 123.999 214.8 124.207 214.992C124.431 215.184 124.607 215.424 124.735 215.712C124.879 216 124.951 216.336 124.951 216.72V222.792H125.743C126.111 222.792 126.415 222.856 126.655 222.984C126.895 223.112 127.087 223.28 127.231 223.488C127.375 223.68 127.479 223.904 127.543 224.16C127.607 224.4 127.639 224.64 127.639 224.88C127.639 225.12 127.607 225.368 127.543 225.624C127.479 225.864 127.375 226.088 127.231 226.296C127.087 226.488 126.887 226.648 126.631 226.776C126.391 226.904 126.095 226.968 125.743 226.968H124.951V236.928H120.199V216.72ZM138.733 235.896C138.029 235.896 137.453 235.832 137.005 235.704C136.557 235.576 136.205 235.368 135.949 235.08C135.693 234.792 135.509 234.424 135.397 233.976C135.301 233.512 135.253 232.952 135.253 232.296V217.56C135.253 216.712 135.477 216.104 135.925 215.736C136.373 215.368 136.949 215.184 137.653 215.184C138.341 215.184 138.893 215.376 139.309 215.76C139.741 216.128 139.957 216.728 139.957 217.56V221.232H144.037V217.56C144.037 216.712 144.253 216.104 144.685 215.736C145.117 215.368 145.677 215.184 146.365 215.184C147.069 215.184 147.629 215.376 148.045 215.76C148.477 216.128 148.693 216.728 148.693 217.56V222.936H151.597V216.72C151.597 215.952 151.837 215.376 152.317 214.992C152.797 214.592 153.349 214.392 153.973 214.392C154.277 214.392 154.573 214.448 154.861 214.56C155.149 214.656 155.405 214.8 155.629 214.992C155.853 215.184 156.029 215.424 156.157 215.712C156.301 216 156.373 216.336 156.373 216.72V236.928H151.597V227.04H148.693V235.896H138.733ZM144.037 231.936V225.144H139.957V231.312C139.957 231.584 139.997 231.76 140.077 231.84C140.173 231.904 140.357 231.936 140.629 231.936H144.037ZM163.189 236.928C162.517 236.928 161.957 236.864 161.509 236.736C161.061 236.624 160.709 236.432 160.453 236.16C160.197 235.888 160.013 235.536 159.901 235.104C159.805 234.656 159.757 234.104 159.757 233.448V232.176C159.757 231.36 160.005 230.792 160.501 230.472C160.997 230.136 161.581 229.968 162.253 229.968C162.925 229.968 163.493 230.136 163.957 230.472C164.437 230.808 164.677 231.376 164.677 232.176V232.824C164.677 233.032 164.709 233.168 164.773 233.232C164.837 233.28 164.981 233.304 165.205 233.304H178.261C178.997 233.304 179.517 233.488 179.821 233.856C180.125 234.208 180.277 234.624 180.277 235.104C180.277 235.6 180.117 236.024 179.797 236.376C179.493 236.744 178.981 236.928 178.261 236.928H163.189ZM179.149 225.72C179.485 225.72 179.773 225.776 180.013 225.888C180.253 225.984 180.445 226.12 180.589 226.296C180.749 226.472 180.861 226.672 180.925 226.896C180.989 227.104 181.021 227.32 181.021 227.544C181.021 228.008 180.877 228.432 180.589 228.816C180.301 229.184 179.821 229.368 179.149 229.368H160.429C159.757 229.368 159.277 229.184 158.989 228.816C158.701 228.432 158.557 228.008 158.557 227.544C158.557 227.32 158.589 227.104 158.653 226.896C158.717 226.672 158.821 226.472 158.965 226.296C159.125 226.12 159.325 225.984 159.565 225.888C159.805 225.776 160.093 225.72 160.429 225.72H179.149ZM178.597 214.656C179.093 214.656 179.445 214.816 179.653 215.136C179.877 215.44 179.989 215.752 179.989 216.072C179.989 216.424 179.877 216.752 179.653 217.056C179.429 217.36 179.077 217.512 178.597 217.512H164.821C164.501 217.512 164.341 217.648 164.341 217.92V218.424H178.477C178.989 218.424 179.341 218.56 179.533 218.832C179.741 219.104 179.845 219.4 179.845 219.72C179.845 220.056 179.741 220.36 179.533 220.632C179.341 220.904 178.989 221.04 178.477 221.04H164.341V221.52C164.341 221.696 164.373 221.816 164.437 221.88C164.517 221.928 164.645 221.952 164.821 221.952H178.909C179.389 221.952 179.733 222.104 179.941 222.408C180.149 222.712 180.253 223.016 180.253 223.32C180.253 223.688 180.141 224.024 179.917 224.328C179.709 224.616 179.373 224.76 178.909 224.76H162.373C161.333 224.76 160.605 224.544 160.189 224.112C159.773 223.68 159.565 222.984 159.565 222.024V217.416C159.565 216.44 159.773 215.736 160.189 215.304C160.605 214.872 161.333 214.656 162.373 214.656H178.597ZM204.253 218.496C204.253 219.04 204.165 219.552 203.989 220.032C203.813 220.496 203.541 220.904 203.173 221.256C202.821 221.592 202.373 221.864 201.829 222.072C201.285 222.264 200.637 222.36 199.885 222.36H187.693C186.941 222.36 186.293 222.264 185.749 222.072C185.205 221.864 184.749 221.592 184.381 221.256C184.029 220.904 183.765 220.496 183.589 220.032C183.413 219.552 183.325 219.04 183.325 218.496C183.325 217.952 183.413 217.448 183.589 216.984C183.765 216.52 184.029 216.112 184.381 215.76C184.749 215.408 185.205 215.136 185.749 214.944C186.293 214.736 186.941 214.632 187.693 214.632H199.885C200.637 214.632 201.285 214.736 201.829 214.944C202.373 215.136 202.821 215.408 203.173 215.76C203.541 216.112 203.813 216.52 203.989 216.984C204.165 217.448 204.253 217.952 204.253 218.496ZM199.333 218.496C199.333 218.272 199.261 218.096 199.117 217.968C198.989 217.824 198.741 217.752 198.373 217.752H189.205C188.837 217.752 188.581 217.824 188.437 217.968C188.309 218.096 188.245 218.272 188.245 218.496C188.245 218.72 188.309 218.904 188.437 219.048C188.581 219.176 188.837 219.24 189.205 219.24H198.373C198.741 219.24 198.989 219.176 199.117 219.048C199.261 218.904 199.333 218.72 199.333 218.496ZM186.253 236.928C185.741 236.928 185.293 236.84 184.909 236.664C184.525 236.504 184.205 236.28 183.949 235.992C183.709 235.72 183.525 235.4 183.397 235.032C183.285 234.664 183.229 234.272 183.229 233.856V233.784C183.229 232.936 183.469 232.248 183.949 231.72C184.429 231.192 185.197 230.928 186.253 230.928H199.093V230.472C199.093 230.216 198.925 230.088 198.589 230.088H184.837C184.389 230.088 184.045 229.952 183.805 229.68C183.581 229.392 183.469 229.088 183.469 228.768C183.469 228.448 183.573 228.144 183.781 227.856C184.005 227.568 184.357 227.424 184.837 227.424H201.349C202.373 227.424 203.077 227.616 203.461 228C203.845 228.368 204.037 228.92 204.037 229.656V233.4H188.845C188.669 233.4 188.549 233.44 188.485 233.52C188.421 233.584 188.389 233.68 188.389 233.808C188.389 233.936 188.421 234.04 188.485 234.12C188.549 234.2 188.669 234.24 188.845 234.24H203.413C203.877 234.24 204.205 234.384 204.397 234.672C204.605 234.944 204.709 235.248 204.709 235.584C204.709 235.872 204.613 236.168 204.421 236.472C204.229 236.776 203.893 236.928 203.413 236.928H186.253ZM203.293 223.224C203.933 223.224 204.381 223.392 204.637 223.728C204.893 224.064 205.021 224.44 205.021 224.856C205.021 225.288 204.885 225.672 204.613 226.008C204.357 226.328 203.917 226.488 203.293 226.488H184.285C183.661 226.488 183.213 226.328 182.941 226.008C182.685 225.672 182.557 225.288 182.557 224.856C182.557 224.44 182.685 224.064 182.941 223.728C183.197 223.392 183.645 223.224 184.285 223.224H203.293ZM216.98 236.928C216.468 236.928 216.02 236.84 215.636 236.664C215.252 236.504 214.932 236.28 214.676 235.992C214.436 235.704 214.252 235.376 214.124 235.008C214.012 234.624 213.956 234.224 213.956 233.808V233.736C213.956 232.888 214.196 232.192 214.676 231.648C215.156 231.104 215.924 230.832 216.98 230.832H229.82V230.328C229.82 230.072 229.652 229.944 229.316 229.944H215.564C215.116 229.944 214.772 229.8 214.532 229.512C214.308 229.224 214.196 228.92 214.196 228.6C214.196 228.28 214.3 227.976 214.508 227.688C214.732 227.384 215.084 227.232 215.564 227.232H222.092V226.152H215.012C214.388 226.152 213.94 225.976 213.668 225.624C213.412 225.272 213.284 224.88 213.284 224.448C213.284 224.24 213.316 224.04 213.38 223.848C213.444 223.64 213.54 223.456 213.668 223.296C213.812 223.136 213.988 223.008 214.196 222.912C214.42 222.8 214.692 222.744 215.012 222.744H234.02C234.34 222.744 234.604 222.8 234.812 222.912C235.036 223.008 235.212 223.136 235.34 223.296C235.484 223.456 235.588 223.64 235.652 223.848C235.716 224.04 235.748 224.24 235.748 224.448C235.748 224.88 235.612 225.272 235.34 225.624C235.084 225.976 234.644 226.152 234.02 226.152H226.94V227.232H232.076C233.1 227.232 233.804 227.424 234.188 227.808C234.572 228.176 234.764 228.728 234.764 229.464V233.304H219.572C219.396 233.304 219.276 233.352 219.212 233.448C219.148 233.528 219.116 233.632 219.116 233.76C219.116 233.888 219.148 233.992 219.212 234.072C219.276 234.152 219.396 234.192 219.572 234.192H234.14C234.604 234.192 234.932 234.336 235.124 234.624C235.332 234.912 235.436 235.224 235.436 235.56C235.436 235.848 235.34 236.144 235.148 236.448C234.956 236.768 234.62 236.928 234.14 236.928H216.98ZM217.628 221.712C217.02 221.712 216.5 221.664 216.068 221.568C215.636 221.456 215.284 221.28 215.012 221.04C214.756 220.8 214.564 220.48 214.436 220.08C214.324 219.664 214.268 219.152 214.268 218.544V216.936C214.268 216.536 214.332 216.192 214.46 215.904C214.604 215.6 214.788 215.352 215.012 215.16C215.252 214.968 215.524 214.824 215.828 214.728C216.132 214.632 216.444 214.584 216.764 214.584C217.42 214.584 217.98 214.776 218.444 215.16C218.924 215.544 219.164 216.136 219.164 216.936V217.728C219.164 217.984 219.204 218.144 219.284 218.208C219.364 218.272 219.54 218.304 219.812 218.304H232.916C233.636 218.304 234.14 218.48 234.428 218.832C234.716 219.168 234.86 219.568 234.86 220.032C234.86 220.512 234.716 220.912 234.428 221.232C234.14 221.552 233.636 221.712 232.916 221.712H217.628ZM242.732 230.976C242.732 231.392 242.812 231.672 242.972 231.816C243.132 231.944 243.42 232.008 243.836 232.008H250.94C251.308 232.008 251.62 232.064 251.876 232.176C252.132 232.288 252.34 232.44 252.5 232.632C252.676 232.808 252.796 233.016 252.86 233.256C252.94 233.48 252.98 233.712 252.98 233.952C252.98 234.448 252.82 234.896 252.5 235.296C252.18 235.712 251.66 235.92 250.94 235.92H242.084C241.332 235.92 240.692 235.848 240.164 235.704C239.636 235.56 239.204 235.328 238.868 235.008C238.548 234.688 238.308 234.272 238.148 233.76C238.004 233.232 237.932 232.592 237.932 231.84V227.472C237.932 226.72 238.004 226.088 238.148 225.576C238.308 225.064 238.548 224.648 238.868 224.328C239.204 224.008 239.636 223.784 240.164 223.656C240.692 223.512 241.332 223.44 242.084 223.44H244.892V219.96C244.892 219.8 244.852 219.648 244.772 219.504C244.692 219.36 244.516 219.288 244.244 219.288H240.212C239.844 219.288 239.532 219.232 239.276 219.12C239.02 219.008 238.812 218.856 238.652 218.664C238.492 218.472 238.372 218.256 238.292 218.016C238.212 217.776 238.172 217.536 238.172 217.296C238.172 217.056 238.204 216.816 238.268 216.576C238.348 216.336 238.468 216.12 238.628 215.928C238.804 215.736 239.02 215.584 239.276 215.472C239.532 215.344 239.844 215.28 240.212 215.28H245.468C246.3 215.28 246.98 215.344 247.508 215.472C248.052 215.6 248.484 215.808 248.804 216.096C249.124 216.384 249.348 216.76 249.476 217.224C249.604 217.688 249.668 218.264 249.668 218.952V227.352H243.836C243.42 227.352 243.132 227.424 242.972 227.568C242.812 227.696 242.732 227.968 242.732 228.384V230.976ZM254.324 227.184H252.332C251.612 227.184 251.108 226.984 250.82 226.584C250.548 226.168 250.412 225.68 250.412 225.12C250.412 224.848 250.444 224.592 250.508 224.352C250.572 224.096 250.676 223.872 250.82 223.68C250.964 223.488 251.156 223.336 251.396 223.224C251.652 223.112 251.964 223.056 252.332 223.056H254.324V216.72C254.324 215.952 254.564 215.376 255.044 214.992C255.524 214.592 256.076 214.392 256.7 214.392C257.004 214.392 257.3 214.448 257.588 214.56C257.876 214.656 258.132 214.8 258.356 214.992C258.58 215.184 258.756 215.424 258.884 215.712C259.028 216 259.1 216.336 259.1 216.72V236.928H254.324V227.184ZM262.796 237.024C263.068 236.88 263.276 236.672 263.42 236.4C263.58 236.144 263.66 235.84 263.66 235.488V235.464C262.988 235.4 262.452 235.168 262.052 234.768C261.652 234.368 261.452 233.824 261.452 233.136C261.452 232.4 261.684 231.824 262.148 231.408C262.612 230.976 263.228 230.76 263.996 230.76C264.764 230.76 265.38 231 265.844 231.48C266.308 231.944 266.54 232.536 266.54 233.256V233.472C266.54 234.88 266.276 236.008 265.748 236.856C265.22 237.72 264.532 238.312 263.684 238.632C263.476 238.712 263.268 238.768 263.06 238.8C262.852 238.848 262.652 238.856 262.46 238.824C262.252 238.792 262.052 238.712 261.86 238.584C261.668 238.456 261.588 238.232 261.62 237.912C261.652 237.528 261.876 237.288 262.292 237.192C262.372 237.16 262.452 237.136 262.532 237.12C262.612 237.104 262.7 237.072 262.796 237.024ZM279.171 224.688V222.552C279.171 221.688 279.395 221.064 279.843 220.68C280.307 220.296 280.907 220.104 281.643 220.104C282.363 220.104 282.947 220.304 283.395 220.704C283.843 221.088 284.067 221.704 284.067 222.552V224.688H288.339V222.552C288.339 221.688 288.563 221.064 289.011 220.68C289.475 220.296 290.075 220.104 290.811 220.104C291.531 220.104 292.115 220.304 292.563 220.704C293.011 221.088 293.235 221.704 293.235 222.552V224.688H294.867C295.603 224.688 296.123 224.888 296.427 225.288C296.731 225.688 296.883 226.128 296.883 226.608C296.883 227.104 296.723 227.552 296.403 227.952C296.099 228.336 295.587 228.528 294.867 228.528H277.539C276.819 228.528 276.299 228.336 275.979 227.952C275.675 227.552 275.523 227.104 275.523 226.608C275.523 226.128 275.675 225.688 275.979 225.288C276.283 224.888 276.803 224.688 277.539 224.688H279.171ZM295.371 232.392C295.739 232.392 296.051 232.456 296.307 232.584C296.579 232.696 296.795 232.848 296.955 233.04C297.131 233.232 297.251 233.456 297.315 233.712C297.395 233.952 297.435 234.192 297.435 234.432C297.435 234.688 297.395 234.936 297.315 235.176C297.235 235.416 297.107 235.632 296.931 235.824C296.771 236.016 296.563 236.168 296.307 236.28C296.051 236.392 295.739 236.448 295.371 236.448H277.035C276.667 236.448 276.355 236.392 276.099 236.28C275.843 236.168 275.627 236.016 275.451 235.824C275.291 235.632 275.171 235.416 275.091 235.176C275.011 234.936 274.971 234.688 274.971 234.432C274.971 234.192 275.003 233.952 275.067 233.712C275.147 233.456 275.267 233.232 275.427 233.04C275.603 232.848 275.819 232.696 276.075 232.584C276.347 232.456 276.667 232.392 277.035 232.392H295.371ZM294.579 215.184C294.947 215.184 295.259 215.248 295.515 215.376C295.771 215.488 295.979 215.64 296.139 215.832C296.299 216.024 296.411 216.24 296.475 216.48C296.555 216.72 296.595 216.96 296.595 217.2C296.595 217.44 296.555 217.68 296.475 217.92C296.411 218.16 296.291 218.376 296.115 218.568C295.955 218.76 295.747 218.92 295.491 219.048C295.235 219.16 294.931 219.216 294.579 219.216H277.827C277.459 219.216 277.147 219.16 276.891 219.048C276.651 218.92 276.443 218.76 276.267 218.568C276.107 218.376 275.987 218.16 275.907 217.92C275.843 217.68 275.811 217.44 275.811 217.2C275.811 216.96 275.843 216.72 275.907 216.48C275.987 216.24 276.107 216.024 276.267 215.832C276.427 215.64 276.635 215.488 276.891 215.376C277.147 215.248 277.459 215.184 277.827 215.184H294.579ZM304.035 231.024C304.035 231.44 304.099 231.704 304.227 231.816C304.371 231.928 304.651 231.984 305.067 231.984H308.667C309.019 231.984 309.315 232.04 309.555 232.152C309.811 232.264 310.011 232.416 310.155 232.608C310.315 232.784 310.427 232.992 310.491 233.232C310.571 233.456 310.611 233.688 310.611 233.928C310.611 234.424 310.459 234.88 310.155 235.296C309.851 235.712 309.355 235.92 308.667 235.92H303.147C302.411 235.92 301.803 235.864 301.323 235.752C300.859 235.656 300.491 235.472 300.219 235.2C299.947 234.944 299.755 234.592 299.643 234.144C299.547 233.68 299.499 233.088 299.499 232.368V226.896C299.499 226.176 299.547 225.592 299.643 225.144C299.755 224.696 299.947 224.344 300.219 224.088C300.491 223.816 300.859 223.632 301.323 223.536C301.803 223.44 302.411 223.392 303.147 223.392H304.419V219.816C304.419 219.576 304.371 219.416 304.275 219.336C304.179 219.24 304.011 219.192 303.771 219.192H301.563C300.843 219.192 300.323 218.992 300.003 218.592C299.683 218.176 299.523 217.72 299.523 217.224C299.523 216.984 299.555 216.744 299.619 216.504C299.699 216.264 299.819 216.056 299.979 215.88C300.155 215.688 300.371 215.536 300.627 215.424C300.883 215.296 301.195 215.232 301.563 215.232H305.139C305.955 215.232 306.603 215.28 307.083 215.376C307.579 215.472 307.955 215.64 308.211 215.88C308.483 216.12 308.659 216.448 308.739 216.864C308.819 217.264 308.859 217.776 308.859 218.4V227.304H305.067C304.651 227.304 304.371 227.36 304.227 227.472C304.099 227.584 304.035 227.848 304.035 228.264V231.024ZM311.715 226.656H311.067C310.699 226.656 310.395 226.6 310.155 226.488C309.931 226.376 309.747 226.224 309.603 226.032C309.475 225.84 309.379 225.616 309.315 225.36C309.267 225.104 309.243 224.832 309.243 224.544C309.243 224.272 309.267 224.008 309.315 223.752C309.379 223.496 309.475 223.272 309.603 223.08C309.747 222.888 309.931 222.736 310.155 222.624C310.395 222.496 310.699 222.432 311.067 222.432H311.715V216.432C311.715 215.76 311.915 215.256 312.315 214.92C312.715 214.568 313.195 214.392 313.755 214.392C314.299 214.392 314.779 214.568 315.195 214.92C315.627 215.256 315.843 215.76 315.843 216.432V236.928H311.715V226.656ZM316.947 216.432C316.947 215.76 317.155 215.256 317.571 214.92C318.003 214.568 318.499 214.392 319.059 214.392C319.603 214.392 320.091 214.568 320.523 214.92C320.955 215.256 321.171 215.76 321.171 216.432V236.928H316.947V216.432ZM328.011 236.928C327.291 236.928 326.707 236.864 326.259 236.736C325.811 236.624 325.459 236.424 325.203 236.136C324.963 235.864 324.795 235.496 324.699 235.032C324.619 234.568 324.579 233.984 324.579 233.28V231.336C324.579 230.648 324.619 230.072 324.699 229.608C324.795 229.128 324.963 228.752 325.203 228.48C325.459 228.192 325.811 227.992 326.259 227.88C326.707 227.752 327.291 227.688 328.011 227.688H341.475C342.195 227.688 342.779 227.752 343.227 227.88C343.675 227.992 344.019 228.192 344.259 228.48C344.515 228.752 344.683 229.128 344.763 229.608C344.859 230.072 344.907 230.648 344.907 231.336V236.928H328.011ZM330.363 226.632C329.339 226.632 328.403 226.528 327.555 226.32C326.723 226.112 326.003 225.792 325.395 225.36C324.803 224.912 324.339 224.344 324.003 223.656C323.667 222.952 323.499 222.112 323.499 221.136V220.224C323.499 219.248 323.667 218.416 324.003 217.728C324.339 217.024 324.803 216.456 325.395 216.024C326.003 215.576 326.723 215.248 327.555 215.04C328.403 214.832 329.339 214.728 330.363 214.728C331.387 214.728 332.315 214.832 333.147 215.04C333.995 215.248 334.715 215.576 335.307 216.024C335.915 216.456 336.387 217.024 336.723 217.728C337.059 218.416 337.227 219.248 337.227 220.224V221.136C337.227 222.112 337.059 222.952 336.723 223.656C336.387 224.344 335.915 224.912 335.307 225.36C334.715 225.792 333.995 226.112 333.147 226.32C332.315 226.528 331.387 226.632 330.363 226.632ZM339.939 216.768C339.939 215.984 340.179 215.392 340.659 214.992C341.155 214.592 341.723 214.392 342.363 214.392C342.667 214.392 342.963 214.448 343.251 214.56C343.555 214.656 343.819 214.808 344.043 215.016C344.267 215.208 344.443 215.456 344.571 215.76C344.715 216.048 344.787 216.384 344.787 216.768V226.8H339.939V216.768ZM329.307 232.896C329.307 233.184 329.339 233.368 329.403 233.448C329.483 233.512 329.643 233.544 329.883 233.544H340.179V231.672C340.179 231.4 340.139 231.232 340.059 231.168C339.979 231.088 339.819 231.048 339.579 231.048H329.883C329.643 231.048 329.483 231.088 329.403 231.168C329.339 231.232 329.307 231.4 329.307 231.672V232.896ZM330.363 223.2C331.003 223.2 331.523 223.056 331.923 222.768C332.323 222.464 332.523 221.992 332.523 221.352V220.008C332.523 219.384 332.323 218.92 331.923 218.616C331.523 218.312 331.003 218.16 330.363 218.16C329.723 218.16 329.203 218.312 328.803 218.616C328.403 218.92 328.203 219.384 328.203 220.008V221.352C328.203 221.992 328.403 222.464 328.803 222.768C329.203 223.056 329.723 223.2 330.363 223.2ZM368.667 218.496C368.667 219.04 368.579 219.552 368.403 220.032C368.227 220.496 367.955 220.904 367.587 221.256C367.235 221.592 366.787 221.864 366.243 222.072C365.699 222.264 365.051 222.36 364.299 222.36H352.107C351.355 222.36 350.707 222.264 350.163 222.072C349.619 221.864 349.163 221.592 348.795 221.256C348.443 220.904 348.179 220.496 348.003 220.032C347.827 219.552 347.739 219.04 347.739 218.496C347.739 217.952 347.827 217.448 348.003 216.984C348.179 216.52 348.443 216.112 348.795 215.76C349.163 215.408 349.619 215.136 350.163 214.944C350.707 214.736 351.355 214.632 352.107 214.632H364.299C365.051 214.632 365.699 214.736 366.243 214.944C366.787 215.136 367.235 215.408 367.587 215.76C367.955 216.112 368.227 216.52 368.403 216.984C368.579 217.448 368.667 217.952 368.667 218.496ZM363.747 218.496C363.747 218.272 363.675 218.096 363.531 217.968C363.403 217.824 363.155 217.752 362.787 217.752H353.619C353.251 217.752 352.995 217.824 352.851 217.968C352.723 218.096 352.659 218.272 352.659 218.496C352.659 218.72 352.723 218.904 352.851 219.048C352.995 219.176 353.251 219.24 353.619 219.24H362.787C363.155 219.24 363.403 219.176 363.531 219.048C363.675 218.904 363.747 218.72 363.747 218.496ZM350.667 236.928C350.155 236.928 349.707 236.84 349.323 236.664C348.939 236.504 348.619 236.28 348.363 235.992C348.123 235.72 347.939 235.4 347.811 235.032C347.699 234.664 347.643 234.272 347.643 233.856V233.784C347.643 232.936 347.883 232.248 348.363 231.72C348.843 231.192 349.611 230.928 350.667 230.928H363.507V230.472C363.507 230.216 363.339 230.088 363.003 230.088H349.251C348.803 230.088 348.459 229.952 348.219 229.68C347.995 229.392 347.883 229.088 347.883 228.768C347.883 228.448 347.987 228.144 348.195 227.856C348.419 227.568 348.771 227.424 349.251 227.424H365.763C366.787 227.424 367.491 227.616 367.875 228C368.259 228.368 368.451 228.92 368.451 229.656V233.4H353.259C353.083 233.4 352.963 233.44 352.899 233.52C352.835 233.584 352.803 233.68 352.803 233.808C352.803 233.936 352.835 234.04 352.899 234.12C352.963 234.2 353.083 234.24 353.259 234.24H367.827C368.291 234.24 368.619 234.384 368.811 234.672C369.019 234.944 369.123 235.248 369.123 235.584C369.123 235.872 369.027 236.168 368.835 236.472C368.643 236.776 368.307 236.928 367.827 236.928H350.667ZM367.707 223.224C368.347 223.224 368.795 223.392 369.051 223.728C369.307 224.064 369.435 224.44 369.435 224.856C369.435 225.288 369.299 225.672 369.027 226.008C368.771 226.328 368.331 226.488 367.707 226.488H348.699C348.075 226.488 347.627 226.328 347.355 226.008C347.099 225.672 346.971 225.288 346.971 224.856C346.971 224.44 347.099 224.064 347.355 223.728C347.611 223.392 348.059 223.224 348.699 223.224H367.707ZM381.826 227.136C381.106 227.136 380.522 227.08 380.074 226.968C379.626 226.84 379.274 226.64 379.018 226.368C378.778 226.08 378.61 225.704 378.514 225.24C378.434 224.776 378.394 224.192 378.394 223.488V218.808C378.394 218.12 378.434 217.544 378.514 217.08C378.61 216.6 378.778 216.224 379.018 215.952C379.274 215.664 379.626 215.464 380.074 215.352C380.522 215.224 381.106 215.16 381.826 215.16H388.306C389.026 215.16 389.61 215.224 390.058 215.352C390.506 215.464 390.85 215.664 391.09 215.952C391.346 216.224 391.514 216.6 391.594 217.08C391.69 217.544 391.738 218.12 391.738 218.808V227.136H381.826ZM382.978 236.928C382.306 236.928 381.746 236.864 381.298 236.736C380.866 236.608 380.522 236.408 380.266 236.136C380.01 235.864 379.826 235.504 379.714 235.056C379.618 234.608 379.57 234.064 379.57 233.424V230.856C379.57 230.04 379.81 229.44 380.29 229.056C380.786 228.672 381.37 228.48 382.042 228.48C382.714 228.48 383.282 228.672 383.746 229.056C384.21 229.44 384.442 230.04 384.442 230.856V232.608C384.442 232.88 384.482 233.048 384.562 233.112C384.642 233.176 384.818 233.208 385.09 233.208H397.666C398.402 233.208 398.922 233.4 399.226 233.784C399.53 234.152 399.682 234.576 399.682 235.056C399.682 235.552 399.522 235.984 399.202 236.352C398.898 236.736 398.386 236.928 397.666 236.928H382.978ZM394.162 216.768C394.162 215.984 394.394 215.392 394.858 214.992C395.322 214.592 395.874 214.392 396.514 214.392C397.138 214.392 397.682 214.6 398.146 215.016C398.626 215.416 398.866 216 398.866 216.768V220.392H399.61C399.978 220.392 400.282 220.456 400.522 220.584C400.762 220.712 400.954 220.88 401.098 221.088C401.242 221.28 401.346 221.504 401.41 221.76C401.474 222 401.506 222.24 401.506 222.48C401.506 222.72 401.474 222.968 401.41 223.224C401.346 223.464 401.242 223.688 401.098 223.896C400.954 224.088 400.754 224.248 400.498 224.376C400.258 224.504 399.962 224.568 399.61 224.568H398.866V231.36H394.162V216.768ZM382.954 222.984C382.954 223.24 382.986 223.408 383.05 223.488C383.13 223.568 383.29 223.608 383.53 223.608H387.178V219.288C387.178 219.064 387.138 218.912 387.058 218.832C386.978 218.736 386.818 218.688 386.578 218.688H383.53C383.29 218.688 383.13 218.736 383.05 218.832C382.986 218.912 382.954 219.064 382.954 219.288V222.984ZM407.986 217.944C407.778 217.944 407.642 217.976 407.578 218.04C407.53 218.088 407.506 218.2 407.506 218.376V218.688C407.506 218.896 407.53 219.024 407.578 219.072C407.642 219.12 407.778 219.144 407.986 219.144H421.546C422.154 219.144 422.586 219.312 422.842 219.648C423.098 219.968 423.226 220.336 423.226 220.752C423.226 221.168 423.098 221.528 422.842 221.832C422.586 222.12 422.154 222.264 421.546 222.264H405.85C405.21 222.264 404.682 222.224 404.266 222.144C403.866 222.048 403.546 221.888 403.306 221.664C403.066 221.424 402.898 221.112 402.802 220.728C402.722 220.328 402.682 219.824 402.682 219.216V217.824C402.682 217.216 402.722 216.712 402.802 216.312C402.898 215.912 403.066 215.6 403.306 215.376C403.546 215.136 403.866 214.968 404.266 214.872C404.682 214.776 405.21 214.728 405.85 214.728H421.474C422.098 214.728 422.53 214.896 422.77 215.232C423.026 215.552 423.154 215.92 423.154 216.336C423.154 216.768 423.026 217.144 422.77 217.464C422.514 217.784 422.082 217.944 421.474 217.944H407.986ZM405.394 236.928C404.882 236.928 404.434 236.84 404.05 236.664C403.666 236.504 403.346 236.28 403.09 235.992C402.85 235.72 402.666 235.4 402.538 235.032C402.426 234.664 402.37 234.272 402.37 233.856V233.784C402.37 232.936 402.61 232.248 403.09 231.72C403.57 231.192 404.338 230.928 405.394 230.928H418.234V230.472C418.234 230.216 418.066 230.088 417.73 230.088H403.978C403.53 230.088 403.186 229.952 402.946 229.68C402.722 229.392 402.61 229.088 402.61 228.768C402.61 228.448 402.714 228.144 402.922 227.856C403.146 227.568 403.498 227.424 403.978 227.424H420.49C421.514 227.424 422.218 227.616 422.602 228C422.986 228.368 423.178 228.92 423.178 229.656V233.4H407.986C407.81 233.4 407.69 233.44 407.626 233.52C407.562 233.584 407.53 233.68 407.53 233.808C407.53 233.936 407.562 234.04 407.626 234.12C407.69 234.2 407.81 234.24 407.986 234.24H422.554C423.018 234.24 423.346 234.384 423.538 234.672C423.746 234.944 423.85 235.248 423.85 235.584C423.85 235.872 423.754 236.168 423.562 236.472C423.37 236.776 423.034 236.928 422.554 236.928H405.394ZM422.434 223.2C423.074 223.2 423.522 223.368 423.778 223.704C424.034 224.04 424.162 224.416 424.162 224.832C424.162 225.264 424.026 225.648 423.754 225.984C423.498 226.304 423.058 226.464 422.434 226.464H403.426C402.802 226.464 402.354 226.304 402.082 225.984C401.826 225.648 401.698 225.264 401.698 224.832C401.698 224.416 401.826 224.04 402.082 223.704C402.338 223.368 402.786 223.2 403.426 223.2H422.434ZM442.738 227.16H439.594V230.016C439.594 231.072 439.434 232.008 439.114 232.824C438.794 233.624 438.346 234.296 437.77 234.84C437.194 235.384 436.498 235.792 435.682 236.064C434.866 236.336 433.962 236.472 432.97 236.472C431.978 236.472 431.074 236.336 430.258 236.064C429.442 235.792 428.738 235.384 428.146 234.84C427.57 234.296 427.122 233.624 426.802 232.824C426.482 232.008 426.322 231.072 426.322 230.016V221.232C426.322 220.176 426.482 219.248 426.802 218.448C427.122 217.632 427.57 216.952 428.146 216.408C428.738 215.864 429.442 215.456 430.258 215.184C431.074 214.912 431.978 214.776 432.97 214.776C433.962 214.776 434.866 214.912 435.682 215.184C436.498 215.456 437.194 215.864 437.77 216.408C438.346 216.952 438.794 217.632 439.114 218.448C439.434 219.248 439.594 220.176 439.594 221.232V223.056H442.738V216.72C442.738 215.952 442.978 215.376 443.458 214.992C443.938 214.592 444.49 214.392 445.114 214.392C445.418 214.392 445.714 214.448 446.002 214.56C446.29 214.656 446.546 214.8 446.77 214.992C446.994 215.184 447.17 215.424 447.298 215.712C447.442 216 447.514 216.336 447.514 216.72V236.928H442.738V227.16ZM431.026 230.136C431.026 230.952 431.202 231.56 431.554 231.96C431.922 232.344 432.394 232.536 432.97 232.536C433.546 232.536 434.01 232.344 434.362 231.96C434.73 231.56 434.914 230.952 434.914 230.136V221.112C434.914 220.296 434.73 219.696 434.362 219.312C434.01 218.912 433.546 218.712 432.97 218.712C432.394 218.712 431.922 218.912 431.554 219.312C431.202 219.696 431.026 220.296 431.026 221.112V230.136ZM470.056 218.856C470.008 219.288 469.936 219.68 469.84 220.032H470.08C471.072 220.016 472.048 220.144 473.008 220.416C473.968 220.688 474.832 221.12 475.6 221.712C476.368 222.288 477 223.024 477.496 223.92C477.992 224.816 478.28 225.888 478.36 227.136H473.632C473.52 226.528 473.304 225.992 472.984 225.528C472.68 225.064 472.288 224.688 471.808 224.4C471.344 224.096 470.808 223.872 470.2 223.728C469.592 223.584 468.952 223.52 468.28 223.536C468.2 223.536 468.12 223.544 468.04 223.56C467.96 223.56 467.872 223.568 467.776 223.584C467.248 224.128 466.648 224.616 465.976 225.048C465.32 225.464 464.632 225.824 463.912 226.128C463.192 226.416 462.448 226.648 461.68 226.824C460.928 226.984 460.184 227.088 459.448 227.136C458.776 227.184 458.2 227.048 457.72 226.728C457.256 226.392 456.984 225.944 456.904 225.384C456.824 224.856 456.928 224.384 457.216 223.968C457.504 223.536 457.944 223.28 458.536 223.2C459.368 223.104 460.152 222.944 460.888 222.72C461.624 222.496 462.28 222.208 462.856 221.856C463.448 221.504 463.936 221.08 464.32 220.584C464.704 220.088 464.96 219.512 465.088 218.856H459.352C458.632 218.856 458.112 218.656 457.792 218.256C457.488 217.84 457.336 217.384 457.336 216.888C457.336 216.648 457.368 216.416 457.432 216.192C457.512 215.952 457.632 215.736 457.792 215.544C457.952 215.352 458.16 215.2 458.416 215.088C458.672 214.976 458.984 214.92 459.352 214.92H475.96C476.328 214.92 476.64 214.976 476.896 215.088C477.152 215.2 477.36 215.352 477.52 215.544C477.68 215.736 477.792 215.952 477.856 216.192C477.936 216.416 477.976 216.648 477.976 216.888C477.976 217.384 477.816 217.84 477.496 218.256C477.192 218.656 476.68 218.856 475.96 218.856H470.056ZM470.104 231.912V237.048H465.208V231.912H458.44C457.72 231.912 457.2 231.712 456.88 231.312C456.576 230.912 456.424 230.464 456.424 229.968C456.424 229.728 456.456 229.496 456.52 229.272C456.6 229.032 456.72 228.816 456.88 228.624C457.04 228.432 457.248 228.28 457.504 228.168C457.76 228.056 458.072 228 458.44 228H476.872C477.24 228 477.552 228.056 477.808 228.168C478.064 228.28 478.272 228.432 478.432 228.624C478.592 228.816 478.704 229.032 478.768 229.272C478.848 229.496 478.888 229.728 478.888 229.968C478.888 230.464 478.728 230.912 478.408 231.312C478.104 231.712 477.592 231.912 476.872 231.912H470.104ZM480.568 232.08C481.192 231.52 481.704 230.896 482.104 230.208C482.52 229.504 482.848 228.68 483.088 227.736C483.328 226.776 483.496 225.656 483.592 224.376C483.688 223.08 483.736 221.552 483.736 219.792V217.368C483.736 216.6 483.952 216.032 484.384 215.664C484.816 215.296 485.344 215.112 485.968 215.112C486.576 215.112 487.104 215.304 487.552 215.688C488 216.072 488.224 216.632 488.224 217.368V219.768C488.224 221.688 488.128 223.44 487.936 225.024C488.672 225.376 489.32 225.832 489.88 226.392C490.456 226.936 490.928 227.632 491.296 228.48C491.664 229.312 491.92 230.312 492.064 231.48C492.208 232.632 492.232 233.992 492.136 235.56H487.768C487.96 234.136 487.984 232.944 487.84 231.984C487.712 231.024 487.432 230.248 487 229.656C486.584 231.064 486.072 232.232 485.464 233.16C484.856 234.088 484.184 234.808 483.448 235.32C483.224 235.48 482.96 235.608 482.656 235.704C482.368 235.8 482.072 235.848 481.768 235.848C481.464 235.864 481.168 235.816 480.88 235.704C480.592 235.608 480.344 235.432 480.136 235.176C479.944 234.952 479.816 234.704 479.752 234.432C479.688 234.16 479.672 233.888 479.704 233.616C479.752 233.328 479.848 233.056 479.992 232.8C480.136 232.528 480.328 232.288 480.568 232.08ZM493.096 225.24H491.128C490.76 225.24 490.448 225.184 490.192 225.072C489.952 224.944 489.744 224.784 489.568 224.592C489.408 224.384 489.288 224.16 489.208 223.92C489.144 223.664 489.112 223.416 489.112 223.176C489.112 222.936 489.144 222.696 489.208 222.456C489.288 222.2 489.408 221.976 489.568 221.784C489.728 221.592 489.936 221.432 490.192 221.304C490.448 221.176 490.76 221.112 491.128 221.112H493.096V216.432C493.096 215.76 493.296 215.256 493.696 214.92C494.096 214.568 494.576 214.392 495.136 214.392C495.68 214.392 496.16 214.568 496.576 214.92C497.008 215.256 497.224 215.76 497.224 216.432V236.928H493.096V225.24ZM498.352 216.432C498.352 215.76 498.568 215.256 499 214.92C499.432 214.568 499.928 214.392 500.488 214.392C500.76 214.392 501.024 214.44 501.28 214.536C501.536 214.616 501.76 214.744 501.952 214.92C502.16 215.096 502.32 215.312 502.432 215.568C502.56 215.808 502.624 216.096 502.624 216.432V236.928H498.352V216.432ZM505.096 221.16C505.096 220.344 505.232 219.56 505.504 218.808C505.776 218.056 506.176 217.4 506.704 216.84C507.232 216.28 507.88 215.832 508.648 215.496C509.432 215.16 510.328 214.992 511.336 214.992H519.976C520.984 214.992 521.872 215.16 522.64 215.496C523.424 215.832 524.08 216.28 524.608 216.84C525.136 217.4 525.536 218.056 525.808 218.808C526.08 219.56 526.216 220.344 526.216 221.16V221.448C526.216 222.264 526.08 223.048 525.808 223.8C525.536 224.536 525.136 225.192 524.608 225.768C524.08 226.328 523.424 226.776 522.64 227.112C521.872 227.432 520.984 227.592 519.976 227.592H511.336C510.328 227.592 509.432 227.432 508.648 227.112C507.88 226.776 507.232 226.328 506.704 225.768C506.176 225.192 505.776 224.536 505.504 223.8C505.232 223.048 505.096 222.264 505.096 221.448V221.16ZM508.768 232.608V230.424C508.768 230.04 508.832 229.72 508.96 229.464C509.088 229.192 509.256 228.976 509.464 228.816C509.688 228.656 509.944 228.544 510.232 228.48C510.52 228.416 510.824 228.384 511.144 228.384C511.448 228.384 511.744 228.424 512.032 228.504C512.32 228.568 512.576 228.68 512.8 228.84C513.024 228.984 513.2 229.192 513.328 229.464C513.456 229.72 513.52 230.04 513.52 230.424V232.608H517.792V230.424C517.792 230.04 517.856 229.72 517.984 229.464C518.112 229.192 518.28 228.976 518.488 228.816C518.712 228.656 518.968 228.544 519.256 228.48C519.544 228.416 519.848 228.384 520.168 228.384C520.472 228.384 520.768 228.424 521.056 228.504C521.344 228.568 521.6 228.68 521.824 228.84C522.048 228.984 522.224 229.192 522.352 229.464C522.48 229.72 522.544 230.04 522.544 230.424V232.608H524.872C525.608 232.608 526.128 232.808 526.432 233.208C526.736 233.608 526.888 234.048 526.888 234.528C526.888 235.024 526.728 235.464 526.408 235.848C526.104 236.248 525.592 236.448 524.872 236.448H506.44C505.72 236.448 505.2 236.248 504.88 235.848C504.576 235.464 504.424 235.024 504.424 234.528C504.424 234.048 504.576 233.608 504.88 233.208C505.184 232.808 505.704 232.608 506.44 232.608H508.768ZM521.224 221.112C521.224 220.472 520.992 219.944 520.528 219.528C520.08 219.112 519.456 218.904 518.656 218.904H512.656C511.856 218.904 511.224 219.112 510.76 219.528C510.312 219.944 510.088 220.472 510.088 221.112V221.496C510.088 222.136 510.312 222.664 510.76 223.08C511.224 223.496 511.856 223.704 512.656 223.704H518.656C519.456 223.704 520.08 223.496 520.528 223.08C520.992 222.664 521.224 222.136 521.224 221.496V221.112ZM528.592 233.184C528.592 232.432 528.816 231.84 529.264 231.408C529.712 230.976 530.344 230.76 531.16 230.76C531.976 230.76 532.608 230.984 533.056 231.432C533.504 231.864 533.728 232.448 533.728 233.184C533.728 233.92 533.504 234.512 533.056 234.96C532.608 235.392 531.976 235.608 531.16 235.608C530.344 235.608 529.712 235.392 529.264 234.96C528.816 234.528 528.592 233.936 528.592 233.184Z" fill="#999999"/>
</svg>
