<svg width="162" height="162" viewBox="0 0 162 162" fill="none" xmlns="http://www.w3.org/2000/svg">
<path d="M94.2697 144.494C93.6871 144.041 92.9319 143.782 92.112 143.847C90.5368 143.955 89.2854 145.27 89.2206 146.844C89.1559 148.633 90.58 149.884 92.3493 149.884H96.0174C96.8805 149.884 97.5925 149.172 97.5925 148.31V142.316L94.2697 144.494Z" fill="white"/>
<path fill-rule="evenodd" clip-rule="evenodd" d="M98.1565 141.273C98.5402 141.48 98.7793 141.881 98.7793 142.317V148.31C98.7793 149.828 97.536 151.07 96.0175 151.07H92.3494C90.0181 151.07 87.9419 149.367 88.0347 146.801L88.035 146.796C88.1239 144.634 89.8345 142.818 92.0248 142.665C92.8289 142.603 93.5888 142.766 94.2487 143.09L96.9417 141.325C97.3064 141.086 97.7728 141.066 98.1565 141.273ZM96.4058 144.512L94.9205 145.486C94.4962 145.764 93.9417 145.742 93.5411 145.43C93.178 145.148 92.7127 144.989 92.2054 145.03L92.1931 145.03C91.237 145.096 90.4485 145.907 90.4066 146.89C90.3715 147.902 91.1432 148.698 92.3494 148.698H96.0175C96.2251 148.698 96.4058 148.518 96.4058 148.31V144.512Z" fill="#666666"/>
<path fill-rule="evenodd" clip-rule="evenodd" d="M92.7133 144.505C92.8139 144.289 93.0705 144.196 93.2866 144.296L93.1045 144.687C93.2866 144.296 93.2868 144.296 93.287 144.296L93.2874 144.297L93.2882 144.297L93.2903 144.298L93.2958 144.301C93.3 144.303 93.3055 144.305 93.312 144.309C93.3251 144.315 93.3427 144.324 93.3641 144.336C93.4067 144.359 93.4648 144.392 93.533 144.437C93.6684 144.524 93.8481 144.658 94.0246 144.841C94.3798 145.208 94.7369 145.796 94.6559 146.606C94.6322 146.843 94.4207 147.016 94.1836 146.992C93.9464 146.968 93.7734 146.757 93.7971 146.52C93.8455 146.036 93.6416 145.686 93.4035 145.439C93.2833 145.315 93.1583 145.222 93.0631 145.16C93.0159 145.129 92.9773 145.107 92.952 145.094C92.9393 145.087 92.9302 145.082 92.925 145.079L92.9204 145.077C92.7057 144.976 92.613 144.72 92.7133 144.505Z" fill="#666666"/>
<path fill-rule="evenodd" clip-rule="evenodd" d="M97.5927 120.39C98.2481 120.39 98.7795 120.921 98.7795 121.575V146.585C98.7795 147.24 98.2481 147.771 97.5927 147.771C96.9373 147.771 96.406 147.24 96.406 146.585V121.575C96.406 120.921 96.9373 120.39 97.5927 120.39Z" fill="#666666"/>
<path fill-rule="evenodd" clip-rule="evenodd" d="M82.0788 120.39C82.7342 120.39 83.2656 120.921 83.2656 121.575V146.585C83.2656 147.24 82.7342 147.771 82.0788 147.771C81.4234 147.771 80.8921 147.24 80.8921 146.585V121.575C80.8921 120.921 81.4234 120.39 82.0788 120.39Z" fill="#666666"/>
<path fill-rule="evenodd" clip-rule="evenodd" d="M83.3727 83.8947C83.858 84.3348 83.8944 85.0848 83.4538 85.5697L69.6661 100.748C69.3769 101.066 68.9378 101.203 68.5186 101.106L55.2488 98.0227C54.6104 97.8744 54.2132 97.2371 54.3617 96.5992C54.5101 95.9613 55.148 95.5645 55.7863 95.7128L68.3772 98.6381L81.6964 83.9757C82.1369 83.4908 82.8874 83.4545 83.3727 83.8947Z" fill="#666666"/>
<path fill-rule="evenodd" clip-rule="evenodd" d="M93.7167 84.175C94.1308 83.6674 94.8783 83.5912 95.3864 84.0049L111.936 97.4797C112.441 97.8913 112.52 98.6333 112.112 99.1414L102.704 110.848C102.294 111.359 101.547 111.441 101.036 111.031C100.525 110.621 100.443 109.874 100.853 109.363L109.523 98.5745L93.8871 85.8433C93.379 85.4297 93.3027 84.6827 93.7167 84.175Z" fill="#666666"/>
<path d="M88.9621 128.432C78.6483 128.432 67.7087 125.413 67.7087 119.851C67.7087 109.049 84.6683 84.0185 88.7463 78.1758C92.8244 83.9969 109.762 108.747 109.762 119.851C109.762 123.042 106.418 125.025 103.634 126.103C99.7937 127.612 94.5721 128.432 88.9621 128.432Z" fill="#EFEFEF"/>
<path d="M88.7461 80.0512C90.8175 83.0265 94.3993 88.3517 97.9595 94.3022C106.828 109.157 108.683 116.401 108.683 119.851C108.683 121.273 107.734 123.343 103.224 125.111C99.5778 126.534 94.3777 127.353 88.9619 127.353C83.4813 127.353 78.1734 126.513 74.3974 125.068C72.3045 124.27 68.7874 122.502 68.7874 119.851C68.7874 116.509 70.643 109.372 79.5328 94.4316C83.0714 88.438 86.6747 83.048 88.7461 80.0512ZM88.7246 76.2998C88.7246 76.2998 66.6082 107.152 66.6082 119.851C66.6082 126.254 77.8066 129.509 88.9403 129.509C99.923 129.509 110.819 126.34 110.819 119.851C110.841 106.785 88.7246 76.2998 88.7246 76.2998Z" fill="#666666"/>
<path d="M43.9307 13.9709C43.9307 13.9709 46.6062 14.4883 47.8145 18.2613C49.6486 23.9531 54.2013 23.6944 56.4237 22.2714C60.0055 19.9645 56.4669 8.5163 43.9307 13.9709Z" fill="#EFEFEF"/>
<path fill-rule="evenodd" clip-rule="evenodd" d="M58.8246 19.2145C58.8524 20.7409 58.332 22.325 57.0085 23.1774L57.0061 23.179C55.6736 24.0322 53.6628 24.5367 51.6778 23.971C49.625 23.3859 47.7942 21.7148 46.7879 18.5916L46.7873 18.5898C46.2544 16.926 45.423 16.0405 44.7816 15.5704C44.4548 15.3309 44.165 15.1903 43.9683 15.112C43.87 15.0728 43.7956 15.0494 43.7524 15.0371C43.7309 15.031 43.7172 15.0276 43.7125 15.0265C43.7124 15.0265 43.7124 15.0265 43.7123 15.0265C43.255 14.932 42.9098 14.5538 42.8586 14.0889C42.8068 13.6195 43.0669 13.1711 43.5002 12.9825C46.7745 11.5578 49.5603 11.194 51.8541 11.5792C54.1583 11.966 55.8961 13.0983 57.0596 14.5315C58.2111 15.9499 58.7962 17.6581 58.8246 19.2145ZM46.4843 14.173C47.36 14.9348 48.2615 16.1197 48.842 17.9318C49.6697 20.4998 51.0322 21.545 52.2697 21.8977C53.5745 22.2696 54.9507 21.9338 55.8406 21.3646C56.3075 21.0631 56.6873 20.3514 56.6673 19.2538C56.6478 18.1852 56.2363 16.9398 55.3839 15.8896C54.5433 14.8542 53.2698 14.003 51.4966 13.7053C50.158 13.4806 48.496 13.5657 46.4843 14.173Z" fill="#666666"/>
<path fill-rule="evenodd" clip-rule="evenodd" d="M50.5353 15.8528C50.7704 15.5085 51.2403 15.4199 51.5848 15.6548L51.1591 16.2781C51.5848 15.6548 51.585 15.655 51.5852 15.6551L51.5858 15.6555L51.587 15.6564L51.5905 15.6588L51.6008 15.6659C51.6092 15.6718 51.6207 15.6798 51.6349 15.69C51.6634 15.7104 51.7033 15.7394 51.7533 15.7771C51.8533 15.8523 51.994 15.9622 52.1654 16.1062C52.508 16.3942 52.9749 16.8205 53.4852 17.3829C54.4948 18.4956 55.6873 20.1561 56.4106 22.3456C56.4136 22.351 56.4169 22.357 56.4207 22.3636C56.4456 22.4068 56.4876 22.4752 56.5489 22.5595C56.6717 22.7286 56.8685 22.9575 57.1547 23.1779C57.7109 23.6064 58.6545 24.0434 60.1801 23.8719C60.5946 23.8253 60.9684 24.1232 61.015 24.5374C61.0616 24.9515 60.7634 25.325 60.349 25.3716C58.4222 25.5882 57.0896 25.0334 56.2325 24.3731C55.812 24.0492 55.5179 23.7094 55.3265 23.446C55.2307 23.314 55.1598 23.2001 55.1109 23.1151C55.0865 23.0726 55.0675 23.0372 55.0536 23.0102C55.0466 22.9967 55.041 22.9853 55.0365 22.9762C55.0343 22.9716 55.0323 22.9676 55.0307 22.9642L55.0285 22.9594L55.0275 22.9574L55.0271 22.9565C55.0269 22.9561 55.0267 22.9556 55.7118 22.6382L55.0267 22.9556C55.014 22.9282 55.0029 22.9 54.9935 22.8713C54.3554 20.9077 53.284 19.4081 52.3662 18.3965C51.9082 17.8917 51.4918 17.5122 51.1931 17.2611C51.0439 17.1357 50.9246 17.0428 50.8446 16.9826C50.8047 16.9525 50.7746 16.9307 50.7556 16.9171C50.7462 16.9103 50.7395 16.9056 50.7357 16.903L50.7323 16.9006L50.733 16.9011C50.3888 16.6661 50.3003 16.1969 50.5353 15.8528Z" fill="#666666"/>
<path d="M117.746 139.707L116.451 147.253L119.709 146.11L121.996 149.883L124.866 147.274L128.599 146.951L126.959 143.329L128.901 140.009L124.694 139.685L124.176 136.128L117.746 139.707Z" fill="#EFEFEF"/>
<path fill-rule="evenodd" clip-rule="evenodd" d="M124.654 135.162C124.972 135.319 125.192 135.623 125.243 135.974L125.637 138.677L128.984 138.935C129.354 138.963 129.684 139.18 129.856 139.509C130.029 139.838 130.02 140.233 129.832 140.553L128.172 143.393L129.582 146.507C129.726 146.826 129.707 147.195 129.53 147.496C129.353 147.798 129.041 147.996 128.692 148.026L125.322 148.318L122.722 150.681C122.484 150.898 122.161 150.997 121.841 150.951C121.522 150.904 121.241 150.718 121.073 150.442L119.24 147.418L116.808 148.271C116.448 148.397 116.047 148.324 115.755 148.077C115.463 147.831 115.323 147.448 115.388 147.071L116.682 139.526C116.737 139.204 116.935 138.925 117.221 138.766L123.65 135.187C123.96 135.015 124.335 135.005 124.654 135.162ZM118.722 140.398L117.824 145.63L119.352 145.094C119.833 144.925 120.367 145.116 120.632 145.552L122.24 148.205L124.14 146.478C124.315 146.319 124.537 146.222 124.773 146.201L126.988 146.009L125.976 143.774C125.832 143.456 125.851 143.087 126.027 142.786L127.1 140.952L124.611 140.761C124.107 140.722 123.698 140.34 123.626 139.841L123.333 137.832L118.722 140.398Z" fill="#666666"/>
<path fill-rule="evenodd" clip-rule="evenodd" d="M112.61 134.564C113.009 134.445 113.429 134.671 113.549 135.069L113.55 135.073C113.551 135.077 113.554 135.084 113.557 135.095C113.564 135.117 113.576 135.152 113.593 135.198C113.627 135.29 113.68 135.428 113.756 135.596C113.908 135.934 114.145 136.39 114.488 136.858C115.172 137.794 116.239 138.737 117.849 138.959C117.901 138.966 117.953 138.979 118.003 138.997L117.746 139.707C118.003 138.997 118.003 138.997 118.003 138.997L118.005 138.998L118.008 138.999L118.019 139.003C118.028 139.007 118.041 139.011 118.057 139.018C118.089 139.03 118.134 139.047 118.192 139.07C118.306 139.116 118.469 139.184 118.669 139.274C119.067 139.454 119.615 139.723 120.218 140.083C121.409 140.794 122.885 141.901 123.808 143.436C124.023 143.793 123.908 144.256 123.551 144.471C123.193 144.686 122.729 144.571 122.514 144.214C121.776 142.988 120.545 142.036 119.443 141.379C118.9 141.054 118.405 140.811 118.047 140.65C117.869 140.569 117.726 140.51 117.628 140.471C117.6 140.459 117.575 140.45 117.555 140.442C115.46 140.124 114.093 138.876 113.268 137.748C112.85 137.176 112.562 136.623 112.378 136.214C112.285 136.008 112.218 135.837 112.174 135.714C112.151 135.652 112.134 135.602 112.123 135.567C112.117 135.549 112.112 135.534 112.109 135.524L112.105 135.51L112.103 135.506L112.103 135.504L112.102 135.503C112.102 135.503 112.102 135.503 112.826 135.287L112.102 135.503C111.983 135.103 112.21 134.683 112.61 134.564Z" fill="#666666"/>
<path fill-rule="evenodd" clip-rule="evenodd" d="M80.0803 22.4663C80.1732 23.0415 79.7904 23.5891 79.2139 23.6971C78.6283 23.8068 78.0645 23.4214 77.9547 22.8362L79.0151 22.6375C77.9547 22.8362 77.9544 22.8345 77.9541 22.8328L77.9535 22.8292L77.9521 22.8214C77.9511 22.8159 77.9501 22.8098 77.949 22.8032C77.9469 22.7899 77.9445 22.7744 77.9421 22.7567C77.9374 22.7213 77.9324 22.6772 77.9283 22.6249C77.9202 22.5203 77.9156 22.3827 77.9237 22.2175C77.94 21.8862 78.0073 21.4446 78.1975 20.9379C78.5846 19.9074 79.4437 18.703 81.2032 17.6206C84.6568 15.4958 91.6607 13.7873 105.952 14.6401C106.25 14.651 106.572 14.6572 106.909 14.6637C108.077 14.6863 109.426 14.7124 110.59 14.9521C112.152 15.2742 113.753 16.0524 114.353 17.9848C114.529 18.5534 114.211 19.1573 113.642 19.3337C113.073 19.51 112.469 19.1919 112.292 18.6233C112.029 17.7744 111.364 17.313 110.154 17.0637C109.205 16.8681 108.145 16.8468 107.019 16.8241C106.639 16.8165 106.252 16.8087 105.86 16.7941C105.852 16.7938 105.844 16.7934 105.836 16.7929C91.6322 15.9442 85.1966 17.6956 82.3345 19.4564C80.9357 20.317 80.4179 21.1622 80.2177 21.6954C80.1143 21.9706 80.0854 22.1895 80.0788 22.3232C80.0755 22.3904 80.0778 22.4364 80.0795 22.4574C80.0798 22.4612 80.0801 22.4642 80.0803 22.4663Z" fill="#666666"/>
<path fill-rule="evenodd" clip-rule="evenodd" d="M70.8257 24.2183C70.7391 24.8037 70.1958 25.2105 69.6084 25.128C69.0183 25.0452 68.6072 24.5001 68.6901 23.9106L69.7584 24.0605C68.6901 23.9106 68.6902 23.9094 68.6904 23.9082L68.6908 23.9055L68.6917 23.8992C68.6924 23.8946 68.6932 23.8892 68.6942 23.883C68.6962 23.8707 68.6987 23.8552 68.702 23.8367C68.7085 23.7998 68.7178 23.7507 68.7307 23.6904C68.7565 23.5699 68.7967 23.4043 68.8577 23.2005C68.9795 22.7929 69.1842 22.232 69.5224 21.5735C70.2006 20.2525 71.4079 18.5535 73.5308 16.917C77.7791 13.6419 85.5666 10.7093 99.8198 11.3413L99.8207 11.3414C101.588 11.4211 103.357 11.7925 104.721 12.5901C106.127 13.4121 107.151 14.7306 107.151 16.5793C107.151 17.1746 106.668 17.6573 106.072 17.6573C105.477 17.6573 104.994 17.1746 104.994 16.5793C104.994 15.6683 104.54 14.9817 103.632 14.4509C102.682 13.8957 101.3 13.5663 99.7238 13.4952C85.7762 12.8768 78.557 15.7653 74.8488 18.6239C72.9934 20.0543 71.9851 21.5003 71.4422 22.5576C71.1697 23.0882 71.0126 23.5249 70.9251 23.8174C70.8814 23.9637 70.8551 24.0739 70.8406 24.1416C70.8334 24.1755 70.8291 24.1987 70.827 24.2104C70.8263 24.2143 70.8259 24.217 70.8257 24.2183Z" fill="#666666"/>
<path d="M87.43 80.8486C87.43 80.8486 69.4995 108.079 69.4995 117.888C69.4995 127.698 105.9 128 105.9 117.888C105.9 107.798 87.43 80.8486 87.43 80.8486Z" fill="white"/>
<path d="M113.301 85.4196H68.6579C64.0189 85.4196 60.2429 81.7544 60.2429 77.2269V39.217C60.2429 29.472 68.3343 21.5596 78.346 21.5596H113.301" fill="#EFEFEF"/>
<path fill-rule="evenodd" clip-rule="evenodd" d="M78.346 22.6374C68.9062 22.6374 61.3218 30.0908 61.3218 39.2169V77.2267C61.3218 81.1317 64.5872 84.3414 68.6579 84.3414H113.301C113.897 84.3414 114.38 84.8241 114.38 85.4194C114.38 86.0148 113.897 86.4974 113.301 86.4974H68.6579C63.4506 86.4974 59.1641 82.3768 59.1641 77.2267V39.2169C59.1641 28.8529 67.7623 20.4814 78.346 20.4814H113.301C113.897 20.4814 114.38 20.9641 114.38 21.5594C114.38 22.1548 113.897 22.6374 113.301 22.6374H78.346Z" fill="#666666"/>
<path d="M113.322 84.3417H71.7218C67.5574 84.3417 64.1914 80.7844 64.1914 76.4077V39.6915C64.1914 30.2698 71.4413 22.6377 80.3957 22.6377H113.322" fill="white"/>
<path fill-rule="evenodd" clip-rule="evenodd" d="M59.7683 46.7202C59.7683 46.1844 60.203 45.75 60.7393 45.75H71.5493C72.0856 45.75 72.5203 46.1844 72.5203 46.7202C72.5203 47.256 72.0856 47.6904 71.5493 47.6904H60.7393C60.203 47.6904 59.7683 47.256 59.7683 46.7202Z" fill="#666666"/>
<path fill-rule="evenodd" clip-rule="evenodd" d="M88.5303 46.7202C88.5303 46.1844 88.965 45.75 89.5012 45.75H103.785C104.321 45.75 104.756 46.1844 104.756 46.7202C104.756 47.256 104.321 47.6904 103.785 47.6904H89.5012C88.965 47.6904 88.5303 47.256 88.5303 46.7202Z" fill="#666666"/>
<path fill-rule="evenodd" clip-rule="evenodd" d="M76.3826 52.002C76.7997 52.002 77.1378 52.3398 77.1378 52.7565V53.274C77.1378 53.6907 76.7997 54.0286 76.3826 54.0286C75.9655 54.0286 75.6274 53.6907 75.6274 53.274V52.7565C75.6274 52.3398 75.9655 52.002 76.3826 52.002Z" fill="#666666"/>
<path fill-rule="evenodd" clip-rule="evenodd" d="M80.8057 52.002C81.2228 52.002 81.5609 52.3398 81.5609 52.7565V53.274C81.5609 53.6907 81.2228 54.0286 80.8057 54.0286C80.3887 54.0286 80.0505 53.6907 80.0505 53.274V52.7565C80.0505 52.3398 80.3887 52.002 80.8057 52.002Z" fill="#666666"/>
<path fill-rule="evenodd" clip-rule="evenodd" d="M75.6274 68.9265C75.6274 68.5097 75.9656 68.1719 76.3826 68.1719H84.7976C85.2147 68.1719 85.5528 68.5097 85.5528 68.9265C85.5528 69.3432 85.2147 69.681 84.7976 69.681H76.3826C75.9656 69.681 75.6274 69.3432 75.6274 68.9265Z" fill="#666666"/>
<path d="M92.0261 98.5063C92.0261 100.878 90.0841 102.818 87.7107 102.818C85.3372 102.818 83.3953 100.878 83.3953 98.5063C83.3953 96.1347 85.3372 94.1943 87.7107 94.1943C90.0841 94.1943 92.0261 96.1132 92.0261 98.5063Z" fill="#EFEFEF"/>
<path fill-rule="evenodd" clip-rule="evenodd" d="M87.7104 95.2722C85.9229 95.2722 84.4739 96.7201 84.4739 98.5061C84.4739 100.292 85.9229 101.74 87.7104 101.74C89.4979 101.74 90.947 100.292 90.947 98.5061C90.947 96.7201 89.4979 95.2722 87.7104 95.2722ZM82.3162 98.5061C82.3162 95.5294 84.7312 93.1162 87.7104 93.1162C90.6896 93.1162 93.1047 95.5294 93.1047 98.5061C93.1047 101.483 90.6896 103.896 87.7104 103.896C84.7312 103.896 82.3162 101.483 82.3162 98.5061Z" fill="#666666"/>
<path d="M56.1001 98.5927C54.4603 98.1184 53.4462 96.6524 53.8346 95.2941C54.2229 93.9358 55.8628 93.2244 57.5026 93.6987C59.1425 94.173 60.1566 95.6391 59.7682 96.9973C59.3798 98.3556 57.7184 99.067 56.1001 98.5927Z" fill="white"/>
<path fill-rule="evenodd" clip-rule="evenodd" d="M54.8654 95.5976C54.6923 96.1983 55.1274 97.1985 56.3876 97.5611C57.6478 97.9237 58.5487 97.3079 58.7218 96.7072C58.8949 96.1065 58.4598 95.1062 57.1996 94.7436C55.9394 94.381 55.0385 94.9969 54.8654 95.5976ZM55.7906 99.6328C53.7759 99.0531 52.187 97.1005 52.7921 95.001C53.3971 92.9015 55.7819 92.0923 57.7966 92.672C59.8113 93.2517 61.4002 95.2042 60.7952 97.3037C60.1901 99.4033 57.8053 100.212 55.7906 99.6328Z" fill="#666666"/>
<path d="M109.18 106.85C109.784 108.424 109.223 110.106 107.928 110.602C106.634 111.097 105.102 110.235 104.497 108.661C103.893 107.087 104.454 105.406 105.749 104.91C107.022 104.392 108.576 105.276 109.18 106.85Z" fill="white"/>
<path fill-rule="evenodd" clip-rule="evenodd" d="M106.122 105.901C105.562 106.116 105.034 107.039 105.498 108.243C105.961 109.447 106.973 109.778 107.532 109.563C108.091 109.348 108.619 108.425 108.156 107.221C107.692 106.017 106.681 105.686 106.122 105.901ZM103.484 109.017C102.741 107.087 103.326 104.666 105.347 103.889C107.368 103.112 109.426 104.517 110.17 106.447C110.913 108.377 110.328 110.798 108.307 111.575C106.286 112.352 104.227 110.947 103.484 109.017Z" fill="#666666"/>
<path d="M82.8339 85.4199L79.9426 89.6888L84.9269 90.7452L87.7966 85.4199H82.8339Z" fill="#EFEFEF"/>
<path fill-rule="evenodd" clip-rule="evenodd" d="M82.2086 84.9967C82.3491 84.7893 82.5834 84.665 82.834 84.665H87.7967C88.0625 84.665 88.3087 84.8047 88.445 85.0327C88.5813 85.2607 88.5876 85.5435 88.4616 85.7774L85.5919 91.1026C85.4329 91.3976 85.0983 91.5526 84.7703 91.483L79.786 90.4266C79.5401 90.3745 79.3363 90.2036 79.2423 89.9707C79.1483 89.7378 79.1764 89.4735 79.3173 89.2655L82.2086 84.9967ZM83.2348 86.1742L81.197 89.1829L84.5303 89.8894L86.5323 86.1742H83.2348Z" fill="#666666"/>
<path d="M93.9463 85.4199L97.5281 89.6888L91.3787 90.7452L87.7969 85.4199H93.9463Z" fill="#EFEFEF"/>
<path fill-rule="evenodd" clip-rule="evenodd" d="M87.1302 85.0648C87.2614 84.8188 87.5177 84.665 87.7967 84.665H93.9461C94.1695 84.665 94.3814 84.7638 94.5249 84.9348L98.1066 89.2037C98.2803 89.4107 98.33 89.6946 98.237 89.9482C98.1439 90.2018 97.9223 90.3864 97.6559 90.4321L91.5064 91.4886C91.2132 91.539 90.9177 91.4126 90.7517 91.1658L87.1699 85.8405C87.0143 85.6091 86.999 85.3109 87.1302 85.0648ZM89.2141 86.1742L91.7325 89.9184L96.1051 89.1672L93.5938 86.1742H89.2141Z" fill="#666666"/>
<path d="M78.7562 144.494C78.1736 144.041 77.4184 143.782 76.5985 143.847C75.0234 143.955 73.7719 145.27 73.7072 146.844C73.6425 148.633 75.0666 149.884 76.8359 149.884H80.504C81.367 149.884 82.0791 149.172 82.0791 148.31V142.316L78.7562 144.494Z" fill="white"/>
<path fill-rule="evenodd" clip-rule="evenodd" d="M82.6428 141.273C83.0265 141.48 83.2656 141.881 83.2656 142.317V148.31C83.2656 149.828 82.0223 151.07 80.5038 151.07H76.8357C74.5044 151.07 72.4282 149.367 72.5211 146.801L72.5213 146.796C72.6102 144.634 74.3208 142.818 76.5111 142.665C77.3152 142.603 78.0751 142.766 78.735 143.09L81.4281 141.325C81.7927 141.086 82.2591 141.066 82.6428 141.273ZM80.8922 144.512L79.4069 145.486C78.9825 145.764 78.4281 145.742 78.0275 145.43C77.6643 145.148 77.199 144.989 76.6917 145.03L76.6794 145.03C75.7233 145.096 74.9348 145.907 74.8929 146.89C74.8578 147.902 75.6295 148.698 76.8357 148.698H80.5038C80.7114 148.698 80.8922 148.518 80.8922 148.31V144.512Z" fill="#666666"/>
<path fill-rule="evenodd" clip-rule="evenodd" d="M77.2211 144.505C77.3217 144.289 77.5784 144.196 77.7944 144.296L77.6123 144.687C77.7944 144.296 77.7946 144.296 77.7948 144.296L77.7952 144.297L77.796 144.297L77.7981 144.298L77.8036 144.301C77.8078 144.303 77.8133 144.305 77.8199 144.309C77.833 144.315 77.8505 144.324 77.8719 144.336C77.9145 144.359 77.9727 144.392 78.0408 144.437C78.1762 144.524 78.3559 144.658 78.5324 144.841C78.8876 145.208 79.2447 145.796 79.1637 146.606C79.14 146.843 78.9285 147.016 78.6914 146.992C78.4542 146.968 78.2812 146.757 78.3049 146.52C78.3533 146.036 78.1494 145.686 77.9113 145.439C77.7911 145.315 77.6661 145.222 77.5709 145.16C77.5237 145.129 77.4851 145.107 77.4598 145.094C77.4472 145.087 77.438 145.082 77.4328 145.079L77.4283 145.077C77.2136 144.976 77.1208 144.72 77.2211 144.505Z" fill="#666666"/>
<path fill-rule="evenodd" clip-rule="evenodd" d="M119.719 14.4918C120.277 14.6994 120.561 15.3201 120.353 15.878C119.963 16.9279 119.443 17.7386 118.791 18.3376C118.135 18.9408 117.397 19.2812 116.646 19.4651C115.909 19.6454 115.158 19.6756 114.464 19.6664C114.115 19.6618 113.766 19.6467 113.434 19.6322L113.416 19.6314C113.085 19.617 112.772 19.6033 112.463 19.5983C112.456 19.5982 112.45 19.598 112.443 19.5978C99.3464 19.1343 93.6095 19.9071 91.174 20.7158C90.3613 20.9856 90.021 21.2256 89.8898 21.3445C89.9764 21.7682 89.8011 22.2204 89.4149 22.4678C88.9134 22.7892 88.246 22.6435 87.9244 22.1423L88.8325 21.5604C87.9244 22.1423 87.9231 22.1403 87.9218 22.1382L87.9191 22.134L87.9135 22.125C87.9097 22.1188 87.9057 22.1123 87.9016 22.1053C87.8934 22.0915 87.8847 22.076 87.8755 22.059C87.8573 22.025 87.8373 21.9844 87.8173 21.9375C87.7776 21.844 87.7366 21.722 87.7112 21.5754C87.6584 21.2704 87.6797 20.8901 87.8702 20.491C88.2344 19.728 89.0913 19.1354 90.4936 18.6698C93.3329 17.727 99.4178 16.98 112.509 17.4428C112.844 17.4484 113.18 17.4631 113.498 17.477L113.528 17.4783C113.864 17.493 114.182 17.5065 114.493 17.5106C115.119 17.5189 115.658 17.4872 116.132 17.371C116.592 17.2585 116.986 17.0679 117.33 16.7508C117.68 16.4296 118.032 15.9305 118.331 15.1262C118.539 14.5682 119.16 14.2842 119.719 14.4918Z" fill="#666666"/>
<path d="M92.2632 99.3252H83.3303C83.3303 99.3252 83.9776 102.818 87.6457 102.818C91.3138 102.818 92.2632 99.3252 92.2632 99.3252Z" fill="#4BB9F7"/>
<path fill-rule="evenodd" clip-rule="evenodd" d="M87.6674 95.2722C85.8799 95.2722 84.4309 96.7201 84.4309 98.5061C84.4309 100.292 85.8799 101.74 87.6674 101.74C89.4549 101.74 90.904 100.292 90.904 98.5061C90.904 96.7201 89.4549 95.2722 87.6674 95.2722ZM82.2732 98.5061C82.2732 95.5294 84.6883 93.1162 87.6674 93.1162C90.6466 93.1162 93.0617 95.5294 93.0617 98.5061C93.0617 101.483 90.6466 103.896 87.6674 103.896C84.6883 103.896 82.2732 101.483 82.2732 98.5061Z" fill="#666666"/>
</svg>
