<svg width="513" height="344" viewBox="0 0 513 344" fill="none" xmlns="http://www.w3.org/2000/svg">
<path d="M327.751 45.0438C321.011 30.0292 311.679 18.6388 300.273 11.3904C288.867 3.62422 274.35 0 257.241 0C239.613 0 225.615 3.62422 214.209 10.8727C202.803 18.1211 193.989 29.5115 186.73 44.5261L96 248H419C418.482 245.929 327.751 45.0438 327.751 45.0438ZM196.581 190.53L214.209 150.664L246.353 74.0376C247.39 70.9311 248.945 69.3779 251.019 68.3424C253.093 67.3069 255.167 66.7891 257.241 66.7891C259.833 66.7891 261.907 67.3069 263.462 68.3424C265.536 69.3779 267.091 71.4488 268.128 74.0376L298.199 142.898L318.937 190.013H196.581V190.53Z" fill="#ADC8DD"/>
<path d="M256 133C254.481 133 253.25 134.231 253.25 135.75V152.25H236.75C235.231 152.25 234 153.481 234 155C234 156.519 235.231 157.75 236.75 157.75H253.25V174.25C253.25 175.769 254.481 177 256 177C257.519 177 258.75 175.769 258.75 174.25V157.75H275.25C276.769 157.75 278 156.519 278 155C278 153.481 276.769 152.25 275.25 152.25H258.75V135.75C258.75 134.231 257.519 133 256 133Z" fill="#ADC8DD"/>
<path d="M389.507 243.521C388.892 243.043 388.095 242.77 387.229 242.838C385.567 242.952 384.246 244.34 384.178 246.002C384.109 247.891 385.612 249.211 387.48 249.211H391.352C392.263 249.211 393.015 248.46 393.015 247.549V241.223L389.507 243.521Z" fill="white"/>
<path fill-rule="evenodd" clip-rule="evenodd" d="M393.61 240.121C394.015 240.34 394.267 240.762 394.267 241.222V247.549C394.267 249.151 392.955 250.462 391.352 250.462H387.48C385.019 250.462 382.828 248.665 382.926 245.956L382.926 245.95C383.02 243.668 384.826 241.751 387.137 241.59C387.986 241.524 388.788 241.697 389.485 242.039L392.328 240.176C392.713 239.923 393.205 239.902 393.61 240.121ZM391.762 243.54L390.194 244.568C389.746 244.861 389.161 244.838 388.738 244.509C388.355 244.211 387.864 244.044 387.328 244.086L387.315 244.087C386.306 244.156 385.474 245.013 385.429 246.05C385.392 247.118 386.207 247.959 387.48 247.959H391.352C391.571 247.959 391.762 247.768 391.762 247.549V243.54Z" fill="#666666"/>
<path fill-rule="evenodd" clip-rule="evenodd" d="M387.864 243.534C387.97 243.306 388.241 243.207 388.469 243.313L388.277 243.726C388.469 243.313 388.47 243.313 388.47 243.313L388.47 243.313L388.471 243.314L388.473 243.315L388.479 243.318C388.484 243.32 388.489 243.323 388.496 243.326C388.51 243.333 388.529 243.343 388.551 243.355C388.596 243.379 388.658 243.415 388.729 243.461C388.872 243.554 389.062 243.695 389.248 243.888C389.623 244.276 390 244.896 389.915 245.751C389.89 246.001 389.666 246.184 389.416 246.159C389.166 246.134 388.983 245.911 389.008 245.66C389.059 245.15 388.844 244.78 388.593 244.52C388.466 244.388 388.334 244.29 388.233 244.225C388.184 244.193 388.143 244.169 388.116 244.155C388.103 244.148 388.093 244.143 388.088 244.14L388.083 244.137C387.856 244.031 387.758 243.761 387.864 243.534Z" fill="#666666"/>
<path fill-rule="evenodd" clip-rule="evenodd" d="M393.014 218.078C393.706 218.078 394.267 218.639 394.267 219.33V245.728C394.267 246.42 393.706 246.98 393.014 246.98C392.323 246.98 391.762 246.42 391.762 245.728V219.33C391.762 218.639 392.323 218.078 393.014 218.078Z" fill="#666666"/>
<path fill-rule="evenodd" clip-rule="evenodd" d="M376.639 218.078C377.331 218.078 377.892 218.639 377.892 219.33V245.728C377.892 246.42 377.331 246.98 376.639 246.98C375.947 246.98 375.386 246.42 375.386 245.728V219.33C375.386 218.639 375.947 218.078 376.639 218.078Z" fill="#666666"/>
<path fill-rule="evenodd" clip-rule="evenodd" d="M378.004 179.555C378.517 180.02 378.555 180.812 378.09 181.323L363.536 197.345C363.231 197.681 362.768 197.825 362.325 197.723L348.318 194.468C347.644 194.312 347.225 193.639 347.382 192.966C347.538 192.292 348.212 191.873 348.886 192.03L362.176 195.118L376.235 179.641C376.7 179.129 377.492 179.091 378.004 179.555Z" fill="#666666"/>
<path fill-rule="evenodd" clip-rule="evenodd" d="M388.923 179.852C389.36 179.316 390.149 179.235 390.686 179.672L408.155 193.895C408.688 194.33 408.771 195.113 408.34 195.649L398.41 208.007C397.977 208.546 397.188 208.632 396.649 208.199C396.109 207.766 396.023 206.978 396.456 206.439L405.608 195.051L389.103 181.613C388.567 181.176 388.486 180.388 388.923 179.852Z" fill="#666666"/>
<path d="M383.904 226.566C373.018 226.566 361.47 223.38 361.47 217.509C361.47 206.107 379.372 179.686 383.677 173.519C387.981 179.663 405.86 205.789 405.86 217.509C405.86 220.877 402.33 222.971 399.392 224.109C395.338 225.702 389.826 226.566 383.904 226.566Z" fill="#EFEFEF"/>
<path d="M383.676 175.499C385.863 178.639 389.644 184.261 393.402 190.542C402.763 206.222 404.721 213.868 404.721 217.509C404.721 219.011 403.719 221.196 398.959 223.062C395.11 224.564 389.621 225.429 383.904 225.429C378.119 225.429 372.516 224.541 368.531 223.017C366.321 222.175 362.609 220.308 362.609 217.509C362.609 213.982 364.568 206.449 373.951 190.678C377.686 184.352 381.49 178.662 383.676 175.499ZM383.654 171.539C383.654 171.539 360.309 204.105 360.309 217.509C360.309 224.268 372.129 227.705 383.881 227.705C395.474 227.705 406.976 224.359 406.976 217.509C406.999 203.718 383.654 171.539 383.654 171.539Z" fill="#666666"/>
<path d="M336.371 105.747C336.371 105.747 339.196 106.293 340.471 110.276C342.407 116.284 347.213 116.011 349.558 114.509C353.339 112.074 349.604 99.9895 336.371 105.747Z" fill="#EFEFEF"/>
<path fill-rule="evenodd" clip-rule="evenodd" d="M352.092 111.281C352.122 112.893 351.572 114.565 350.175 115.465L350.173 115.466C348.766 116.367 346.644 116.899 344.549 116.302C342.382 115.685 340.449 113.921 339.387 110.624L339.386 110.622C338.824 108.866 337.946 107.931 337.269 107.435C336.924 107.182 336.618 107.034 336.411 106.951C336.307 106.91 336.228 106.885 336.183 106.872C336.16 106.865 336.146 106.862 336.141 106.861C336.141 106.861 336.141 106.861 336.14 106.861C335.658 106.761 335.293 106.362 335.239 105.871C335.185 105.376 335.459 104.902 335.917 104.703C339.373 103.199 342.313 102.815 344.735 103.222C347.167 103.63 349.001 104.825 350.229 106.338C351.445 107.835 352.062 109.639 352.092 111.281ZM339.066 105.96C339.991 106.764 340.942 108.015 341.555 109.927C342.429 112.638 343.867 113.741 345.173 114.114C346.551 114.506 348.003 114.152 348.943 113.551C349.435 113.233 349.836 112.481 349.815 111.323C349.795 110.195 349.36 108.88 348.46 107.772C347.573 106.679 346.229 105.78 344.357 105.466C342.944 105.229 341.19 105.319 339.066 105.96Z" fill="#666666"/>
<path fill-rule="evenodd" clip-rule="evenodd" d="M343.343 107.732C343.591 107.369 344.087 107.275 344.451 107.523L344.001 108.181C344.451 107.523 344.451 107.524 344.451 107.524L344.452 107.524L344.453 107.525L344.457 107.528L344.468 107.535C344.477 107.541 344.489 107.55 344.504 107.561C344.534 107.582 344.576 107.613 344.629 107.652C344.734 107.732 344.883 107.848 345.064 108C345.425 108.304 345.918 108.754 346.457 109.348C347.522 110.522 348.781 112.275 349.545 114.586C349.548 114.592 349.551 114.598 349.555 114.605C349.582 114.651 349.626 114.723 349.691 114.812C349.82 114.99 350.028 115.232 350.33 115.464C350.917 115.917 351.913 116.378 353.524 116.197C353.961 116.148 354.356 116.462 354.405 116.899C354.454 117.337 354.139 117.731 353.702 117.78C351.668 118.009 350.261 117.423 349.357 116.726C348.913 116.384 348.602 116.025 348.4 115.747C348.299 115.608 348.224 115.488 348.173 115.398C348.147 115.353 348.127 115.316 348.112 115.287C348.105 115.273 348.099 115.261 348.094 115.252C348.092 115.247 348.09 115.242 348.088 115.239L348.086 115.234L348.085 115.232L348.084 115.231C348.084 115.23 348.084 115.23 348.807 114.895L348.084 115.23C348.07 115.201 348.059 115.171 348.049 115.141C347.375 113.068 346.244 111.485 345.276 110.417C344.792 109.885 344.353 109.484 344.037 109.219C343.88 109.087 343.754 108.988 343.669 108.925C343.627 108.893 343.595 108.87 343.575 108.856C343.565 108.849 343.558 108.844 343.554 108.841L343.551 108.838L343.552 108.839C343.188 108.591 343.095 108.096 343.343 107.732Z" fill="#666666"/>
<path d="M414.287 238.469L412.92 246.434L416.36 245.228L418.774 249.211L421.803 246.457L425.743 246.116L424.012 242.292L426.062 238.788L421.621 238.446L421.074 234.691L414.287 238.469Z" fill="#EFEFEF"/>
<path fill-rule="evenodd" clip-rule="evenodd" d="M421.579 233.671C421.915 233.836 422.147 234.157 422.201 234.527L422.617 237.381L426.149 237.652C426.541 237.683 426.889 237.912 427.071 238.259C427.253 238.606 427.243 239.023 427.045 239.361L425.292 242.358L426.781 245.646C426.933 245.982 426.913 246.371 426.726 246.69C426.539 247.008 426.21 247.217 425.842 247.248L422.285 247.557L419.54 250.052C419.288 250.28 418.947 250.385 418.61 250.336C418.274 250.287 417.976 250.09 417.8 249.799L415.865 246.607L413.298 247.507C412.917 247.641 412.494 247.563 412.186 247.303C411.877 247.042 411.73 246.639 411.798 246.241L413.165 238.276C413.223 237.937 413.432 237.642 413.733 237.474L420.52 233.697C420.847 233.514 421.243 233.505 421.579 233.671ZM415.317 239.197L414.37 244.719L415.983 244.154C416.491 243.975 417.055 244.177 417.334 244.638L419.031 247.438L421.037 245.615C421.221 245.447 421.456 245.344 421.705 245.323L424.043 245.12L422.975 242.761C422.823 242.425 422.843 242.036 423.029 241.717L424.161 239.782L421.534 239.58C421.002 239.539 420.571 239.136 420.494 238.609L420.185 236.488L415.317 239.197Z" fill="#666666"/>
<path fill-rule="evenodd" clip-rule="evenodd" d="M408.866 233.04C409.288 232.915 409.731 233.154 409.858 233.574L409.859 233.577C409.86 233.582 409.862 233.59 409.866 233.601C409.874 233.624 409.886 233.661 409.904 233.709C409.939 233.807 409.996 233.952 410.076 234.13C410.236 234.487 410.487 234.968 410.848 235.462C411.571 236.45 412.697 237.446 414.396 237.68C414.451 237.687 414.506 237.701 414.558 237.72L414.287 238.469C414.558 237.72 414.559 237.72 414.559 237.72L414.561 237.721L414.564 237.722L414.576 237.726C414.586 237.73 414.599 237.735 414.616 237.741C414.65 237.754 414.698 237.773 414.758 237.797C414.879 237.846 415.051 237.917 415.262 238.012C415.682 238.202 416.26 238.486 416.897 238.866C418.154 239.617 419.712 240.786 420.687 242.405C420.914 242.782 420.792 243.271 420.415 243.498C420.037 243.725 419.548 243.603 419.321 243.226C418.542 241.933 417.242 240.928 416.079 240.234C415.505 239.891 414.983 239.635 414.606 239.464C414.417 239.379 414.266 239.316 414.164 239.275C414.133 239.263 414.107 239.253 414.086 239.245C411.874 238.909 410.432 237.592 409.561 236.401C409.119 235.797 408.815 235.214 408.621 234.782C408.524 234.565 408.453 234.384 408.406 234.254C408.382 234.189 408.364 234.137 408.352 234.099C408.346 234.08 408.341 234.065 408.337 234.053L408.333 234.039L408.331 234.035L408.331 234.033L408.331 234.032C408.33 234.032 408.33 234.031 409.094 233.804L408.33 234.031C408.204 233.61 408.444 233.166 408.866 233.04Z" fill="#666666"/>
<path fill-rule="evenodd" clip-rule="evenodd" d="M374.529 114.714C374.627 115.322 374.223 115.899 373.614 116.013C372.996 116.129 372.401 115.722 372.285 115.105L373.405 114.895C372.285 115.105 372.285 115.103 372.285 115.101L372.284 115.097L372.282 115.089C372.281 115.083 372.28 115.077 372.279 115.07C372.277 115.056 372.275 115.04 372.272 115.021C372.267 114.984 372.262 114.937 372.257 114.882C372.249 114.771 372.244 114.626 372.253 114.452C372.27 114.102 372.341 113.636 372.542 113.101C372.95 112.013 373.857 110.742 375.714 109.599C379.36 107.357 386.753 105.553 401.838 106.453C402.153 106.465 402.492 106.471 402.848 106.478C404.081 106.502 405.505 106.53 406.733 106.783C408.383 107.123 410.073 107.944 410.706 109.984C410.892 110.584 410.556 111.222 409.955 111.408C409.355 111.594 408.717 111.258 408.53 110.658C408.252 109.762 407.55 109.275 406.273 109.012C405.271 108.805 404.153 108.783 402.964 108.759C402.564 108.751 402.155 108.742 401.741 108.727C401.732 108.727 401.724 108.726 401.715 108.726C386.723 107.83 379.93 109.679 376.908 111.537C375.432 112.446 374.885 113.338 374.674 113.901C374.565 114.191 374.534 114.422 374.527 114.563C374.524 114.634 374.526 114.683 374.528 114.705C374.528 114.709 374.529 114.712 374.529 114.714Z" fill="#666666"/>
<path fill-rule="evenodd" clip-rule="evenodd" d="M364.761 116.564C364.669 117.181 364.096 117.611 363.476 117.524C362.853 117.436 362.419 116.861 362.506 116.239L363.634 116.397C362.506 116.239 362.507 116.237 362.507 116.236L362.507 116.233L362.508 116.227C362.509 116.222 362.51 116.216 362.511 116.21C362.513 116.197 362.515 116.18 362.519 116.161C362.526 116.122 362.536 116.07 362.549 116.006C362.576 115.879 362.619 115.704 362.683 115.489C362.812 115.059 363.028 114.467 363.385 113.772C364.101 112.377 365.375 110.584 367.616 108.857C372.1 105.4 380.32 102.304 395.366 102.971L395.366 102.971C397.232 103.055 399.099 103.447 400.539 104.289C402.024 105.157 403.104 106.549 403.104 108.5C403.104 109.129 402.594 109.638 401.966 109.638C401.337 109.638 400.827 109.129 400.827 108.5C400.827 107.538 400.347 106.814 399.389 106.253C398.387 105.667 396.928 105.32 395.264 105.245C380.542 104.592 372.921 107.641 369.007 110.658C367.049 112.168 365.984 113.694 365.411 114.811C365.124 115.371 364.958 115.832 364.866 116.14C364.819 116.295 364.792 116.411 364.776 116.483C364.769 116.518 364.764 116.543 364.762 116.555C364.761 116.559 364.761 116.562 364.761 116.564Z" fill="#666666"/>
<path d="M382.287 176.341C382.287 176.341 363.36 205.084 363.36 215.438C363.36 225.793 401.783 226.112 401.783 215.438C401.783 204.788 382.287 176.341 382.287 176.341Z" fill="white"/>
<path d="M409.595 181.166H362.472C357.576 181.166 353.59 177.297 353.59 172.518V132.396C353.59 122.11 362.131 113.758 372.699 113.758H409.595" fill="#EFEFEF"/>
<path fill-rule="evenodd" clip-rule="evenodd" d="M372.699 114.896C362.734 114.896 354.728 122.763 354.728 132.396V172.518C354.728 176.64 358.175 180.028 362.472 180.028H409.595C410.224 180.028 410.734 180.537 410.734 181.166C410.734 181.794 410.224 182.304 409.595 182.304H362.472C356.976 182.304 352.451 177.954 352.451 172.518V132.396C352.451 121.457 361.527 112.62 372.699 112.62H409.595C410.224 112.62 410.734 113.13 410.734 113.758C410.734 114.386 410.224 114.896 409.595 114.896H372.699Z" fill="#666666"/>
<path d="M409.618 180.028H365.707C361.311 180.028 357.758 176.273 357.758 171.653V132.897C357.758 122.952 365.41 114.896 374.862 114.896H409.618" fill="white"/>
<path fill-rule="evenodd" clip-rule="evenodd" d="M353.089 140.316C353.089 139.75 353.547 139.292 354.114 139.292H365.524C366.09 139.292 366.549 139.75 366.549 140.316C366.549 140.882 366.09 141.34 365.524 141.34H354.114C353.547 141.34 353.089 140.882 353.089 140.316Z" fill="#666666"/>
<path fill-rule="evenodd" clip-rule="evenodd" d="M383.449 140.316C383.449 139.75 383.908 139.292 384.474 139.292H399.551C400.117 139.292 400.576 139.75 400.576 140.316C400.576 140.882 400.117 141.34 399.551 141.34H384.474C383.908 141.34 383.449 140.882 383.449 140.316Z" fill="#666666"/>
<path fill-rule="evenodd" clip-rule="evenodd" d="M370.626 145.892C371.066 145.892 371.423 146.248 371.423 146.688V147.234C371.423 147.674 371.066 148.031 370.626 148.031C370.186 148.031 369.829 147.674 369.829 147.234V146.688C369.829 146.248 370.186 145.892 370.626 145.892Z" fill="#666666"/>
<path fill-rule="evenodd" clip-rule="evenodd" d="M375.295 145.892C375.735 145.892 376.092 146.248 376.092 146.688V147.234C376.092 147.674 375.735 148.031 375.295 148.031C374.855 148.031 374.498 147.674 374.498 147.234V146.688C374.498 146.248 374.855 145.892 375.295 145.892Z" fill="#666666"/>
<path fill-rule="evenodd" clip-rule="evenodd" d="M369.829 163.755C369.829 163.316 370.186 162.959 370.626 162.959H379.509C379.949 162.959 380.306 163.316 380.306 163.755C380.306 164.195 379.949 164.552 379.509 164.552H370.626C370.186 164.552 369.829 164.195 369.829 163.755Z" fill="#666666"/>
<path d="M387.138 194.979C387.138 197.483 385.089 199.531 382.583 199.531C380.078 199.531 378.028 197.483 378.028 194.979C378.028 192.476 380.078 190.428 382.583 190.428C385.089 190.428 387.138 192.453 387.138 194.979Z" fill="#EFEFEF"/>
<path fill-rule="evenodd" clip-rule="evenodd" d="M382.583 191.566C380.697 191.566 379.167 193.094 379.167 194.979C379.167 196.865 380.697 198.393 382.583 198.393C384.47 198.393 386 196.865 386 194.979C386 193.094 384.47 191.566 382.583 191.566ZM376.889 194.979C376.889 191.837 379.439 189.29 382.583 189.29C385.728 189.29 388.277 191.837 388.277 194.979C388.277 198.122 385.728 200.669 382.583 200.669C379.439 200.669 376.889 198.122 376.889 194.979Z" fill="#666666"/>
<path d="M349.217 195.07C347.486 194.569 346.415 193.022 346.825 191.588C347.235 190.154 348.966 189.403 350.697 189.904C352.428 190.405 353.499 191.952 353.089 193.386C352.679 194.82 350.925 195.571 349.217 195.07Z" fill="white"/>
<path fill-rule="evenodd" clip-rule="evenodd" d="M347.914 191.909C347.731 192.543 348.19 193.599 349.52 193.982C350.851 194.364 351.801 193.714 351.984 193.08C352.167 192.446 351.708 191.39 350.377 191.008C349.047 190.625 348.096 191.275 347.914 191.909ZM348.89 196.168C346.763 195.557 345.086 193.496 345.725 191.279C346.364 189.063 348.881 188.209 351.008 188.821C353.134 189.433 354.811 191.494 354.173 193.71C353.534 195.926 351.017 196.78 348.89 196.168Z" fill="#666666"/>
<path d="M405.245 203.787C405.883 205.448 405.291 207.223 403.924 207.746C402.558 208.27 400.94 207.359 400.303 205.698C399.665 204.037 400.257 202.262 401.624 201.738C402.967 201.192 404.607 202.125 405.245 203.787Z" fill="white"/>
<path fill-rule="evenodd" clip-rule="evenodd" d="M402.017 202.785C401.427 203.012 400.869 203.986 401.359 205.257C401.848 206.528 402.916 206.877 403.506 206.651C404.096 206.424 404.654 205.449 404.165 204.178C403.675 202.908 402.608 202.558 402.017 202.785ZM399.233 206.074C398.449 204.037 399.066 201.481 401.199 200.661C403.333 199.841 405.506 201.324 406.29 203.361C407.075 205.398 406.457 207.954 404.324 208.775C402.19 209.595 400.018 208.112 399.233 206.074Z" fill="#666666"/>
<path d="M377.436 181.165L374.384 185.671L379.645 186.786L382.674 181.165H377.436Z" fill="#EFEFEF"/>
<path fill-rule="evenodd" clip-rule="evenodd" d="M376.776 180.719C376.924 180.5 377.171 180.369 377.436 180.369H382.674C382.955 180.369 383.215 180.517 383.359 180.757C383.503 180.998 383.509 181.296 383.376 181.543L380.347 187.164C380.179 187.476 379.826 187.639 379.48 187.566L374.219 186.451C373.959 186.396 373.744 186.215 373.645 185.97C373.546 185.724 373.575 185.445 373.724 185.225L376.776 180.719ZM377.859 181.962L375.708 185.138L379.226 185.884L381.34 181.962H377.859Z" fill="#666666"/>
<path d="M389.165 181.165L392.946 185.671L386.455 186.786L382.674 181.165H389.165Z" fill="#EFEFEF"/>
<path fill-rule="evenodd" clip-rule="evenodd" d="M381.971 180.791C382.109 180.531 382.38 180.369 382.674 180.369H389.165C389.401 180.369 389.625 180.473 389.776 180.654L393.557 185.16C393.74 185.378 393.793 185.678 393.695 185.946C393.596 186.214 393.362 186.408 393.081 186.457L386.59 187.572C386.281 187.625 385.969 187.492 385.793 187.231L382.013 181.61C381.848 181.366 381.832 181.051 381.971 180.791ZM384.171 181.962L386.829 185.914L391.444 185.121L388.793 181.962H384.171Z" fill="#666666"/>
<path d="M373.131 243.521C372.516 243.043 371.719 242.77 370.854 242.838C369.191 242.952 367.87 244.34 367.802 246.002C367.733 247.891 369.237 249.211 371.104 249.211H374.976C375.887 249.211 376.639 248.46 376.639 247.549V241.223L373.131 243.521Z" fill="white"/>
<path fill-rule="evenodd" clip-rule="evenodd" d="M377.234 240.121C377.639 240.34 377.891 240.762 377.891 241.222V247.549C377.891 249.151 376.579 250.462 374.976 250.462H371.104C368.643 250.462 366.452 248.665 366.55 245.956L366.55 245.95C366.644 243.668 368.45 241.751 370.761 241.59C371.61 241.524 372.412 241.697 373.109 242.039L375.952 240.176C376.337 239.923 376.829 239.902 377.234 240.121ZM375.386 243.54L373.818 244.568C373.37 244.861 372.785 244.838 372.362 244.509C371.979 244.211 371.488 244.044 370.952 244.086L370.939 244.087C369.93 244.156 369.098 245.013 369.053 246.05C369.016 247.118 369.831 247.959 371.104 247.959H374.976C375.195 247.959 375.386 247.768 375.386 247.549V243.54Z" fill="#666666"/>
<path fill-rule="evenodd" clip-rule="evenodd" d="M371.511 243.534C371.617 243.306 371.888 243.207 372.116 243.313L371.924 243.726C372.116 243.313 372.117 243.313 372.117 243.313L372.117 243.314L372.118 243.314L372.12 243.315L372.126 243.318C372.131 243.32 372.136 243.323 372.143 243.326C372.157 243.333 372.176 243.343 372.198 243.355C372.243 243.379 372.304 243.415 372.376 243.461C372.519 243.554 372.709 243.695 372.895 243.888C373.27 244.276 373.647 244.896 373.562 245.751C373.537 246.001 373.313 246.184 373.063 246.159C372.813 246.134 372.63 245.911 372.655 245.66C372.706 245.15 372.491 244.78 372.24 244.52C372.113 244.388 371.981 244.29 371.88 244.225C371.831 244.193 371.79 244.169 371.763 244.155C371.75 244.148 371.74 244.143 371.735 244.14L371.73 244.137C371.503 244.031 371.405 243.761 371.511 243.534Z" fill="#666666"/>
<path fill-rule="evenodd" clip-rule="evenodd" d="M416.369 106.296C416.959 106.516 417.259 107.171 417.04 107.76C416.627 108.868 416.079 109.723 415.391 110.356C414.698 110.993 413.919 111.352 413.126 111.546C412.349 111.736 411.555 111.768 410.823 111.758C410.455 111.754 410.086 111.738 409.736 111.722L409.717 111.722C409.368 111.706 409.037 111.692 408.711 111.687C408.704 111.686 408.697 111.686 408.689 111.686C394.866 111.197 388.81 112.012 386.239 112.866C385.381 113.151 385.022 113.404 384.884 113.53C384.975 113.977 384.79 114.454 384.382 114.715C383.853 115.055 383.148 114.901 382.809 114.372L383.768 113.758C382.809 114.372 382.808 114.37 382.806 114.368L382.803 114.363L382.797 114.354C382.793 114.347 382.789 114.34 382.785 114.333C382.776 114.318 382.767 114.302 382.757 114.284C382.738 114.248 382.717 114.205 382.696 114.156C382.654 114.057 382.611 113.928 382.584 113.774C382.528 113.452 382.551 113.05 382.752 112.629C383.136 111.823 384.041 111.198 385.521 110.706C388.518 109.711 394.941 108.923 408.759 109.411C409.113 109.417 409.467 109.433 409.803 109.447L409.835 109.449C410.19 109.464 410.525 109.479 410.853 109.483C411.514 109.492 412.083 109.458 412.584 109.336C413.069 109.217 413.485 109.016 413.849 108.681C414.218 108.342 414.589 107.815 414.905 106.966C415.124 106.377 415.78 106.077 416.369 106.296Z" fill="#666666"/>
<path d="M387.389 195.844H377.96C377.96 195.844 378.643 199.53 382.515 199.53C386.387 199.53 387.389 195.844 387.389 195.844Z" fill="#4BB9F7"/>
<path fill-rule="evenodd" clip-rule="evenodd" d="M382.538 191.566C380.651 191.566 379.121 193.094 379.121 194.979C379.121 196.865 380.651 198.393 382.538 198.393C384.424 198.393 385.954 196.865 385.954 194.979C385.954 193.094 384.424 191.566 382.538 191.566ZM376.844 194.979C376.844 191.837 379.393 189.29 382.538 189.29C385.682 189.29 388.232 191.837 388.232 194.979C388.232 198.122 385.682 200.669 382.538 200.669C379.393 200.669 376.844 198.122 376.844 194.979Z" fill="#666666"/>
<path d="M128.564 311.008C127.65 311.008 126.912 310.943 126.352 310.812C125.792 310.681 125.354 310.448 125.036 310.112C124.738 309.795 124.532 309.356 124.42 308.796C124.308 308.236 124.252 307.517 124.252 306.64V291.156C124.252 290.279 124.308 289.56 124.42 289C124.532 288.44 124.738 288.001 125.036 287.684C125.354 287.348 125.792 287.124 126.352 287.012C126.912 286.881 127.65 286.816 128.564 286.816H137.552C137.963 286.816 138.299 286.891 138.56 287.04C138.84 287.189 139.064 287.376 139.232 287.6C139.4 287.824 139.522 288.076 139.596 288.356C139.671 288.636 139.708 288.907 139.708 289.168C139.708 289.448 139.671 289.728 139.596 290.008C139.522 290.288 139.4 290.54 139.232 290.764C139.064 290.988 138.84 291.175 138.56 291.324C138.28 291.473 137.944 291.548 137.552 291.548H130.608C130.347 291.548 130.16 291.604 130.048 291.716C129.936 291.828 129.88 292.043 129.88 292.36V305.52C129.88 305.837 129.936 306.052 130.048 306.164C130.16 306.276 130.347 306.332 130.608 306.332H139.316C139.727 306.332 140.063 306.407 140.324 306.556C140.604 306.705 140.819 306.892 140.968 307.116C141.136 307.34 141.248 307.592 141.304 307.872C141.379 308.152 141.416 308.423 141.416 308.684C141.416 308.964 141.379 309.244 141.304 309.524C141.248 309.785 141.136 310.028 140.968 310.252C140.8 310.476 140.576 310.653 140.296 310.784C140.035 310.933 139.708 311.008 139.316 311.008H128.564ZM143.236 312.128V288.608C143.236 287.693 143.516 287.003 144.076 286.536C144.636 286.069 145.29 285.836 146.036 285.836C146.783 285.836 147.436 286.069 147.996 286.536C148.556 287.003 148.836 287.693 148.836 288.608V312.128H143.236ZM156.2 310.924C155.379 310.924 154.707 310.849 154.184 310.7C153.662 310.551 153.251 310.308 152.952 309.972C152.654 309.636 152.439 309.207 152.308 308.684C152.196 308.143 152.14 307.489 152.14 306.724V289.336C152.14 288.384 152.392 287.693 152.896 287.264C153.419 286.835 154.091 286.62 154.912 286.62C155.715 286.62 156.359 286.844 156.844 287.292C157.33 287.721 157.572 288.403 157.572 289.336V293.676H162.304V289.336C162.304 288.384 162.547 287.693 163.032 287.264C163.536 286.835 164.19 286.62 164.992 286.62C165.814 286.62 166.467 286.844 166.952 287.292C167.438 287.721 167.68 288.403 167.68 289.336V310.924H156.2ZM170.48 288.552C170.48 287.656 170.76 286.984 171.32 286.536C171.88 286.069 172.524 285.836 173.252 285.836C173.607 285.836 173.952 285.901 174.288 286.032C174.624 286.144 174.914 286.312 175.156 286.536C175.418 286.76 175.623 287.04 175.772 287.376C175.94 287.712 176.024 288.104 176.024 288.552V295.636H176.948C177.378 295.636 177.732 295.711 178.012 295.86C178.292 296.009 178.516 296.205 178.684 296.448C178.852 296.672 178.974 296.933 179.048 297.232C179.123 297.512 179.16 297.792 179.16 298.072C179.16 298.352 179.123 298.641 179.048 298.94C178.974 299.22 178.852 299.481 178.684 299.724C178.516 299.948 178.283 300.135 177.984 300.284C177.704 300.433 177.359 300.508 176.948 300.508H176.024V312.128H170.48V288.552ZM162.304 306.36V298.184H157.572V305.632C157.572 305.949 157.619 306.155 157.712 306.248C157.824 306.323 158.039 306.36 158.356 306.36H162.304ZM180.112 293.872C180.112 292.64 180.308 291.557 180.7 290.624C181.092 289.672 181.634 288.879 182.324 288.244C183.034 287.591 183.874 287.105 184.844 286.788C185.815 286.452 186.888 286.284 188.064 286.284C189.24 286.284 190.314 286.452 191.284 286.788C192.255 287.105 193.095 287.581 193.804 288.216C194.514 288.851 195.064 289.644 195.456 290.596C195.848 291.548 196.044 292.64 196.044 293.872V304.008C196.044 305.24 195.848 306.332 195.456 307.284C195.064 308.236 194.514 309.029 193.804 309.664C193.114 310.299 192.274 310.775 191.284 311.092C190.314 311.428 189.25 311.596 188.092 311.596C186.916 311.596 185.843 311.428 184.872 311.092C183.902 310.775 183.062 310.299 182.352 309.664C181.643 309.029 181.092 308.236 180.7 307.284C180.308 306.332 180.112 305.24 180.112 304.008V293.872ZM185.656 304.12C185.656 305.072 185.88 305.791 186.328 306.276C186.795 306.743 187.374 306.976 188.064 306.976C188.755 306.976 189.334 306.743 189.8 306.276C190.267 305.791 190.5 305.072 190.5 304.12V293.76C190.5 292.808 190.267 292.089 189.8 291.604C189.334 291.119 188.755 290.885 188.064 290.904C187.374 290.923 186.795 291.175 186.328 291.66C185.88 292.127 185.656 292.827 185.656 293.76V304.12ZM199.236 312.128V288.608C199.236 287.693 199.516 287.003 200.076 286.536C200.636 286.069 201.29 285.836 202.036 285.836C202.783 285.836 203.436 286.069 203.996 286.536C204.556 287.003 204.836 287.693 204.836 288.608V312.128H199.236ZM223.316 289.196C223.298 290.036 223.167 290.895 222.924 291.772C224.1 291.809 225.267 292.043 226.424 292.472C227.582 292.901 228.627 293.545 229.56 294.404C230.494 295.263 231.268 296.345 231.884 297.652C232.519 298.959 232.902 300.508 233.032 302.3H227.348C227.218 301.348 226.956 300.499 226.564 299.752C226.172 298.987 225.678 298.352 225.08 297.848C224.502 297.325 223.839 296.933 223.092 296.672C222.346 296.411 221.552 296.289 220.712 296.308C220.078 297.185 219.359 297.988 218.556 298.716C217.754 299.444 216.904 300.069 216.008 300.592C215.131 301.115 214.216 301.525 213.264 301.824C212.331 302.123 211.407 302.281 210.492 302.3C209.802 302.319 209.204 302.141 208.7 301.768C208.196 301.376 207.907 300.835 207.832 300.144C207.758 299.472 207.898 298.884 208.252 298.38C208.607 297.876 209.139 297.549 209.848 297.4C210.763 297.195 211.65 296.849 212.508 296.364C213.386 295.879 214.17 295.272 214.86 294.544C215.551 293.797 216.13 292.939 216.596 291.968C217.063 290.997 217.371 289.924 217.52 288.748C217.632 287.852 217.987 287.199 218.584 286.788C219.2 286.359 219.9 286.172 220.684 286.228C221.506 286.303 222.159 286.592 222.644 287.096C223.13 287.6 223.354 288.3 223.316 289.196ZM231.184 306.836C231.614 306.836 231.978 306.911 232.276 307.06C232.594 307.191 232.846 307.368 233.032 307.592C233.238 307.816 233.378 308.077 233.452 308.376C233.546 308.656 233.592 308.936 233.592 309.216C233.592 309.515 233.546 309.804 233.452 310.084C233.359 310.364 233.21 310.616 233.004 310.84C232.818 311.064 232.575 311.241 232.276 311.372C231.978 311.503 231.614 311.568 231.184 311.568H209.792C209.363 311.568 208.999 311.503 208.7 311.372C208.402 311.241 208.15 311.064 207.944 310.84C207.758 310.616 207.618 310.364 207.524 310.084C207.431 309.804 207.384 309.515 207.384 309.216C207.384 308.936 207.422 308.656 207.496 308.376C207.59 308.077 207.73 307.816 207.916 307.592C208.122 307.368 208.374 307.191 208.672 307.06C208.99 306.911 209.363 306.836 209.792 306.836H231.184ZM237.848 306.36C238.95 306.229 239.967 305.996 240.9 305.66C241.852 305.324 242.664 304.811 243.336 304.12C244.027 303.429 244.568 302.524 244.96 301.404C245.352 300.265 245.548 298.837 245.548 297.12V292.444C245.548 292.239 245.483 292.071 245.352 291.94C245.24 291.809 245.072 291.744 244.848 291.744H238.464C238.035 291.744 237.671 291.669 237.372 291.52C237.092 291.371 236.85 291.184 236.644 290.96C236.458 290.717 236.318 290.456 236.224 290.176C236.15 289.877 236.112 289.588 236.112 289.308C236.112 289.028 236.15 288.748 236.224 288.468C236.318 288.169 236.458 287.908 236.644 287.684C236.831 287.46 237.074 287.273 237.372 287.124C237.671 286.975 238.035 286.9 238.464 286.9H246.696C248.283 286.9 249.412 287.255 250.084 287.964C250.756 288.673 251.092 289.681 251.092 290.988V297.148C251.092 299.631 250.775 301.731 250.14 303.448C249.506 305.165 248.619 306.575 247.48 307.676C246.36 308.759 245.026 309.561 243.476 310.084C241.946 310.607 240.275 310.915 238.464 311.008C238.128 311.027 237.792 310.989 237.456 310.896C237.139 310.803 236.85 310.653 236.588 310.448C236.346 310.243 236.15 309.991 236 309.692C235.851 309.375 235.776 309.011 235.776 308.6C235.776 308.003 235.944 307.508 236.28 307.116C236.616 306.705 237.139 306.453 237.848 306.36ZM254.48 288.552C254.48 287.656 254.76 286.984 255.32 286.536C255.88 286.069 256.524 285.836 257.252 285.836C257.607 285.836 257.952 285.901 258.288 286.032C258.624 286.144 258.914 286.312 259.156 286.536C259.418 286.76 259.623 287.04 259.772 287.376C259.94 287.712 260.024 288.104 260.024 288.552V295.636H260.948C261.378 295.636 261.732 295.711 262.012 295.86C262.292 296.009 262.516 296.205 262.684 296.448C262.852 296.672 262.974 296.933 263.048 297.232C263.123 297.512 263.16 297.792 263.16 298.072C263.16 298.352 263.123 298.641 263.048 298.94C262.974 299.22 262.852 299.481 262.684 299.724C262.516 299.948 262.283 300.135 261.984 300.284C261.704 300.433 261.359 300.508 260.948 300.508H260.024V312.128H254.48V288.552ZM271.848 292.584C271.848 291.445 272.035 290.475 272.408 289.672C272.8 288.869 273.341 288.216 274.032 287.712C274.723 287.189 275.544 286.816 276.496 286.592C277.467 286.349 278.531 286.228 279.688 286.228C281.704 286.228 283.384 286.601 284.728 287.348C286.072 288.076 286.912 289.261 287.248 290.904H291.112V288.552C291.112 287.656 291.392 286.984 291.952 286.536C292.512 286.069 293.156 285.836 293.884 285.836C294.239 285.836 294.584 285.901 294.92 286.032C295.256 286.144 295.555 286.312 295.816 286.536C296.077 286.76 296.283 287.04 296.432 287.376C296.6 287.712 296.684 288.104 296.684 288.552V300.032H291.112V295.272H287.22C286.847 296.877 285.988 298.035 284.644 298.744C283.319 299.453 281.667 299.808 279.688 299.808C278.512 299.808 277.439 299.696 276.468 299.472C275.497 299.229 274.667 298.856 273.976 298.352C273.304 297.829 272.781 297.167 272.408 296.364C272.035 295.561 271.848 294.591 271.848 293.452V292.584ZM275.964 312.128C275.292 312.128 274.732 312.063 274.284 311.932C273.855 311.82 273.519 311.624 273.276 311.344C273.033 311.064 272.865 310.7 272.772 310.252C272.679 309.823 272.632 309.281 272.632 308.628V303.056C272.632 302.216 272.837 301.637 273.248 301.32C273.659 300.984 274.219 300.816 274.928 300.816C275.619 300.816 276.16 300.984 276.552 301.32C276.944 301.656 277.149 302.216 277.168 303H280.192C280.192 302.197 280.388 301.637 280.78 301.32C281.172 300.984 281.723 300.816 282.432 300.816C283.141 300.816 283.683 300.984 284.056 301.32C284.448 301.656 284.644 302.235 284.644 303.056V312.128H275.964ZM286.324 308.432C286.791 308.264 287.201 308.04 287.556 307.76C287.911 307.48 288.2 307.135 288.424 306.724C288.667 306.295 288.853 305.791 288.984 305.212C289.115 304.615 289.189 303.905 289.208 303.084C289.227 302.263 289.479 301.675 289.964 301.32C290.468 300.947 291.075 300.76 291.784 300.76C292.512 300.76 293.091 300.965 293.52 301.376C293.968 301.768 294.192 302.365 294.192 303.168C294.192 303.504 294.173 303.831 294.136 304.148C294.117 304.447 294.089 304.745 294.052 305.044C295.489 305.324 296.591 306.024 297.356 307.144C298.121 308.264 298.467 309.925 298.392 312.128H293.464C293.613 311.363 293.632 310.709 293.52 310.168C293.427 309.627 293.184 309.216 292.792 308.936C292.157 310.019 291.373 310.849 290.44 311.428C289.525 312.025 288.564 312.371 287.556 312.464C286.884 312.52 286.333 312.408 285.904 312.128C285.475 311.867 285.204 311.493 285.092 311.008C284.98 310.467 285.008 309.963 285.176 309.496C285.363 309.011 285.745 308.656 286.324 308.432ZM277.308 293.732C277.308 294.441 277.523 294.973 277.952 295.328C278.4 295.664 278.979 295.832 279.688 295.832C280.397 295.832 280.967 295.664 281.396 295.328C281.844 294.973 282.068 294.441 282.068 293.732V292.304C282.068 291.595 281.844 291.072 281.396 290.736C280.967 290.381 280.397 290.204 279.688 290.204C278.979 290.204 278.4 290.381 277.952 290.736C277.523 291.072 277.308 291.595 277.308 292.304V293.732ZM280.192 308.656V306.416H277.168V308.012C277.168 308.292 277.205 308.469 277.28 308.544C277.355 308.619 277.532 308.656 277.812 308.656H280.192ZM303.348 301.684C303.964 301.684 304.533 301.833 305.056 302.132C305.579 302.431 305.915 302.907 306.064 303.56H318.58C318.711 302.851 319.037 302.365 319.56 302.104C320.083 301.824 320.68 301.684 321.352 301.684C321.707 301.684 322.052 301.731 322.388 301.824C322.724 301.899 323.023 302.029 323.284 302.216C323.564 302.403 323.779 302.655 323.928 302.972C324.096 303.271 324.18 303.644 324.18 304.092V312.128H304.496C303.656 312.128 302.975 312.053 302.452 311.904C301.929 311.773 301.519 311.54 301.22 311.204C300.94 310.887 300.744 310.457 300.632 309.916C300.539 309.375 300.492 308.693 300.492 307.872V304.092C300.492 303.644 300.567 303.271 300.716 302.972C300.884 302.655 301.099 302.403 301.36 302.216C301.621 302.029 301.92 301.899 302.256 301.824C302.611 301.731 302.975 301.684 303.348 301.684ZM314.968 288.412C314.968 288.468 314.959 288.524 314.94 288.58C314.94 288.617 314.94 288.655 314.94 288.692C316.023 288.636 317.096 288.729 318.16 288.972C319.224 289.196 320.195 289.597 321.072 290.176C321.968 290.736 322.733 291.492 323.368 292.444C324.003 293.377 324.451 294.525 324.712 295.888H319.028C318.804 295.272 318.468 294.74 318.02 294.292C317.591 293.844 317.087 293.499 316.508 293.256C315.948 292.995 315.323 292.836 314.632 292.78C313.941 292.724 313.232 292.761 312.504 292.892C311.888 293.433 311.179 293.909 310.376 294.32C309.592 294.731 308.761 295.067 307.884 295.328C307.007 295.589 306.101 295.776 305.168 295.888C304.235 296 303.311 296.019 302.396 295.944C301.556 295.888 300.931 295.645 300.52 295.216C300.128 294.768 299.941 294.264 299.96 293.704C299.96 293.424 300.016 293.144 300.128 292.864C300.24 292.584 300.399 292.341 300.604 292.136C300.828 291.912 301.099 291.744 301.416 291.632C301.733 291.501 302.107 291.436 302.536 291.436C303.208 291.455 303.908 291.38 304.636 291.212C305.383 291.044 306.064 290.801 306.68 290.484C307.315 290.167 307.865 289.784 308.332 289.336C308.799 288.888 309.107 288.384 309.256 287.824C309.48 286.965 309.9 286.359 310.516 286.004C311.151 285.649 311.851 285.519 312.616 285.612C313.363 285.705 313.951 285.967 314.38 286.396C314.828 286.825 315.024 287.497 314.968 288.412ZM323.256 296.784C324.059 296.784 324.619 296.999 324.936 297.428C325.272 297.839 325.44 298.305 325.44 298.828C325.44 299.369 325.272 299.845 324.936 300.256C324.6 300.667 324.04 300.872 323.256 300.872H301.416C300.632 300.872 300.072 300.667 299.736 300.256C299.4 299.845 299.232 299.369 299.232 298.828C299.232 298.305 299.391 297.839 299.708 297.428C300.044 296.999 300.613 296.784 301.416 296.784H323.256ZM318.552 308.488V307.004H306.12V307.62C306.12 307.9 306.176 308.115 306.288 308.264C306.419 308.413 306.652 308.488 306.988 308.488H318.552ZM343.164 305.996C343.575 305.996 343.911 306.071 344.172 306.22C344.452 306.351 344.667 306.528 344.816 306.752C344.984 306.976 345.096 307.228 345.152 307.508C345.227 307.788 345.264 308.059 345.264 308.32C345.264 308.6 345.227 308.88 345.152 309.16C345.096 309.44 344.984 309.701 344.816 309.944C344.648 310.168 344.424 310.355 344.144 310.504C343.883 310.653 343.556 310.728 343.164 310.728H332.412C331.572 310.728 330.872 310.644 330.312 310.476C329.771 310.327 329.332 310.084 328.996 309.748C328.679 309.393 328.455 308.945 328.324 308.404C328.193 307.844 328.128 307.163 328.128 306.36V289.672C328.128 289.205 328.203 288.804 328.352 288.468C328.52 288.113 328.735 287.824 328.996 287.6C329.257 287.376 329.556 287.217 329.892 287.124C330.247 287.012 330.611 286.956 330.984 286.956C331.768 286.956 332.421 287.18 332.944 287.628C333.485 288.057 333.756 288.739 333.756 289.672V305.212C333.756 305.529 333.812 305.744 333.924 305.856C334.036 305.949 334.251 305.996 334.568 305.996H343.164ZM347.084 312.128V288.608C347.084 287.693 347.364 287.003 347.924 286.536C348.484 286.069 349.137 285.836 349.884 285.836C350.631 285.836 351.284 286.069 351.844 286.536C352.404 287.003 352.684 287.693 352.684 288.608V312.128H347.084ZM360.412 311.008C359.497 311.008 358.76 310.943 358.2 310.812C357.64 310.681 357.201 310.448 356.884 310.112C356.585 309.795 356.38 309.356 356.268 308.796C356.156 308.236 356.1 307.517 356.1 306.64V291.156C356.1 290.279 356.156 289.56 356.268 289C356.38 288.44 356.585 288.001 356.884 287.684C357.201 287.348 357.64 287.124 358.2 287.012C358.76 286.881 359.497 286.816 360.412 286.816H369.316C369.727 286.816 370.063 286.891 370.324 287.04C370.604 287.189 370.819 287.376 370.968 287.6C371.136 287.824 371.248 288.076 371.304 288.356C371.379 288.636 371.416 288.907 371.416 289.168C371.416 289.448 371.379 289.728 371.304 290.008C371.248 290.288 371.136 290.54 370.968 290.764C370.8 290.988 370.576 291.175 370.296 291.324C370.035 291.473 369.708 291.548 369.316 291.548H362.344C362.083 291.548 361.896 291.604 361.784 291.716C361.672 291.828 361.616 292.043 361.616 292.36V305.52C361.616 305.837 361.672 306.052 361.784 306.164C361.896 306.276 362.083 306.332 362.344 306.332H370.604C371.015 306.332 371.351 306.407 371.612 306.556C371.892 306.705 372.107 306.892 372.256 307.116C372.424 307.34 372.536 307.592 372.592 307.872C372.667 308.152 372.704 308.423 372.704 308.684C372.704 308.964 372.667 309.244 372.592 309.524C372.536 309.785 372.424 310.028 372.256 310.252C372.088 310.476 371.864 310.653 371.584 310.784C371.323 310.933 370.996 311.008 370.604 311.008H360.412ZM374.328 288.552C374.328 287.656 374.608 286.984 375.168 286.536C375.728 286.069 376.372 285.836 377.1 285.836C377.455 285.836 377.8 285.901 378.136 286.032C378.472 286.144 378.761 286.312 379.004 286.536C379.265 286.76 379.471 287.04 379.62 287.376C379.788 287.712 379.872 288.104 379.872 288.552V295.636H380.796C381.225 295.636 381.58 295.711 381.86 295.86C382.14 296.009 382.364 296.205 382.532 296.448C382.7 296.672 382.821 296.933 382.896 297.232C382.971 297.512 383.008 297.792 383.008 298.072C383.008 298.352 382.971 298.641 382.896 298.94C382.821 299.22 382.7 299.481 382.532 299.724C382.364 299.948 382.131 300.135 381.832 300.284C381.552 300.433 381.207 300.508 380.796 300.508H379.872V312.128H374.328V288.552ZM383.428 307.76C383.428 306.883 383.689 306.192 384.212 305.688C384.735 305.184 385.472 304.932 386.424 304.932C387.376 304.932 388.113 305.193 388.636 305.716C389.159 306.22 389.42 306.901 389.42 307.76C389.42 308.619 389.159 309.309 388.636 309.832C388.113 310.336 387.376 310.588 386.424 310.588C385.472 310.588 384.735 310.336 384.212 309.832C383.689 309.328 383.428 308.637 383.428 307.76ZM0.931094 328.94C0.931094 328.66 0.968427 328.38 1.04309 328.1C1.13643 327.82 1.26709 327.568 1.43509 327.344C1.62176 327.12 1.85509 326.943 2.13509 326.812C2.43376 326.663 2.78843 326.588 3.19909 326.588H6.22309V323.648C6.22309 322.733 6.47509 322.061 6.97909 321.632C7.50176 321.203 8.10843 320.988 8.79909 320.988C9.48976 320.988 10.0871 321.203 10.5911 321.632C11.1138 322.061 11.3751 322.733 11.3751 323.648V326.588H14.3991C14.8098 326.588 15.1551 326.663 15.4351 326.812C15.7338 326.943 15.9671 327.12 16.1351 327.344C16.3218 327.568 16.4524 327.82 16.5271 328.1C16.6204 328.38 16.6671 328.66 16.6671 328.94C16.6671 329.22 16.6204 329.509 16.5271 329.808C16.4524 330.088 16.3218 330.349 16.1351 330.592C15.9484 330.816 15.7151 331.003 15.4351 331.152C15.1551 331.301 14.8098 331.376 14.3991 331.376H11.3751V334.316C11.3751 335.231 11.1138 335.903 10.5911 336.332C10.0871 336.761 9.48976 336.976 8.79909 336.976C8.10843 336.976 7.50176 336.761 6.97909 336.332C6.47509 335.903 6.22309 335.231 6.22309 334.316V331.376H3.19909C2.78843 331.376 2.43376 331.301 2.13509 331.152C1.85509 331.003 1.62176 330.816 1.43509 330.592C1.26709 330.349 1.13643 330.088 1.04309 329.808C0.968427 329.509 0.931094 329.22 0.931094 328.94ZM30.8305 340.924C30.0092 340.924 29.3372 340.849 28.8145 340.7C28.2918 340.551 27.8812 340.308 27.5825 339.972C27.2838 339.636 27.0692 339.207 26.9385 338.684C26.8265 338.143 26.7705 337.489 26.7705 336.724V319.532C26.7705 318.543 27.0318 317.833 27.5545 317.404C28.0772 316.975 28.7492 316.76 29.5705 316.76C30.3732 316.76 31.0172 316.984 31.5025 317.432C32.0065 317.861 32.2585 318.561 32.2585 319.532V323.816H37.0185V319.532C37.0185 318.543 37.2705 317.833 37.7745 317.404C38.2785 316.975 38.9318 316.76 39.7345 316.76C40.5558 316.76 41.2092 316.984 41.6945 317.432C42.1985 317.861 42.4505 318.561 42.4505 319.532V325.804H45.8385V318.552C45.8385 317.656 46.1185 316.984 46.6785 316.536C47.2385 316.069 47.8825 315.836 48.6105 315.836C48.9652 315.836 49.3105 315.901 49.6465 316.032C49.9825 316.144 50.2812 316.312 50.5425 316.536C50.8038 316.76 51.0092 317.04 51.1585 317.376C51.3265 317.712 51.4105 318.104 51.4105 318.552V342.128H45.8385V330.592H42.4505V340.924H30.8305ZM37.0185 336.304V328.38H32.2585V335.576C32.2585 335.893 32.3052 336.099 32.3985 336.192C32.5105 336.267 32.7252 336.304 33.0425 336.304H37.0185ZM59.3625 342.128C58.5785 342.128 57.9252 342.053 57.4025 341.904C56.8798 341.773 56.4692 341.549 56.1705 341.232C55.8718 340.915 55.6572 340.504 55.5265 340C55.4145 339.477 55.3585 338.833 55.3585 338.068V336.584C55.3585 335.632 55.6478 334.969 56.2265 334.596C56.8052 334.204 57.4865 334.008 58.2705 334.008C59.0545 334.008 59.7172 334.204 60.2585 334.596C60.8185 334.988 61.0985 335.651 61.0985 336.584V337.34C61.0985 337.583 61.1358 337.741 61.2105 337.816C61.2852 337.872 61.4532 337.9 61.7145 337.9H76.9465C77.8052 337.9 78.4118 338.115 78.7665 338.544C79.1212 338.955 79.2985 339.44 79.2985 340C79.2985 340.579 79.1118 341.073 78.7385 341.484C78.3838 341.913 77.7865 342.128 76.9465 342.128H59.3625ZM77.9825 329.052C78.3745 329.052 78.7105 329.117 78.9905 329.248C79.2705 329.36 79.4945 329.519 79.6625 329.724C79.8492 329.929 79.9798 330.163 80.0545 330.424C80.1292 330.667 80.1665 330.919 80.1665 331.18C80.1665 331.721 79.9985 332.216 79.6625 332.664C79.3265 333.093 78.7665 333.308 77.9825 333.308H56.1425C55.3585 333.308 54.7985 333.093 54.4625 332.664C54.1265 332.216 53.9585 331.721 53.9585 331.18C53.9585 330.919 53.9958 330.667 54.0705 330.424C54.1452 330.163 54.2665 329.929 54.4345 329.724C54.6212 329.519 54.8545 329.36 55.1345 329.248C55.4145 329.117 55.7505 329.052 56.1425 329.052H77.9825ZM77.3385 316.144C77.9172 316.144 78.3278 316.331 78.5705 316.704C78.8318 317.059 78.9625 317.423 78.9625 317.796C78.9625 318.207 78.8318 318.589 78.5705 318.944C78.3092 319.299 77.8985 319.476 77.3385 319.476H61.2665C60.8932 319.476 60.7065 319.635 60.7065 319.952V320.54H77.1985C77.7958 320.54 78.2065 320.699 78.4305 321.016C78.6732 321.333 78.7945 321.679 78.7945 322.052C78.7945 322.444 78.6732 322.799 78.4305 323.116C78.2065 323.433 77.7958 323.592 77.1985 323.592H60.7065V324.152C60.7065 324.357 60.7438 324.497 60.8185 324.572C60.9118 324.628 61.0612 324.656 61.2665 324.656H77.7025C78.2625 324.656 78.6638 324.833 78.9065 325.188C79.1492 325.543 79.2705 325.897 79.2705 326.252C79.2705 326.681 79.1398 327.073 78.8785 327.428C78.6358 327.764 78.2438 327.932 77.7025 327.932H58.4105C57.1972 327.932 56.3478 327.68 55.8625 327.176C55.3772 326.672 55.1345 325.86 55.1345 324.74V319.364C55.1345 318.225 55.3772 317.404 55.8625 316.9C56.3478 316.396 57.1972 316.144 58.4105 316.144H77.3385ZM107.271 320.624C107.271 321.259 107.168 321.856 106.963 322.416C106.757 322.957 106.44 323.433 106.011 323.844C105.6 324.236 105.077 324.553 104.443 324.796C103.808 325.02 103.052 325.132 102.175 325.132H87.9505C87.0732 325.132 86.3172 325.02 85.6825 324.796C85.0478 324.553 84.5158 324.236 84.0865 323.844C83.6758 323.433 83.3678 322.957 83.1625 322.416C82.9572 321.856 82.8545 321.259 82.8545 320.624C82.8545 319.989 82.9572 319.401 83.1625 318.86C83.3678 318.319 83.6758 317.843 84.0865 317.432C84.5158 317.021 85.0478 316.704 85.6825 316.48C86.3172 316.237 87.0732 316.116 87.9505 316.116H102.175C103.052 316.116 103.808 316.237 104.443 316.48C105.077 316.704 105.6 317.021 106.011 317.432C106.44 317.843 106.757 318.319 106.963 318.86C107.168 319.401 107.271 319.989 107.271 320.624ZM101.531 320.624C101.531 320.363 101.447 320.157 101.279 320.008C101.129 319.84 100.84 319.756 100.411 319.756H89.7145C89.2852 319.756 88.9865 319.84 88.8185 320.008C88.6692 320.157 88.5945 320.363 88.5945 320.624C88.5945 320.885 88.6692 321.1 88.8185 321.268C88.9865 321.417 89.2852 321.492 89.7145 321.492H100.411C100.84 321.492 101.129 321.417 101.279 321.268C101.447 321.1 101.531 320.885 101.531 320.624ZM86.2705 342.128C85.6732 342.128 85.1505 342.025 84.7025 341.82C84.2545 341.633 83.8812 341.372 83.5825 341.036C83.3025 340.719 83.0878 340.345 82.9385 339.916C82.8078 339.487 82.7425 339.029 82.7425 338.544V338.46C82.7425 337.471 83.0225 336.668 83.5825 336.052C84.1425 335.436 85.0385 335.128 86.2705 335.128H101.251V334.596C101.251 334.297 101.055 334.148 100.663 334.148H84.6185C84.0958 334.148 83.6945 333.989 83.4145 333.672C83.1532 333.336 83.0225 332.981 83.0225 332.608C83.0225 332.235 83.1438 331.88 83.3865 331.544C83.6478 331.208 84.0585 331.04 84.6185 331.04H103.883C105.077 331.04 105.899 331.264 106.347 331.712C106.795 332.141 107.019 332.785 107.019 333.644V338.012H89.2945C89.0892 338.012 88.9492 338.059 88.8745 338.152C88.7998 338.227 88.7625 338.339 88.7625 338.488C88.7625 338.637 88.7998 338.759 88.8745 338.852C88.9492 338.945 89.0892 338.992 89.2945 338.992H106.291C106.832 338.992 107.215 339.16 107.439 339.496C107.681 339.813 107.803 340.168 107.803 340.56C107.803 340.896 107.691 341.241 107.467 341.596C107.243 341.951 106.851 342.128 106.291 342.128H86.2705ZM106.151 326.14C106.897 326.14 107.42 326.336 107.719 326.728C108.017 327.12 108.167 327.559 108.167 328.044C108.167 328.548 108.008 328.996 107.691 329.388C107.392 329.761 106.879 329.948 106.151 329.948H83.9745C83.2465 329.948 82.7238 329.761 82.4065 329.388C82.1078 328.996 81.9585 328.548 81.9585 328.044C81.9585 327.559 82.1078 327.12 82.4065 326.728C82.7052 326.336 83.2278 326.14 83.9745 326.14H106.151ZM122.118 342.128C121.521 342.128 120.998 342.025 120.55 341.82C120.102 341.633 119.729 341.372 119.43 341.036C119.15 340.7 118.935 340.317 118.786 339.888C118.655 339.44 118.59 338.973 118.59 338.488V338.404C118.59 337.415 118.87 336.603 119.43 335.968C119.99 335.333 120.886 335.016 122.118 335.016H137.098V334.428C137.098 334.129 136.902 333.98 136.51 333.98H120.466C119.943 333.98 119.542 333.812 119.262 333.476C119.001 333.14 118.87 332.785 118.87 332.412C118.87 332.039 118.991 331.684 119.234 331.348C119.495 330.993 119.906 330.816 120.466 330.816H128.082V329.556H119.822C119.094 329.556 118.571 329.351 118.254 328.94C117.955 328.529 117.806 328.072 117.806 327.568C117.806 327.325 117.843 327.092 117.918 326.868C117.993 326.625 118.105 326.411 118.254 326.224C118.422 326.037 118.627 325.888 118.87 325.776C119.131 325.645 119.449 325.58 119.822 325.58H141.998C142.371 325.58 142.679 325.645 142.922 325.776C143.183 325.888 143.389 326.037 143.538 326.224C143.706 326.411 143.827 326.625 143.902 326.868C143.977 327.092 144.014 327.325 144.014 327.568C144.014 328.072 143.855 328.529 143.538 328.94C143.239 329.351 142.726 329.556 141.998 329.556H133.738V330.816H139.73C140.925 330.816 141.746 331.04 142.194 331.488C142.642 331.917 142.866 332.561 142.866 333.42V337.9H125.142C124.937 337.9 124.797 337.956 124.722 338.068C124.647 338.161 124.61 338.283 124.61 338.432C124.61 338.581 124.647 338.703 124.722 338.796C124.797 338.889 124.937 338.936 125.142 338.936H142.138C142.679 338.936 143.062 339.104 143.286 339.44C143.529 339.776 143.65 340.14 143.65 340.532C143.65 340.868 143.538 341.213 143.314 341.568C143.09 341.941 142.698 342.128 142.138 342.128H122.118ZM122.874 324.376C122.165 324.376 121.558 324.32 121.054 324.208C120.55 324.077 120.139 323.872 119.822 323.592C119.523 323.312 119.299 322.939 119.15 322.472C119.019 321.987 118.954 321.389 118.954 320.68V318.804C118.954 318.337 119.029 317.936 119.178 317.6C119.346 317.245 119.561 316.956 119.822 316.732C120.102 316.508 120.419 316.34 120.774 316.228C121.129 316.116 121.493 316.06 121.866 316.06C122.631 316.06 123.285 316.284 123.826 316.732C124.386 317.18 124.666 317.871 124.666 318.804V319.728C124.666 320.027 124.713 320.213 124.806 320.288C124.899 320.363 125.105 320.4 125.422 320.4H140.71C141.55 320.4 142.138 320.605 142.474 321.016C142.81 321.408 142.978 321.875 142.978 322.416C142.978 322.976 142.81 323.443 142.474 323.816C142.138 324.189 141.55 324.376 140.71 324.376H122.874ZM152.162 335.184C152.162 335.669 152.255 335.996 152.442 336.164C152.629 336.313 152.965 336.388 153.45 336.388H161.738C162.167 336.388 162.531 336.453 162.83 336.584C163.129 336.715 163.371 336.892 163.558 337.116C163.763 337.321 163.903 337.564 163.978 337.844C164.071 338.105 164.118 338.376 164.118 338.656C164.118 339.235 163.931 339.757 163.558 340.224C163.185 340.709 162.578 340.952 161.738 340.952H151.406C150.529 340.952 149.782 340.868 149.166 340.7C148.55 340.532 148.046 340.261 147.654 339.888C147.281 339.515 147.001 339.029 146.814 338.432C146.646 337.816 146.562 337.069 146.562 336.192V331.096C146.562 330.219 146.646 329.481 146.814 328.884C147.001 328.287 147.281 327.801 147.654 327.428C148.046 327.055 148.55 326.793 149.166 326.644C149.782 326.476 150.529 326.392 151.406 326.392H154.682V322.332C154.682 322.145 154.635 321.968 154.542 321.8C154.449 321.632 154.243 321.548 153.926 321.548H149.222C148.793 321.548 148.429 321.483 148.13 321.352C147.831 321.221 147.589 321.044 147.402 320.82C147.215 320.596 147.075 320.344 146.982 320.064C146.889 319.784 146.842 319.504 146.842 319.224C146.842 318.944 146.879 318.664 146.954 318.384C147.047 318.104 147.187 317.852 147.374 317.628C147.579 317.404 147.831 317.227 148.13 317.096C148.429 316.947 148.793 316.872 149.222 316.872H155.354C156.325 316.872 157.118 316.947 157.734 317.096C158.369 317.245 158.873 317.488 159.246 317.824C159.619 318.16 159.881 318.599 160.03 319.14C160.179 319.681 160.254 320.353 160.254 321.156V330.956H153.45C152.965 330.956 152.629 331.04 152.442 331.208C152.255 331.357 152.162 331.675 152.162 332.16V335.184ZM165.686 330.76H163.362C162.522 330.76 161.934 330.527 161.598 330.06C161.281 329.575 161.122 329.005 161.122 328.352C161.122 328.035 161.159 327.736 161.234 327.456C161.309 327.157 161.43 326.896 161.598 326.672C161.766 326.448 161.99 326.271 162.27 326.14C162.569 326.009 162.933 325.944 163.362 325.944H165.686V318.552C165.686 317.656 165.966 316.984 166.526 316.536C167.086 316.069 167.73 315.836 168.458 315.836C168.813 315.836 169.158 315.901 169.494 316.032C169.83 316.144 170.129 316.312 170.39 316.536C170.651 316.76 170.857 317.04 171.006 317.376C171.174 317.712 171.258 318.104 171.258 318.552V342.128H165.686V330.76ZM186.834 341.008C185.919 341.008 185.182 340.943 184.622 340.812C184.062 340.681 183.623 340.448 183.306 340.112C183.007 339.795 182.802 339.356 182.69 338.796C182.578 338.236 182.522 337.517 182.522 336.64V321.156C182.522 320.279 182.578 319.56 182.69 319C182.802 318.44 183.007 318.001 183.306 317.684C183.623 317.348 184.062 317.124 184.622 317.012C185.182 316.881 185.919 316.816 186.834 316.816H195.822C196.232 316.816 196.568 316.891 196.83 317.04C197.11 317.189 197.334 317.376 197.502 317.6C197.67 317.824 197.791 318.076 197.866 318.356C197.94 318.636 197.978 318.907 197.978 319.168C197.978 319.448 197.94 319.728 197.866 320.008C197.791 320.288 197.67 320.54 197.502 320.764C197.334 320.988 197.11 321.175 196.83 321.324C196.55 321.473 196.214 321.548 195.822 321.548H188.878C188.616 321.548 188.43 321.604 188.318 321.716C188.206 321.828 188.15 322.043 188.15 322.36V335.52C188.15 335.837 188.206 336.052 188.318 336.164C188.43 336.276 188.616 336.332 188.878 336.332H197.586C197.996 336.332 198.332 336.407 198.594 336.556C198.874 336.705 199.088 336.892 199.238 337.116C199.406 337.34 199.518 337.592 199.574 337.872C199.648 338.152 199.686 338.423 199.686 338.684C199.686 338.964 199.648 339.244 199.574 339.524C199.518 339.785 199.406 340.028 199.238 340.252C199.07 340.476 198.846 340.653 198.566 340.784C198.304 340.933 197.978 341.008 197.586 341.008H186.834ZM201.506 342.128V318.608C201.506 317.693 201.786 317.003 202.346 316.536C202.906 316.069 203.559 315.836 204.306 315.836C205.052 315.836 205.706 316.069 206.266 316.536C206.826 317.003 207.106 317.693 207.106 318.608V342.128H201.506ZM214.47 340.924C213.648 340.924 212.976 340.849 212.454 340.7C211.931 340.551 211.52 340.308 211.222 339.972C210.923 339.636 210.708 339.207 210.578 338.684C210.466 338.143 210.41 337.489 210.41 336.724V319.336C210.41 318.384 210.662 317.693 211.166 317.264C211.688 316.835 212.36 316.62 213.182 316.62C213.984 316.62 214.628 316.844 215.114 317.292C215.599 317.721 215.842 318.403 215.842 319.336V323.676H220.574V319.336C220.574 318.384 220.816 317.693 221.302 317.264C221.806 316.835 222.459 316.62 223.262 316.62C224.083 316.62 224.736 316.844 225.222 317.292C225.707 317.721 225.95 318.403 225.95 319.336V340.924H214.47ZM228.75 318.552C228.75 317.656 229.03 316.984 229.59 316.536C230.15 316.069 230.794 315.836 231.522 315.836C231.876 315.836 232.222 315.901 232.558 316.032C232.894 316.144 233.183 316.312 233.426 316.536C233.687 316.76 233.892 317.04 234.042 317.376C234.21 317.712 234.294 318.104 234.294 318.552V325.636H235.218C235.647 325.636 236.002 325.711 236.282 325.86C236.562 326.009 236.786 326.205 236.954 326.448C237.122 326.672 237.243 326.933 237.318 327.232C237.392 327.512 237.43 327.792 237.43 328.072C237.43 328.352 237.392 328.641 237.318 328.94C237.243 329.22 237.122 329.481 236.954 329.724C236.786 329.948 236.552 330.135 236.254 330.284C235.974 330.433 235.628 330.508 235.218 330.508H234.294V342.128H228.75V318.552ZM220.574 336.36V328.184H215.842V335.632C215.842 335.949 215.888 336.155 215.982 336.248C216.094 336.323 216.308 336.36 216.626 336.36H220.574ZM238.382 323.872C238.382 322.64 238.578 321.557 238.97 320.624C239.362 319.672 239.903 318.879 240.594 318.244C241.303 317.591 242.143 317.105 243.114 316.788C244.084 316.452 245.158 316.284 246.334 316.284C247.51 316.284 248.583 316.452 249.554 316.788C250.524 317.105 251.364 317.581 252.074 318.216C252.783 318.851 253.334 319.644 253.726 320.596C254.118 321.548 254.314 322.64 254.314 323.872V334.008C254.314 335.24 254.118 336.332 253.726 337.284C253.334 338.236 252.783 339.029 252.074 339.664C251.383 340.299 250.543 340.775 249.554 341.092C248.583 341.428 247.519 341.596 246.362 341.596C245.186 341.596 244.112 341.428 243.142 341.092C242.171 340.775 241.331 340.299 240.622 339.664C239.912 339.029 239.362 338.236 238.97 337.284C238.578 336.332 238.382 335.24 238.382 334.008V323.872ZM243.926 334.12C243.926 335.072 244.15 335.791 244.598 336.276C245.064 336.743 245.643 336.976 246.334 336.976C247.024 336.976 247.603 336.743 248.07 336.276C248.536 335.791 248.77 335.072 248.77 334.12V323.76C248.77 322.808 248.536 322.089 248.07 321.604C247.603 321.119 247.024 320.885 246.334 320.904C245.643 320.923 245.064 321.175 244.598 321.66C244.15 322.127 243.926 322.827 243.926 323.76V334.12ZM257.506 342.128V318.608C257.506 317.693 257.786 317.003 258.346 316.536C258.906 316.069 259.559 315.836 260.306 315.836C261.052 315.836 261.706 316.069 262.266 316.536C262.826 317.003 263.106 317.693 263.106 318.608V342.128H257.506ZM281.586 319.196C281.567 320.036 281.436 320.895 281.194 321.772C282.37 321.809 283.536 322.043 284.694 322.472C285.851 322.901 286.896 323.545 287.83 324.404C288.763 325.263 289.538 326.345 290.154 327.652C290.788 328.959 291.171 330.508 291.302 332.3H285.618C285.487 331.348 285.226 330.499 284.834 329.752C284.442 328.987 283.947 328.352 283.35 327.848C282.771 327.325 282.108 326.933 281.362 326.672C280.615 326.411 279.822 326.289 278.982 326.308C278.347 327.185 277.628 327.988 276.826 328.716C276.023 329.444 275.174 330.069 274.278 330.592C273.4 331.115 272.486 331.525 271.534 331.824C270.6 332.123 269.676 332.281 268.762 332.3C268.071 332.319 267.474 332.141 266.97 331.768C266.466 331.376 266.176 330.835 266.102 330.144C266.027 329.472 266.167 328.884 266.522 328.38C266.876 327.876 267.408 327.549 268.118 327.4C269.032 327.195 269.919 326.849 270.778 326.364C271.655 325.879 272.439 325.272 273.13 324.544C273.82 323.797 274.399 322.939 274.866 321.968C275.332 320.997 275.64 319.924 275.79 318.748C275.902 317.852 276.256 317.199 276.854 316.788C277.47 316.359 278.17 316.172 278.954 316.228C279.775 316.303 280.428 316.592 280.914 317.096C281.399 317.6 281.623 318.3 281.586 319.196ZM289.454 336.836C289.883 336.836 290.247 336.911 290.546 337.06C290.863 337.191 291.115 337.368 291.302 337.592C291.507 337.816 291.647 338.077 291.722 338.376C291.815 338.656 291.862 338.936 291.862 339.216C291.862 339.515 291.815 339.804 291.722 340.084C291.628 340.364 291.479 340.616 291.274 340.84C291.087 341.064 290.844 341.241 290.546 341.372C290.247 341.503 289.883 341.568 289.454 341.568H268.062C267.632 341.568 267.268 341.503 266.97 341.372C266.671 341.241 266.419 341.064 266.214 340.84C266.027 340.616 265.887 340.364 265.794 340.084C265.7 339.804 265.654 339.515 265.654 339.216C265.654 338.936 265.691 338.656 265.766 338.376C265.859 338.077 265.999 337.816 266.186 337.592C266.391 337.368 266.643 337.191 266.942 337.06C267.259 336.911 267.632 336.836 268.062 336.836H289.454ZM298.106 326.476C296.948 326.476 296.08 326.159 295.502 325.524C294.923 324.889 294.634 324.105 294.634 323.172V323.004C294.634 322.052 294.914 321.324 295.474 320.82C296.052 320.297 296.93 320.036 298.106 320.036H312.666V319.56C312.666 319.392 312.628 319.28 312.554 319.224C312.498 319.168 312.367 319.14 312.162 319.14H296.342C295.856 319.14 295.483 318.981 295.222 318.664C294.979 318.347 294.858 318.011 294.858 317.656C294.858 317.301 294.97 316.965 295.194 316.648C295.418 316.312 295.8 316.144 296.342 316.144H315.41C316.567 316.144 317.36 316.349 317.79 316.76C318.219 317.171 318.434 317.787 318.434 318.608V322.584H301.13C300.943 322.584 300.812 322.631 300.738 322.724C300.663 322.817 300.626 322.92 300.626 323.032C300.626 323.312 300.794 323.452 301.13 323.452H317.622C318.144 323.452 318.508 323.62 318.714 323.956C318.938 324.273 319.05 324.619 319.05 324.992C319.05 325.309 318.947 325.636 318.742 325.972C318.536 326.308 318.163 326.476 317.622 326.476H298.106ZM317.874 327.288C318.602 327.288 319.115 327.475 319.414 327.848C319.712 328.203 319.862 328.613 319.862 329.08C319.862 329.584 319.703 330.013 319.386 330.368C319.087 330.704 318.583 330.872 317.874 330.872H295.614C294.904 330.872 294.4 330.704 294.102 330.368C293.803 330.013 293.654 329.584 293.654 329.08C293.654 328.613 293.803 328.203 294.102 327.848C294.4 327.475 294.904 327.288 295.614 327.288H317.874ZM297.91 342.128C296.752 342.128 295.884 341.811 295.306 341.176C294.727 340.541 294.438 339.757 294.438 338.824V338.656C294.438 337.704 294.718 336.967 295.278 336.444C295.856 335.903 296.734 335.632 297.91 335.632H312.946V335.128C312.946 334.96 312.908 334.848 312.834 334.792C312.778 334.736 312.647 334.708 312.442 334.708H296.202C295.716 334.708 295.343 334.559 295.082 334.26C294.839 333.943 294.718 333.607 294.718 333.252C294.718 332.897 294.83 332.561 295.054 332.244C295.278 331.927 295.66 331.768 296.202 331.768H315.69C316.847 331.768 317.64 331.973 318.07 332.384C318.499 332.795 318.714 333.411 318.714 334.232V338.18H300.934C300.747 338.18 300.616 338.236 300.542 338.348C300.467 338.441 300.43 338.544 300.43 338.656C300.43 338.955 300.598 339.104 300.934 339.104H318.07C318.592 339.104 318.956 339.272 319.162 339.608C319.386 339.925 319.498 340.271 319.498 340.644C319.498 340.961 319.395 341.288 319.19 341.624C318.984 341.96 318.611 342.128 318.07 342.128H297.91ZM345.321 322.388C345.265 322.817 345.181 323.247 345.069 323.676C346.32 323.601 347.524 323.676 348.681 323.9C349.839 324.124 350.865 324.535 351.761 325.132C352.676 325.711 353.423 326.495 354.001 327.484C354.599 328.455 354.963 329.64 355.093 331.04H349.577C349.409 330.331 349.092 329.733 348.625 329.248C348.177 328.744 347.636 328.352 347.001 328.072C346.367 327.792 345.657 327.624 344.873 327.568C344.108 327.493 343.324 327.531 342.521 327.68C341.887 328.259 341.187 328.763 340.421 329.192C339.656 329.621 338.853 329.976 338.013 330.256C337.173 330.536 336.315 330.741 335.437 330.872C334.56 331.003 333.701 331.068 332.861 331.068C332.077 331.068 331.424 330.881 330.901 330.508C330.379 330.135 330.089 329.621 330.033 328.968C329.959 328.352 330.108 327.811 330.481 327.344C330.855 326.859 331.387 326.597 332.077 326.56C333.011 326.523 333.888 326.42 334.709 326.252C335.549 326.084 336.296 325.832 336.949 325.496C337.621 325.16 338.181 324.74 338.629 324.236C339.077 323.713 339.395 323.097 339.581 322.388H332.917C332.077 322.388 331.471 322.155 331.097 321.688C330.743 321.221 330.565 320.699 330.565 320.12C330.565 319.84 330.603 319.569 330.677 319.308C330.771 319.028 330.911 318.785 331.097 318.58C331.284 318.356 331.527 318.179 331.825 318.048C332.124 317.917 332.488 317.852 332.917 317.852H339.609C339.665 317.031 339.955 316.405 340.477 315.976C341.019 315.547 341.728 315.332 342.605 315.332C343.464 315.332 344.155 315.556 344.677 316.004C345.219 316.433 345.517 317.049 345.573 317.852H352.293C352.723 317.852 353.087 317.917 353.385 318.048C353.684 318.179 353.927 318.356 354.113 318.58C354.3 318.785 354.431 319.028 354.505 319.308C354.599 319.569 354.645 319.84 354.645 320.12C354.645 320.699 354.459 321.221 354.085 321.688C353.731 322.155 353.133 322.388 352.293 322.388H345.321ZM345.461 336.5V342.268H339.749V336.5H331.853C331.013 336.5 330.407 336.267 330.033 335.8C329.679 335.333 329.501 334.811 329.501 334.232C329.501 333.952 329.539 333.681 329.613 333.42C329.707 333.14 329.847 332.888 330.033 332.664C330.22 332.44 330.463 332.263 330.761 332.132C331.06 332.001 331.424 331.936 331.853 331.936H353.357C353.787 331.936 354.151 332.001 354.449 332.132C354.748 332.263 354.991 332.44 355.177 332.664C355.364 332.888 355.495 333.14 355.569 333.42C355.663 333.681 355.709 333.952 355.709 334.232C355.709 334.811 355.523 335.333 355.149 335.8C354.795 336.267 354.197 336.5 353.357 336.5H345.461ZM359.965 336.36C361.067 336.229 362.084 335.996 363.017 335.66C363.969 335.324 364.781 334.811 365.453 334.12C366.144 333.429 366.685 332.524 367.077 331.404C367.469 330.265 367.665 328.837 367.665 327.12V322.444C367.665 322.239 367.6 322.071 367.469 321.94C367.357 321.809 367.189 321.744 366.965 321.744H360.581C360.152 321.744 359.788 321.669 359.489 321.52C359.209 321.371 358.967 321.184 358.761 320.96C358.575 320.717 358.435 320.456 358.341 320.176C358.267 319.877 358.229 319.588 358.229 319.308C358.229 319.028 358.267 318.748 358.341 318.468C358.435 318.169 358.575 317.908 358.761 317.684C358.948 317.46 359.191 317.273 359.489 317.124C359.788 316.975 360.152 316.9 360.581 316.9H368.813C370.4 316.9 371.529 317.255 372.201 317.964C372.873 318.673 373.209 319.681 373.209 320.988V327.148C373.209 329.631 372.892 331.731 372.257 333.448C371.623 335.165 370.736 336.575 369.597 337.676C368.477 338.759 367.143 339.561 365.593 340.084C364.063 340.607 362.392 340.915 360.581 341.008C360.245 341.027 359.909 340.989 359.573 340.896C359.256 340.803 358.967 340.653 358.705 340.448C358.463 340.243 358.267 339.991 358.117 339.692C357.968 339.375 357.893 339.011 357.893 338.6C357.893 338.003 358.061 337.508 358.397 337.116C358.733 336.705 359.256 336.453 359.965 336.36ZM376.597 318.552C376.597 317.656 376.877 316.984 377.437 316.536C377.997 316.069 378.641 315.836 379.369 315.836C379.724 315.836 380.069 315.901 380.405 316.032C380.741 316.144 381.031 316.312 381.273 316.536C381.535 316.76 381.74 317.04 381.889 317.376C382.057 317.712 382.141 318.104 382.141 318.552V325.636H383.065C383.495 325.636 383.849 325.711 384.129 325.86C384.409 326.009 384.633 326.205 384.801 326.448C384.969 326.672 385.091 326.933 385.165 327.232C385.24 327.512 385.277 327.792 385.277 328.072C385.277 328.352 385.24 328.641 385.165 328.94C385.091 329.22 384.969 329.481 384.801 329.724C384.633 329.948 384.4 330.135 384.101 330.284C383.821 330.433 383.476 330.508 383.065 330.508H382.141V342.128H376.597V318.552ZM392.333 341.624C391.475 341.624 390.672 341.493 389.925 341.232C389.179 340.971 388.525 340.569 387.965 340.028C387.424 339.487 386.995 338.805 386.677 337.984C386.36 337.144 386.201 336.155 386.201 335.016V325.468C386.201 324.553 386.323 323.76 386.565 323.088C386.08 322.976 385.716 322.733 385.473 322.36C385.249 321.968 385.137 321.52 385.137 321.016C385.137 320.419 385.287 319.924 385.585 319.532C385.903 319.121 386.407 318.916 387.097 318.916H389.729V318.552C389.729 317.712 389.944 317.059 390.373 316.592C390.821 316.107 391.475 315.864 392.333 315.864C393.211 315.864 393.873 316.107 394.321 316.592C394.769 317.059 394.993 317.712 394.993 318.552V318.916H397.569C398.26 318.916 398.755 319.121 399.053 319.532C399.371 319.924 399.529 320.419 399.529 321.016C399.529 321.52 399.408 321.968 399.165 322.36C398.941 322.733 398.587 322.976 398.101 323.088C398.213 323.443 398.297 323.816 398.353 324.208C398.428 324.6 398.465 325.02 398.465 325.468V335.016C398.465 336.155 398.307 337.144 397.989 337.984C397.672 338.805 397.233 339.487 396.673 340.028C396.132 340.569 395.488 340.971 394.741 341.232C393.995 341.493 393.192 341.624 392.333 341.624ZM406.445 330.564H405.101V342.128H400.257V318.216C400.257 317.432 400.491 316.844 400.957 316.452C401.443 316.041 402.012 315.836 402.665 315.836C403.3 315.836 403.86 316.041 404.345 316.452C404.849 316.844 405.101 317.432 405.101 318.216V325.972H406.445V318.216C406.445 317.432 406.688 316.844 407.173 316.452C407.677 316.041 408.256 315.836 408.909 315.836C409.227 315.836 409.535 315.892 409.833 316.004C410.132 316.097 410.393 316.247 410.617 316.452C410.86 316.657 411.047 316.909 411.177 317.208C411.327 317.488 411.401 317.824 411.401 318.216V342.128H406.445V330.564ZM392.333 337.424C392.595 337.424 392.856 337.321 393.117 337.116C393.397 336.911 393.537 336.537 393.537 335.996V324.404C393.537 323.881 393.397 323.517 393.117 323.312C392.856 323.088 392.595 322.976 392.333 322.976C392.072 322.976 391.801 323.088 391.521 323.312C391.26 323.517 391.129 323.881 391.129 324.404V335.996C391.129 336.537 391.26 336.911 391.521 337.116C391.801 337.321 392.072 337.424 392.333 337.424ZM437.253 321.044C437.197 321.548 437.113 322.005 437.001 322.416H437.281C438.438 322.397 439.577 322.547 440.697 322.864C441.817 323.181 442.825 323.685 443.721 324.376C444.617 325.048 445.354 325.907 445.933 326.952C446.512 327.997 446.848 329.248 446.941 330.704H441.425C441.294 329.995 441.042 329.369 440.669 328.828C440.314 328.287 439.857 327.848 439.297 327.512C438.756 327.157 438.13 326.896 437.421 326.728C436.712 326.56 435.965 326.485 435.181 326.504C435.088 326.504 434.994 326.513 434.901 326.532C434.808 326.532 434.705 326.541 434.593 326.56C433.977 327.195 433.277 327.764 432.493 328.268C431.728 328.753 430.925 329.173 430.085 329.528C429.245 329.864 428.377 330.135 427.481 330.34C426.604 330.527 425.736 330.648 424.877 330.704C424.093 330.76 423.421 330.601 422.861 330.228C422.32 329.836 422.002 329.313 421.909 328.66C421.816 328.044 421.937 327.493 422.273 327.008C422.609 326.504 423.122 326.205 423.813 326.112C424.784 326 425.698 325.813 426.557 325.552C427.416 325.291 428.181 324.955 428.853 324.544C429.544 324.133 430.113 323.639 430.561 323.06C431.009 322.481 431.308 321.809 431.457 321.044H424.765C423.925 321.044 423.318 320.811 422.945 320.344C422.59 319.859 422.413 319.327 422.413 318.748C422.413 318.468 422.45 318.197 422.525 317.936C422.618 317.656 422.758 317.404 422.945 317.18C423.132 316.956 423.374 316.779 423.673 316.648C423.972 316.517 424.336 316.452 424.765 316.452H444.141C444.57 316.452 444.934 316.517 445.233 316.648C445.532 316.779 445.774 316.956 445.961 317.18C446.148 317.404 446.278 317.656 446.353 317.936C446.446 318.197 446.493 318.468 446.493 318.748C446.493 319.327 446.306 319.859 445.933 320.344C445.578 320.811 444.981 321.044 444.141 321.044H437.253ZM437.309 336.276V342.268H431.597V336.276H423.701C422.861 336.276 422.254 336.043 421.881 335.576C421.526 335.109 421.349 334.587 421.349 334.008C421.349 333.728 421.386 333.457 421.461 333.196C421.554 332.916 421.694 332.664 421.881 332.44C422.068 332.216 422.31 332.039 422.609 331.908C422.908 331.777 423.272 331.712 423.701 331.712H445.205C445.634 331.712 445.998 331.777 446.297 331.908C446.596 332.039 446.838 332.216 447.025 332.44C447.212 332.664 447.342 332.916 447.417 333.196C447.51 333.457 447.557 333.728 447.557 334.008C447.557 334.587 447.37 335.109 446.997 335.576C446.642 336.043 446.045 336.276 445.205 336.276H437.309ZM449.517 336.472C450.245 335.819 450.842 335.091 451.309 334.288C451.794 333.467 452.177 332.505 452.457 331.404C452.737 330.284 452.933 328.977 453.045 327.484C453.157 325.972 453.213 324.189 453.213 322.136V319.308C453.213 318.412 453.465 317.749 453.969 317.32C454.473 316.891 455.089 316.676 455.817 316.676C456.526 316.676 457.142 316.9 457.665 317.348C458.188 317.796 458.449 318.449 458.449 319.308V322.108C458.449 324.348 458.337 326.392 458.113 328.24C458.972 328.651 459.728 329.183 460.381 329.836C461.053 330.471 461.604 331.283 462.033 332.272C462.462 333.243 462.761 334.409 462.929 335.772C463.097 337.116 463.125 338.703 463.013 340.532H457.917C458.141 338.871 458.169 337.48 458.001 336.36C457.852 335.24 457.525 334.335 457.021 333.644C456.536 335.287 455.938 336.649 455.229 337.732C454.52 338.815 453.736 339.655 452.877 340.252C452.616 340.439 452.308 340.588 451.953 340.7C451.617 340.812 451.272 340.868 450.917 340.868C450.562 340.887 450.217 340.831 449.881 340.7C449.545 340.588 449.256 340.383 449.013 340.084C448.789 339.823 448.64 339.533 448.565 339.216C448.49 338.899 448.472 338.581 448.509 338.264C448.565 337.928 448.677 337.611 448.845 337.312C449.013 336.995 449.237 336.715 449.517 336.472ZM464.133 328.492H461.837C461.408 328.492 461.044 328.427 460.745 328.296C460.465 328.147 460.222 327.96 460.017 327.736C459.83 327.493 459.69 327.232 459.597 326.952C459.522 326.653 459.485 326.364 459.485 326.084C459.485 325.804 459.522 325.524 459.597 325.244C459.69 324.945 459.83 324.684 460.017 324.46C460.204 324.236 460.446 324.049 460.745 323.9C461.044 323.751 461.408 323.676 461.837 323.676H464.133V318.216C464.133 317.432 464.366 316.844 464.833 316.452C465.3 316.041 465.86 315.836 466.513 315.836C467.148 315.836 467.708 316.041 468.193 316.452C468.697 316.844 468.949 317.432 468.949 318.216V342.128H464.133V328.492ZM470.265 318.216C470.265 317.432 470.517 316.844 471.021 316.452C471.525 316.041 472.104 315.836 472.757 315.836C473.074 315.836 473.382 315.892 473.681 316.004C473.98 316.097 474.241 316.247 474.465 316.452C474.708 316.657 474.894 316.909 475.025 317.208C475.174 317.488 475.249 317.824 475.249 318.216V342.128H470.265V318.216ZM478.133 323.732C478.133 322.78 478.292 321.865 478.609 320.988C478.926 320.111 479.393 319.345 480.009 318.692C480.625 318.039 481.381 317.516 482.277 317.124C483.192 316.732 484.237 316.536 485.413 316.536H495.493C496.669 316.536 497.705 316.732 498.601 317.124C499.516 317.516 500.281 318.039 500.897 318.692C501.513 319.345 501.98 320.111 502.297 320.988C502.614 321.865 502.773 322.78 502.773 323.732V324.068C502.773 325.02 502.614 325.935 502.297 326.812C501.98 327.671 501.513 328.436 500.897 329.108C500.281 329.761 499.516 330.284 498.601 330.676C497.705 331.049 496.669 331.236 495.493 331.236H485.413C484.237 331.236 483.192 331.049 482.277 330.676C481.381 330.284 480.625 329.761 480.009 329.108C479.393 328.436 478.926 327.671 478.609 326.812C478.292 325.935 478.133 325.02 478.133 324.068V323.732ZM482.417 337.088V334.54C482.417 334.092 482.492 333.719 482.641 333.42C482.79 333.103 482.986 332.851 483.229 332.664C483.49 332.477 483.789 332.347 484.125 332.272C484.461 332.197 484.816 332.16 485.189 332.16C485.544 332.16 485.889 332.207 486.225 332.3C486.561 332.375 486.86 332.505 487.121 332.692C487.382 332.86 487.588 333.103 487.737 333.42C487.886 333.719 487.961 334.092 487.961 334.54V337.088H492.945V334.54C492.945 334.092 493.02 333.719 493.169 333.42C493.318 333.103 493.514 332.851 493.757 332.664C494.018 332.477 494.317 332.347 494.653 332.272C494.989 332.197 495.344 332.16 495.717 332.16C496.072 332.16 496.417 332.207 496.753 332.3C497.089 332.375 497.388 332.505 497.649 332.692C497.91 332.86 498.116 333.103 498.265 333.42C498.414 333.719 498.489 334.092 498.489 334.54V337.088H501.205C502.064 337.088 502.67 337.321 503.025 337.788C503.38 338.255 503.557 338.768 503.557 339.328C503.557 339.907 503.37 340.42 502.997 340.868C502.642 341.335 502.045 341.568 501.205 341.568H479.701C478.861 341.568 478.254 341.335 477.881 340.868C477.526 340.42 477.349 339.907 477.349 339.328C477.349 338.768 477.526 338.255 477.881 337.788C478.236 337.321 478.842 337.088 479.701 337.088H482.417ZM496.949 323.676C496.949 322.929 496.678 322.313 496.137 321.828C495.614 321.343 494.886 321.1 493.953 321.1H486.953C486.02 321.1 485.282 321.343 484.741 321.828C484.218 322.313 483.957 322.929 483.957 323.676V324.124C483.957 324.871 484.218 325.487 484.741 325.972C485.282 326.457 486.02 326.7 486.953 326.7H493.953C494.886 326.7 495.614 326.457 496.137 325.972C496.678 325.487 496.949 324.871 496.949 324.124V323.676ZM505.545 337.76C505.545 336.883 505.806 336.192 506.329 335.688C506.852 335.184 507.589 334.932 508.541 334.932C509.493 334.932 510.23 335.193 510.753 335.716C511.276 336.22 511.537 336.901 511.537 337.76C511.537 338.619 511.276 339.309 510.753 339.832C510.23 340.336 509.493 340.588 508.541 340.588C507.589 340.588 506.852 340.336 506.329 339.832C505.806 339.328 505.545 338.637 505.545 337.76Z" fill="#999999"/>
</svg>
