<svg width="513" height="344" viewBox="0 0 513 344" fill="none" xmlns="http://www.w3.org/2000/svg">
<path d="M327.751 45.0438C321.011 30.0292 311.679 18.6388 300.273 11.3904C288.867 3.62422 274.35 0 257.241 0C239.613 0 225.615 3.62422 214.209 10.8727C202.803 18.1211 193.989 29.5115 186.73 44.5261L96 248H419C418.482 245.929 327.751 45.0438 327.751 45.0438ZM196.581 190.53L214.209 150.664L246.353 74.0376C247.39 70.9311 248.945 69.3779 251.019 68.3424C253.093 67.3069 255.167 66.7891 257.241 66.7891C259.833 66.7891 261.907 67.3069 263.462 68.3424C265.536 69.3779 267.091 71.4488 268.128 74.0376L298.199 142.898L318.937 190.013H196.581V190.53Z" fill="#ADC8DD"/>
<path d="M256 133C254.481 133 253.25 134.231 253.25 135.75V152.25H236.75C235.231 152.25 234 153.481 234 155C234 156.519 235.231 157.75 236.75 157.75H253.25V174.25C253.25 175.769 254.481 177 256 177C257.519 177 258.75 175.769 258.75 174.25V157.75H275.25C276.769 157.75 278 156.519 278 155C278 153.481 276.769 152.25 275.25 152.25H258.75V135.75C258.75 134.231 257.519 133 256 133Z" fill="#ADC8DD"/>
<path d="M389.507 243.521C388.892 243.043 388.095 242.77 387.229 242.838C385.567 242.952 384.246 244.34 384.178 246.001C384.109 247.89 385.612 249.21 387.48 249.21H391.352C392.263 249.21 393.015 248.459 393.015 247.549V241.222L389.507 243.521Z" fill="white"/>
<path fill-rule="evenodd" clip-rule="evenodd" d="M393.61 240.121C394.015 240.34 394.267 240.763 394.267 241.223V247.549C394.267 249.151 392.955 250.462 391.352 250.462H387.48C385.019 250.462 382.828 248.665 382.926 245.956L382.926 245.95C383.02 243.668 384.826 241.752 387.137 241.59C387.986 241.524 388.788 241.697 389.485 242.039L392.328 240.176C392.713 239.924 393.205 239.903 393.61 240.121ZM391.762 243.54L390.194 244.568C389.746 244.861 389.161 244.838 388.738 244.509C388.355 244.211 387.864 244.044 387.328 244.086L387.315 244.087C386.306 244.156 385.474 245.013 385.429 246.05C385.392 247.118 386.207 247.959 387.48 247.959H391.352C391.571 247.959 391.762 247.768 391.762 247.549V243.54Z" fill="#666666"/>
<path fill-rule="evenodd" clip-rule="evenodd" d="M387.864 243.534C387.97 243.306 388.241 243.207 388.469 243.313L388.277 243.726C388.469 243.313 388.47 243.313 388.47 243.313L388.47 243.313L388.471 243.314L388.473 243.315L388.479 243.318C388.484 243.32 388.489 243.323 388.496 243.326C388.51 243.333 388.529 243.343 388.551 243.355C388.596 243.379 388.658 243.415 388.729 243.461C388.872 243.554 389.062 243.695 389.248 243.887C389.623 244.276 390 244.896 389.915 245.751C389.89 246.001 389.666 246.183 389.416 246.158C389.166 246.133 388.983 245.91 389.008 245.66C389.059 245.149 388.844 244.78 388.593 244.52C388.466 244.388 388.334 244.29 388.233 244.225C388.184 244.192 388.143 244.169 388.116 244.155C388.103 244.147 388.093 244.142 388.088 244.14L388.083 244.137C387.856 244.031 387.758 243.761 387.864 243.534Z" fill="#666666"/>
<path fill-rule="evenodd" clip-rule="evenodd" d="M393.014 218.078C393.706 218.078 394.267 218.638 394.267 219.33V245.728C394.267 246.42 393.706 246.98 393.014 246.98C392.323 246.98 391.762 246.42 391.762 245.728V219.33C391.762 218.638 392.323 218.078 393.014 218.078Z" fill="#666666"/>
<path fill-rule="evenodd" clip-rule="evenodd" d="M376.639 218.078C377.331 218.078 377.892 218.638 377.892 219.33V245.728C377.892 246.42 377.331 246.98 376.639 246.98C375.947 246.98 375.386 246.42 375.386 245.728V219.33C375.386 218.638 375.947 218.078 376.639 218.078Z" fill="#666666"/>
<path fill-rule="evenodd" clip-rule="evenodd" d="M378.004 179.556C378.517 180.02 378.555 180.812 378.09 181.324L363.536 197.345C363.231 197.681 362.768 197.826 362.325 197.723L348.318 194.469C347.644 194.312 347.225 193.639 347.382 192.966C347.538 192.293 348.212 191.874 348.886 192.03L362.176 195.118L376.235 179.641C376.7 179.129 377.492 179.091 378.004 179.556Z" fill="#666666"/>
<path fill-rule="evenodd" clip-rule="evenodd" d="M388.923 179.851C389.36 179.315 390.149 179.235 390.686 179.672L408.155 193.895C408.688 194.329 408.771 195.113 408.34 195.649L398.41 208.006C397.977 208.545 397.188 208.631 396.649 208.199C396.109 207.766 396.023 206.978 396.456 206.439L405.608 195.051L389.103 181.612C388.567 181.176 388.486 180.387 388.923 179.851Z" fill="#666666"/>
<path d="M383.904 226.567C373.018 226.567 361.47 223.38 361.47 217.509C361.47 206.108 379.372 179.686 383.677 173.519C387.981 179.663 405.86 205.789 405.86 217.509C405.86 220.877 402.33 222.971 399.392 224.109C395.338 225.702 389.826 226.567 383.904 226.567Z" fill="#EFEFEF"/>
<path d="M383.676 175.499C385.863 178.639 389.644 184.26 393.402 190.541C402.763 206.221 404.721 213.868 404.721 217.509C404.721 219.011 403.719 221.196 398.959 223.062C395.11 224.564 389.621 225.429 383.904 225.429C378.119 225.429 372.516 224.541 368.531 223.016C366.321 222.174 362.609 220.308 362.609 217.509C362.609 213.982 364.568 206.449 373.951 190.678C377.686 184.351 381.49 178.662 383.676 175.499ZM383.654 171.539C383.654 171.539 360.309 204.105 360.309 217.509C360.309 224.268 372.129 227.704 383.881 227.704C395.474 227.704 406.976 224.359 406.976 217.509C406.999 203.718 383.654 171.539 383.654 171.539Z" fill="#666666"/>
<path d="M336.371 105.747C336.371 105.747 339.196 106.293 340.471 110.276C342.407 116.284 347.213 116.011 349.558 114.509C353.339 112.074 349.604 99.9894 336.371 105.747Z" fill="#EFEFEF"/>
<path fill-rule="evenodd" clip-rule="evenodd" d="M352.092 111.282C352.122 112.893 351.572 114.565 350.175 115.465L350.173 115.467C348.766 116.367 346.644 116.9 344.549 116.303C342.382 115.685 340.449 113.921 339.387 110.624L339.386 110.622C338.824 108.866 337.946 107.931 337.269 107.435C336.924 107.182 336.618 107.034 336.411 106.951C336.307 106.91 336.228 106.885 336.183 106.872C336.16 106.866 336.146 106.862 336.141 106.861C336.141 106.861 336.141 106.861 336.14 106.861C335.658 106.761 335.293 106.362 335.239 105.871C335.185 105.376 335.459 104.903 335.917 104.704C339.373 103.2 342.313 102.816 344.735 103.222C347.167 103.631 349.001 104.826 350.229 106.339C351.445 107.836 352.062 109.639 352.092 111.282ZM339.066 105.96C339.991 106.764 340.942 108.015 341.555 109.928C342.429 112.638 343.867 113.742 345.173 114.114C346.551 114.507 348.003 114.152 348.943 113.551C349.435 113.233 349.836 112.482 349.815 111.323C349.795 110.195 349.36 108.881 348.46 107.772C347.573 106.679 346.229 105.781 344.357 105.467C342.944 105.229 341.19 105.319 339.066 105.96Z" fill="#666666"/>
<path fill-rule="evenodd" clip-rule="evenodd" d="M343.343 107.733C343.591 107.369 344.087 107.276 344.451 107.524L344.001 108.182C344.451 107.524 344.451 107.524 344.451 107.524L344.452 107.525L344.453 107.526L344.457 107.528L344.468 107.536C344.477 107.542 344.489 107.55 344.504 107.561C344.534 107.583 344.576 107.613 344.629 107.653C344.734 107.732 344.883 107.848 345.064 108C345.425 108.304 345.918 108.754 346.457 109.348C347.522 110.522 348.781 112.275 349.545 114.586C349.548 114.592 349.551 114.598 349.555 114.605C349.582 114.651 349.626 114.723 349.691 114.812C349.82 114.991 350.028 115.232 350.33 115.465C350.917 115.917 351.913 116.378 353.524 116.197C353.961 116.148 354.356 116.463 354.405 116.9C354.454 117.337 354.139 117.731 353.702 117.78C351.668 118.009 350.261 117.423 349.357 116.727C348.913 116.385 348.602 116.026 348.4 115.748C348.299 115.609 348.224 115.488 348.173 115.399C348.147 115.354 348.127 115.316 348.112 115.288C348.105 115.274 348.099 115.262 348.094 115.252C348.092 115.247 348.09 115.243 348.088 115.239L348.086 115.234L348.085 115.232L348.084 115.231C348.084 115.231 348.084 115.23 348.807 114.895L348.084 115.23C348.07 115.201 348.059 115.172 348.049 115.141C347.375 113.069 346.244 111.486 345.276 110.418C344.792 109.885 344.353 109.484 344.037 109.219C343.88 109.087 343.754 108.989 343.669 108.925C343.627 108.894 343.595 108.871 343.575 108.856C343.565 108.849 343.558 108.844 343.554 108.841L343.551 108.839L343.552 108.839C343.188 108.591 343.095 108.096 343.343 107.733Z" fill="#666666"/>
<path d="M414.287 238.469L412.92 246.434L416.36 245.228L418.774 249.21L421.803 246.457L425.743 246.115L424.012 242.292L426.062 238.787L421.621 238.446L421.074 234.691L414.287 238.469Z" fill="#EFEFEF"/>
<path fill-rule="evenodd" clip-rule="evenodd" d="M421.579 233.671C421.915 233.837 422.147 234.157 422.201 234.527L422.617 237.381L426.149 237.653C426.541 237.683 426.889 237.912 427.071 238.259C427.253 238.607 427.243 239.023 427.045 239.362L425.292 242.359L426.781 245.646C426.933 245.983 426.913 246.372 426.726 246.69C426.539 247.009 426.21 247.217 425.842 247.249L422.285 247.557L419.54 250.052C419.288 250.281 418.947 250.385 418.61 250.336C418.274 250.288 417.976 250.091 417.8 249.8L415.865 246.607L413.298 247.508C412.917 247.641 412.494 247.563 412.186 247.303C411.877 247.043 411.73 246.639 411.798 246.242L413.165 238.277C413.223 237.937 413.432 237.642 413.733 237.475L420.52 233.697C420.847 233.515 421.243 233.505 421.579 233.671ZM415.317 239.198L414.37 244.72L415.983 244.154C416.491 243.976 417.055 244.178 417.334 244.638L419.031 247.438L421.037 245.615C421.221 245.447 421.456 245.345 421.705 245.323L424.043 245.12L422.975 242.761C422.823 242.425 422.843 242.036 423.029 241.718L424.161 239.783L421.534 239.581C421.002 239.54 420.571 239.137 420.494 238.61L420.185 236.488L415.317 239.198Z" fill="#666666"/>
<path fill-rule="evenodd" clip-rule="evenodd" d="M408.866 233.04C409.288 232.914 409.731 233.153 409.858 233.574L409.859 233.577C409.86 233.581 409.862 233.589 409.866 233.601C409.874 233.624 409.886 233.661 409.904 233.709C409.939 233.807 409.996 233.952 410.076 234.129C410.236 234.486 410.487 234.967 410.848 235.461C411.571 236.45 412.697 237.445 414.396 237.68C414.451 237.687 414.506 237.701 414.558 237.72L414.287 238.469C414.558 237.72 414.559 237.72 414.559 237.72L414.561 237.721L414.564 237.722L414.576 237.726C414.586 237.73 414.599 237.735 414.616 237.741C414.65 237.754 414.698 237.773 414.758 237.797C414.879 237.845 415.051 237.917 415.262 238.012C415.682 238.202 416.26 238.486 416.897 238.866C418.154 239.617 419.712 240.785 420.687 242.405C420.914 242.782 420.792 243.271 420.415 243.498C420.037 243.725 419.548 243.603 419.321 243.226C418.542 241.932 417.242 240.928 416.079 240.233C415.505 239.891 414.983 239.634 414.606 239.464C414.417 239.379 414.266 239.316 414.164 239.275C414.133 239.263 414.107 239.253 414.086 239.244C411.874 238.909 410.432 237.592 409.561 236.401C409.119 235.797 408.815 235.214 408.621 234.782C408.524 234.565 408.453 234.383 408.406 234.254C408.382 234.189 408.364 234.136 408.352 234.099C408.346 234.08 408.341 234.065 408.337 234.053L408.333 234.039L408.331 234.034L408.331 234.032L408.331 234.032C408.33 234.031 408.33 234.031 409.094 233.803L408.33 234.031C408.204 233.61 408.444 233.166 408.866 233.04Z" fill="#666666"/>
<path fill-rule="evenodd" clip-rule="evenodd" d="M374.529 114.715C374.627 115.322 374.223 115.9 373.614 116.014C372.996 116.13 372.401 115.723 372.285 115.105L373.405 114.895C372.285 115.105 372.285 115.103 372.285 115.102L372.284 115.098L372.282 115.089C372.281 115.084 372.28 115.077 372.279 115.07C372.277 115.056 372.275 115.04 372.272 115.021C372.267 114.984 372.262 114.937 372.257 114.882C372.249 114.772 372.244 114.626 372.253 114.452C372.27 114.102 372.341 113.636 372.542 113.101C372.95 112.014 373.857 110.742 375.714 109.6C379.36 107.357 386.753 105.553 401.838 106.454C402.153 106.465 402.492 106.472 402.848 106.479C404.081 106.502 405.505 106.53 406.733 106.783C408.383 107.123 410.073 107.944 410.706 109.984C410.892 110.584 410.556 111.222 409.955 111.408C409.355 111.594 408.717 111.258 408.53 110.658C408.252 109.762 407.55 109.275 406.273 109.012C405.271 108.805 404.153 108.783 402.964 108.759C402.564 108.751 402.155 108.743 401.741 108.727C401.732 108.727 401.724 108.727 401.715 108.726C386.723 107.83 379.93 109.679 376.908 111.538C375.432 112.446 374.885 113.338 374.674 113.901C374.565 114.191 374.534 114.422 374.527 114.564C374.524 114.634 374.526 114.683 374.528 114.705C374.528 114.709 374.529 114.712 374.529 114.715Z" fill="#666666"/>
<path fill-rule="evenodd" clip-rule="evenodd" d="M364.761 116.564C364.669 117.182 364.096 117.611 363.476 117.524C362.853 117.437 362.419 116.861 362.506 116.239L363.634 116.397C362.506 116.239 362.507 116.238 362.507 116.237L362.507 116.234L362.508 116.227C362.509 116.222 362.51 116.216 362.511 116.21C362.513 116.197 362.515 116.181 362.519 116.161C362.526 116.122 362.536 116.07 362.549 116.007C362.576 115.879 362.619 115.705 362.683 115.49C362.812 115.059 363.028 114.467 363.385 113.772C364.101 112.378 365.375 110.584 367.616 108.857C372.1 105.4 380.32 102.304 395.366 102.972L395.366 102.972C397.232 103.056 399.099 103.448 400.539 104.29C402.024 105.157 403.104 106.549 403.104 108.5C403.104 109.129 402.594 109.638 401.966 109.638C401.337 109.638 400.827 109.129 400.827 108.5C400.827 107.539 400.347 106.814 399.389 106.254C398.387 105.668 396.928 105.32 395.264 105.245C380.542 104.592 372.921 107.641 369.007 110.659C367.049 112.169 365.984 113.695 365.411 114.811C365.124 115.371 364.958 115.832 364.866 116.141C364.819 116.295 364.792 116.411 364.776 116.483C364.769 116.519 364.764 116.543 364.762 116.556C364.761 116.56 364.761 116.562 364.761 116.564Z" fill="#666666"/>
<path d="M382.287 176.341C382.287 176.341 363.36 205.083 363.36 215.438C363.36 225.793 401.783 226.111 401.783 215.438C401.783 204.788 382.287 176.341 382.287 176.341Z" fill="white"/>
<path d="M409.595 181.165H362.472C357.576 181.165 353.59 177.297 353.59 172.517V132.396C353.59 122.11 362.131 113.758 372.699 113.758H409.595" fill="#EFEFEF"/>
<path fill-rule="evenodd" clip-rule="evenodd" d="M372.699 114.895C362.734 114.895 354.728 122.763 354.728 132.396V172.517C354.728 176.639 358.175 180.027 362.472 180.027H409.595C410.224 180.027 410.734 180.537 410.734 181.165C410.734 181.794 410.224 182.303 409.595 182.303H362.472C356.976 182.303 352.451 177.954 352.451 172.517V132.396C352.451 121.456 361.527 112.62 372.699 112.62H409.595C410.224 112.62 410.734 113.129 410.734 113.758C410.734 114.386 410.224 114.895 409.595 114.895H372.699Z" fill="#666666"/>
<path d="M409.618 180.027H365.707C361.311 180.027 357.758 176.272 357.758 171.653V132.897C357.758 122.952 365.41 114.895 374.862 114.895H409.618" fill="white"/>
<path fill-rule="evenodd" clip-rule="evenodd" d="M353.089 140.316C353.089 139.75 353.547 139.292 354.114 139.292H365.524C366.09 139.292 366.549 139.75 366.549 140.316C366.549 140.881 366.09 141.34 365.524 141.34H354.114C353.547 141.34 353.089 140.881 353.089 140.316Z" fill="#666666"/>
<path fill-rule="evenodd" clip-rule="evenodd" d="M383.449 140.316C383.449 139.75 383.908 139.292 384.474 139.292H399.551C400.117 139.292 400.576 139.75 400.576 140.316C400.576 140.881 400.117 141.34 399.551 141.34H384.474C383.908 141.34 383.449 140.881 383.449 140.316Z" fill="#666666"/>
<path fill-rule="evenodd" clip-rule="evenodd" d="M370.626 145.891C371.066 145.891 371.423 146.248 371.423 146.688V147.234C371.423 147.674 371.066 148.03 370.626 148.03C370.186 148.03 369.829 147.674 369.829 147.234V146.688C369.829 146.248 370.186 145.891 370.626 145.891Z" fill="#666666"/>
<path fill-rule="evenodd" clip-rule="evenodd" d="M375.295 145.891C375.735 145.891 376.092 146.248 376.092 146.688V147.234C376.092 147.674 375.735 148.03 375.295 148.03C374.855 148.03 374.498 147.674 374.498 147.234V146.688C374.498 146.248 374.855 145.891 375.295 145.891Z" fill="#666666"/>
<path fill-rule="evenodd" clip-rule="evenodd" d="M369.829 163.756C369.829 163.316 370.186 162.959 370.626 162.959H379.509C379.949 162.959 380.306 163.316 380.306 163.756C380.306 164.196 379.949 164.552 379.509 164.552H370.626C370.186 164.552 369.829 164.196 369.829 163.756Z" fill="#666666"/>
<path d="M387.138 194.979C387.138 197.482 385.089 199.531 382.583 199.531C380.078 199.531 378.028 197.482 378.028 194.979C378.028 192.476 380.078 190.428 382.583 190.428C385.089 190.428 387.138 192.453 387.138 194.979Z" fill="#EFEFEF"/>
<path fill-rule="evenodd" clip-rule="evenodd" d="M382.583 191.565C380.697 191.565 379.167 193.094 379.167 194.979C379.167 196.864 380.697 198.393 382.583 198.393C384.47 198.393 386 196.864 386 194.979C386 193.094 384.47 191.565 382.583 191.565ZM376.889 194.979C376.889 191.837 379.439 189.29 382.583 189.29C385.728 189.29 388.277 191.837 388.277 194.979C388.277 198.121 385.728 200.668 382.583 200.668C379.439 200.668 376.889 198.121 376.889 194.979Z" fill="#666666"/>
<path d="M349.217 195.07C347.486 194.57 346.415 193.022 346.825 191.588C347.235 190.155 348.966 189.404 350.697 189.904C352.428 190.405 353.499 191.952 353.089 193.386C352.679 194.82 350.925 195.571 349.217 195.07Z" fill="white"/>
<path fill-rule="evenodd" clip-rule="evenodd" d="M347.914 191.909C347.731 192.543 348.19 193.599 349.52 193.981C350.851 194.364 351.801 193.714 351.984 193.08C352.167 192.446 351.708 191.39 350.377 191.007C349.047 190.625 348.096 191.275 347.914 191.909ZM348.89 196.168C346.763 195.556 345.086 193.495 345.725 191.279C346.364 189.063 348.881 188.209 351.008 188.821C353.134 189.432 354.811 191.493 354.173 193.71C353.534 195.926 351.017 196.78 348.89 196.168Z" fill="#666666"/>
<path d="M405.245 203.786C405.883 205.448 405.291 207.223 403.924 207.746C402.558 208.27 400.94 207.359 400.303 205.698C399.665 204.037 400.257 202.262 401.624 201.738C402.967 201.192 404.607 202.125 405.245 203.786Z" fill="white"/>
<path fill-rule="evenodd" clip-rule="evenodd" d="M402.017 202.784C401.427 203.011 400.869 203.986 401.359 205.257C401.848 206.527 402.916 206.877 403.506 206.65C404.096 206.423 404.654 205.449 404.165 204.178C403.675 202.907 402.608 202.558 402.017 202.784ZM399.233 206.074C398.449 204.037 399.066 201.481 401.199 200.661C403.333 199.84 405.506 201.323 406.29 203.361C407.075 205.398 406.457 207.954 404.324 208.774C402.19 209.594 400.018 208.111 399.233 206.074Z" fill="#666666"/>
<path d="M377.436 181.165L374.384 185.671L379.645 186.787L382.674 181.165H377.436Z" fill="#EFEFEF"/>
<path fill-rule="evenodd" clip-rule="evenodd" d="M376.776 180.719C376.924 180.5 377.171 180.369 377.436 180.369H382.674C382.955 180.369 383.215 180.516 383.359 180.757C383.503 180.997 383.509 181.296 383.376 181.543L380.347 187.164C380.179 187.475 379.826 187.639 379.48 187.565L374.219 186.45C373.959 186.395 373.744 186.215 373.645 185.969C373.546 185.723 373.575 185.444 373.724 185.225L376.776 180.719ZM377.859 181.962L375.708 185.138L379.226 185.883L381.34 181.962H377.859Z" fill="#666666"/>
<path d="M389.165 181.165L392.946 185.671L386.455 186.787L382.674 181.165H389.165Z" fill="#EFEFEF"/>
<path fill-rule="evenodd" clip-rule="evenodd" d="M381.971 180.791C382.109 180.531 382.38 180.369 382.674 180.369H389.165C389.401 180.369 389.625 180.473 389.776 180.653L393.557 185.159C393.74 185.378 393.793 185.678 393.695 185.945C393.596 186.213 393.362 186.408 393.081 186.456L386.59 187.571C386.281 187.624 385.969 187.491 385.793 187.231L382.013 181.609C381.848 181.365 381.832 181.05 381.971 180.791ZM384.171 181.962L386.829 185.914L391.444 185.121L388.793 181.962H384.171Z" fill="#666666"/>
<path d="M373.131 243.521C372.516 243.043 371.719 242.77 370.854 242.838C369.191 242.952 367.87 244.34 367.802 246.001C367.733 247.89 369.237 249.21 371.104 249.21H374.976C375.887 249.21 376.639 248.459 376.639 247.549V241.222L373.131 243.521Z" fill="white"/>
<path fill-rule="evenodd" clip-rule="evenodd" d="M377.234 240.121C377.639 240.34 377.891 240.763 377.891 241.223V247.549C377.891 249.151 376.579 250.462 374.976 250.462H371.104C368.643 250.462 366.452 248.665 366.55 245.956L366.55 245.95C366.644 243.668 368.45 241.752 370.761 241.59C371.61 241.524 372.412 241.697 373.109 242.039L375.952 240.176C376.337 239.924 376.829 239.903 377.234 240.121ZM375.386 243.54L373.818 244.568C373.37 244.861 372.785 244.838 372.362 244.509C371.979 244.211 371.488 244.044 370.952 244.086L370.939 244.087C369.93 244.156 369.098 245.013 369.053 246.05C369.016 247.118 369.831 247.959 371.104 247.959H374.976C375.195 247.959 375.386 247.768 375.386 247.549V243.54Z" fill="#666666"/>
<path fill-rule="evenodd" clip-rule="evenodd" d="M371.511 243.534C371.617 243.306 371.888 243.207 372.116 243.313L371.924 243.726C372.116 243.313 372.117 243.313 372.117 243.313L372.117 243.313L372.118 243.314L372.12 243.315L372.126 243.318C372.131 243.32 372.136 243.323 372.143 243.326C372.157 243.333 372.176 243.343 372.198 243.355C372.243 243.379 372.304 243.415 372.376 243.461C372.519 243.554 372.709 243.695 372.895 243.887C373.27 244.276 373.647 244.896 373.562 245.751C373.537 246.001 373.313 246.183 373.063 246.158C372.813 246.133 372.63 245.91 372.655 245.66C372.706 245.149 372.491 244.78 372.24 244.52C372.113 244.388 371.981 244.29 371.88 244.225C371.831 244.192 371.79 244.169 371.763 244.155C371.75 244.147 371.74 244.142 371.735 244.14L371.73 244.137C371.503 244.031 371.405 243.761 371.511 243.534Z" fill="#666666"/>
<path fill-rule="evenodd" clip-rule="evenodd" d="M416.369 106.296C416.959 106.515 417.259 107.171 417.04 107.76C416.627 108.868 416.079 109.723 415.391 110.356C414.698 110.993 413.919 111.352 413.126 111.546C412.349 111.736 411.555 111.768 410.823 111.758C410.455 111.754 410.086 111.738 409.736 111.722L409.717 111.721C409.368 111.706 409.037 111.692 408.711 111.687C408.704 111.686 408.697 111.686 408.689 111.686C394.866 111.197 388.81 112.012 386.239 112.866C385.381 113.151 385.022 113.404 384.884 113.53C384.975 113.977 384.79 114.454 384.382 114.715C383.853 115.055 383.148 114.901 382.809 114.372L383.768 113.758C382.809 114.372 382.808 114.37 382.806 114.368L382.803 114.363L382.797 114.354C382.793 114.347 382.789 114.34 382.785 114.333C382.776 114.318 382.767 114.302 382.757 114.284C382.738 114.248 382.717 114.205 382.696 114.156C382.654 114.057 382.611 113.928 382.584 113.773C382.528 113.452 382.551 113.05 382.752 112.629C383.136 111.823 384.041 111.198 385.521 110.706C388.518 109.711 394.941 108.923 408.759 109.411C409.113 109.417 409.467 109.433 409.803 109.447L409.835 109.449C410.19 109.464 410.525 109.478 410.853 109.483C411.514 109.492 412.083 109.458 412.584 109.336C413.069 109.217 413.485 109.016 413.849 108.681C414.218 108.342 414.589 107.815 414.905 106.966C415.124 106.377 415.78 106.077 416.369 106.296Z" fill="#666666"/>
<path d="M387.389 195.844H377.96C377.96 195.844 378.643 199.531 382.515 199.531C386.387 199.531 387.389 195.844 387.389 195.844Z" fill="#4BB9F7"/>
<path fill-rule="evenodd" clip-rule="evenodd" d="M382.538 191.565C380.651 191.565 379.121 193.094 379.121 194.979C379.121 196.864 380.651 198.393 382.538 198.393C384.424 198.393 385.954 196.864 385.954 194.979C385.954 193.094 384.424 191.565 382.538 191.565ZM376.844 194.979C376.844 191.837 379.393 189.29 382.538 189.29C385.682 189.29 388.232 191.837 388.232 194.979C388.232 198.121 385.682 200.668 382.538 200.668C379.393 200.668 376.844 198.121 376.844 194.979Z" fill="#666666"/>
<path d="M144.3 300.564H142.928V312.128H138.028V288.216C138.028 287.432 138.271 286.844 138.756 286.452C139.26 286.041 139.839 285.836 140.492 285.836C141.127 285.836 141.687 286.041 142.172 286.452C142.676 286.844 142.928 287.432 142.928 288.216V295.972H144.3V288.216C144.3 287.432 144.552 286.844 145.056 286.452C145.56 286.041 146.139 285.836 146.792 285.836C147.11 285.836 147.418 285.892 147.716 286.004C148.015 286.097 148.276 286.247 148.5 286.452C148.743 286.657 148.93 286.909 149.06 287.208C149.21 287.488 149.284 287.824 149.284 288.216V312.128H144.3V300.564ZM132.932 291.66V293.06C132.932 295.412 132.82 297.54 132.596 299.444C133.38 299.836 134.062 300.34 134.64 300.956C135.238 301.553 135.723 302.291 136.096 303.168C136.488 304.045 136.759 305.091 136.908 306.304C137.076 307.499 137.114 308.889 137.02 310.476H132.064C132.251 309.151 132.288 308.031 132.176 307.116C132.064 306.201 131.812 305.436 131.42 304.82C130.524 307.321 129.171 309.16 127.36 310.336C127.043 310.541 126.698 310.691 126.324 310.784C125.951 310.877 125.578 310.915 125.204 310.896C124.85 310.877 124.514 310.793 124.196 310.644C123.879 310.495 123.627 310.28 123.44 310C123.104 309.496 122.974 308.927 123.048 308.292C123.123 307.657 123.431 307.125 123.972 306.696C124.719 306.136 125.335 305.492 125.82 304.764C126.324 304.017 126.726 303.121 127.024 302.076C127.342 301.031 127.566 299.78 127.696 298.324C127.827 296.849 127.892 295.104 127.892 293.088V291.66H125.344C125.008 291.66 124.71 291.585 124.448 291.436C124.187 291.287 123.963 291.1 123.776 290.876C123.608 290.652 123.468 290.409 123.356 290.148C123.263 289.868 123.216 289.597 123.216 289.336C123.216 289.093 123.254 288.832 123.328 288.552C123.403 288.272 123.524 288.02 123.692 287.796C123.86 287.572 124.075 287.385 124.336 287.236C124.598 287.087 124.906 287.012 125.26 287.012H135.088C135.443 287.012 135.751 287.087 136.012 287.236C136.274 287.385 136.488 287.572 136.656 287.796C136.824 288.02 136.946 288.272 137.02 288.552C137.095 288.832 137.132 289.093 137.132 289.336C137.132 289.597 137.086 289.868 136.992 290.148C136.899 290.409 136.768 290.652 136.6 290.876C136.432 291.1 136.218 291.287 135.956 291.436C135.714 291.585 135.424 291.66 135.088 291.66H132.932ZM158.692 312.212C157.722 312.212 156.872 312.072 156.144 311.792C155.435 311.531 154.838 311.167 154.352 310.7C153.886 310.233 153.531 309.683 153.288 309.048C153.064 308.395 152.952 307.685 152.952 306.92C152.952 306.173 153.064 305.473 153.288 304.82C153.531 304.167 153.886 303.607 154.352 303.14C154.838 302.655 155.435 302.272 156.144 301.992C156.872 301.712 157.722 301.572 158.692 301.572H171.684C172.636 301.572 173.467 301.712 174.176 301.992C174.904 302.253 175.502 302.627 175.968 303.112C176.454 303.579 176.818 304.139 177.06 304.792C177.303 305.445 177.424 306.155 177.424 306.92C177.424 307.685 177.303 308.395 177.06 309.048C176.818 309.701 176.454 310.261 175.968 310.728C175.502 311.195 174.904 311.559 174.176 311.82C173.467 312.081 172.636 312.212 171.684 312.212H158.692ZM172.356 295.804H171.096V300.592H166.252V288.216C166.252 287.432 166.486 286.844 166.952 286.452C167.438 286.041 168.007 285.836 168.66 285.836C169.295 285.836 169.855 286.041 170.34 286.452C170.844 286.844 171.096 287.432 171.096 288.216V291.604H172.356V288.216C172.356 287.432 172.599 286.844 173.084 286.452C173.588 286.041 174.167 285.836 174.82 285.836C175.455 285.836 176.024 286.041 176.528 286.452C177.032 286.844 177.284 287.432 177.284 288.216V300.592H172.356V295.804ZM152.784 296.42C153.755 296.047 154.492 295.328 154.996 294.264C155.5 293.2 155.752 291.707 155.752 289.784V288.944C155.752 288.048 155.995 287.395 156.48 286.984C156.984 286.555 157.591 286.34 158.3 286.34C159.01 286.34 159.626 286.555 160.148 286.984C160.69 287.395 160.96 288.048 160.96 288.944V289.784C160.96 290.176 160.951 290.559 160.932 290.932C160.914 291.287 160.886 291.632 160.848 291.968C162.528 292.304 163.779 293.144 164.6 294.488C165.44 295.832 165.758 297.773 165.552 300.312H160.54C160.708 299.416 160.718 298.632 160.568 297.96C160.438 297.269 160.158 296.737 159.728 296.364C159.131 297.652 158.347 298.669 157.376 299.416C156.424 300.144 155.342 300.592 154.128 300.76C153.419 300.853 152.803 300.741 152.28 300.424C151.776 300.107 151.478 299.649 151.384 299.052C151.16 297.745 151.627 296.868 152.784 296.42ZM170.2 308.292C170.816 308.292 171.227 308.143 171.432 307.844C171.638 307.545 171.74 307.237 171.74 306.92C171.74 306.603 171.638 306.304 171.432 306.024C171.227 305.744 170.816 305.604 170.2 305.604H160.176C159.56 305.604 159.15 305.744 158.944 306.024C158.739 306.304 158.636 306.603 158.636 306.92C158.636 307.237 158.739 307.545 158.944 307.844C159.15 308.143 159.56 308.292 160.176 308.292H170.2ZM189.576 297.904V296.252H184.536C183.696 296.252 183.015 296.187 182.492 296.056C181.97 295.907 181.559 295.673 181.26 295.356C180.98 295.039 180.784 294.609 180.672 294.068C180.579 293.527 180.532 292.845 180.532 292.024V290.428C180.532 289.625 180.579 288.953 180.672 288.412C180.784 287.871 180.98 287.441 181.26 287.124C181.559 286.788 181.97 286.555 182.492 286.424C183.015 286.293 183.696 286.228 184.536 286.228H200.468C201.308 286.228 201.99 286.293 202.512 286.424C203.035 286.555 203.436 286.788 203.716 287.124C204.015 287.441 204.211 287.871 204.304 288.412C204.416 288.953 204.472 289.625 204.472 290.428V296.252H195.288V297.904H203.268C204.108 297.904 204.706 298.128 205.06 298.576C205.415 299.005 205.592 299.5 205.592 300.06C205.592 300.62 205.415 301.124 205.06 301.572C204.706 302.001 204.108 302.216 203.268 302.216H181.708C180.868 302.216 180.271 302.001 179.916 301.572C179.562 301.124 179.384 300.62 179.384 300.06C179.384 299.5 179.562 299.005 179.916 298.576C180.271 298.128 180.868 297.904 181.708 297.904H189.576ZM182.828 307.928C182.063 307.928 181.475 307.732 181.064 307.34C180.672 306.948 180.476 306.435 180.476 305.8C180.476 305.165 180.672 304.661 181.064 304.288C181.475 303.915 182.063 303.728 182.828 303.728H200.412C201.252 303.728 201.934 303.803 202.456 303.952C202.979 304.083 203.38 304.307 203.66 304.624C203.959 304.941 204.155 305.38 204.248 305.94C204.36 306.481 204.416 307.153 204.416 307.956V312.128H198.816V308.544C198.816 308.133 198.611 307.928 198.2 307.928H182.828ZM186.132 291.492C186.132 291.772 186.17 291.977 186.244 292.108C186.338 292.22 186.524 292.276 186.804 292.276H198.9V290.904C198.9 290.643 198.854 290.456 198.76 290.344C198.667 290.213 198.48 290.148 198.2 290.148H186.804C186.524 290.148 186.338 290.213 186.244 290.344C186.17 290.456 186.132 290.643 186.132 290.904V291.492ZM217.576 298.576V297.4H212.116C211.5 297.4 210.959 297.307 210.492 297.12C210.044 296.933 209.662 296.681 209.344 296.364C209.046 296.028 208.812 295.645 208.644 295.216C208.495 294.768 208.42 294.301 208.42 293.816V293.648C208.42 292.621 208.728 291.809 209.344 291.212C209.96 290.615 210.884 290.316 212.116 290.316H226.396V289.84C226.396 289.672 226.359 289.551 226.284 289.476C226.21 289.401 226.07 289.364 225.864 289.364H210.156C209.634 289.364 209.242 289.196 208.98 288.86C208.719 288.505 208.588 288.141 208.588 287.768C208.588 287.395 208.71 287.031 208.952 286.676C209.195 286.321 209.596 286.144 210.156 286.144H228.972C230.186 286.144 231.016 286.377 231.464 286.844C231.931 287.292 232.164 287.945 232.164 288.804V293.2H214.944C214.739 293.2 214.599 293.247 214.524 293.34C214.45 293.433 214.412 293.545 214.412 293.676C214.412 293.993 214.59 294.152 214.944 294.152H231.24C231.8 294.152 232.192 294.329 232.416 294.684C232.659 295.039 232.78 295.412 232.78 295.804C232.78 296.159 232.668 296.513 232.444 296.868C232.22 297.223 231.819 297.4 231.24 297.4H223.288V298.576H231.296C232.136 298.576 232.724 298.781 233.06 299.192C233.415 299.584 233.592 300.06 233.592 300.62C233.592 301.18 233.415 301.665 233.06 302.076C232.724 302.468 232.136 302.664 231.296 302.664H209.68C208.84 302.664 208.243 302.468 207.888 302.076C207.552 301.665 207.384 301.18 207.384 300.62C207.384 300.06 207.552 299.584 207.888 299.192C208.243 298.781 208.84 298.576 209.68 298.576H217.576ZM210.828 307.76C210.063 307.76 209.475 307.573 209.064 307.2C208.672 306.827 208.476 306.341 208.476 305.744C208.476 305.147 208.672 304.671 209.064 304.316C209.475 303.961 210.063 303.784 210.828 303.784H228.412C229.252 303.784 229.934 303.84 230.456 303.952C230.979 304.064 231.38 304.279 231.66 304.596C231.959 304.895 232.155 305.305 232.248 305.828C232.36 306.351 232.416 307.013 232.416 307.816V312.128H226.816V308.376C226.816 307.965 226.611 307.76 226.2 307.76H210.828ZM236.112 293.872C236.112 292.64 236.308 291.557 236.7 290.624C237.092 289.672 237.634 288.879 238.324 288.244C239.034 287.591 239.874 287.105 240.844 286.788C241.815 286.452 242.888 286.284 244.064 286.284C245.24 286.284 246.314 286.452 247.284 286.788C248.255 287.105 249.095 287.581 249.804 288.216C250.514 288.851 251.064 289.644 251.456 290.596C251.848 291.548 252.044 292.64 252.044 293.872V304.008C252.044 305.24 251.848 306.332 251.456 307.284C251.064 308.236 250.514 309.029 249.804 309.664C249.114 310.299 248.274 310.775 247.284 311.092C246.314 311.428 245.25 311.596 244.092 311.596C242.916 311.596 241.843 311.428 240.872 311.092C239.902 310.775 239.062 310.299 238.352 309.664C237.643 309.029 237.092 308.236 236.7 307.284C236.308 306.332 236.112 305.24 236.112 304.008V293.872ZM241.656 304.12C241.656 305.072 241.88 305.791 242.328 306.276C242.795 306.743 243.374 306.976 244.064 306.976C244.755 306.976 245.334 306.743 245.8 306.276C246.267 305.791 246.5 305.072 246.5 304.12V293.76C246.5 292.808 246.267 292.089 245.8 291.604C245.334 291.119 244.755 290.885 244.064 290.904C243.374 290.923 242.795 291.175 242.328 291.66C241.88 292.127 241.656 292.827 241.656 293.76V304.12ZM255.236 312.128V288.608C255.236 287.693 255.516 287.003 256.076 286.536C256.636 286.069 257.29 285.836 258.036 285.836C258.783 285.836 259.436 286.069 259.996 286.536C260.556 287.003 260.836 287.693 260.836 288.608V312.128H255.236ZM271.848 292.584C271.848 291.445 272.035 290.475 272.408 289.672C272.8 288.869 273.341 288.216 274.032 287.712C274.723 287.189 275.544 286.816 276.496 286.592C277.467 286.349 278.531 286.228 279.688 286.228C281.704 286.228 283.384 286.601 284.728 287.348C286.072 288.076 286.912 289.261 287.248 290.904H291.112V288.552C291.112 287.656 291.392 286.984 291.952 286.536C292.512 286.069 293.156 285.836 293.884 285.836C294.239 285.836 294.584 285.901 294.92 286.032C295.256 286.144 295.555 286.312 295.816 286.536C296.077 286.76 296.283 287.04 296.432 287.376C296.6 287.712 296.684 288.104 296.684 288.552V300.032H291.112V295.272H287.22C286.847 296.877 285.988 298.035 284.644 298.744C283.319 299.453 281.667 299.808 279.688 299.808C278.512 299.808 277.439 299.696 276.468 299.472C275.497 299.229 274.667 298.856 273.976 298.352C273.304 297.829 272.781 297.167 272.408 296.364C272.035 295.561 271.848 294.591 271.848 293.452V292.584ZM275.964 312.128C275.292 312.128 274.732 312.063 274.284 311.932C273.855 311.82 273.519 311.624 273.276 311.344C273.033 311.064 272.865 310.7 272.772 310.252C272.679 309.823 272.632 309.281 272.632 308.628V303.056C272.632 302.216 272.837 301.637 273.248 301.32C273.659 300.984 274.219 300.816 274.928 300.816C275.619 300.816 276.16 300.984 276.552 301.32C276.944 301.656 277.149 302.216 277.168 303H280.192C280.192 302.197 280.388 301.637 280.78 301.32C281.172 300.984 281.723 300.816 282.432 300.816C283.141 300.816 283.683 300.984 284.056 301.32C284.448 301.656 284.644 302.235 284.644 303.056V312.128H275.964ZM286.324 308.432C286.791 308.264 287.201 308.04 287.556 307.76C287.911 307.48 288.2 307.135 288.424 306.724C288.667 306.295 288.853 305.791 288.984 305.212C289.115 304.615 289.189 303.905 289.208 303.084C289.227 302.263 289.479 301.675 289.964 301.32C290.468 300.947 291.075 300.76 291.784 300.76C292.512 300.76 293.091 300.965 293.52 301.376C293.968 301.768 294.192 302.365 294.192 303.168C294.192 303.504 294.173 303.831 294.136 304.148C294.117 304.447 294.089 304.745 294.052 305.044C295.489 305.324 296.591 306.024 297.356 307.144C298.121 308.264 298.467 309.925 298.392 312.128H293.464C293.613 311.363 293.632 310.709 293.52 310.168C293.427 309.627 293.184 309.216 292.792 308.936C292.157 310.019 291.373 310.849 290.44 311.428C289.525 312.025 288.564 312.371 287.556 312.464C286.884 312.52 286.333 312.408 285.904 312.128C285.475 311.867 285.204 311.493 285.092 311.008C284.98 310.467 285.008 309.963 285.176 309.496C285.363 309.011 285.745 308.656 286.324 308.432ZM277.308 293.732C277.308 294.441 277.523 294.973 277.952 295.328C278.4 295.664 278.979 295.832 279.688 295.832C280.397 295.832 280.967 295.664 281.396 295.328C281.844 294.973 282.068 294.441 282.068 293.732V292.304C282.068 291.595 281.844 291.072 281.396 290.736C280.967 290.381 280.397 290.204 279.688 290.204C278.979 290.204 278.4 290.381 277.952 290.736C277.523 291.072 277.308 291.595 277.308 292.304V293.732ZM280.192 308.656V306.416H277.168V308.012C277.168 308.292 277.205 308.469 277.28 308.544C277.355 308.619 277.532 308.656 277.812 308.656H280.192ZM303.348 301.684C303.964 301.684 304.533 301.833 305.056 302.132C305.579 302.431 305.915 302.907 306.064 303.56H318.58C318.711 302.851 319.037 302.365 319.56 302.104C320.083 301.824 320.68 301.684 321.352 301.684C321.707 301.684 322.052 301.731 322.388 301.824C322.724 301.899 323.023 302.029 323.284 302.216C323.564 302.403 323.779 302.655 323.928 302.972C324.096 303.271 324.18 303.644 324.18 304.092V312.128H304.496C303.656 312.128 302.975 312.053 302.452 311.904C301.929 311.773 301.519 311.54 301.22 311.204C300.94 310.887 300.744 310.457 300.632 309.916C300.539 309.375 300.492 308.693 300.492 307.872V304.092C300.492 303.644 300.567 303.271 300.716 302.972C300.884 302.655 301.099 302.403 301.36 302.216C301.621 302.029 301.92 301.899 302.256 301.824C302.611 301.731 302.975 301.684 303.348 301.684ZM314.968 288.412C314.968 288.468 314.959 288.524 314.94 288.58C314.94 288.617 314.94 288.655 314.94 288.692C316.023 288.636 317.096 288.729 318.16 288.972C319.224 289.196 320.195 289.597 321.072 290.176C321.968 290.736 322.733 291.492 323.368 292.444C324.003 293.377 324.451 294.525 324.712 295.888H319.028C318.804 295.272 318.468 294.74 318.02 294.292C317.591 293.844 317.087 293.499 316.508 293.256C315.948 292.995 315.323 292.836 314.632 292.78C313.941 292.724 313.232 292.761 312.504 292.892C311.888 293.433 311.179 293.909 310.376 294.32C309.592 294.731 308.761 295.067 307.884 295.328C307.007 295.589 306.101 295.776 305.168 295.888C304.235 296 303.311 296.019 302.396 295.944C301.556 295.888 300.931 295.645 300.52 295.216C300.128 294.768 299.941 294.264 299.96 293.704C299.96 293.424 300.016 293.144 300.128 292.864C300.24 292.584 300.399 292.341 300.604 292.136C300.828 291.912 301.099 291.744 301.416 291.632C301.733 291.501 302.107 291.436 302.536 291.436C303.208 291.455 303.908 291.38 304.636 291.212C305.383 291.044 306.064 290.801 306.68 290.484C307.315 290.167 307.865 289.784 308.332 289.336C308.799 288.888 309.107 288.384 309.256 287.824C309.48 286.965 309.9 286.359 310.516 286.004C311.151 285.649 311.851 285.519 312.616 285.612C313.363 285.705 313.951 285.967 314.38 286.396C314.828 286.825 315.024 287.497 314.968 288.412ZM323.256 296.784C324.059 296.784 324.619 296.999 324.936 297.428C325.272 297.839 325.44 298.305 325.44 298.828C325.44 299.369 325.272 299.845 324.936 300.256C324.6 300.667 324.04 300.872 323.256 300.872H301.416C300.632 300.872 300.072 300.667 299.736 300.256C299.4 299.845 299.232 299.369 299.232 298.828C299.232 298.305 299.391 297.839 299.708 297.428C300.044 296.999 300.613 296.784 301.416 296.784H323.256ZM318.552 308.488V307.004H306.12V307.62C306.12 307.9 306.176 308.115 306.288 308.264C306.419 308.413 306.652 308.488 306.988 308.488H318.552ZM343.164 305.996C343.575 305.996 343.911 306.071 344.172 306.22C344.452 306.351 344.667 306.528 344.816 306.752C344.984 306.976 345.096 307.228 345.152 307.508C345.227 307.788 345.264 308.059 345.264 308.32C345.264 308.6 345.227 308.88 345.152 309.16C345.096 309.44 344.984 309.701 344.816 309.944C344.648 310.168 344.424 310.355 344.144 310.504C343.883 310.653 343.556 310.728 343.164 310.728H332.412C331.572 310.728 330.872 310.644 330.312 310.476C329.771 310.327 329.332 310.084 328.996 309.748C328.679 309.393 328.455 308.945 328.324 308.404C328.193 307.844 328.128 307.163 328.128 306.36V289.672C328.128 289.205 328.203 288.804 328.352 288.468C328.52 288.113 328.735 287.824 328.996 287.6C329.257 287.376 329.556 287.217 329.892 287.124C330.247 287.012 330.611 286.956 330.984 286.956C331.768 286.956 332.421 287.18 332.944 287.628C333.485 288.057 333.756 288.739 333.756 289.672V305.212C333.756 305.529 333.812 305.744 333.924 305.856C334.036 305.949 334.251 305.996 334.568 305.996H343.164ZM347.084 312.128V288.608C347.084 287.693 347.364 287.003 347.924 286.536C348.484 286.069 349.137 285.836 349.884 285.836C350.631 285.836 351.284 286.069 351.844 286.536C352.404 287.003 352.684 287.693 352.684 288.608V312.128H347.084ZM360.412 311.008C359.497 311.008 358.76 310.943 358.2 310.812C357.64 310.681 357.201 310.448 356.884 310.112C356.585 309.795 356.38 309.356 356.268 308.796C356.156 308.236 356.1 307.517 356.1 306.64V291.156C356.1 290.279 356.156 289.56 356.268 289C356.38 288.44 356.585 288.001 356.884 287.684C357.201 287.348 357.64 287.124 358.2 287.012C358.76 286.881 359.497 286.816 360.412 286.816H369.316C369.727 286.816 370.063 286.891 370.324 287.04C370.604 287.189 370.819 287.376 370.968 287.6C371.136 287.824 371.248 288.076 371.304 288.356C371.379 288.636 371.416 288.907 371.416 289.168C371.416 289.448 371.379 289.728 371.304 290.008C371.248 290.288 371.136 290.54 370.968 290.764C370.8 290.988 370.576 291.175 370.296 291.324C370.035 291.473 369.708 291.548 369.316 291.548H362.344C362.083 291.548 361.896 291.604 361.784 291.716C361.672 291.828 361.616 292.043 361.616 292.36V305.52C361.616 305.837 361.672 306.052 361.784 306.164C361.896 306.276 362.083 306.332 362.344 306.332H370.604C371.015 306.332 371.351 306.407 371.612 306.556C371.892 306.705 372.107 306.892 372.256 307.116C372.424 307.34 372.536 307.592 372.592 307.872C372.667 308.152 372.704 308.423 372.704 308.684C372.704 308.964 372.667 309.244 372.592 309.524C372.536 309.785 372.424 310.028 372.256 310.252C372.088 310.476 371.864 310.653 371.584 310.784C371.323 310.933 370.996 311.008 370.604 311.008H360.412ZM374.328 288.552C374.328 287.656 374.608 286.984 375.168 286.536C375.728 286.069 376.372 285.836 377.1 285.836C377.455 285.836 377.8 285.901 378.136 286.032C378.472 286.144 378.761 286.312 379.004 286.536C379.265 286.76 379.471 287.04 379.62 287.376C379.788 287.712 379.872 288.104 379.872 288.552V295.636H380.796C381.225 295.636 381.58 295.711 381.86 295.86C382.14 296.009 382.364 296.205 382.532 296.448C382.7 296.672 382.821 296.933 382.896 297.232C382.971 297.512 383.008 297.792 383.008 298.072C383.008 298.352 382.971 298.641 382.896 298.94C382.821 299.22 382.7 299.481 382.532 299.724C382.364 299.948 382.131 300.135 381.832 300.284C381.552 300.433 381.207 300.508 380.796 300.508H379.872V312.128H374.328V288.552ZM383.428 307.76C383.428 306.883 383.689 306.192 384.212 305.688C384.735 305.184 385.472 304.932 386.424 304.932C387.376 304.932 388.113 305.193 388.636 305.716C389.159 306.22 389.42 306.901 389.42 307.76C389.42 308.619 389.159 309.309 388.636 309.832C388.113 310.336 387.376 310.588 386.424 310.588C385.472 310.588 384.735 310.336 384.212 309.832C383.689 309.328 383.428 308.637 383.428 307.76ZM0.931094 328.94C0.931094 328.66 0.968427 328.38 1.04309 328.1C1.13643 327.82 1.26709 327.568 1.43509 327.344C1.62176 327.12 1.85509 326.943 2.13509 326.812C2.43376 326.663 2.78843 326.588 3.19909 326.588H6.22309V323.648C6.22309 322.733 6.47509 322.061 6.97909 321.632C7.50176 321.203 8.10843 320.988 8.79909 320.988C9.48976 320.988 10.0871 321.203 10.5911 321.632C11.1138 322.061 11.3751 322.733 11.3751 323.648V326.588H14.3991C14.8098 326.588 15.1551 326.663 15.4351 326.812C15.7338 326.943 15.9671 327.12 16.1351 327.344C16.3218 327.568 16.4524 327.82 16.5271 328.1C16.6204 328.38 16.6671 328.66 16.6671 328.94C16.6671 329.22 16.6204 329.509 16.5271 329.808C16.4524 330.088 16.3218 330.349 16.1351 330.592C15.9484 330.816 15.7151 331.003 15.4351 331.152C15.1551 331.301 14.8098 331.376 14.3991 331.376H11.3751V334.316C11.3751 335.231 11.1138 335.903 10.5911 336.332C10.0871 336.761 9.48976 336.976 8.79909 336.976C8.10843 336.976 7.50176 336.761 6.97909 336.332C6.47509 335.903 6.22309 335.231 6.22309 334.316V331.376H3.19909C2.78843 331.376 2.43376 331.301 2.13509 331.152C1.85509 331.003 1.62176 330.816 1.43509 330.592C1.26709 330.349 1.13643 330.088 1.04309 329.808C0.968427 329.509 0.931094 329.22 0.931094 328.94ZM30.8305 340.924C30.0092 340.924 29.3372 340.849 28.8145 340.7C28.2918 340.551 27.8812 340.308 27.5825 339.972C27.2838 339.636 27.0692 339.207 26.9385 338.684C26.8265 338.143 26.7705 337.489 26.7705 336.724V319.532C26.7705 318.543 27.0318 317.833 27.5545 317.404C28.0772 316.975 28.7492 316.76 29.5705 316.76C30.3732 316.76 31.0172 316.984 31.5025 317.432C32.0065 317.861 32.2585 318.561 32.2585 319.532V323.816H37.0185V319.532C37.0185 318.543 37.2705 317.833 37.7745 317.404C38.2785 316.975 38.9318 316.76 39.7345 316.76C40.5558 316.76 41.2092 316.984 41.6945 317.432C42.1985 317.861 42.4505 318.561 42.4505 319.532V325.804H45.8385V318.552C45.8385 317.656 46.1185 316.984 46.6785 316.536C47.2385 316.069 47.8825 315.836 48.6105 315.836C48.9652 315.836 49.3105 315.901 49.6465 316.032C49.9825 316.144 50.2812 316.312 50.5425 316.536C50.8038 316.76 51.0092 317.04 51.1585 317.376C51.3265 317.712 51.4105 318.104 51.4105 318.552V342.128H45.8385V330.592H42.4505V340.924H30.8305ZM37.0185 336.304V328.38H32.2585V335.576C32.2585 335.893 32.3052 336.099 32.3985 336.192C32.5105 336.267 32.7252 336.304 33.0425 336.304H37.0185ZM59.3625 342.128C58.5785 342.128 57.9252 342.053 57.4025 341.904C56.8798 341.773 56.4692 341.549 56.1705 341.232C55.8718 340.915 55.6572 340.504 55.5265 340C55.4145 339.477 55.3585 338.833 55.3585 338.068V336.584C55.3585 335.632 55.6478 334.969 56.2265 334.596C56.8052 334.204 57.4865 334.008 58.2705 334.008C59.0545 334.008 59.7172 334.204 60.2585 334.596C60.8185 334.988 61.0985 335.651 61.0985 336.584V337.34C61.0985 337.583 61.1358 337.741 61.2105 337.816C61.2852 337.872 61.4532 337.9 61.7145 337.9H76.9465C77.8052 337.9 78.4118 338.115 78.7665 338.544C79.1212 338.955 79.2985 339.44 79.2985 340C79.2985 340.579 79.1118 341.073 78.7385 341.484C78.3838 341.913 77.7865 342.128 76.9465 342.128H59.3625ZM77.9825 329.052C78.3745 329.052 78.7105 329.117 78.9905 329.248C79.2705 329.36 79.4945 329.519 79.6625 329.724C79.8492 329.929 79.9798 330.163 80.0545 330.424C80.1292 330.667 80.1665 330.919 80.1665 331.18C80.1665 331.721 79.9985 332.216 79.6625 332.664C79.3265 333.093 78.7665 333.308 77.9825 333.308H56.1425C55.3585 333.308 54.7985 333.093 54.4625 332.664C54.1265 332.216 53.9585 331.721 53.9585 331.18C53.9585 330.919 53.9958 330.667 54.0705 330.424C54.1452 330.163 54.2665 329.929 54.4345 329.724C54.6212 329.519 54.8545 329.36 55.1345 329.248C55.4145 329.117 55.7505 329.052 56.1425 329.052H77.9825ZM77.3385 316.144C77.9172 316.144 78.3278 316.331 78.5705 316.704C78.8318 317.059 78.9625 317.423 78.9625 317.796C78.9625 318.207 78.8318 318.589 78.5705 318.944C78.3092 319.299 77.8985 319.476 77.3385 319.476H61.2665C60.8932 319.476 60.7065 319.635 60.7065 319.952V320.54H77.1985C77.7958 320.54 78.2065 320.699 78.4305 321.016C78.6732 321.333 78.7945 321.679 78.7945 322.052C78.7945 322.444 78.6732 322.799 78.4305 323.116C78.2065 323.433 77.7958 323.592 77.1985 323.592H60.7065V324.152C60.7065 324.357 60.7438 324.497 60.8185 324.572C60.9118 324.628 61.0612 324.656 61.2665 324.656H77.7025C78.2625 324.656 78.6638 324.833 78.9065 325.188C79.1492 325.543 79.2705 325.897 79.2705 326.252C79.2705 326.681 79.1398 327.073 78.8785 327.428C78.6358 327.764 78.2438 327.932 77.7025 327.932H58.4105C57.1972 327.932 56.3478 327.68 55.8625 327.176C55.3772 326.672 55.1345 325.86 55.1345 324.74V319.364C55.1345 318.225 55.3772 317.404 55.8625 316.9C56.3478 316.396 57.1972 316.144 58.4105 316.144H77.3385ZM107.271 320.624C107.271 321.259 107.168 321.856 106.963 322.416C106.757 322.957 106.44 323.433 106.011 323.844C105.6 324.236 105.077 324.553 104.443 324.796C103.808 325.02 103.052 325.132 102.175 325.132H87.9505C87.0732 325.132 86.3172 325.02 85.6825 324.796C85.0478 324.553 84.5158 324.236 84.0865 323.844C83.6758 323.433 83.3678 322.957 83.1625 322.416C82.9572 321.856 82.8545 321.259 82.8545 320.624C82.8545 319.989 82.9572 319.401 83.1625 318.86C83.3678 318.319 83.6758 317.843 84.0865 317.432C84.5158 317.021 85.0478 316.704 85.6825 316.48C86.3172 316.237 87.0732 316.116 87.9505 316.116H102.175C103.052 316.116 103.808 316.237 104.443 316.48C105.077 316.704 105.6 317.021 106.011 317.432C106.44 317.843 106.757 318.319 106.963 318.86C107.168 319.401 107.271 319.989 107.271 320.624ZM101.531 320.624C101.531 320.363 101.447 320.157 101.279 320.008C101.129 319.84 100.84 319.756 100.411 319.756H89.7145C89.2852 319.756 88.9865 319.84 88.8185 320.008C88.6692 320.157 88.5945 320.363 88.5945 320.624C88.5945 320.885 88.6692 321.1 88.8185 321.268C88.9865 321.417 89.2852 321.492 89.7145 321.492H100.411C100.84 321.492 101.129 321.417 101.279 321.268C101.447 321.1 101.531 320.885 101.531 320.624ZM86.2705 342.128C85.6732 342.128 85.1505 342.025 84.7025 341.82C84.2545 341.633 83.8812 341.372 83.5825 341.036C83.3025 340.719 83.0878 340.345 82.9385 339.916C82.8078 339.487 82.7425 339.029 82.7425 338.544V338.46C82.7425 337.471 83.0225 336.668 83.5825 336.052C84.1425 335.436 85.0385 335.128 86.2705 335.128H101.251V334.596C101.251 334.297 101.055 334.148 100.663 334.148H84.6185C84.0958 334.148 83.6945 333.989 83.4145 333.672C83.1532 333.336 83.0225 332.981 83.0225 332.608C83.0225 332.235 83.1438 331.88 83.3865 331.544C83.6478 331.208 84.0585 331.04 84.6185 331.04H103.883C105.077 331.04 105.899 331.264 106.347 331.712C106.795 332.141 107.019 332.785 107.019 333.644V338.012H89.2945C89.0892 338.012 88.9492 338.059 88.8745 338.152C88.7998 338.227 88.7625 338.339 88.7625 338.488C88.7625 338.637 88.7998 338.759 88.8745 338.852C88.9492 338.945 89.0892 338.992 89.2945 338.992H106.291C106.832 338.992 107.215 339.16 107.439 339.496C107.681 339.813 107.803 340.168 107.803 340.56C107.803 340.896 107.691 341.241 107.467 341.596C107.243 341.951 106.851 342.128 106.291 342.128H86.2705ZM106.151 326.14C106.897 326.14 107.42 326.336 107.719 326.728C108.017 327.12 108.167 327.559 108.167 328.044C108.167 328.548 108.008 328.996 107.691 329.388C107.392 329.761 106.879 329.948 106.151 329.948H83.9745C83.2465 329.948 82.7238 329.761 82.4065 329.388C82.1078 328.996 81.9585 328.548 81.9585 328.044C81.9585 327.559 82.1078 327.12 82.4065 326.728C82.7052 326.336 83.2278 326.14 83.9745 326.14H106.151ZM122.118 342.128C121.521 342.128 120.998 342.025 120.55 341.82C120.102 341.633 119.729 341.372 119.43 341.036C119.15 340.7 118.935 340.317 118.786 339.888C118.655 339.44 118.59 338.973 118.59 338.488V338.404C118.59 337.415 118.87 336.603 119.43 335.968C119.99 335.333 120.886 335.016 122.118 335.016H137.098V334.428C137.098 334.129 136.902 333.98 136.51 333.98H120.466C119.943 333.98 119.542 333.812 119.262 333.476C119.001 333.14 118.87 332.785 118.87 332.412C118.87 332.039 118.991 331.684 119.234 331.348C119.495 330.993 119.906 330.816 120.466 330.816H128.082V329.556H119.822C119.094 329.556 118.571 329.351 118.254 328.94C117.955 328.529 117.806 328.072 117.806 327.568C117.806 327.325 117.843 327.092 117.918 326.868C117.993 326.625 118.105 326.411 118.254 326.224C118.422 326.037 118.627 325.888 118.87 325.776C119.131 325.645 119.449 325.58 119.822 325.58H141.998C142.371 325.58 142.679 325.645 142.922 325.776C143.183 325.888 143.389 326.037 143.538 326.224C143.706 326.411 143.827 326.625 143.902 326.868C143.977 327.092 144.014 327.325 144.014 327.568C144.014 328.072 143.855 328.529 143.538 328.94C143.239 329.351 142.726 329.556 141.998 329.556H133.738V330.816H139.73C140.925 330.816 141.746 331.04 142.194 331.488C142.642 331.917 142.866 332.561 142.866 333.42V337.9H125.142C124.937 337.9 124.797 337.956 124.722 338.068C124.647 338.161 124.61 338.283 124.61 338.432C124.61 338.581 124.647 338.703 124.722 338.796C124.797 338.889 124.937 338.936 125.142 338.936H142.138C142.679 338.936 143.062 339.104 143.286 339.44C143.529 339.776 143.65 340.14 143.65 340.532C143.65 340.868 143.538 341.213 143.314 341.568C143.09 341.941 142.698 342.128 142.138 342.128H122.118ZM122.874 324.376C122.165 324.376 121.558 324.32 121.054 324.208C120.55 324.077 120.139 323.872 119.822 323.592C119.523 323.312 119.299 322.939 119.15 322.472C119.019 321.987 118.954 321.389 118.954 320.68V318.804C118.954 318.337 119.029 317.936 119.178 317.6C119.346 317.245 119.561 316.956 119.822 316.732C120.102 316.508 120.419 316.34 120.774 316.228C121.129 316.116 121.493 316.06 121.866 316.06C122.631 316.06 123.285 316.284 123.826 316.732C124.386 317.18 124.666 317.871 124.666 318.804V319.728C124.666 320.027 124.713 320.213 124.806 320.288C124.899 320.363 125.105 320.4 125.422 320.4H140.71C141.55 320.4 142.138 320.605 142.474 321.016C142.81 321.408 142.978 321.875 142.978 322.416C142.978 322.976 142.81 323.443 142.474 323.816C142.138 324.189 141.55 324.376 140.71 324.376H122.874ZM152.162 335.184C152.162 335.669 152.255 335.996 152.442 336.164C152.629 336.313 152.965 336.388 153.45 336.388H161.738C162.167 336.388 162.531 336.453 162.83 336.584C163.129 336.715 163.371 336.892 163.558 337.116C163.763 337.321 163.903 337.564 163.978 337.844C164.071 338.105 164.118 338.376 164.118 338.656C164.118 339.235 163.931 339.757 163.558 340.224C163.185 340.709 162.578 340.952 161.738 340.952H151.406C150.529 340.952 149.782 340.868 149.166 340.7C148.55 340.532 148.046 340.261 147.654 339.888C147.281 339.515 147.001 339.029 146.814 338.432C146.646 337.816 146.562 337.069 146.562 336.192V331.096C146.562 330.219 146.646 329.481 146.814 328.884C147.001 328.287 147.281 327.801 147.654 327.428C148.046 327.055 148.55 326.793 149.166 326.644C149.782 326.476 150.529 326.392 151.406 326.392H154.682V322.332C154.682 322.145 154.635 321.968 154.542 321.8C154.449 321.632 154.243 321.548 153.926 321.548H149.222C148.793 321.548 148.429 321.483 148.13 321.352C147.831 321.221 147.589 321.044 147.402 320.82C147.215 320.596 147.075 320.344 146.982 320.064C146.889 319.784 146.842 319.504 146.842 319.224C146.842 318.944 146.879 318.664 146.954 318.384C147.047 318.104 147.187 317.852 147.374 317.628C147.579 317.404 147.831 317.227 148.13 317.096C148.429 316.947 148.793 316.872 149.222 316.872H155.354C156.325 316.872 157.118 316.947 157.734 317.096C158.369 317.245 158.873 317.488 159.246 317.824C159.619 318.16 159.881 318.599 160.03 319.14C160.179 319.681 160.254 320.353 160.254 321.156V330.956H153.45C152.965 330.956 152.629 331.04 152.442 331.208C152.255 331.357 152.162 331.675 152.162 332.16V335.184ZM165.686 330.76H163.362C162.522 330.76 161.934 330.527 161.598 330.06C161.281 329.575 161.122 329.005 161.122 328.352C161.122 328.035 161.159 327.736 161.234 327.456C161.309 327.157 161.43 326.896 161.598 326.672C161.766 326.448 161.99 326.271 162.27 326.14C162.569 326.009 162.933 325.944 163.362 325.944H165.686V318.552C165.686 317.656 165.966 316.984 166.526 316.536C167.086 316.069 167.73 315.836 168.458 315.836C168.813 315.836 169.158 315.901 169.494 316.032C169.83 316.144 170.129 316.312 170.39 316.536C170.651 316.76 170.857 317.04 171.006 317.376C171.174 317.712 171.258 318.104 171.258 318.552V342.128H165.686V330.76ZM202.57 330.564H201.198V342.128H196.298V318.216C196.298 317.432 196.54 316.844 197.026 316.452C197.53 316.041 198.108 315.836 198.762 315.836C199.396 315.836 199.956 316.041 200.442 316.452C200.946 316.844 201.198 317.432 201.198 318.216V325.972H202.57V318.216C202.57 317.432 202.822 316.844 203.326 316.452C203.83 316.041 204.408 315.836 205.062 315.836C205.379 315.836 205.687 315.892 205.986 316.004C206.284 316.097 206.546 316.247 206.77 316.452C207.012 316.657 207.199 316.909 207.33 317.208C207.479 317.488 207.554 317.824 207.554 318.216V342.128H202.57V330.564ZM191.202 321.66V323.06C191.202 325.412 191.09 327.54 190.866 329.444C191.65 329.836 192.331 330.34 192.91 330.956C193.507 331.553 193.992 332.291 194.366 333.168C194.758 334.045 195.028 335.091 195.178 336.304C195.346 337.499 195.383 338.889 195.29 340.476H190.334C190.52 339.151 190.558 338.031 190.446 337.116C190.334 336.201 190.082 335.436 189.69 334.82C188.794 337.321 187.44 339.16 185.63 340.336C185.312 340.541 184.967 340.691 184.594 340.784C184.22 340.877 183.847 340.915 183.474 340.896C183.119 340.877 182.783 340.793 182.466 340.644C182.148 340.495 181.896 340.28 181.71 340C181.374 339.496 181.243 338.927 181.318 338.292C181.392 337.657 181.7 337.125 182.242 336.696C182.988 336.136 183.604 335.492 184.09 334.764C184.594 334.017 184.995 333.121 185.294 332.076C185.611 331.031 185.835 329.78 185.966 328.324C186.096 326.849 186.162 325.104 186.162 323.088V321.66H183.614C183.278 321.66 182.979 321.585 182.718 321.436C182.456 321.287 182.232 321.1 182.046 320.876C181.878 320.652 181.738 320.409 181.626 320.148C181.532 319.868 181.486 319.597 181.486 319.336C181.486 319.093 181.523 318.832 181.598 318.552C181.672 318.272 181.794 318.02 181.962 317.796C182.13 317.572 182.344 317.385 182.606 317.236C182.867 317.087 183.175 317.012 183.53 317.012H193.358C193.712 317.012 194.02 317.087 194.282 317.236C194.543 317.385 194.758 317.572 194.926 317.796C195.094 318.02 195.215 318.272 195.29 318.552C195.364 318.832 195.402 319.093 195.402 319.336C195.402 319.597 195.355 319.868 195.262 320.148C195.168 320.409 195.038 320.652 194.87 320.876C194.702 321.1 194.487 321.287 194.226 321.436C193.983 321.585 193.694 321.66 193.358 321.66H191.202ZM216.962 342.212C215.991 342.212 215.142 342.072 214.414 341.792C213.704 341.531 213.107 341.167 212.622 340.7C212.155 340.233 211.8 339.683 211.558 339.048C211.334 338.395 211.222 337.685 211.222 336.92C211.222 336.173 211.334 335.473 211.558 334.82C211.8 334.167 212.155 333.607 212.622 333.14C213.107 332.655 213.704 332.272 214.414 331.992C215.142 331.712 215.991 331.572 216.962 331.572H229.954C230.906 331.572 231.736 331.712 232.446 331.992C233.174 332.253 233.771 332.627 234.238 333.112C234.723 333.579 235.087 334.139 235.33 334.792C235.572 335.445 235.694 336.155 235.694 336.92C235.694 337.685 235.572 338.395 235.33 339.048C235.087 339.701 234.723 340.261 234.238 340.728C233.771 341.195 233.174 341.559 232.446 341.82C231.736 342.081 230.906 342.212 229.954 342.212H216.962ZM230.626 325.804H229.366V330.592H224.522V318.216C224.522 317.432 224.755 316.844 225.222 316.452C225.707 316.041 226.276 315.836 226.93 315.836C227.564 315.836 228.124 316.041 228.61 316.452C229.114 316.844 229.366 317.432 229.366 318.216V321.604H230.626V318.216C230.626 317.432 230.868 316.844 231.354 316.452C231.858 316.041 232.436 315.836 233.09 315.836C233.724 315.836 234.294 316.041 234.798 316.452C235.302 316.844 235.554 317.432 235.554 318.216V330.592H230.626V325.804ZM211.054 326.42C212.024 326.047 212.762 325.328 213.266 324.264C213.77 323.2 214.022 321.707 214.022 319.784V318.944C214.022 318.048 214.264 317.395 214.75 316.984C215.254 316.555 215.86 316.34 216.57 316.34C217.279 316.34 217.895 316.555 218.418 316.984C218.959 317.395 219.23 318.048 219.23 318.944V319.784C219.23 320.176 219.22 320.559 219.202 320.932C219.183 321.287 219.155 321.632 219.118 321.968C220.798 322.304 222.048 323.144 222.87 324.488C223.71 325.832 224.027 327.773 223.822 330.312H218.81C218.978 329.416 218.987 328.632 218.838 327.96C218.707 327.269 218.427 326.737 217.998 326.364C217.4 327.652 216.616 328.669 215.646 329.416C214.694 330.144 213.611 330.592 212.398 330.76C211.688 330.853 211.072 330.741 210.55 330.424C210.046 330.107 209.747 329.649 209.654 329.052C209.43 327.745 209.896 326.868 211.054 326.42ZM228.47 338.292C229.086 338.292 229.496 338.143 229.702 337.844C229.907 337.545 230.01 337.237 230.01 336.92C230.01 336.603 229.907 336.304 229.702 336.024C229.496 335.744 229.086 335.604 228.47 335.604H218.446C217.83 335.604 217.419 335.744 217.214 336.024C217.008 336.304 216.906 336.603 216.906 336.92C216.906 337.237 217.008 337.545 217.214 337.844C217.419 338.143 217.83 338.292 218.446 338.292H228.47ZM247.846 327.904V326.252H242.806C241.966 326.252 241.284 326.187 240.762 326.056C240.239 325.907 239.828 325.673 239.53 325.356C239.25 325.039 239.054 324.609 238.942 324.068C238.848 323.527 238.802 322.845 238.802 322.024V320.428C238.802 319.625 238.848 318.953 238.942 318.412C239.054 317.871 239.25 317.441 239.53 317.124C239.828 316.788 240.239 316.555 240.762 316.424C241.284 316.293 241.966 316.228 242.806 316.228H258.738C259.578 316.228 260.259 316.293 260.782 316.424C261.304 316.555 261.706 316.788 261.986 317.124C262.284 317.441 262.48 317.871 262.574 318.412C262.686 318.953 262.742 319.625 262.742 320.428V326.252H253.558V327.904H261.538C262.378 327.904 262.975 328.128 263.33 328.576C263.684 329.005 263.862 329.5 263.862 330.06C263.862 330.62 263.684 331.124 263.33 331.572C262.975 332.001 262.378 332.216 261.538 332.216H239.978C239.138 332.216 238.54 332.001 238.186 331.572C237.831 331.124 237.654 330.62 237.654 330.06C237.654 329.5 237.831 329.005 238.186 328.576C238.54 328.128 239.138 327.904 239.978 327.904H247.846ZM241.098 337.928C240.332 337.928 239.744 337.732 239.334 337.34C238.942 336.948 238.746 336.435 238.746 335.8C238.746 335.165 238.942 334.661 239.334 334.288C239.744 333.915 240.332 333.728 241.098 333.728H258.682C259.522 333.728 260.203 333.803 260.726 333.952C261.248 334.083 261.65 334.307 261.93 334.624C262.228 334.941 262.424 335.38 262.518 335.94C262.63 336.481 262.686 337.153 262.686 337.956V342.128H257.086V338.544C257.086 338.133 256.88 337.928 256.47 337.928H241.098ZM244.402 321.492C244.402 321.772 244.439 321.977 244.514 322.108C244.607 322.22 244.794 322.276 245.074 322.276H257.17V320.904C257.17 320.643 257.123 320.456 257.03 320.344C256.936 320.213 256.75 320.148 256.47 320.148H245.074C244.794 320.148 244.607 320.213 244.514 320.344C244.439 320.456 244.402 320.643 244.402 320.904V321.492ZM275.846 328.576V327.4H270.386C269.77 327.4 269.228 327.307 268.762 327.12C268.314 326.933 267.931 326.681 267.614 326.364C267.315 326.028 267.082 325.645 266.914 325.216C266.764 324.768 266.69 324.301 266.69 323.816V323.648C266.69 322.621 266.998 321.809 267.614 321.212C268.23 320.615 269.154 320.316 270.386 320.316H284.666V319.84C284.666 319.672 284.628 319.551 284.554 319.476C284.479 319.401 284.339 319.364 284.134 319.364H268.426C267.903 319.364 267.511 319.196 267.25 318.86C266.988 318.505 266.858 318.141 266.858 317.768C266.858 317.395 266.979 317.031 267.222 316.676C267.464 316.321 267.866 316.144 268.426 316.144H287.242C288.455 316.144 289.286 316.377 289.734 316.844C290.2 317.292 290.434 317.945 290.434 318.804V323.2H273.214C273.008 323.2 272.868 323.247 272.794 323.34C272.719 323.433 272.682 323.545 272.682 323.676C272.682 323.993 272.859 324.152 273.214 324.152H289.51C290.07 324.152 290.462 324.329 290.686 324.684C290.928 325.039 291.05 325.412 291.05 325.804C291.05 326.159 290.938 326.513 290.714 326.868C290.49 327.223 290.088 327.4 289.51 327.4H281.558V328.576H289.566C290.406 328.576 290.994 328.781 291.33 329.192C291.684 329.584 291.862 330.06 291.862 330.62C291.862 331.18 291.684 331.665 291.33 332.076C290.994 332.468 290.406 332.664 289.566 332.664H267.95C267.11 332.664 266.512 332.468 266.158 332.076C265.822 331.665 265.654 331.18 265.654 330.62C265.654 330.06 265.822 329.584 266.158 329.192C266.512 328.781 267.11 328.576 267.95 328.576H275.846ZM269.098 337.76C268.332 337.76 267.744 337.573 267.334 337.2C266.942 336.827 266.746 336.341 266.746 335.744C266.746 335.147 266.942 334.671 267.334 334.316C267.744 333.961 268.332 333.784 269.098 333.784H286.682C287.522 333.784 288.203 333.84 288.726 333.952C289.248 334.064 289.65 334.279 289.93 334.596C290.228 334.895 290.424 335.305 290.518 335.828C290.63 336.351 290.686 337.013 290.686 337.816V342.128H285.086V338.376C285.086 337.965 284.88 337.76 284.47 337.76H269.098ZM318.966 320.624C318.966 321.259 318.863 321.856 318.658 322.416C318.452 322.957 318.135 323.433 317.706 323.844C317.295 324.236 316.772 324.553 316.138 324.796C315.503 325.02 314.747 325.132 313.87 325.132H299.646C298.768 325.132 298.012 325.02 297.378 324.796C296.743 324.553 296.211 324.236 295.782 323.844C295.371 323.433 295.063 322.957 294.858 322.416C294.652 321.856 294.55 321.259 294.55 320.624C294.55 319.989 294.652 319.401 294.858 318.86C295.063 318.319 295.371 317.843 295.782 317.432C296.211 317.021 296.743 316.704 297.378 316.48C298.012 316.237 298.768 316.116 299.646 316.116H313.87C314.747 316.116 315.503 316.237 316.138 316.48C316.772 316.704 317.295 317.021 317.706 317.432C318.135 317.843 318.452 318.319 318.658 318.86C318.863 319.401 318.966 319.989 318.966 320.624ZM313.226 320.624C313.226 320.363 313.142 320.157 312.974 320.008C312.824 319.84 312.535 319.756 312.106 319.756H301.41C300.98 319.756 300.682 319.84 300.514 320.008C300.364 320.157 300.29 320.363 300.29 320.624C300.29 320.885 300.364 321.1 300.514 321.268C300.682 321.417 300.98 321.492 301.41 321.492H312.106C312.535 321.492 312.824 321.417 312.974 321.268C313.142 321.1 313.226 320.885 313.226 320.624ZM297.966 342.128C297.368 342.128 296.846 342.025 296.398 341.82C295.95 341.633 295.576 341.372 295.278 341.036C294.998 340.719 294.783 340.345 294.634 339.916C294.503 339.487 294.438 339.029 294.438 338.544V338.46C294.438 337.471 294.718 336.668 295.278 336.052C295.838 335.436 296.734 335.128 297.966 335.128H312.946V334.596C312.946 334.297 312.75 334.148 312.358 334.148H296.314C295.791 334.148 295.39 333.989 295.11 333.672C294.848 333.336 294.718 332.981 294.718 332.608C294.718 332.235 294.839 331.88 295.082 331.544C295.343 331.208 295.754 331.04 296.314 331.04H315.578C316.772 331.04 317.594 331.264 318.042 331.712C318.49 332.141 318.714 332.785 318.714 333.644V338.012H300.99C300.784 338.012 300.644 338.059 300.57 338.152C300.495 338.227 300.458 338.339 300.458 338.488C300.458 338.637 300.495 338.759 300.57 338.852C300.644 338.945 300.784 338.992 300.99 338.992H317.986C318.527 338.992 318.91 339.16 319.134 339.496C319.376 339.813 319.498 340.168 319.498 340.56C319.498 340.896 319.386 341.241 319.162 341.596C318.938 341.951 318.546 342.128 317.986 342.128H297.966ZM317.846 326.14C318.592 326.14 319.115 326.336 319.414 326.728C319.712 327.12 319.862 327.559 319.862 328.044C319.862 328.548 319.703 328.996 319.386 329.388C319.087 329.761 318.574 329.948 317.846 329.948H295.67C294.942 329.948 294.419 329.761 294.102 329.388C293.803 328.996 293.654 328.548 293.654 328.044C293.654 327.559 293.803 327.12 294.102 326.728C294.4 326.336 294.923 326.14 295.67 326.14H317.846ZM334.317 330.704C333.477 330.704 332.796 330.639 332.273 330.508C331.751 330.359 331.34 330.125 331.041 329.808C330.761 329.472 330.565 329.033 330.453 328.492C330.36 327.951 330.313 327.269 330.313 326.448V320.988C330.313 320.185 330.36 319.513 330.453 318.972C330.565 318.412 330.761 317.973 331.041 317.656C331.34 317.32 331.751 317.087 332.273 316.956C332.796 316.807 333.477 316.732 334.317 316.732H341.877C342.717 316.732 343.399 316.807 343.921 316.956C344.444 317.087 344.845 317.32 345.125 317.656C345.424 317.973 345.62 318.412 345.713 318.972C345.825 319.513 345.881 320.185 345.881 320.988V330.704H334.317ZM335.661 342.128C334.877 342.128 334.224 342.053 333.701 341.904C333.197 341.755 332.796 341.521 332.497 341.204C332.199 340.887 331.984 340.467 331.853 339.944C331.741 339.421 331.685 338.787 331.685 338.04V335.044C331.685 334.092 331.965 333.392 332.525 332.944C333.104 332.496 333.785 332.272 334.569 332.272C335.353 332.272 336.016 332.496 336.557 332.944C337.099 333.392 337.369 334.092 337.369 335.044V337.088C337.369 337.405 337.416 337.601 337.509 337.676C337.603 337.751 337.808 337.788 338.125 337.788H352.797C353.656 337.788 354.263 338.012 354.617 338.46C354.972 338.889 355.149 339.384 355.149 339.944C355.149 340.523 354.963 341.027 354.589 341.456C354.235 341.904 353.637 342.128 352.797 342.128H335.661ZM348.709 318.608C348.709 317.693 348.98 317.003 349.521 316.536C350.063 316.069 350.707 315.836 351.453 315.836C352.181 315.836 352.816 316.079 353.357 316.564C353.917 317.031 354.197 317.712 354.197 318.608V322.836H355.065C355.495 322.836 355.849 322.911 356.129 323.06C356.409 323.209 356.633 323.405 356.801 323.648C356.969 323.872 357.091 324.133 357.165 324.432C357.24 324.712 357.277 324.992 357.277 325.272C357.277 325.552 357.24 325.841 357.165 326.14C357.091 326.42 356.969 326.681 356.801 326.924C356.633 327.148 356.4 327.335 356.101 327.484C355.821 327.633 355.476 327.708 355.065 327.708H354.197V335.632H348.709V318.608ZM335.633 325.86C335.633 326.159 335.671 326.355 335.745 326.448C335.839 326.541 336.025 326.588 336.305 326.588H340.561V321.548C340.561 321.287 340.515 321.109 340.421 321.016C340.328 320.904 340.141 320.848 339.861 320.848H336.305C336.025 320.848 335.839 320.904 335.745 321.016C335.671 321.109 335.633 321.287 335.633 321.548V325.86ZM364.837 319.98C364.595 319.98 364.436 320.017 364.361 320.092C364.305 320.148 364.277 320.279 364.277 320.484V320.848C364.277 321.091 364.305 321.24 364.361 321.296C364.436 321.352 364.595 321.38 364.837 321.38H380.657C381.367 321.38 381.871 321.576 382.169 321.968C382.468 322.341 382.617 322.771 382.617 323.256C382.617 323.741 382.468 324.161 382.169 324.516C381.871 324.852 381.367 325.02 380.657 325.02H362.345C361.599 325.02 360.983 324.973 360.497 324.88C360.031 324.768 359.657 324.581 359.377 324.32C359.097 324.04 358.901 323.676 358.789 323.228C358.696 322.761 358.649 322.173 358.649 321.464V319.84C358.649 319.131 358.696 318.543 358.789 318.076C358.901 317.609 359.097 317.245 359.377 316.984C359.657 316.704 360.031 316.508 360.497 316.396C360.983 316.284 361.599 316.228 362.345 316.228H380.573C381.301 316.228 381.805 316.424 382.085 316.816C382.384 317.189 382.533 317.619 382.533 318.104C382.533 318.608 382.384 319.047 382.085 319.42C381.787 319.793 381.283 319.98 380.573 319.98H364.837ZM361.813 342.128C361.216 342.128 360.693 342.025 360.245 341.82C359.797 341.633 359.424 341.372 359.125 341.036C358.845 340.719 358.631 340.345 358.481 339.916C358.351 339.487 358.285 339.029 358.285 338.544V338.46C358.285 337.471 358.565 336.668 359.125 336.052C359.685 335.436 360.581 335.128 361.813 335.128H376.793V334.596C376.793 334.297 376.597 334.148 376.205 334.148H360.161C359.639 334.148 359.237 333.989 358.957 333.672C358.696 333.336 358.565 332.981 358.565 332.608C358.565 332.235 358.687 331.88 358.929 331.544C359.191 331.208 359.601 331.04 360.161 331.04H379.425C380.62 331.04 381.441 331.264 381.889 331.712C382.337 332.141 382.561 332.785 382.561 333.644V338.012H364.837C364.632 338.012 364.492 338.059 364.417 338.152C364.343 338.227 364.305 338.339 364.305 338.488C364.305 338.637 364.343 338.759 364.417 338.852C364.492 338.945 364.632 338.992 364.837 338.992H381.833C382.375 338.992 382.757 339.16 382.981 339.496C383.224 339.813 383.345 340.168 383.345 340.56C383.345 340.896 383.233 341.241 383.009 341.596C382.785 341.951 382.393 342.128 381.833 342.128H361.813ZM381.693 326.112C382.44 326.112 382.963 326.308 383.261 326.7C383.56 327.092 383.709 327.531 383.709 328.016C383.709 328.52 383.551 328.968 383.233 329.36C382.935 329.733 382.421 329.92 381.693 329.92H359.517C358.789 329.92 358.267 329.733 357.949 329.36C357.651 328.968 357.501 328.52 357.501 328.016C357.501 327.531 357.651 327.092 357.949 326.7C358.248 326.308 358.771 326.112 359.517 326.112H381.693ZM405.381 330.732H401.713V334.064C401.713 335.296 401.527 336.388 401.153 337.34C400.78 338.273 400.257 339.057 399.585 339.692C398.913 340.327 398.101 340.803 397.149 341.12C396.197 341.437 395.143 341.596 393.985 341.596C392.828 341.596 391.773 341.437 390.821 341.12C389.869 340.803 389.048 340.327 388.357 339.692C387.685 339.057 387.163 338.273 386.789 337.34C386.416 336.388 386.229 335.296 386.229 334.064V323.816C386.229 322.584 386.416 321.501 386.789 320.568C387.163 319.616 387.685 318.823 388.357 318.188C389.048 317.553 389.869 317.077 390.821 316.76C391.773 316.443 392.828 316.284 393.985 316.284C395.143 316.284 396.197 316.443 397.149 316.76C398.101 317.077 398.913 317.553 399.585 318.188C400.257 318.823 400.78 319.616 401.153 320.568C401.527 321.501 401.713 322.584 401.713 323.816V325.944H405.381V318.552C405.381 317.656 405.661 316.984 406.221 316.536C406.781 316.069 407.425 315.836 408.153 315.836C408.508 315.836 408.853 315.901 409.189 316.032C409.525 316.144 409.824 316.312 410.085 316.536C410.347 316.76 410.552 317.04 410.701 317.376C410.869 317.712 410.953 318.104 410.953 318.552V342.128H405.381V330.732ZM391.717 334.204C391.717 335.156 391.923 335.865 392.333 336.332C392.763 336.78 393.313 337.004 393.985 337.004C394.657 337.004 395.199 336.78 395.609 336.332C396.039 335.865 396.253 335.156 396.253 334.204V323.676C396.253 322.724 396.039 322.024 395.609 321.576C395.199 321.109 394.657 320.876 393.985 320.876C393.313 320.876 392.763 321.109 392.333 321.576C391.923 322.024 391.717 322.724 391.717 323.676V334.204ZM437.253 321.044C437.197 321.548 437.113 322.005 437.001 322.416H437.281C438.438 322.397 439.577 322.547 440.697 322.864C441.817 323.181 442.825 323.685 443.721 324.376C444.617 325.048 445.354 325.907 445.933 326.952C446.512 327.997 446.848 329.248 446.941 330.704H441.425C441.294 329.995 441.042 329.369 440.669 328.828C440.314 328.287 439.857 327.848 439.297 327.512C438.756 327.157 438.13 326.896 437.421 326.728C436.712 326.56 435.965 326.485 435.181 326.504C435.088 326.504 434.994 326.513 434.901 326.532C434.808 326.532 434.705 326.541 434.593 326.56C433.977 327.195 433.277 327.764 432.493 328.268C431.728 328.753 430.925 329.173 430.085 329.528C429.245 329.864 428.377 330.135 427.481 330.34C426.604 330.527 425.736 330.648 424.877 330.704C424.093 330.76 423.421 330.601 422.861 330.228C422.32 329.836 422.002 329.313 421.909 328.66C421.816 328.044 421.937 327.493 422.273 327.008C422.609 326.504 423.122 326.205 423.813 326.112C424.784 326 425.698 325.813 426.557 325.552C427.416 325.291 428.181 324.955 428.853 324.544C429.544 324.133 430.113 323.639 430.561 323.06C431.009 322.481 431.308 321.809 431.457 321.044H424.765C423.925 321.044 423.318 320.811 422.945 320.344C422.59 319.859 422.413 319.327 422.413 318.748C422.413 318.468 422.45 318.197 422.525 317.936C422.618 317.656 422.758 317.404 422.945 317.18C423.132 316.956 423.374 316.779 423.673 316.648C423.972 316.517 424.336 316.452 424.765 316.452H444.141C444.57 316.452 444.934 316.517 445.233 316.648C445.532 316.779 445.774 316.956 445.961 317.18C446.148 317.404 446.278 317.656 446.353 317.936C446.446 318.197 446.493 318.468 446.493 318.748C446.493 319.327 446.306 319.859 445.933 320.344C445.578 320.811 444.981 321.044 444.141 321.044H437.253ZM437.309 336.276V342.268H431.597V336.276H423.701C422.861 336.276 422.254 336.043 421.881 335.576C421.526 335.109 421.349 334.587 421.349 334.008C421.349 333.728 421.386 333.457 421.461 333.196C421.554 332.916 421.694 332.664 421.881 332.44C422.068 332.216 422.31 332.039 422.609 331.908C422.908 331.777 423.272 331.712 423.701 331.712H445.205C445.634 331.712 445.998 331.777 446.297 331.908C446.596 332.039 446.838 332.216 447.025 332.44C447.212 332.664 447.342 332.916 447.417 333.196C447.51 333.457 447.557 333.728 447.557 334.008C447.557 334.587 447.37 335.109 446.997 335.576C446.642 336.043 446.045 336.276 445.205 336.276H437.309ZM449.517 336.472C450.245 335.819 450.842 335.091 451.309 334.288C451.794 333.467 452.177 332.505 452.457 331.404C452.737 330.284 452.933 328.977 453.045 327.484C453.157 325.972 453.213 324.189 453.213 322.136V319.308C453.213 318.412 453.465 317.749 453.969 317.32C454.473 316.891 455.089 316.676 455.817 316.676C456.526 316.676 457.142 316.9 457.665 317.348C458.188 317.796 458.449 318.449 458.449 319.308V322.108C458.449 324.348 458.337 326.392 458.113 328.24C458.972 328.651 459.728 329.183 460.381 329.836C461.053 330.471 461.604 331.283 462.033 332.272C462.462 333.243 462.761 334.409 462.929 335.772C463.097 337.116 463.125 338.703 463.013 340.532H457.917C458.141 338.871 458.169 337.48 458.001 336.36C457.852 335.24 457.525 334.335 457.021 333.644C456.536 335.287 455.938 336.649 455.229 337.732C454.52 338.815 453.736 339.655 452.877 340.252C452.616 340.439 452.308 340.588 451.953 340.7C451.617 340.812 451.272 340.868 450.917 340.868C450.562 340.887 450.217 340.831 449.881 340.7C449.545 340.588 449.256 340.383 449.013 340.084C448.789 339.823 448.64 339.533 448.565 339.216C448.49 338.899 448.472 338.581 448.509 338.264C448.565 337.928 448.677 337.611 448.845 337.312C449.013 336.995 449.237 336.715 449.517 336.472ZM464.133 328.492H461.837C461.408 328.492 461.044 328.427 460.745 328.296C460.465 328.147 460.222 327.96 460.017 327.736C459.83 327.493 459.69 327.232 459.597 326.952C459.522 326.653 459.485 326.364 459.485 326.084C459.485 325.804 459.522 325.524 459.597 325.244C459.69 324.945 459.83 324.684 460.017 324.46C460.204 324.236 460.446 324.049 460.745 323.9C461.044 323.751 461.408 323.676 461.837 323.676H464.133V318.216C464.133 317.432 464.366 316.844 464.833 316.452C465.3 316.041 465.86 315.836 466.513 315.836C467.148 315.836 467.708 316.041 468.193 316.452C468.697 316.844 468.949 317.432 468.949 318.216V342.128H464.133V328.492ZM470.265 318.216C470.265 317.432 470.517 316.844 471.021 316.452C471.525 316.041 472.104 315.836 472.757 315.836C473.074 315.836 473.382 315.892 473.681 316.004C473.98 316.097 474.241 316.247 474.465 316.452C474.708 316.657 474.894 316.909 475.025 317.208C475.174 317.488 475.249 317.824 475.249 318.216V342.128H470.265V318.216ZM478.133 323.732C478.133 322.78 478.292 321.865 478.609 320.988C478.926 320.111 479.393 319.345 480.009 318.692C480.625 318.039 481.381 317.516 482.277 317.124C483.192 316.732 484.237 316.536 485.413 316.536H495.493C496.669 316.536 497.705 316.732 498.601 317.124C499.516 317.516 500.281 318.039 500.897 318.692C501.513 319.345 501.98 320.111 502.297 320.988C502.614 321.865 502.773 322.78 502.773 323.732V324.068C502.773 325.02 502.614 325.935 502.297 326.812C501.98 327.671 501.513 328.436 500.897 329.108C500.281 329.761 499.516 330.284 498.601 330.676C497.705 331.049 496.669 331.236 495.493 331.236H485.413C484.237 331.236 483.192 331.049 482.277 330.676C481.381 330.284 480.625 329.761 480.009 329.108C479.393 328.436 478.926 327.671 478.609 326.812C478.292 325.935 478.133 325.02 478.133 324.068V323.732ZM482.417 337.088V334.54C482.417 334.092 482.492 333.719 482.641 333.42C482.79 333.103 482.986 332.851 483.229 332.664C483.49 332.477 483.789 332.347 484.125 332.272C484.461 332.197 484.816 332.16 485.189 332.16C485.544 332.16 485.889 332.207 486.225 332.3C486.561 332.375 486.86 332.505 487.121 332.692C487.382 332.86 487.588 333.103 487.737 333.42C487.886 333.719 487.961 334.092 487.961 334.54V337.088H492.945V334.54C492.945 334.092 493.02 333.719 493.169 333.42C493.318 333.103 493.514 332.851 493.757 332.664C494.018 332.477 494.317 332.347 494.653 332.272C494.989 332.197 495.344 332.16 495.717 332.16C496.072 332.16 496.417 332.207 496.753 332.3C497.089 332.375 497.388 332.505 497.649 332.692C497.91 332.86 498.116 333.103 498.265 333.42C498.414 333.719 498.489 334.092 498.489 334.54V337.088H501.205C502.064 337.088 502.67 337.321 503.025 337.788C503.38 338.255 503.557 338.768 503.557 339.328C503.557 339.907 503.37 340.42 502.997 340.868C502.642 341.335 502.045 341.568 501.205 341.568H479.701C478.861 341.568 478.254 341.335 477.881 340.868C477.526 340.42 477.349 339.907 477.349 339.328C477.349 338.768 477.526 338.255 477.881 337.788C478.236 337.321 478.842 337.088 479.701 337.088H482.417ZM496.949 323.676C496.949 322.929 496.678 322.313 496.137 321.828C495.614 321.343 494.886 321.1 493.953 321.1H486.953C486.02 321.1 485.282 321.343 484.741 321.828C484.218 322.313 483.957 322.929 483.957 323.676V324.124C483.957 324.871 484.218 325.487 484.741 325.972C485.282 326.457 486.02 326.7 486.953 326.7H493.953C494.886 326.7 495.614 326.457 496.137 325.972C496.678 325.487 496.949 324.871 496.949 324.124V323.676ZM505.545 337.76C505.545 336.883 505.806 336.192 506.329 335.688C506.852 335.184 507.589 334.932 508.541 334.932C509.493 334.932 510.23 335.193 510.753 335.716C511.276 336.22 511.537 336.901 511.537 337.76C511.537 338.619 511.276 339.309 510.753 339.832C510.23 340.336 509.493 340.588 508.541 340.588C507.589 340.588 506.852 340.336 506.329 339.832C505.806 339.328 505.545 338.637 505.545 337.76Z" fill="#999999"/>
</svg>
