<svg width="193" height="193" viewBox="0 0 193 193" fill="none" xmlns="http://www.w3.org/2000/svg">
<path d="M145.675 176.998C145.675 179.541 132.282 181.596 115.779 181.596C99.2756 181.596 85.8828 179.541 85.8828 176.998C85.8828 174.455 99.2756 172.4 115.779 172.4C132.282 172.4 145.675 174.455 145.675 176.998Z" fill="#F9EFF2"/>
<path fill-rule="evenodd" clip-rule="evenodd" d="M116.216 143.453C116.996 143.453 117.629 144.086 117.629 144.866V174.661C117.629 175.441 116.996 176.074 116.216 176.074C115.435 176.074 114.802 175.441 114.802 174.661V144.866C114.802 144.086 115.435 143.453 116.216 143.453Z" fill="#666666"/>
<path fill-rule="evenodd" clip-rule="evenodd" d="M97.7595 143.453C98.5404 143.453 99.1734 144.086 99.1734 144.866V174.661C99.1734 175.441 98.5404 176.074 97.7595 176.074C96.9787 176.074 96.3457 175.441 96.3457 174.661V144.866C96.3457 144.086 96.9787 143.453 97.7595 143.453Z" fill="#666666"/>
<path fill-rule="evenodd" clip-rule="evenodd" d="M98.5544 100.82C99.0914 101.386 99.0672 102.281 98.5003 102.817L80.4747 119.879L90.3052 130.877C90.8253 131.459 90.7749 132.352 90.1925 132.871C89.6101 133.391 88.7164 133.341 88.1962 132.759L77.4512 120.738C76.9418 120.168 76.9782 119.297 77.5333 118.771L96.5557 100.766C97.1225 100.229 98.0174 100.254 98.5544 100.82Z" fill="#666666"/>
<path fill-rule="evenodd" clip-rule="evenodd" d="M112.264 100.843C112.789 100.265 113.683 100.221 114.261 100.745L134.132 118.751C134.413 119.006 134.58 119.363 134.595 119.742C134.609 120.122 134.471 120.491 134.21 120.767L122.848 132.788C122.312 133.355 121.417 133.381 120.849 132.845C120.282 132.309 120.256 131.415 120.792 130.848L131.163 119.875L112.362 102.838C111.783 102.314 111.739 101.421 112.264 100.843Z" fill="#666666"/>
<path d="M105.934 153.033C93.6462 153.033 80.6133 149.437 80.6133 142.81C80.6133 129.942 100.818 100.121 105.677 93.1602C110.535 100.095 130.714 129.582 130.714 142.81C130.714 146.611 126.73 148.975 123.414 150.259C118.838 152.057 112.643 153.033 105.934 153.033Z" fill="#EFEFEF"/>
<path d="M105.677 95.395C108.144 98.9396 112.412 105.284 116.653 112.373C127.218 130.07 129.429 138.701 129.429 142.81C129.429 144.505 128.298 146.971 122.925 149.077C118.581 150.773 112.386 151.749 105.934 151.749C99.4044 151.749 93.0808 150.747 88.5823 149.026C86.0888 148.076 81.8987 145.97 81.8987 142.81C81.8987 138.829 84.1094 130.327 94.7003 112.527C98.9417 105.387 103.235 98.9653 105.677 95.395ZM105.677 90.9258C105.677 90.9258 79.3281 127.682 79.3281 142.81C79.3281 150.439 92.6695 154.317 105.934 154.317C119.018 154.317 132 150.542 132 142.81C132 127.245 105.677 90.9258 105.677 90.9258Z" fill="#666666"/>
<path d="M104.109 96.3457C104.109 96.3457 82.7471 128.786 82.7471 140.473C82.7471 152.16 126.113 152.52 126.113 140.473C126.139 128.452 104.109 96.3457 104.109 96.3457Z" fill="white"/>
<path d="M98.1965 101.789L94.752 106.875L100.69 108.133L104.135 101.789H98.1965Z" fill="#EFEFEF"/>
<path fill-rule="evenodd" clip-rule="evenodd" d="M97.4507 101.286C97.6181 101.039 97.8973 100.891 98.1959 100.891H104.134C104.451 100.891 104.745 101.057 104.907 101.33C105.069 101.602 105.076 101.94 104.925 102.218L101.48 108.563C101.29 108.913 100.892 109.096 100.503 109.013L94.5646 107.755C94.2717 107.693 94.0289 107.489 93.9169 107.212C93.8049 106.934 93.8384 106.619 94.0062 106.371L97.4507 101.286ZM98.6733 102.689L96.2456 106.273L100.219 107.115L102.622 102.689H98.6733Z" fill="#666666"/>
<path d="M111.46 101.789L115.701 106.875L108.375 108.133L104.134 101.789H111.46Z" fill="#EFEFEF"/>
<path fill-rule="evenodd" clip-rule="evenodd" d="M103.341 101.366C103.497 101.073 103.802 100.891 104.134 100.891H111.46C111.727 100.891 111.98 101.009 112.151 101.214L116.393 106.3C116.599 106.547 116.657 106.885 116.546 107.186C116.435 107.488 116.171 107.707 115.854 107.761L108.528 109.02C108.178 109.08 107.825 108.929 107.627 108.633L103.386 102.289C103.202 102.013 103.184 101.658 103.341 101.366ZM105.817 102.689L108.799 107.149L114.012 106.253L111.039 102.689H105.817Z" fill="#666666"/>
<path d="M109.276 117.381C109.276 120.207 106.962 122.518 104.134 122.518C101.307 122.518 98.9932 120.207 98.9932 117.381C98.9932 114.556 101.307 112.244 104.134 112.244C106.962 112.244 109.276 114.53 109.276 117.381Z" fill="#4BB9F7"/>
<path fill-rule="evenodd" clip-rule="evenodd" d="M104.134 113.529C102.005 113.529 100.279 115.254 100.279 117.382C100.279 119.51 102.005 121.235 104.134 121.235C106.264 121.235 107.99 119.51 107.99 117.382C107.99 115.254 106.264 113.529 104.134 113.529ZM97.708 117.382C97.708 113.836 100.585 110.961 104.134 110.961C107.684 110.961 110.561 113.836 110.561 117.382C110.561 120.929 107.684 123.804 104.134 123.804C100.585 123.804 97.708 120.929 97.708 117.382Z" fill="#666666"/>
<path d="M112.258 172.168C111.564 171.629 110.664 171.321 109.687 171.398C107.811 171.526 106.32 173.093 106.243 174.968C106.166 177.1 107.862 178.59 109.97 178.59H114.34C115.368 178.59 116.217 177.742 116.217 176.715V169.574L112.258 172.168Z" fill="white"/>
<path fill-rule="evenodd" clip-rule="evenodd" d="M116.887 168.332C117.344 168.578 117.629 169.056 117.629 169.575V176.715C117.629 178.523 116.148 180.003 114.339 180.003H109.969C107.192 180.003 104.718 177.975 104.829 174.918L104.829 174.911C104.935 172.335 106.973 170.172 109.582 169.99C110.54 169.915 111.446 170.11 112.232 170.496L115.44 168.394C115.875 168.109 116.43 168.085 116.887 168.332ZM114.802 172.191L113.032 173.35C112.527 173.682 111.866 173.655 111.389 173.284C110.956 172.948 110.402 172.759 109.798 172.807L109.783 172.808C108.644 172.886 107.704 173.853 107.654 175.023C107.613 176.228 108.532 177.178 109.969 177.178H114.339C114.586 177.178 114.802 176.963 114.802 176.715V172.191Z" fill="#666666"/>
<path fill-rule="evenodd" clip-rule="evenodd" d="M110.429 172.182C110.549 171.925 110.855 171.813 111.112 171.933L110.895 172.399C111.112 171.933 111.112 171.933 111.113 171.933L111.113 171.933L111.114 171.934L111.116 171.935L111.123 171.938C111.128 171.941 111.135 171.944 111.142 171.948C111.158 171.955 111.179 171.966 111.204 171.98C111.255 172.008 111.324 172.048 111.406 172.1C111.567 172.205 111.781 172.364 111.991 172.581C112.415 173.02 112.84 173.72 112.743 174.684C112.715 174.967 112.463 175.173 112.181 175.144C111.898 175.116 111.692 174.864 111.72 174.582C111.778 174.006 111.535 173.588 111.251 173.295C111.108 173.146 110.959 173.036 110.846 172.962C110.79 172.925 110.744 172.899 110.713 172.883C110.698 172.875 110.687 172.869 110.681 172.866L110.676 172.863C110.42 172.743 110.31 172.438 110.429 172.182Z" fill="#666666"/>
<path d="M93.8009 172.168C93.1068 171.629 92.2071 171.321 91.2303 171.398C89.3538 171.526 87.8628 173.093 87.7857 174.968C87.7086 177.1 89.4052 178.59 91.5131 178.59H95.8831C96.9113 178.59 97.7596 177.742 97.7596 176.715V169.574L93.8009 172.168Z" fill="white"/>
<path fill-rule="evenodd" clip-rule="evenodd" d="M98.4303 168.332C98.8874 168.578 99.1723 169.056 99.1723 169.575V176.715C99.1723 178.523 97.6911 180.003 95.882 180.003H91.512C88.7346 180.003 86.2612 177.975 86.3717 174.918L86.372 174.911C86.4779 172.335 88.5159 170.172 91.1253 169.99C92.0833 169.915 92.9886 170.11 93.7748 170.496L96.9832 168.394C97.4176 168.109 97.9732 168.085 98.4303 168.332ZM96.3447 172.191L94.5752 173.35C94.0696 173.682 93.4091 173.655 92.9318 173.284C92.4992 172.948 91.9449 172.759 91.3405 172.807L91.3258 172.808C90.1868 172.886 89.2473 173.853 89.1974 175.023C89.1557 176.228 90.075 177.178 91.512 177.178H95.882C96.1294 177.178 96.3447 176.963 96.3447 176.715V172.191Z" fill="#666666"/>
<path fill-rule="evenodd" clip-rule="evenodd" d="M91.9456 172.182C92.0654 171.925 92.3713 171.813 92.6287 171.933L92.4117 172.399C92.6287 171.933 92.6289 171.933 92.6291 171.933L92.6296 171.933L92.6306 171.934L92.633 171.935L92.6396 171.938C92.6447 171.941 92.6512 171.944 92.659 171.948C92.6746 171.955 92.6955 171.966 92.7209 171.98C92.7717 172.008 92.841 172.048 92.9222 172.1C93.0835 172.205 93.2976 172.364 93.5079 172.581C93.9311 173.02 94.3565 173.72 94.26 174.684C94.2317 174.967 93.9798 175.173 93.6973 175.144C93.4147 175.116 93.2086 174.864 93.2368 174.582C93.2945 174.006 93.0516 173.588 92.7679 173.295C92.6247 173.146 92.4758 173.036 92.3623 172.962C92.3061 172.925 92.2601 172.899 92.23 172.883C92.215 172.875 92.204 172.869 92.1979 172.866L92.1924 172.863C91.9367 172.743 91.8261 172.438 91.9456 172.182Z" fill="#666666"/>
<path fill-rule="evenodd" clip-rule="evenodd" d="M105.189 25.4234C105.192 26.1176 104.64 26.6913 103.941 26.7119C103.232 26.7328 102.64 26.175 102.619 25.466L103.904 25.4281C102.619 25.466 102.619 25.464 102.619 25.4619L102.619 25.4576L102.618 25.4481C102.618 25.4414 102.618 25.4341 102.618 25.4261C102.618 25.4101 102.618 25.3914 102.619 25.3701C102.62 25.3276 102.622 25.2747 102.627 25.2124C102.637 25.0878 102.657 24.925 102.697 24.7319C102.777 24.3449 102.938 23.8375 103.256 23.2763C103.902 22.1347 105.137 20.876 107.409 19.9279C111.867 18.0672 120.428 17.3553 137.092 21.0108C137.657 21.1195 138.311 21.2837 138.96 21.4466C139.307 21.5338 139.652 21.6206 139.982 21.6983C140.994 21.9369 141.997 22.1283 142.96 22.1638C143.917 22.199 144.784 22.0776 145.549 21.7313C146.299 21.3917 147.027 20.8015 147.668 19.7686C148.042 19.1657 148.834 18.9799 149.437 19.3536C150.041 19.7272 150.227 20.5189 149.853 21.1217C148.964 22.5546 147.858 23.5055 146.61 24.0706C145.378 24.6288 144.086 24.7755 142.865 24.7306C141.649 24.6858 140.454 24.4485 139.392 24.1983C138.968 24.0983 138.58 24.0006 138.218 23.9094C137.623 23.7593 137.097 23.6266 136.592 23.5303C136.58 23.5281 136.569 23.5257 136.557 23.5232C119.994 19.8882 112.094 20.7561 108.399 22.2981C106.594 23.0517 105.828 23.9505 105.493 24.5411C105.321 24.8459 105.246 25.0983 105.214 25.2545C105.197 25.333 105.192 25.3877 105.19 25.4127C105.189 25.4173 105.189 25.4209 105.189 25.4234Z" fill="#666666"/>
<path fill-rule="evenodd" clip-rule="evenodd" d="M93.948 25.7606C93.7376 26.4335 93.0228 26.8117 92.3468 26.606C91.6677 26.3994 91.2849 25.6819 91.4916 25.0034L92.7212 25.3775C91.4916 25.0034 91.492 25.002 91.4925 25.0006L91.4934 24.9975L91.4957 24.9903C91.4973 24.985 91.4993 24.9788 91.5016 24.9717C91.5062 24.9575 91.5121 24.9398 91.5193 24.9187C91.5338 24.8763 91.5539 24.8203 91.5803 24.7518C91.633 24.6146 91.711 24.4271 91.8205 24.1984C92.0395 23.7411 92.3845 23.1188 92.9045 22.4062C93.9477 20.9769 95.6838 19.2007 98.4858 17.6689C104.093 14.6035 113.801 12.6015 130.457 16.0024C131.141 16.1409 131.916 16.3295 132.705 16.5212C133.078 16.6119 133.454 16.7034 133.825 16.7906C135.013 17.0701 136.205 17.321 137.319 17.4454C139.695 17.7107 141.053 17.3303 141.641 16.3457C142.005 15.7367 142.794 15.5378 143.404 15.9013C144.013 16.2649 144.212 17.0534 143.848 17.6624C142.38 20.1196 139.432 20.2658 137.034 19.9981C135.761 19.856 134.447 19.5756 133.236 19.2908C132.817 19.1922 132.415 19.0945 132.031 19.001C131.273 18.8167 130.581 18.6483 129.945 18.5196L129.943 18.5192C113.644 15.1908 104.613 17.2471 99.7196 19.9223C97.2712 21.2608 95.8164 22.7756 94.9815 23.9196C94.5625 24.4937 94.2966 24.9786 94.1394 25.3069C94.0608 25.4711 94.0094 25.596 93.9798 25.673C93.965 25.7115 93.9556 25.7381 93.951 25.7515C93.9496 25.7557 93.9486 25.7586 93.9481 25.7602C93.948 25.7604 93.948 25.7605 93.948 25.7606Z" fill="#666666"/>
<path d="M132.565 105.67L80.0226 97.3738C74.5472 96.5005 70.8199 91.4918 71.6682 86.1492L78.7373 41.431C80.5624 29.9496 91.5645 22.1413 103.312 24.0163L144.442 30.5147" fill="#EFEFEF"/>
<path d="M132.565 105.67L80.0226 97.3738C74.5472 96.5005 70.8199 91.4918 71.6682 86.1492L78.7373 41.431C80.5624 29.9496 91.5645 22.1413 103.312 24.0163L144.442 30.5147" stroke="#666666" stroke-width="2" stroke-miterlimit="10" stroke-linecap="round" stroke-linejoin="round"/>
<path d="M132.797 104.412L83.8271 96.6804C78.943 95.9098 75.6269 91.1067 76.4495 85.9439L83.2873 42.7411C85.0353 31.645 94.9834 24.0164 105.523 25.6603L144.287 31.7734" fill="white"/>
<path fill-rule="evenodd" clip-rule="evenodd" d="M76.6178 55.3257C76.7172 54.6951 77.3094 54.2645 77.9405 54.3639L90.6649 56.3673C91.296 56.4667 91.727 57.0584 91.6275 57.689C91.5281 58.3196 90.9359 58.7502 90.3048 58.6508L77.5804 56.6474C76.9493 56.548 76.5183 55.9563 76.6178 55.3257Z" fill="#666666"/>
<path fill-rule="evenodd" clip-rule="evenodd" d="M110.447 60.6425C110.547 60.012 111.14 59.5822 111.771 59.6825L128.583 62.3538C129.214 62.454 129.644 63.0463 129.544 63.6768C129.443 64.3072 128.851 64.737 128.22 64.6368L111.408 61.9655C110.777 61.8652 110.347 61.2729 110.447 60.6425Z" fill="#666666"/>
<path fill-rule="evenodd" clip-rule="evenodd" d="M95.1461 64.6066C95.6392 64.6682 95.9889 65.1175 95.9273 65.6102L95.8502 66.2267C95.7885 66.7193 95.3389 67.0688 94.8458 67.0072C94.3528 66.9456 94.003 66.4963 94.0647 66.0036L94.1418 65.3872C94.2034 64.8945 94.6531 64.5451 95.1461 64.6066Z" fill="#666666"/>
<path fill-rule="evenodd" clip-rule="evenodd" d="M100.338 65.4289C100.832 65.4905 101.181 65.9398 101.12 66.4325L101.043 67.0489C100.981 67.5416 100.531 67.8911 100.038 67.8295C99.5452 67.7679 99.1954 67.3186 99.257 66.8259L99.3342 66.2095C99.3958 65.7168 99.8454 65.3673 100.338 65.4289Z" fill="#666666"/>
<path fill-rule="evenodd" clip-rule="evenodd" d="M96.3887 85.2823C96.3193 86.3764 96.9708 86.9663 97.4391 86.996C97.9074 87.0257 98.6282 86.5227 98.6977 85.4286C98.7671 84.3345 98.1156 83.7445 97.6473 83.7149C97.1789 83.6852 96.4582 84.1882 96.3887 85.2823ZM97.3253 88.7904C95.5266 88.6765 94.4845 86.8776 94.5929 85.1686C94.7014 83.4595 95.9625 81.8066 97.7611 81.9205C99.5598 82.0344 100.602 83.8333 100.493 85.5423C100.385 87.2514 99.1239 88.9043 97.3253 88.7904Z" fill="#666666"/>
<path d="M131.974 71.7661C131.666 73.6668 128.427 74.7456 124.699 74.1549C120.972 73.5641 118.222 71.5606 118.504 69.6599C118.813 67.7592 122.052 66.6804 125.779 67.2712C129.506 67.8363 132.283 69.8654 131.974 71.7661Z" fill="#FFF0F0"/>
<path fill-rule="evenodd" clip-rule="evenodd" d="M117.04 25.4015C117.041 25.9173 116.728 26.4043 116.218 26.6017C115.556 26.8579 114.812 26.5293 114.555 25.8679L115.754 25.4041C114.555 25.8679 114.554 25.8652 114.553 25.8625L114.551 25.8568L114.547 25.8451C114.544 25.837 114.541 25.8284 114.538 25.8193C114.531 25.8012 114.525 25.7811 114.518 25.7591C114.505 25.7151 114.491 25.663 114.479 25.6034C114.455 25.485 114.436 25.3329 114.441 25.1558C114.452 24.7873 114.567 24.3484 114.884 23.9274C115.49 23.1223 116.631 22.6328 118.379 22.4211C121.918 21.9925 129.199 22.5625 144.373 26.2081C144.75 26.2929 145.126 26.3874 145.483 26.4774L145.554 26.4953C145.942 26.5928 146.31 26.6845 146.671 26.7632C147.399 26.9216 148.037 27.0119 148.618 26.9881C149.181 26.9649 149.684 26.8347 150.16 26.5458C150.641 26.2531 151.167 25.7534 151.702 24.8851C152.074 24.2811 152.865 24.0927 153.47 24.4645C154.074 24.8362 154.263 25.6272 153.891 26.2313C153.192 27.3665 152.397 28.1928 151.495 28.7405C150.587 29.292 149.645 29.5166 148.723 29.5544C147.82 29.5916 146.934 29.4491 146.124 29.2728C145.717 29.1842 145.312 29.083 144.927 28.9862L144.864 28.9703C144.496 28.8777 144.146 28.7898 143.8 28.7119C143.794 28.7105 143.788 28.7091 143.781 28.7076C128.603 25.0606 121.723 24.6034 118.688 24.971C117.675 25.0937 117.221 25.2936 117.04 25.4015Z" fill="#666666"/>
<path d="M53.1344 64.4725C54.7539 62.8544 54.7539 60.2088 53.1344 58.5906C51.5149 56.9724 48.8672 56.9724 47.2477 58.5906C45.6283 56.9724 42.9806 56.9724 41.3611 58.5906C39.7416 60.2088 39.7416 62.8544 41.3611 64.4725C39.7416 66.0907 39.7416 68.7363 41.3611 70.3545C42.9806 71.9727 45.6283 71.9727 47.2477 70.3545C48.8672 71.9727 51.5149 71.9727 53.1344 70.3545C54.7539 68.7363 54.7539 66.0907 53.1344 64.4725Z" fill="#F2C9C9"/>
<path fill-rule="evenodd" clip-rule="evenodd" d="M47.2479 56.9499C49.3553 55.5992 52.2034 55.8431 54.0434 57.6816C55.8834 59.5201 56.1275 62.3659 54.7757 64.4717C56.1275 66.5774 55.8834 69.4232 54.0434 71.2617C52.2034 73.1002 49.3553 73.3442 47.2479 71.9935C45.1404 73.3442 42.2924 73.1002 40.4524 71.2617C38.6124 69.4232 38.3683 66.5774 39.7201 64.4717C38.3683 62.3659 38.6124 59.5201 40.4524 57.6816C42.2924 55.8431 45.1404 55.5992 47.2479 56.9499ZM46.339 59.4978C45.2215 58.3812 43.3876 58.3812 42.2701 59.4978C41.1525 60.6145 41.1525 62.4469 42.2701 63.5635C42.772 64.0651 42.772 64.8782 42.2701 65.3798C41.1525 66.4964 41.1525 68.3289 42.2701 69.4455C43.3876 70.5622 45.2215 70.5622 46.339 69.4455C46.841 68.944 47.6548 68.944 48.1567 69.4455C49.2743 70.5622 51.1082 70.5622 52.2257 69.4455C53.3432 68.3289 53.3432 66.4964 52.2257 65.3798C51.7238 64.8782 51.7238 64.0651 52.2257 63.5635C53.3432 62.4469 53.3432 60.6145 52.2257 59.4978C51.1082 58.3812 49.2743 58.3812 48.1567 59.4978C47.6548 59.9994 46.841 59.9994 46.339 59.4978Z" fill="#EFB4B4"/>
<path d="M76.7319 5.29215C76.7319 3.26301 75.0868 1.61914 73.056 1.61914C71.0252 1.61914 69.38 3.26301 69.38 5.29215C67.3493 5.29215 65.7041 6.93602 65.7041 8.96516C65.7041 10.9943 67.3493 12.6382 69.38 12.6382C69.38 14.6673 71.0252 16.3112 73.056 16.3112C75.0868 16.3112 76.7319 14.6673 76.7319 12.6382C78.7627 12.6382 80.4079 10.9943 80.4079 8.96516C80.4079 6.93602 78.737 5.29215 76.7319 5.29215Z" fill="#F2C9C9"/>
<path fill-rule="evenodd" clip-rule="evenodd" d="M68.229 4.14104C68.748 1.95753 70.7118 0.333984 73.0561 0.333984C75.4013 0.333984 77.3656 1.95863 77.8838 4.14325C80.0507 4.66446 81.6933 6.62065 81.6933 8.96428C81.6933 11.3067 80.0685 13.269 77.8832 13.7875C77.3643 15.971 75.4005 17.5946 73.0561 17.5946C70.7118 17.5946 68.748 15.971 68.229 13.7875C66.0438 13.269 64.4189 11.3067 64.4189 8.96428C64.4189 6.62183 66.0438 4.65956 68.229 4.14104ZM73.0561 2.90252C71.7352 2.90252 70.6655 3.9714 70.6655 5.29126C70.6655 6.00055 70.09 6.57553 69.3802 6.57553C68.0593 6.57553 66.9895 7.64441 66.9895 8.96428C66.9895 10.2841 68.0593 11.353 69.3802 11.353C70.09 11.353 70.6655 11.928 70.6655 12.6373C70.6655 13.9571 71.7352 15.026 73.0561 15.026C74.3771 15.026 75.4468 13.9571 75.4468 12.6373C75.4468 11.928 76.0222 11.353 76.7321 11.353C78.053 11.353 79.1227 10.2841 79.1227 8.96428C79.1227 7.65024 78.0331 6.57553 76.7321 6.57553C76.0222 6.57553 75.4468 6.00055 75.4468 5.29126C75.4468 3.9714 74.3771 2.90252 73.0561 2.90252Z" fill="#EFB4B4"/>
<path d="M161.33 87.8454C161.33 85.3026 159.274 83.2734 156.755 83.2734C154.21 83.2734 152.179 85.3283 152.179 87.8454C149.634 87.8454 147.604 89.9003 147.604 92.4174C147.604 94.9603 149.66 96.9894 152.179 96.9894C152.179 99.5323 154.236 101.561 156.755 101.561C159.3 101.561 161.33 99.5066 161.33 96.9894C163.875 96.9894 165.906 94.9346 165.906 92.4174C165.906 89.9003 163.85 87.8454 161.33 87.8454Z" fill="#F2C9C9"/>
<path fill-rule="evenodd" clip-rule="evenodd" d="M151.011 86.6759C151.55 84.0094 153.9 81.9883 156.755 81.9883C159.583 81.9883 161.959 83.9883 162.5 86.6777C165.172 87.2216 167.192 89.5901 167.192 92.4165C167.192 95.2422 165.19 97.6161 162.499 98.1571C161.96 100.824 159.61 102.845 156.755 102.845C153.927 102.845 151.551 100.845 151.01 98.1564C148.341 97.6174 146.318 95.2691 146.318 92.4165C146.318 89.5909 148.319 87.217 151.011 86.6759ZM156.755 84.5568C154.925 84.5568 153.465 86.0319 153.465 87.8445C153.465 88.5538 152.889 89.1288 152.179 89.1288C150.349 89.1288 148.889 90.6039 148.889 92.4165C148.889 94.2454 150.365 95.7043 152.179 95.7043C152.889 95.7043 153.465 96.2792 153.465 96.9885C153.465 98.8174 154.941 100.276 156.755 100.276C158.585 100.276 160.045 98.8011 160.045 96.9885C160.045 96.2792 160.621 95.7043 161.331 95.7043C163.161 95.7043 164.621 94.2291 164.621 92.4165C164.621 90.6087 163.14 89.1288 161.331 89.1288C160.621 89.1288 160.045 88.5538 160.045 87.8445C160.045 86.0157 158.569 84.5568 156.755 84.5568Z" fill="#EFB4B4"/>
</svg>
