<svg width="1447" height="863" viewBox="0 0 1447 863" fill="none" xmlns="http://www.w3.org/2000/svg">
<path d="M1218.55 800.099C1218.55 809.999 1166.45 817.999 1102.25 817.999C1038.05 817.999 985.945 809.999 985.945 800.099C985.945 790.199 1038.05 782.199 1102.25 782.199C1166.45 782.199 1218.55 790.199 1218.55 800.099Z" fill="#F9EFF2"/>
<path d="M1103.95 675V791" stroke="#666666" stroke-width="11" stroke-miterlimit="10" stroke-linecap="round" stroke-linejoin="round"/>
<path d="M1032.15 675V791" stroke="#666666" stroke-width="11" stroke-miterlimit="10" stroke-linecap="round" stroke-linejoin="round"/>
<path d="M1031.25 507.3L957.246 577.4L999.046 624.2" stroke="#666666" stroke-width="11" stroke-miterlimit="10" stroke-linecap="round" stroke-linejoin="round"/>
<path d="M1092.65 507.3L1169.95 577.4L1125.75 624.2" stroke="#666666" stroke-width="11" stroke-miterlimit="10" stroke-linecap="round" stroke-linejoin="round"/>
<path d="M1063.95 706.799C1016.15 706.799 965.445 692.799 965.445 666.999C965.445 616.899 1044.05 500.799 1062.95 473.699C1081.85 500.699 1160.35 615.499 1160.35 666.999C1160.35 681.799 1144.85 690.999 1131.95 695.999C1114.15 702.999 1090.05 706.799 1063.95 706.799Z" fill="#EFEFEF"/>
<path d="M1062.95 482.4C1072.55 496.2 1089.15 520.9 1105.65 548.5C1146.75 617.4 1155.35 651 1155.35 667C1155.35 673.6 1150.95 683.2 1130.05 691.4C1113.15 698 1089.05 701.8 1063.95 701.8C1038.55 701.8 1013.95 697.9 996.445 691.2C986.745 687.5 970.445 679.3 970.445 667C970.445 651.5 979.045 618.4 1020.25 549.1C1036.75 521.3 1053.45 496.3 1062.95 482.4ZM1062.95 465C1062.95 465 960.445 608.1 960.445 667C960.445 696.7 1012.35 711.8 1063.95 711.8C1114.85 711.8 1165.35 697.1 1165.35 667C1165.35 606.4 1062.95 465 1062.95 465Z" fill="#666666"/>
<path d="M1056.85 486.1C1056.85 486.1 973.746 612.4 973.746 657.9C973.746 703.4 1142.45 704.8 1142.45 657.9C1142.55 611.1 1056.85 486.1 1056.85 486.1Z" fill="white"/>
<path d="M1033.85 507.3L1020.45 527.1L1043.55 532L1056.95 507.3H1033.85Z" fill="#EFEFEF"/>
<path d="M1033.85 507.3L1020.45 527.1L1043.55 532L1056.95 507.3H1033.85Z" stroke="#666666" stroke-width="7" stroke-miterlimit="10" stroke-linecap="round" stroke-linejoin="round"/>
<path d="M1085.45 507.3L1101.95 527.1L1073.45 532L1056.95 507.3H1085.45Z" fill="#EFEFEF"/>
<path d="M1085.45 507.3L1101.95 527.1L1073.45 532L1056.95 507.3H1085.45Z" stroke="#666666" stroke-width="7" stroke-miterlimit="10" stroke-linecap="round" stroke-linejoin="round"/>
<path d="M1076.95 568C1076.95 579 1067.95 588 1056.95 588C1045.95 588 1036.95 579 1036.95 568C1036.95 557 1045.95 548 1056.95 548C1067.95 548 1076.95 556.9 1076.95 568Z" fill="#4BB9F7"/>
<path d="M1056.95 588C1067.99 588 1076.95 579.046 1076.95 568C1076.95 556.954 1067.99 548 1056.95 548C1045.9 548 1036.95 556.954 1036.95 568C1036.95 579.046 1045.9 588 1056.95 588Z" stroke="#666666" stroke-width="10" stroke-miterlimit="10" stroke-linecap="round" stroke-linejoin="round"/>
<path d="M1088.55 781.299C1085.85 779.199 1082.35 777.999 1078.55 778.299C1071.25 778.799 1065.45 784.899 1065.15 792.199C1064.85 800.499 1071.45 806.299 1079.65 806.299H1096.65C1100.65 806.299 1103.95 802.999 1103.95 798.999V771.199L1088.55 781.299Z" fill="white"/>
<path d="M1088.55 781.299C1085.85 779.199 1082.35 777.999 1078.55 778.299C1071.25 778.799 1065.45 784.899 1065.15 792.199C1064.85 800.499 1071.45 806.299 1079.65 806.299H1096.65C1100.65 806.299 1103.95 802.999 1103.95 798.999V771.199L1088.55 781.299Z" stroke="#666666" stroke-width="11" stroke-miterlimit="10" stroke-linecap="round" stroke-linejoin="round"/>
<path d="M1083.25 782.199C1083.25 782.199 1089.05 784.899 1088.45 790.899" stroke="#666666" stroke-width="4" stroke-miterlimit="10" stroke-linecap="round" stroke-linejoin="round"/>
<path d="M1016.75 781.299C1014.05 779.199 1010.55 777.999 1006.75 778.299C999.446 778.799 993.646 784.899 993.346 792.199C993.046 800.499 999.646 806.299 1007.85 806.299H1024.85C1028.85 806.299 1032.15 802.999 1032.15 798.999V771.199L1016.75 781.299Z" fill="white"/>
<path d="M1016.75 781.299C1014.05 779.199 1010.55 777.999 1006.75 778.299C999.446 778.799 993.646 784.899 993.346 792.199C993.046 800.499 999.646 806.299 1007.85 806.299H1024.85C1028.85 806.299 1032.15 802.999 1032.15 798.999V771.199L1016.75 781.299Z" stroke="#666666" stroke-width="11" stroke-miterlimit="10" stroke-linecap="round" stroke-linejoin="round"/>
<path d="M1011.35 782.199C1011.35 782.199 1017.15 784.899 1016.55 790.899" stroke="#666666" stroke-width="4" stroke-miterlimit="10" stroke-linecap="round" stroke-linejoin="round"/>
<path d="M1056.05 210C1056.05 210 1054.85 169.3 1184.15 197.7C1197.25 200.2 1218.65 209.8 1230.55 190.6" stroke="#666666" stroke-width="10" stroke-miterlimit="10" stroke-linecap="round" stroke-linejoin="round"/>
<path d="M1012.54 209.8C1012.54 209.8 1030.14 152 1158.34 178.2C1173.64 181.3 1199.14 190.6 1207.14 177.2" stroke="#666666" stroke-width="10" stroke-miterlimit="10" stroke-linecap="round" stroke-linejoin="round"/>
<path d="M1167.55 522.4L963.146 490.1C941.846 486.7 927.346 467.2 930.646 446.4L958.146 272.3C965.246 227.6 1008.05 197.2 1053.75 204.5L1213.75 229.8" fill="#EFEFEF"/>
<path d="M1167.55 522.4L963.146 490.1C941.846 486.7 927.346 467.2 930.646 446.4L958.146 272.3C965.246 227.6 1008.05 197.2 1053.75 204.5L1213.75 229.8" stroke="#666666" stroke-width="10" stroke-miterlimit="10" stroke-linecap="round" stroke-linejoin="round"/>
<path d="M1168.45 517.5L977.945 487.4C958.945 484.4 946.045 465.7 949.245 445.6L975.845 277.4C982.645 234.2 1021.35 204.5 1062.35 210.9L1213.15 234.7" fill="white"/>
<path d="M954.346 327.1L1003.85 334.9" stroke="#666666" stroke-width="9" stroke-miterlimit="10" stroke-linecap="round" stroke-linejoin="round"/>
<path d="M1085.95 347.8L1151.35 358.2" stroke="#666666" stroke-width="9" stroke-miterlimit="10" stroke-linecap="round" stroke-linejoin="round"/>
<path d="M1021.55 366L1021.25 368.4" stroke="#666666" stroke-width="7" stroke-miterlimit="10" stroke-linecap="round" stroke-linejoin="round"/>
<path d="M1041.75 369.2L1041.45 371.6" stroke="#666666" stroke-width="7" stroke-miterlimit="10" stroke-linecap="round" stroke-linejoin="round"/>
<path d="M1039.29 443.817C1039.63 438.36 1036.34 433.71 1031.93 433.43C1027.52 433.151 1023.66 437.348 1023.32 442.804C1022.97 448.261 1026.27 452.911 1030.68 453.191C1035.08 453.47 1038.94 449.273 1039.29 443.817Z" stroke="#666666" stroke-width="7" stroke-miterlimit="10" stroke-linecap="round" stroke-linejoin="round"/>
<path d="M1165.25 390.4C1164.05 397.8 1151.45 402 1136.95 399.7C1122.45 397.4 1111.75 389.6 1112.85 382.2C1114.05 374.8 1126.65 370.6 1141.15 372.9C1155.65 375.1 1166.45 383 1165.25 390.4Z" fill="#FFF0F0"/>
<path d="M1102.15 209.9C1102.15 209.9 1094.25 189.5 1212.35 217.9C1224.35 220.6 1236.65 226.1 1246.25 210.5" stroke="#666666" stroke-width="10" stroke-miterlimit="10" stroke-linecap="round" stroke-linejoin="round"/>
<path d="M858.546 362C864.846 355.7 864.846 345.4 858.546 339.1C852.246 332.8 841.946 332.8 835.646 339.1C829.346 332.8 819.046 332.8 812.746 339.1C806.446 345.4 806.446 355.7 812.746 362C806.446 368.3 806.446 378.6 812.746 384.9C819.046 391.2 829.346 391.2 835.646 384.9C841.946 391.2 852.246 391.2 858.546 384.9C864.846 378.6 864.846 368.3 858.546 362Z" fill="#F2C9C9"/>
<path d="M858.546 362C864.846 355.7 864.846 345.4 858.546 339.1C852.246 332.8 841.946 332.8 835.646 339.1C829.346 332.8 819.046 332.8 812.746 339.1C806.446 345.4 806.446 355.7 812.746 362C806.446 368.3 806.446 378.6 812.746 384.9C819.046 391.2 829.346 391.2 835.646 384.9C841.946 391.2 852.246 391.2 858.546 384.9C864.846 378.6 864.846 368.3 858.546 362Z" stroke="#EFB4B4" stroke-width="10" stroke-miterlimit="10" stroke-linecap="round" stroke-linejoin="round"/>
<path d="M950.345 131.6C950.345 123.7 943.945 117.3 936.045 117.3C928.145 117.3 921.745 123.7 921.745 131.6C913.845 131.6 907.445 138 907.445 145.9C907.445 153.8 913.845 160.2 921.745 160.2C921.745 168.1 928.145 174.5 936.045 174.5C943.945 174.5 950.345 168.1 950.345 160.2C958.245 160.2 964.645 153.8 964.645 145.9C964.645 138 958.145 131.6 950.345 131.6Z" fill="#F2C9C9"/>
<path d="M950.345 131.6C950.345 123.7 943.945 117.3 936.045 117.3C928.145 117.3 921.745 123.7 921.745 131.6C913.845 131.6 907.445 138 907.445 145.9C907.445 153.8 913.845 160.2 921.745 160.2C921.745 168.1 928.145 174.5 936.045 174.5C943.945 174.5 950.345 168.1 950.345 160.2C958.245 160.2 964.645 153.8 964.645 145.9C964.645 138 958.145 131.6 950.345 131.6Z" stroke="#EFB4B4" stroke-width="10" stroke-miterlimit="10" stroke-linecap="round" stroke-linejoin="round"/>
<path d="M1279.44 453C1279.44 443.1 1271.44 435.2 1261.64 435.2C1251.74 435.2 1243.84 443.2 1243.84 453C1233.94 453 1226.04 461 1226.04 470.8C1226.04 480.7 1234.04 488.6 1243.84 488.6C1243.84 498.5 1251.84 506.4 1261.64 506.4C1271.54 506.4 1279.44 498.4 1279.44 488.6C1289.34 488.6 1297.24 480.6 1297.24 470.8C1297.24 461 1289.24 453 1279.44 453Z" fill="#F2C9C9"/>
<path d="M1279.44 453C1279.44 443.1 1271.44 435.2 1261.64 435.2C1251.74 435.2 1243.84 443.2 1243.84 453C1233.94 453 1226.04 461 1226.04 470.8C1226.04 480.7 1234.04 488.6 1243.84 488.6C1243.84 498.5 1251.84 506.4 1261.64 506.4C1271.54 506.4 1279.44 498.4 1279.44 488.6C1289.34 488.6 1297.24 480.6 1297.24 470.8C1297.24 461 1289.24 453 1279.44 453Z" stroke="#EFB4B4" stroke-width="10" stroke-miterlimit="10" stroke-linecap="round" stroke-linejoin="round"/>
<g clip-path="url(#clip0)">
<path d="M1212.58 702.788V697.538C1212.58 693.554 1215.82 691.913 1219.29 691.913C1222.66 691.913 1225.94 693.647 1225.94 697.538V702.788H1249.52C1253.5 702.788 1255.05 705.319 1255.05 707.756C1255.05 710.288 1253.46 712.725 1249.52 712.725H1199.13C1195.19 712.725 1193.6 710.288 1193.6 707.756C1193.6 705.319 1195.1 702.788 1199.13 702.788H1212.58Z" fill="#666666"/>
<path d="M1238.83 683.945V689.195C1238.83 688.258 1238.22 687.554 1237.19 687.554H1201.57C1197.63 687.554 1195.8 684.601 1195.8 681.93C1195.8 679.305 1197.58 676.305 1201.57 676.305H1241.65C1249.38 676.305 1251.77 679.258 1251.77 685.679V684.039C1251.77 694.585 1250.46 697.679 1247.97 702.648C1246.19 706.116 1241.88 707.616 1238.32 706.116C1235.41 704.851 1234.57 701.57 1235.88 698.57C1237.85 694.023 1238.83 692.757 1238.83 683.945Z" fill="#666666"/>
<path d="M1283.13 702.648V698.851H1271.27C1263.77 698.851 1261.94 697.023 1261.94 689.851V684.32C1261.94 677.148 1263.77 675.18 1271.27 675.18H1312.94C1316.6 675.18 1317.91 677.664 1317.91 680.101C1317.91 682.586 1316.55 685.023 1312.94 685.023H1277.22C1275.91 685.023 1275.44 685.351 1275.44 686.523V687.554C1275.44 688.867 1275.91 689.148 1277.22 689.148H1313.13C1316.74 689.148 1318.1 691.632 1318.1 694.07C1318.1 696.507 1316.64 698.804 1313.13 698.804H1296.53V702.601H1315.24C1319.17 702.601 1320.67 705.038 1320.67 707.663C1320.67 710.288 1319.08 712.726 1315.24 712.726H1264.66C1260.77 712.726 1259.22 710.288 1259.22 707.663C1259.22 705.038 1260.72 702.601 1264.66 702.601H1283.13V702.648ZM1267.28 726.272C1263.72 726.272 1261.75 724.163 1261.75 721.21C1261.75 718.257 1263.72 716.241 1267.28 716.241H1308.49C1316.41 716.241 1317.86 718.538 1317.86 726.132V735.928H1304.74V727.725C1304.74 726.694 1304.36 726.272 1303.28 726.272H1267.28Z" fill="#666666"/>
<path d="M1327.52 699.179V694.351C1327.52 692.664 1328.03 691.117 1328.88 689.757H1328.83C1325.6 689.757 1323.91 687.461 1323.91 685.117C1323.91 682.773 1325.55 680.195 1328.78 680.195H1338.3V680.055C1338.3 676.164 1340.92 673.961 1344.86 673.961C1348.8 673.961 1351.47 676.258 1351.47 680.055V680.195H1360.94C1364.22 680.195 1365.72 682.773 1365.72 685.117C1365.72 687.461 1364.27 689.757 1360.99 689.757H1360.7C1361.64 691.117 1362.16 692.664 1362.16 694.351V699.132C1362.16 708.694 1354.09 713.194 1344.81 713.194C1335.63 713.194 1327.52 708.741 1327.52 699.179ZM1339.28 735.928C1331.92 735.928 1329.95 733.35 1329.95 726.366V721.491C1329.95 717.038 1333.05 714.976 1336.7 714.976C1340.36 714.976 1343.27 717.085 1343.27 721.491V724.116C1343.27 725.569 1343.6 725.757 1345.05 725.757H1379.45C1383.44 725.757 1384.98 728.194 1384.98 730.819C1384.98 733.491 1383.39 735.928 1379.45 735.928H1339.28ZM1350.25 698.851V694.304C1350.25 691.07 1347.58 689.336 1344.86 689.336C1342.19 689.336 1339.47 691.117 1339.47 694.304V698.851C1339.47 702.085 1342.14 703.82 1344.86 703.82C1347.53 703.82 1350.25 702.038 1350.25 698.851ZM1369.84 680.805C1369.84 676.539 1372.8 674.289 1376.27 674.289C1379.69 674.289 1382.69 676.586 1382.69 680.805V690.695H1384.7C1388.69 690.695 1389.91 693.789 1389.91 696.414C1389.91 699.085 1388.64 702.132 1384.7 702.132H1382.69V720.694H1369.84V680.805Z" fill="#666666"/>
<path d="M1194.63 759.318C1194.63 749.662 1201.19 745.49 1209.86 745.49C1217.55 745.49 1223.36 748.818 1224.58 756.365H1228.85V750.318C1228.85 746.662 1231.33 744.74 1234.38 744.74C1237.33 744.74 1239.96 746.709 1239.96 750.318V776.427H1228.85V766.443H1224.3C1222.71 773.146 1217.13 776.099 1209.86 776.099C1201.19 776.099 1194.63 771.88 1194.63 762.271V759.318ZM1206.44 806.239C1200.54 806.239 1197.26 802.114 1197.26 797.426V796.63C1197.26 791.989 1200.54 788.942 1206.44 788.942H1240.94V787.302C1240.94 786.645 1240.57 786.27 1239.58 786.27H1201.52C1199.04 786.27 1197.96 784.349 1197.96 782.474C1197.96 780.646 1199.08 778.677 1201.52 778.677H1246.43C1252.19 778.677 1254.3 780.364 1254.3 785.52V795.833H1212.58C1211.6 795.833 1211.13 796.442 1211.13 797.098V797.286C1211.13 797.942 1211.6 798.551 1212.58 798.551H1252.33C1254.91 798.551 1255.99 800.52 1255.99 802.489C1255.99 804.27 1254.96 806.239 1252.33 806.239H1206.44ZM1206.4 762.974C1206.4 765.88 1208.08 766.771 1209.86 766.771C1211.65 766.771 1213.43 765.833 1213.43 762.974V758.521C1213.43 755.615 1211.65 754.724 1209.86 754.724C1208.08 754.724 1206.4 755.662 1206.4 758.521V762.974ZM1242.77 750.178C1242.77 746.521 1245.54 744.6 1248.54 744.6C1251.49 744.6 1254.3 746.568 1254.3 750.178V776.427H1242.77V750.178Z" fill="#4BB9F7"/>
<path d="M1275.11 792.645C1275.11 794.942 1275.82 795.458 1278.11 795.458H1297.47C1301.46 795.458 1303.05 798.223 1303.05 800.848C1303.05 803.52 1301.41 806.239 1297.47 806.239H1273.28C1265.08 806.239 1261.94 803.286 1261.94 795.083V783.13C1261.94 774.927 1265.08 772.115 1273.28 772.115H1285.05V759.834C1285.05 758.99 1284.77 758.006 1283.27 758.006H1268.18C1264.24 758.006 1262.6 755.24 1262.6 752.568C1262.6 749.943 1264.19 747.037 1268.18 747.037H1286.74C1295.78 747.037 1298.22 749.615 1298.22 757.068V782.802H1278.16C1275.86 782.802 1275.16 783.317 1275.16 785.614V792.645H1275.11ZM1306.71 806.239V753.599C1306.71 749.334 1309.8 747.084 1313.27 747.084C1316.74 747.084 1319.83 749.334 1319.83 753.599V806.239H1306.71Z" fill="#4BB9F7"/>
<path d="M1348 771.036V760.068C1348 759.131 1347.39 758.427 1346.36 758.427H1331.41C1327.47 758.427 1325.88 755.427 1325.88 752.709C1325.88 750.084 1327.38 747.084 1331.41 747.084H1350.72C1358.13 747.084 1361.03 750.553 1361.03 756.646V771.083C1361.03 794.333 1348.42 802.723 1331.45 803.567C1328.22 803.708 1325.17 801.786 1325.17 797.942C1325.17 795.176 1326.77 793.067 1330.05 792.692C1340.27 791.38 1348 787.208 1348 771.036ZM1368.95 750.974C1368.95 746.756 1372.05 744.6 1375.47 744.6C1378.8 744.6 1381.98 746.85 1381.98 750.974V767.568H1384.14C1388.13 767.568 1389.34 770.661 1389.34 773.286C1389.34 775.958 1388.08 779.005 1384.14 779.005H1381.98V806.239H1369V750.974H1368.95Z" fill="#4BB9F7"/>
<path d="M1435.84 734.944H1413.2C1407.3 734.944 1402.52 730.163 1402.52 724.257V684.648C1402.52 678.742 1407.3 673.961 1413.2 673.961H1435.84C1441.75 673.961 1446.53 678.742 1446.53 684.648V724.21C1446.53 730.163 1441.75 734.944 1435.84 734.944Z" fill="#4BB9F7"/>
<path d="M1416.44 690.789V688.398C1416.44 687.648 1416.62 687.086 1417.05 686.805C1417.42 686.523 1417.94 686.336 1418.59 686.336C1419.2 686.336 1419.72 686.476 1420.14 686.805C1420.52 687.133 1420.75 687.648 1420.75 688.398V690.789H1426.75C1427.45 690.789 1427.97 690.976 1428.3 691.304C1428.58 691.679 1428.77 692.054 1428.77 692.57C1428.77 693.086 1428.62 693.507 1428.3 693.836C1427.97 694.164 1427.5 694.351 1426.8 694.351H1415.41C1414.7 694.351 1414.19 694.164 1413.86 693.836C1413.53 693.461 1413.39 693.039 1413.39 692.57C1413.39 692.101 1413.53 691.679 1413.86 691.304C1414.19 690.929 1414.66 690.789 1415.41 690.789H1416.44ZM1415.97 684.789C1415.22 684.789 1414.7 684.601 1414.37 684.273C1414.05 683.898 1413.91 683.476 1413.91 682.914C1413.91 682.445 1414.05 682.023 1414.37 681.648C1414.7 681.273 1415.22 681.133 1415.97 681.133H1424.5C1425.58 681.133 1426.37 681.367 1426.84 681.789C1427.31 682.211 1427.5 682.867 1427.5 683.711V685.773C1427.5 686.617 1427.45 687.414 1427.31 688.164C1427.22 688.914 1427.08 689.476 1426.89 689.945H1422.53C1422.72 689.476 1422.86 688.914 1422.95 688.211C1423.05 687.508 1423.09 686.851 1423.09 686.195V685.305C1423.09 685.117 1423.05 684.976 1422.95 684.93C1422.86 684.883 1422.72 684.836 1422.53 684.836H1415.97V684.789ZM1418.45 702.507C1417.8 702.507 1417.23 702.46 1416.81 702.32C1416.39 702.179 1416.06 701.992 1415.78 701.71C1415.55 701.429 1415.36 701.101 1415.27 700.632C1415.17 700.21 1415.12 699.648 1415.12 699.039V697.586C1415.12 696.789 1415.36 696.226 1415.83 695.851C1416.3 695.476 1416.86 695.336 1417.52 695.336C1418.17 695.336 1418.73 695.523 1419.2 695.851C1419.67 696.226 1419.86 696.789 1419.86 697.586V698.335C1419.86 698.617 1419.91 698.757 1420 698.851C1420.09 698.898 1420.23 698.945 1420.52 698.945H1432.8C1433.5 698.945 1434.02 699.132 1434.34 699.46C1434.62 699.835 1434.77 700.257 1434.77 700.726C1434.77 701.195 1434.62 701.617 1434.3 701.992C1434.02 702.367 1433.5 702.507 1432.8 702.507H1418.45ZM1429.37 682.82C1429.37 682.07 1429.61 681.461 1430.08 681.086C1430.55 680.711 1431.06 680.477 1431.67 680.477C1432.28 680.477 1432.8 680.664 1433.27 681.086C1433.73 681.508 1433.97 682.07 1433.97 682.82V686.383H1434.67C1435.05 686.383 1435.33 686.43 1435.56 686.57C1435.8 686.711 1435.98 686.851 1436.12 687.039C1436.27 687.226 1436.36 687.461 1436.41 687.695C1436.45 687.93 1436.5 688.164 1436.5 688.398C1436.5 688.633 1436.45 688.867 1436.41 689.101C1436.36 689.336 1436.22 689.57 1436.12 689.758C1435.98 689.945 1435.8 690.133 1435.56 690.226C1435.33 690.367 1435.05 690.414 1434.67 690.414H1433.97V697.07H1429.37V682.82Z" fill="white"/>
<path d="M1422.02 715.585V715.444C1422.02 714.694 1422.25 714.179 1422.72 713.897C1423.19 713.616 1423.75 713.429 1424.36 713.429C1424.97 713.429 1425.53 713.569 1426 713.897C1426.47 714.225 1426.7 714.741 1426.7 715.444V715.585H1433.41C1433.73 715.585 1434.02 715.632 1434.25 715.725C1434.48 715.819 1434.67 715.96 1434.81 716.147C1434.95 716.335 1435.05 716.522 1435.14 716.71C1435.19 716.897 1435.23 717.132 1435.23 717.366C1435.23 717.835 1435.09 718.21 1434.81 718.538C1434.53 718.866 1434.06 719.053 1433.41 719.053H1415.12C1414.47 719.053 1414 718.866 1413.72 718.538C1413.44 718.21 1413.3 717.788 1413.3 717.366C1413.3 717.132 1413.34 716.944 1413.39 716.71C1413.44 716.475 1413.58 716.288 1413.72 716.147C1413.86 715.96 1414.05 715.866 1414.28 715.725C1414.52 715.632 1414.8 715.585 1415.12 715.585H1422.02ZM1432.47 706.069C1433.12 706.069 1433.59 706.21 1433.87 706.538C1434.16 706.866 1434.3 707.241 1434.3 707.71C1434.3 708.179 1434.16 708.554 1433.87 708.882C1433.59 709.21 1433.12 709.351 1432.47 709.351H1426.84C1426.8 709.491 1426.75 709.632 1426.7 709.772C1426.66 709.913 1426.61 710.054 1426.52 710.147C1426.84 710.1 1427.22 710.1 1427.55 710.1C1427.87 710.1 1428.25 710.1 1428.58 710.147C1429.37 710.194 1430.08 710.288 1430.78 710.429C1431.48 710.569 1432.09 710.85 1432.66 711.179C1433.22 711.507 1433.69 711.929 1434.11 712.491C1434.53 713.054 1434.86 713.71 1435.09 714.46H1430.41C1430.22 714.179 1429.98 713.944 1429.66 713.757C1429.33 713.522 1429 713.335 1428.58 713.194C1428.2 713.054 1427.78 712.913 1427.36 712.819C1426.94 712.725 1426.52 712.679 1426.09 712.679C1425.72 712.679 1425.3 712.679 1424.87 712.725C1424.45 712.725 1424.03 712.772 1423.61 712.866C1423.05 713.147 1422.44 713.429 1421.78 713.616C1421.12 713.85 1420.47 713.991 1419.77 714.132C1419.06 714.272 1418.36 714.366 1417.66 714.413C1416.95 714.46 1416.25 714.46 1415.55 714.46C1414.89 714.413 1414.42 714.225 1414.14 713.85C1413.86 713.475 1413.72 712.96 1413.81 712.397C1413.91 711.929 1414.09 711.6 1414.47 711.366C1414.84 711.132 1415.27 711.038 1415.83 711.085C1416.58 711.132 1417.28 711.132 1417.94 711.085C1418.59 711.038 1419.25 710.944 1419.81 710.804C1420.37 710.663 1420.89 710.475 1421.31 710.288C1421.73 710.054 1422.06 709.819 1422.3 709.491H1416.06C1415.41 709.491 1414.94 709.351 1414.66 709.022C1414.37 708.694 1414.23 708.319 1414.23 707.851C1414.23 707.382 1414.37 707.007 1414.66 706.679C1414.94 706.351 1415.41 706.21 1416.06 706.21H1432.47V706.069ZM1430.22 720.085C1430.97 720.085 1431.58 720.178 1432.14 720.366C1432.7 720.553 1433.12 720.835 1433.5 721.163C1433.87 721.491 1434.16 721.913 1434.34 722.381C1434.53 722.85 1434.62 723.366 1434.62 723.928C1434.62 724.491 1434.53 725.006 1434.34 725.475C1434.16 725.944 1433.87 726.366 1433.5 726.694C1433.12 727.022 1432.66 727.303 1432.14 727.491C1431.58 727.678 1430.97 727.772 1430.22 727.772H1418.36C1417.61 727.772 1417 727.678 1416.44 727.491C1415.87 727.303 1415.41 727.022 1415.08 726.694C1414.7 726.366 1414.47 725.944 1414.28 725.475C1414.09 725.006 1414 724.491 1414 723.928C1414 723.366 1414.09 722.85 1414.28 722.381C1414.47 721.913 1414.75 721.491 1415.08 721.163C1415.45 720.835 1415.87 720.553 1416.44 720.366C1417 720.178 1417.66 720.085 1418.36 720.085H1430.22ZM1428.86 724.725C1429.28 724.725 1429.56 724.631 1429.66 724.491C1429.75 724.35 1429.84 724.163 1429.84 723.975C1429.84 723.788 1429.8 723.647 1429.66 723.46C1429.52 723.272 1429.28 723.225 1428.86 723.225H1419.72C1419.3 723.225 1419.02 723.319 1418.92 723.46C1418.83 723.6 1418.73 723.788 1418.73 723.975C1418.73 724.163 1418.78 724.303 1418.92 724.491C1419.06 724.678 1419.3 724.725 1419.72 724.725H1428.86Z" fill="white"/>
<path d="M1271.55 702.647H1240.94V712.725H1271.55V702.647Z" fill="#666666"/>
<path d="M1337.46 712.725H1315.1C1312.85 712.725 1311.02 710.897 1311.02 708.647V706.679C1311.02 704.429 1312.85 702.601 1315.1 702.601H1337.46C1339.71 702.601 1341.53 704.429 1341.53 706.679V708.647C1341.53 710.944 1339.71 712.725 1337.46 712.725Z" fill="#666666"/>
<path d="M1343.27 711.179H1329.96V724.491H1343.27V711.179Z" fill="#666666"/>
<path d="M1195.38 721.163H1206.49V724.069H1198.57V727.069H1205.55V729.975H1198.57V733.069H1206.58V735.975H1195.38V721.163Z" fill="#DDDDDD"/>
<path d="M1209.49 721.163H1212.72V732.975H1220.08V735.928H1209.49V721.163Z" fill="#DDDDDD"/>
<path d="M1222.71 721.163H1225.94V735.928H1222.71V721.163Z" fill="#DDDDDD"/>
<path d="M1236.77 736.163C1235.6 736.163 1234.57 735.975 1233.63 735.6C1232.69 735.225 1231.85 734.71 1231.19 734.007C1230.49 733.35 1229.97 732.507 1229.6 731.616C1229.22 730.725 1229.04 729.694 1229.04 728.569V728.522C1229.04 727.444 1229.22 726.46 1229.6 725.569C1229.97 724.632 1230.54 723.835 1231.19 723.132C1231.9 722.429 1232.69 721.866 1233.63 721.491C1234.57 721.069 1235.6 720.882 1236.72 720.882C1237.38 720.882 1237.99 720.929 1238.51 721.022C1239.07 721.116 1239.54 721.257 1240.01 721.397C1240.47 721.585 1240.9 721.772 1241.32 722.054C1241.74 722.335 1242.11 722.616 1242.49 722.897L1240.43 725.382C1240.15 725.147 1239.86 724.913 1239.58 724.725C1239.3 724.538 1239.02 724.397 1238.69 724.257C1238.41 724.116 1238.08 724.022 1237.71 723.976C1237.33 723.929 1236.96 723.882 1236.54 723.882C1235.93 723.882 1235.41 724.022 1234.9 724.257C1234.38 724.491 1233.91 724.819 1233.54 725.241C1233.16 725.663 1232.83 726.132 1232.65 726.694C1232.41 727.257 1232.32 727.866 1232.32 728.475V728.522C1232.32 729.179 1232.41 729.835 1232.65 730.397C1232.88 730.96 1233.16 731.475 1233.58 731.897C1234.01 732.319 1234.47 732.647 1234.99 732.882C1235.55 733.116 1236.12 733.21 1236.77 733.21C1237.99 733.21 1239.02 732.928 1239.82 732.319V730.21H1236.54V727.397H1242.96V733.819C1242.21 734.475 1241.32 735.038 1240.24 735.46C1239.3 735.928 1238.08 736.163 1236.77 736.163Z" fill="#DDDDDD"/>
<path d="M1251.25 721.022H1254.25L1260.58 735.881H1257.21L1255.85 732.553H1249.61L1248.25 735.881H1244.93L1251.25 721.022ZM1254.68 729.741L1252.71 724.96L1250.74 729.741H1254.68Z" fill="#DDDDDD"/>
<path d="M1275.07 798.552H1242.77V806.239H1275.07V798.552Z" fill="#4BB9F7"/>
<path d="M1334.6 747.084H1312.33V758.474H1334.6V747.084Z" fill="#4BB9F7"/>
<path d="M1395.53 767.568H1384.1V779.006H1395.53V767.568Z" fill="#4BB9F7"/>
<path d="M1389.06 763.443C1389.06 751.912 1396.75 745.678 1407.72 745.678C1418.69 745.678 1426.42 751.865 1426.42 763.443V787.208C1426.42 798.833 1418.69 804.973 1407.77 804.973C1396.8 804.973 1389.06 798.786 1389.06 787.208V763.443ZM1402.05 787.442C1402.05 791.895 1404.49 794.145 1407.67 794.145C1410.91 794.145 1413.39 791.895 1413.39 787.442V763.162C1413.39 758.756 1410.91 756.412 1407.67 756.459C1404.44 756.506 1402.05 758.802 1402.05 763.162V787.442ZM1433.88 806.239V751.115C1433.88 746.85 1436.97 744.6 1440.44 744.6C1443.91 744.6 1447 746.85 1447 751.115V806.239H1433.88Z" fill="#666666"/>
<path d="M1254.3 772.49H1242.77V785.474H1254.3V772.49Z" fill="#4BB9F7"/>
</g>
<path d="M54.2656 306V340.541C54.2656 363.619 72.8131 382.276 95.7554 382.276H134.266" stroke="#DDDDDD" stroke-width="15" stroke-miterlimit="10" stroke-linecap="round" stroke-linejoin="round"/>
<path d="M126 8.22656H89.7721C65.5678 8.22656 46 28.6053 46 53.8127V96.1251" stroke="#DDDDDD" stroke-width="15" stroke-miterlimit="10" stroke-linecap="round" stroke-linejoin="round"/>
<path d="M897.633 92.0669V56.1669C897.633 32.1817 879.085 12.791 856.143 12.791H817.633" stroke="#DDDDDD" stroke-width="15" stroke-miterlimit="10" stroke-linecap="round" stroke-linejoin="round"/>
<path d="M138.991 165.25C141.557 163.523 143.681 161.517 145.361 159.23C147.041 156.897 148.394 154.213 149.421 151.18C150.447 148.147 151.171 144.717 151.591 140.89C152.011 137.063 152.221 132.747 152.221 127.94V122.48C152.221 120.24 152.921 118.56 154.321 117.44C155.721 116.273 157.331 115.69 159.151 115.69C160.037 115.69 160.901 115.853 161.741 116.18C162.581 116.46 163.304 116.903 163.911 117.51C164.564 118.07 165.077 118.77 165.451 119.61C165.871 120.45 166.081 121.407 166.081 122.48V127.87C166.081 132.91 165.801 137.553 165.241 141.8C168.181 142.873 170.747 144.297 172.941 146.07C175.134 147.797 176.931 150.013 178.331 152.72C179.731 155.38 180.711 158.577 181.271 162.31C181.831 165.997 181.971 170.337 181.691 175.33H168.111C169.371 164.83 167.527 157.877 162.581 154.47C159.547 164.083 154.554 170.757 147.601 174.49C146.714 174.957 145.804 175.283 144.871 175.47C143.937 175.703 143.027 175.773 142.141 175.68C141.254 175.633 140.437 175.423 139.691 175.05C138.991 174.723 138.407 174.257 137.941 173.65C137.474 173.09 137.101 172.46 136.821 171.76C136.587 171.013 136.494 170.267 136.541 169.52C136.587 168.727 136.797 167.957 137.171 167.21C137.591 166.463 138.197 165.81 138.991 165.25ZM188.621 145.58H179.731C178.657 145.58 177.747 145.417 177.001 145.09C176.301 144.717 175.694 144.25 175.181 143.69C174.714 143.083 174.364 142.43 174.131 141.73C173.944 140.983 173.851 140.26 173.851 139.56C173.851 138.86 173.944 138.16 174.131 137.46C174.364 136.713 174.714 136.06 175.181 135.5C175.647 134.94 176.254 134.473 177.001 134.1C177.747 133.727 178.657 133.54 179.731 133.54H188.621V120.38C188.621 118.14 189.321 116.46 190.721 115.34C192.121 114.173 193.731 113.59 195.551 113.59C196.437 113.59 197.301 113.753 198.141 114.08C198.981 114.36 199.727 114.78 200.381 115.34C201.034 115.9 201.547 116.6 201.921 117.44C202.341 118.28 202.551 119.26 202.551 120.38V179.32H188.621V145.58ZM220.891 176.31C218.837 176.31 217.157 176.123 215.851 175.75C214.544 175.377 213.517 174.77 212.771 173.93C212.024 173.09 211.487 172.017 211.161 170.71C210.881 169.357 210.741 167.723 210.741 165.81V122.83C210.741 120.357 211.394 118.583 212.701 117.51C214.007 116.437 215.687 115.9 217.741 115.9C219.747 115.9 221.357 116.46 222.571 117.58C223.831 118.653 224.461 120.403 224.461 122.83V133.54H237.061V122.83C237.061 120.357 237.691 118.583 238.951 117.51C240.211 116.437 241.844 115.9 243.851 115.9C245.904 115.9 247.537 116.46 248.751 117.58C250.011 118.653 250.641 120.403 250.641 122.83V176.31H220.891ZM258.341 179.32V120.52C258.341 118.233 259.041 116.507 260.441 115.34C261.841 114.173 263.474 113.59 265.341 113.59C267.207 113.59 268.841 114.173 270.241 115.34C271.641 116.507 272.341 118.233 272.341 120.52V179.32H258.341ZM237.061 164.76V144.95H224.461V162.94C224.461 163.733 224.577 164.247 224.811 164.48C225.091 164.667 225.627 164.76 226.421 164.76H237.061ZM318.541 121.99C318.494 124.09 318.167 126.237 317.561 128.43C320.501 128.523 323.417 129.107 326.311 130.18C329.204 131.253 331.817 132.863 334.151 135.01C336.484 137.157 338.421 139.863 339.961 143.13C341.547 146.397 342.504 150.27 342.831 154.75H328.621C328.294 152.37 327.641 150.247 326.661 148.38C325.681 146.467 324.444 144.88 322.951 143.62C321.504 142.313 319.847 141.333 317.981 140.68C316.114 140.027 314.131 139.723 312.031 139.77C310.444 141.963 308.647 143.97 306.641 145.79C304.634 147.61 302.511 149.173 300.271 150.48C298.077 151.787 295.791 152.813 293.411 153.56C291.077 154.307 288.767 154.703 286.481 154.75C284.754 154.797 283.261 154.353 282.001 153.42C280.741 152.44 280.017 151.087 279.831 149.36C279.644 147.68 279.994 146.21 280.881 144.95C281.767 143.69 283.097 142.873 284.871 142.5C287.157 141.987 289.374 141.123 291.521 139.91C293.714 138.697 295.674 137.18 297.401 135.36C299.127 133.493 300.574 131.347 301.741 128.92C302.907 126.493 303.677 123.81 304.051 120.87C304.331 118.63 305.217 116.997 306.711 115.97C308.251 114.897 310.001 114.43 311.961 114.57C314.014 114.757 315.647 115.48 316.861 116.74C318.074 118 318.634 119.75 318.541 121.99ZM338.211 166.09C339.284 166.09 340.194 166.277 340.941 166.65C341.734 166.977 342.364 167.42 342.831 167.98C343.344 168.54 343.694 169.193 343.881 169.94C344.114 170.64 344.231 171.34 344.231 172.04C344.231 172.787 344.114 173.51 343.881 174.21C343.647 174.91 343.274 175.54 342.761 176.1C342.294 176.66 341.687 177.103 340.941 177.43C340.194 177.757 339.284 177.92 338.211 177.92H284.731C283.657 177.92 282.747 177.757 282.001 177.43C281.254 177.103 280.624 176.66 280.111 176.1C279.644 175.54 279.294 174.91 279.061 174.21C278.827 173.51 278.711 172.787 278.711 172.04C278.711 171.34 278.804 170.64 278.991 169.94C279.224 169.193 279.574 168.54 280.041 167.98C280.554 167.42 281.184 166.977 281.931 166.65C282.724 166.277 283.657 166.09 284.731 166.09H338.211ZM425.52 114.57C426.5 114.57 427.34 114.733 428.04 115.06C428.74 115.34 429.3 115.737 429.72 116.25C430.187 116.763 430.513 117.347 430.7 118C430.933 118.653 431.05 119.307 431.05 119.96C431.05 121.313 430.607 122.55 429.72 123.67C428.88 124.79 427.48 125.35 425.52 125.35H408.44C408.347 125.863 408.23 126.353 408.09 126.82C407.997 127.287 407.857 127.753 407.67 128.22C408.697 128.127 409.7 128.08 410.68 128.08C411.707 128.033 412.733 128.033 413.76 128.08C416.047 128.173 418.217 128.5 420.27 129.06C422.37 129.573 424.26 130.39 425.94 131.51C427.667 132.63 429.16 134.1 430.42 135.92C431.68 137.74 432.66 139.98 433.36 142.64H419.22C417.96 140.307 416.163 138.673 413.83 137.74C411.497 136.76 408.953 136.247 406.2 136.2C405.407 136.2 404.613 136.223 403.82 136.27C403.027 136.317 402.21 136.41 401.37 136.55C399.69 137.81 397.8 138.883 395.7 139.77C393.647 140.657 391.477 141.357 389.19 141.87C386.903 142.337 384.593 142.64 382.26 142.78C379.927 142.92 377.64 142.897 375.4 142.71C373.487 142.523 372.04 141.87 371.06 140.75C370.127 139.583 369.73 138.113 369.87 136.34C369.963 134.987 370.523 133.843 371.55 132.91C372.623 131.977 373.977 131.557 375.61 131.65C377.803 131.79 379.95 131.79 382.05 131.65C384.197 131.51 386.133 131.207 387.86 130.74C389.633 130.273 391.15 129.62 392.41 128.78C393.717 127.893 394.65 126.75 395.21 125.35H376.66C374.7 125.35 373.277 124.79 372.39 123.67C371.55 122.55 371.13 121.313 371.13 119.96C371.13 119.307 371.223 118.653 371.41 118C371.643 117.347 371.97 116.763 372.39 116.25C372.857 115.737 373.44 115.34 374.14 115.06C374.84 114.733 375.68 114.57 376.66 114.57H425.52ZM394.65 156.08H373.79C371.83 156.08 370.43 155.543 369.59 154.47C368.75 153.35 368.33 152.113 368.33 150.76C368.33 150.107 368.423 149.453 368.61 148.8C368.797 148.147 369.1 147.563 369.52 147.05C369.987 146.49 370.57 146.047 371.27 145.72C371.97 145.393 372.81 145.23 373.79 145.23H428.39C429.37 145.23 430.21 145.393 430.91 145.72C431.61 146.047 432.17 146.49 432.59 147.05C433.057 147.563 433.383 148.147 433.57 148.8C433.757 149.453 433.85 150.107 433.85 150.76C433.85 152.113 433.43 153.35 432.59 154.47C431.75 155.543 430.35 156.08 428.39 156.08H408.72V164.76H394.65V156.08ZM381.84 179.32C379.88 179.32 378.247 179.133 376.94 178.76C375.633 178.433 374.607 177.873 373.86 177.08C373.113 176.287 372.577 175.26 372.25 174C371.97 172.693 371.83 171.083 371.83 169.17V165.18C371.83 162.8 372.553 161.12 374 160.14C375.447 159.113 377.15 158.6 379.11 158.6C381.07 158.6 382.727 159.113 384.08 160.14C385.48 161.167 386.18 162.847 386.18 165.18V167.35C386.18 167.957 386.273 168.353 386.46 168.54C386.647 168.68 387.067 168.75 387.72 168.75H425.8C427.947 168.75 429.463 169.287 430.35 170.36C431.237 171.387 431.68 172.6 431.68 174C431.68 175.447 431.213 176.683 430.28 177.71C429.393 178.783 427.9 179.32 425.8 179.32H381.84ZM450.51 176.31C448.457 176.31 446.777 176.123 445.47 175.75C444.163 175.377 443.137 174.77 442.39 173.93C441.643 173.09 441.107 172.017 440.78 170.71C440.5 169.357 440.36 167.723 440.36 165.81V122.83C440.36 120.357 441.013 118.583 442.32 117.51C443.627 116.437 445.307 115.9 447.36 115.9C449.367 115.9 450.977 116.46 452.19 117.58C453.45 118.653 454.08 120.403 454.08 122.83V133.54H466.68V122.83C466.68 120.357 467.31 118.583 468.57 117.51C469.83 116.437 471.463 115.9 473.47 115.9C475.523 115.9 477.157 116.46 478.37 117.58C479.63 118.653 480.26 120.403 480.26 122.83V176.31H450.51ZM487.96 179.32V120.52C487.96 118.233 488.66 116.507 490.06 115.34C491.46 114.173 493.093 113.59 494.96 113.59C496.827 113.59 498.46 114.173 499.86 115.34C501.26 116.507 501.96 118.233 501.96 120.52V179.32H487.96ZM466.68 164.76V144.95H454.08V162.94C454.08 163.733 454.197 164.247 454.43 164.48C454.71 164.667 455.247 164.76 456.04 164.76H466.68ZM534.02 156.29V152.93H513.79C511.83 152.93 510.43 152.44 509.59 151.46C508.75 150.433 508.33 149.243 508.33 147.89C508.33 146.583 508.727 145.393 509.52 144.32C510.36 143.247 511.783 142.71 513.79 142.71H568.39C570.397 142.71 571.797 143.247 572.59 144.32C573.43 145.393 573.85 146.583 573.85 147.89C573.85 149.243 573.43 150.433 572.59 151.46C571.75 152.44 570.35 152.93 568.39 152.93H548.16V156.29H558.8C560.993 156.29 562.907 156.593 564.54 157.2C566.173 157.76 567.527 158.577 568.6 159.65C569.72 160.677 570.537 161.89 571.05 163.29C571.61 164.69 571.89 166.23 571.89 167.91C571.89 169.59 571.61 171.13 571.05 172.53C570.537 173.93 569.72 175.143 568.6 176.17C567.527 177.243 566.173 178.06 564.54 178.62C562.907 179.227 560.993 179.53 558.8 179.53H523.38C521.187 179.53 519.25 179.227 517.57 178.62C515.937 178.06 514.583 177.243 513.51 176.17C512.437 175.143 511.62 173.93 511.06 172.53C510.547 171.13 510.29 169.59 510.29 167.91C510.29 166.23 510.547 164.69 511.06 163.29C511.62 161.89 512.437 160.677 513.51 159.65C514.583 158.577 515.937 157.76 517.57 157.2C519.25 156.593 521.187 156.29 523.38 156.29H534.02ZM565.52 114.57C567.527 114.57 568.95 115.107 569.79 116.18C570.63 117.207 571.05 118.397 571.05 119.75C571.05 121.103 570.607 122.317 569.72 123.39C568.88 124.417 567.48 124.93 565.52 124.93H548.3C548.067 125.957 547.787 126.82 547.46 127.52C548.533 127.427 549.607 127.38 550.68 127.38C551.753 127.333 552.827 127.333 553.9 127.38C556.187 127.473 558.357 127.753 560.41 128.22C562.51 128.64 564.4 129.363 566.08 130.39C567.76 131.37 569.207 132.677 570.42 134.31C571.68 135.943 572.66 137.997 573.36 140.47H559.22C558.66 139.443 557.913 138.58 556.98 137.88C556.093 137.18 555.09 136.62 553.97 136.2C552.85 135.733 551.637 135.407 550.33 135.22C549.07 134.987 547.787 134.87 546.48 134.87C545.547 134.87 544.59 134.917 543.61 135.01C542.63 135.057 541.627 135.197 540.6 135.43C538.92 136.503 537.077 137.437 535.07 138.23C533.063 138.977 530.963 139.56 528.77 139.98C526.577 140.4 524.337 140.657 522.05 140.75C519.763 140.797 517.5 140.703 515.26 140.47C513.347 140.283 511.923 139.653 510.99 138.58C510.057 137.46 509.683 136.013 509.87 134.24C510.01 132.887 510.617 131.813 511.69 131.02C512.763 130.227 514.117 129.877 515.75 129.97C517.99 130.11 520.137 130.133 522.19 130.04C524.243 129.947 526.11 129.713 527.79 129.34C529.47 128.967 530.917 128.43 532.13 127.73C533.39 126.983 534.347 126.05 535 124.93H516.66C514.7 124.93 513.277 124.417 512.39 123.39C511.55 122.317 511.13 121.103 511.13 119.75C511.13 118.397 511.55 117.207 512.39 116.18C513.23 115.107 514.653 114.57 516.66 114.57H565.52ZM554.67 170.22C555.93 170.22 556.747 169.963 557.12 169.45C557.493 168.937 557.68 168.423 557.68 167.91C557.68 167.397 557.493 166.883 557.12 166.37C556.747 165.857 555.93 165.6 554.67 165.6H527.51C526.25 165.6 525.433 165.857 525.06 166.37C524.687 166.883 524.5 167.397 524.5 167.91C524.5 168.423 524.687 168.937 525.06 169.45C525.433 169.963 526.25 170.22 527.51 170.22H554.67ZM593.03 179.32C591.07 179.32 589.437 179.133 588.13 178.76C586.87 178.387 585.867 177.803 585.12 177.01C584.373 176.217 583.837 175.167 583.51 173.86C583.23 172.553 583.09 170.967 583.09 169.1V157.97C583.09 155.59 583.767 153.887 585.12 152.86C586.52 151.787 588.2 151.25 590.16 151.25C591.933 151.25 593.45 151.693 594.71 152.58C596.017 153.467 596.787 154.89 597.02 156.85H628.38C628.613 154.89 629.383 153.467 630.69 152.58C631.997 151.693 633.56 151.25 635.38 151.25C637.34 151.25 638.973 151.787 640.28 152.86C641.633 153.887 642.31 155.59 642.31 157.97V179.32H593.03ZM579.87 130.46C579.87 127.613 580.36 125.187 581.34 123.18C582.32 121.173 583.673 119.54 585.4 118.28C587.173 116.973 589.273 116.04 591.7 115.48C594.173 114.873 596.903 114.57 599.89 114.57C602.877 114.57 605.583 114.873 608.01 115.48C610.483 116.04 612.583 116.973 614.31 118.28C616.083 119.54 617.46 121.173 618.44 123.18C619.42 125.187 619.91 127.613 619.91 130.46V132.63C619.91 135.477 619.42 137.903 618.44 139.91C617.46 141.917 616.083 143.573 614.31 144.88C612.583 146.14 610.483 147.073 608.01 147.68C605.583 148.24 602.877 148.52 599.89 148.52C596.903 148.52 594.173 148.24 591.7 147.68C589.273 147.073 587.173 146.14 585.4 144.88C583.673 143.573 582.32 141.917 581.34 139.91C580.36 137.903 579.87 135.477 579.87 132.63V130.46ZM627.82 120.52C627.82 118.233 628.52 116.507 629.92 115.34C631.367 114.173 633.023 113.59 634.89 113.59C635.777 113.59 636.64 113.753 637.48 114.08C638.367 114.36 639.137 114.803 639.79 115.41C640.443 115.97 640.957 116.693 641.33 117.58C641.75 118.42 641.96 119.4 641.96 120.52V149.08H627.82V120.52ZM593.59 133.26C593.59 135.033 594.173 136.363 595.34 137.25C596.507 138.09 598.023 138.51 599.89 138.51C601.757 138.51 603.273 138.09 604.44 137.25C605.607 136.363 606.19 135.033 606.19 133.26V129.83C606.19 128.057 605.607 126.75 604.44 125.91C603.273 125.023 601.757 124.58 599.89 124.58C598.023 124.58 596.507 125.023 595.34 125.91C594.173 126.75 593.59 128.057 593.59 129.83V133.26ZM628.31 170.01V165.81H597.09V168.26C597.09 169.053 597.207 169.543 597.44 169.73C597.673 169.917 598.187 170.01 598.98 170.01H628.31ZM688.16 163.99C689.187 163.99 690.027 164.177 690.68 164.55C691.38 164.877 691.917 165.32 692.29 165.88C692.71 166.44 692.99 167.07 693.13 167.77C693.317 168.47 693.41 169.147 693.41 169.8C693.41 170.5 693.317 171.2 693.13 171.9C692.99 172.6 692.71 173.253 692.29 173.86C691.87 174.42 691.31 174.887 690.61 175.26C689.957 175.633 689.14 175.82 688.16 175.82H661.28C659.18 175.82 657.43 175.61 656.03 175.19C654.677 174.817 653.58 174.21 652.74 173.37C651.947 172.483 651.387 171.363 651.06 170.01C650.733 168.61 650.57 166.907 650.57 164.9V123.18C650.57 122.013 650.757 121.01 651.13 120.17C651.55 119.283 652.087 118.56 652.74 118C653.393 117.44 654.14 117.043 654.98 116.81C655.867 116.53 656.777 116.39 657.71 116.39C659.67 116.39 661.303 116.95 662.61 118.07C663.963 119.143 664.64 120.847 664.64 123.18V162.03C664.64 162.823 664.78 163.36 665.06 163.64C665.34 163.873 665.877 163.99 666.67 163.99H688.16ZM697.96 179.32V120.52C697.96 118.233 698.66 116.507 700.06 115.34C701.46 114.173 703.093 113.59 704.96 113.59C706.827 113.59 708.46 114.173 709.86 115.34C711.26 116.507 711.96 118.233 711.96 120.52V179.32H697.96ZM731.28 176.52C728.993 176.52 727.15 176.357 725.75 176.03C724.35 175.703 723.253 175.12 722.46 174.28C721.713 173.487 721.2 172.39 720.92 170.99C720.64 169.59 720.5 167.793 720.5 165.6V126.89C720.5 124.697 720.64 122.9 720.92 121.5C721.2 120.1 721.713 119.003 722.46 118.21C723.253 117.37 724.35 116.81 725.75 116.53C727.15 116.203 728.993 116.04 731.28 116.04H753.54C754.567 116.04 755.407 116.227 756.06 116.6C756.76 116.973 757.297 117.44 757.67 118C758.09 118.56 758.37 119.19 758.51 119.89C758.697 120.59 758.79 121.267 758.79 121.92C758.79 122.62 758.697 123.32 758.51 124.02C758.37 124.72 758.09 125.35 757.67 125.91C757.25 126.47 756.69 126.937 755.99 127.31C755.337 127.683 754.52 127.87 753.54 127.87H736.11C735.457 127.87 734.99 128.01 734.71 128.29C734.43 128.57 734.29 129.107 734.29 129.9V162.8C734.29 163.593 734.43 164.13 734.71 164.41C734.99 164.69 735.457 164.83 736.11 164.83H756.76C757.787 164.83 758.627 165.017 759.28 165.39C759.98 165.763 760.517 166.23 760.89 166.79C761.31 167.35 761.59 167.98 761.73 168.68C761.917 169.38 762.01 170.057 762.01 170.71C762.01 171.41 761.917 172.11 761.73 172.81C761.59 173.463 761.31 174.07 760.89 174.63C760.47 175.19 759.91 175.633 759.21 175.96C758.557 176.333 757.74 176.52 756.76 176.52H731.28ZM766.07 120.38C766.07 118.14 766.77 116.46 768.17 115.34C769.57 114.173 771.18 113.59 773 113.59C773.887 113.59 774.75 113.753 775.59 114.08C776.43 114.36 777.153 114.78 777.76 115.34C778.413 115.9 778.927 116.6 779.3 117.44C779.72 118.28 779.93 119.26 779.93 120.38V138.09H782.24C783.313 138.09 784.2 138.277 784.9 138.65C785.6 139.023 786.16 139.513 786.58 140.12C787 140.68 787.303 141.333 787.49 142.08C787.677 142.78 787.77 143.48 787.77 144.18C787.77 144.88 787.677 145.603 787.49 146.35C787.303 147.05 787 147.703 786.58 148.31C786.16 148.87 785.577 149.337 784.83 149.71C784.13 150.083 783.267 150.27 782.24 150.27H779.93V179.32H766.07V120.38ZM788.82 168.4C788.82 166.207 789.473 164.48 790.78 163.22C792.087 161.96 793.93 161.33 796.31 161.33C798.69 161.33 800.533 161.983 801.84 163.29C803.147 164.55 803.8 166.253 803.8 168.4C803.8 170.547 803.147 172.273 801.84 173.58C800.533 174.84 798.69 175.47 796.31 175.47C793.93 175.47 792.087 174.84 790.78 173.58C789.473 172.32 788.82 170.593 788.82 168.4ZM177.628 227.45C177.581 228.29 177.488 229.13 177.348 229.97C177.208 230.763 177.021 231.557 176.788 232.35H177.208C180.148 232.35 183.018 232.817 185.818 233.75C188.618 234.683 191.138 236.083 193.378 237.95C195.618 239.817 197.438 242.173 198.838 245.02C200.284 247.82 201.124 251.11 201.358 254.89H187.568C186.914 251.11 185.164 248.17 182.318 246.07C179.518 243.923 176.064 242.85 171.958 242.85C171.771 242.85 171.538 242.873 171.258 242.92C171.024 242.92 170.791 242.943 170.558 242.99C168.924 244.717 167.128 246.28 165.168 247.68C163.208 249.033 161.154 250.223 159.008 251.25C156.908 252.277 154.761 253.093 152.568 253.7C150.374 254.307 148.274 254.68 146.268 254.82C144.354 255.007 142.674 254.633 141.228 253.7C139.828 252.72 139.011 251.413 138.778 249.78C138.544 248.24 138.824 246.84 139.618 245.58C140.458 244.32 141.741 243.55 143.468 243.27C145.848 242.897 148.158 242.267 150.398 241.38C152.638 240.447 154.668 239.303 156.488 237.95C158.308 236.55 159.801 234.963 160.968 233.19C162.181 231.417 162.904 229.503 163.138 227.45H145.918C144.844 227.45 143.934 227.287 143.188 226.96C142.488 226.633 141.881 226.19 141.368 225.63C140.901 225.07 140.551 224.44 140.318 223.74C140.131 223.04 140.038 222.34 140.038 221.64C140.038 220.94 140.131 220.24 140.318 219.54C140.551 218.84 140.901 218.21 141.368 217.65C141.834 217.09 142.441 216.647 143.188 216.32C143.934 215.947 144.844 215.76 145.918 215.76H194.358C195.431 215.76 196.341 215.947 197.088 216.32C197.834 216.647 198.441 217.09 198.908 217.65C199.374 218.21 199.701 218.84 199.888 219.54C200.121 220.24 200.238 220.94 200.238 221.64C200.238 222.34 200.121 223.04 199.888 223.74C199.701 224.44 199.351 225.07 198.838 225.63C198.371 226.19 197.764 226.633 197.018 226.96C196.271 227.287 195.384 227.45 194.358 227.45H177.628ZM162.788 266.58V258.11C162.788 256.99 162.974 256.01 163.348 255.17C163.768 254.283 164.304 253.56 164.958 253C165.658 252.393 166.428 251.95 167.268 251.67C168.154 251.39 169.088 251.25 170.068 251.25C171.001 251.25 171.911 251.413 172.798 251.74C173.684 252.02 174.454 252.44 175.108 253C175.808 253.56 176.344 254.283 176.718 255.17C177.138 256.01 177.348 256.99 177.348 258.11V266.58H197.018C198.091 266.58 199.001 266.743 199.748 267.07C200.494 267.397 201.101 267.84 201.568 268.4C202.034 268.913 202.361 269.52 202.548 270.22C202.781 270.873 202.898 271.55 202.898 272.25C202.898 273.697 202.431 275.003 201.498 276.17C200.611 277.337 199.118 277.92 197.018 277.92H143.258C141.158 277.92 139.641 277.337 138.708 276.17C137.821 275.003 137.378 273.697 137.378 272.25C137.378 271.55 137.471 270.873 137.658 270.22C137.891 269.52 138.241 268.913 138.708 268.4C139.174 267.84 139.781 267.397 140.528 267.07C141.274 266.743 142.184 266.58 143.258 266.58H162.788ZM220.048 279.32C217.948 279.32 216.244 279.133 214.938 278.76C213.678 278.433 212.698 277.873 211.998 277.08C211.298 276.287 210.808 275.213 210.528 273.86C210.294 272.507 210.178 270.827 210.178 268.82V263.43C210.178 261.423 210.294 259.743 210.528 258.39C210.808 257.037 211.298 255.963 211.998 255.17C212.698 254.377 213.678 253.817 214.938 253.49C216.244 253.117 217.948 252.93 220.048 252.93H260.158C262.258 252.93 263.938 253.117 265.198 253.49C266.504 253.817 267.508 254.377 268.208 255.17C268.908 255.963 269.374 257.037 269.608 258.39C269.888 259.743 270.028 261.423 270.028 263.43V279.32H220.048ZM252.738 237.95C253.438 236.457 253.974 234.87 254.348 233.19C254.768 231.51 254.978 229.76 254.978 227.94V227.17C254.978 226.143 254.394 225.63 253.228 225.63H216.618C214.331 225.63 212.674 225.117 211.648 224.09C210.668 223.017 210.178 221.663 210.178 220.03C210.178 218.537 210.668 217.253 211.648 216.18C212.628 215.107 214.284 214.57 216.618 214.57H259.528C261.208 214.57 262.631 214.687 263.798 214.92C265.011 215.107 265.991 215.48 266.738 216.04C267.484 216.6 268.021 217.37 268.348 218.35C268.721 219.283 268.908 220.473 268.908 221.92V225.77C268.908 228.57 268.674 230.95 268.208 232.91C267.788 234.87 267.228 236.55 266.528 237.95H267.088C269.188 237.95 270.681 238.533 271.568 239.7C272.454 240.867 272.898 242.15 272.898 243.55C272.898 244.95 272.431 246.233 271.498 247.4C270.611 248.567 269.141 249.15 267.088 249.15H213.188C211.134 249.15 209.641 248.567 208.708 247.4C207.821 246.233 207.378 244.95 207.378 243.55C207.378 242.15 207.821 240.867 208.708 239.7C209.594 238.533 211.088 237.95 213.188 237.95H252.738ZM224.178 267.21C224.178 268.003 224.271 268.54 224.458 268.82C224.691 269.053 225.134 269.17 225.788 269.17H256.098V264.97C256.098 264.27 255.981 263.78 255.748 263.5C255.514 263.22 255.048 263.08 254.348 263.08H225.788C225.134 263.08 224.691 263.22 224.458 263.5C224.271 263.78 224.178 264.27 224.178 264.97V267.21ZM289.418 250.76C287.318 250.76 285.614 250.597 284.308 250.27C283.001 249.897 281.974 249.313 281.228 248.52C280.528 247.68 280.038 246.583 279.758 245.23C279.524 243.877 279.408 242.173 279.408 240.12V226.47C279.408 224.463 279.524 222.783 279.758 221.43C280.038 220.03 280.528 218.933 281.228 218.14C281.974 217.3 283.001 216.717 284.308 216.39C285.614 216.017 287.318 215.83 289.418 215.83H308.318C310.418 215.83 312.121 216.017 313.428 216.39C314.734 216.717 315.738 217.3 316.438 218.14C317.184 218.933 317.674 220.03 317.908 221.43C318.188 222.783 318.328 224.463 318.328 226.47V250.76H289.418ZM292.778 279.32C290.818 279.32 289.184 279.133 287.878 278.76C286.618 278.387 285.614 277.803 284.868 277.01C284.121 276.217 283.584 275.167 283.258 273.86C282.978 272.553 282.838 270.967 282.838 269.1V261.61C282.838 259.23 283.538 257.48 284.938 256.36C286.384 255.24 288.088 254.68 290.048 254.68C292.008 254.68 293.664 255.24 295.018 256.36C296.371 257.48 297.048 259.23 297.048 261.61V266.72C297.048 267.513 297.164 268.003 297.398 268.19C297.631 268.377 298.144 268.47 298.938 268.47H335.618C337.764 268.47 339.281 269.03 340.168 270.15C341.054 271.223 341.498 272.46 341.498 273.86C341.498 275.307 341.031 276.567 340.098 277.64C339.211 278.76 337.718 279.32 335.618 279.32H292.778ZM325.398 220.52C325.398 218.233 326.074 216.507 327.428 215.34C328.781 214.173 330.391 213.59 332.258 213.59C334.078 213.59 335.664 214.197 337.018 215.41C338.418 216.577 339.118 218.28 339.118 220.52V231.09H341.288C342.361 231.09 343.248 231.277 343.948 231.65C344.648 232.023 345.208 232.513 345.628 233.12C346.048 233.68 346.351 234.333 346.538 235.08C346.724 235.78 346.818 236.48 346.818 237.18C346.818 237.88 346.724 238.603 346.538 239.35C346.351 240.05 346.048 240.703 345.628 241.31C345.208 241.87 344.624 242.337 343.878 242.71C343.178 243.083 342.314 243.27 341.288 243.27H339.118V263.08H325.398V220.52ZM292.708 238.65C292.708 239.397 292.801 239.887 292.988 240.12C293.221 240.353 293.688 240.47 294.388 240.47H305.028V227.87C305.028 227.217 304.911 226.773 304.678 226.54C304.444 226.26 303.978 226.12 303.278 226.12H294.388C293.688 226.12 293.221 226.26 292.988 226.54C292.801 226.773 292.708 227.217 292.708 227.87V238.65ZM416.627 279.32V220.52C416.627 218.233 417.327 216.507 418.727 215.34C420.127 214.173 421.76 213.59 423.627 213.59C425.494 213.59 427.127 214.173 428.527 215.34C429.927 216.507 430.627 218.233 430.627 220.52V279.32H416.627ZM373.367 264.9C376.307 264.62 378.967 264.06 381.347 263.22C383.774 262.333 385.827 261.003 387.507 259.23C389.187 257.457 390.47 255.123 391.357 252.23C392.29 249.337 392.757 245.743 392.757 241.45V230.11C392.757 229.597 392.594 229.177 392.267 228.85C391.987 228.523 391.567 228.36 391.007 228.36H375.047C373.974 228.36 373.04 228.197 372.247 227.87C371.5 227.497 370.87 227.03 370.357 226.47C369.844 225.91 369.447 225.28 369.167 224.58C368.934 223.833 368.817 223.087 368.817 222.34C368.817 221.64 368.934 220.94 369.167 220.24C369.447 219.493 369.844 218.84 370.357 218.28C370.87 217.673 371.5 217.183 372.247 216.81C373.04 216.437 373.974 216.25 375.047 216.25H395.767C399.734 216.25 402.557 217.137 404.237 218.91C405.917 220.683 406.757 223.203 406.757 226.47V241.52C406.757 247.773 405.917 253.093 404.237 257.48C402.604 261.867 400.34 265.46 397.447 268.26C394.554 271.06 391.147 273.113 387.227 274.42C383.354 275.727 379.177 276.427 374.697 276.52C373.857 276.52 373.017 276.403 372.177 276.17C371.337 275.937 370.59 275.563 369.937 275.05C369.33 274.583 368.84 273.977 368.467 273.23C368.094 272.483 367.93 271.573 367.977 270.5C368.07 269.007 368.537 267.747 369.377 266.72C370.264 265.693 371.594 265.087 373.367 264.9ZM449.947 276.52C447.66 276.52 445.817 276.357 444.417 276.03C443.017 275.703 441.92 275.12 441.127 274.28C440.38 273.487 439.867 272.39 439.587 270.99C439.307 269.59 439.167 267.793 439.167 265.6V226.89C439.167 224.697 439.307 222.9 439.587 221.5C439.867 220.1 440.38 219.003 441.127 218.21C441.92 217.37 443.017 216.81 444.417 216.53C445.817 216.203 447.66 216.04 449.947 216.04H472.207C473.234 216.04 474.074 216.227 474.727 216.6C475.427 216.973 475.964 217.44 476.337 218C476.757 218.56 477.037 219.19 477.177 219.89C477.364 220.59 477.457 221.267 477.457 221.92C477.457 222.62 477.364 223.32 477.177 224.02C477.037 224.72 476.757 225.35 476.337 225.91C475.917 226.47 475.357 226.937 474.657 227.31C474.004 227.683 473.187 227.87 472.207 227.87H454.777C454.124 227.87 453.657 228.01 453.377 228.29C453.097 228.57 452.957 229.107 452.957 229.9V262.8C452.957 263.593 453.097 264.13 453.377 264.41C453.657 264.69 454.124 264.83 454.777 264.83H475.427C476.454 264.83 477.294 265.017 477.947 265.39C478.647 265.763 479.184 266.23 479.557 266.79C479.977 267.35 480.257 267.98 480.397 268.68C480.584 269.38 480.677 270.057 480.677 270.71C480.677 271.41 480.584 272.11 480.397 272.81C480.257 273.463 479.977 274.07 479.557 274.63C479.137 275.19 478.577 275.633 477.877 275.96C477.224 276.333 476.407 276.52 475.427 276.52H449.947ZM484.737 220.38C484.737 218.14 485.437 216.46 486.837 215.34C488.237 214.173 489.847 213.59 491.667 213.59C492.554 213.59 493.417 213.753 494.257 214.08C495.097 214.36 495.82 214.78 496.427 215.34C497.08 215.9 497.594 216.6 497.967 217.44C498.387 218.28 498.597 219.26 498.597 220.38V238.09H500.907C501.98 238.09 502.867 238.277 503.567 238.65C504.267 239.023 504.827 239.513 505.247 240.12C505.667 240.68 505.97 241.333 506.157 242.08C506.344 242.78 506.437 243.48 506.437 244.18C506.437 244.88 506.344 245.603 506.157 246.35C505.97 247.05 505.667 247.703 505.247 248.31C504.827 248.87 504.244 249.337 503.497 249.71C502.797 250.083 501.934 250.27 500.907 250.27H498.597V279.32H484.737V220.38ZM522.817 261.96C522.817 263.173 523.05 263.99 523.517 264.41C523.984 264.783 524.824 264.97 526.037 264.97H546.127C547.2 264.97 548.11 265.133 548.857 265.46C549.604 265.787 550.21 266.23 550.677 266.79C551.19 267.303 551.54 267.91 551.727 268.61C551.96 269.263 552.077 269.94 552.077 270.64C552.077 272.087 551.61 273.393 550.677 274.56C549.744 275.773 548.227 276.38 546.127 276.38H520.997C518.804 276.38 516.937 276.17 515.397 275.75C513.857 275.33 512.597 274.653 511.617 273.72C510.684 272.787 509.984 271.573 509.517 270.08C509.097 268.54 508.887 266.673 508.887 264.48V251.74C508.887 249.547 509.097 247.703 509.517 246.21C509.984 244.717 510.684 243.503 511.617 242.57C512.597 241.637 513.857 240.983 515.397 240.61C516.937 240.19 518.804 239.98 520.997 239.98H528.557V229.83C528.557 229.363 528.44 228.92 528.207 228.5C527.974 228.08 527.46 227.87 526.667 227.87H515.537C514.464 227.87 513.554 227.707 512.807 227.38C512.06 227.053 511.454 226.61 510.987 226.05C510.52 225.49 510.17 224.86 509.937 224.16C509.704 223.46 509.587 222.76 509.587 222.06C509.587 221.36 509.68 220.66 509.867 219.96C510.1 219.26 510.45 218.63 510.917 218.07C511.43 217.51 512.06 217.067 512.807 216.74C513.554 216.367 514.464 216.18 515.537 216.18H530.097C532.524 216.18 534.507 216.367 536.047 216.74C537.634 217.113 538.894 217.72 539.827 218.56C540.76 219.4 541.414 220.497 541.787 221.85C542.16 223.203 542.347 224.883 542.347 226.89V251.39H525.337C524.124 251.39 523.4 251.6 523.167 252.02C522.934 252.393 522.817 253.187 522.817 254.4V261.96ZM556.837 279.32V260.14H550.817C549.744 260.14 548.834 259.977 548.087 259.65C547.387 259.277 546.78 258.81 546.267 258.25C545.8 257.69 545.45 257.06 545.217 256.36C545.03 255.613 544.937 254.89 544.937 254.19C544.937 253.49 545.03 252.79 545.217 252.09C545.45 251.39 545.8 250.76 546.267 250.2C546.734 249.593 547.34 249.127 548.087 248.8C548.834 248.427 549.744 248.24 550.817 248.24H556.837V239.56H550.887C549.814 239.56 548.904 239.397 548.157 239.07C547.457 238.697 546.85 238.23 546.337 237.67C545.87 237.11 545.52 236.48 545.287 235.78C545.1 235.033 545.007 234.31 545.007 233.61C545.007 232.91 545.1 232.21 545.287 231.51C545.52 230.81 545.87 230.18 546.337 229.62C546.804 229.013 547.41 228.547 548.157 228.22C548.904 227.847 549.814 227.66 550.887 227.66H556.837V220.52C556.837 218.233 557.514 216.507 558.867 215.34C560.22 214.173 561.83 213.59 563.697 213.59C565.517 213.59 567.127 214.197 568.527 215.41C569.927 216.577 570.627 218.28 570.627 220.52V279.32H556.837ZM616.757 226.61C616.617 227.87 616.407 229.013 616.127 230.04H616.827C619.72 229.993 622.567 230.367 625.367 231.16C628.167 231.953 630.687 233.213 632.927 234.94C635.167 236.62 637.01 238.767 638.457 241.38C639.904 243.993 640.744 247.12 640.977 250.76H627.187C626.86 248.987 626.23 247.423 625.297 246.07C624.41 244.717 623.267 243.62 621.867 242.78C620.514 241.893 618.95 241.24 617.177 240.82C615.404 240.4 613.537 240.213 611.577 240.26C611.344 240.26 611.11 240.283 610.877 240.33C610.644 240.33 610.387 240.353 610.107 240.4C608.567 241.987 606.817 243.41 604.857 244.67C602.944 245.883 600.937 246.933 598.837 247.82C596.737 248.66 594.567 249.337 592.327 249.85C590.134 250.317 587.964 250.62 585.817 250.76C583.857 250.9 582.177 250.503 580.777 249.57C579.424 248.59 578.63 247.283 578.397 245.65C578.164 244.11 578.467 242.733 579.307 241.52C580.147 240.26 581.43 239.513 583.157 239.28C585.584 239 587.87 238.533 590.017 237.88C592.164 237.227 594.077 236.387 595.757 235.36C597.484 234.333 598.907 233.097 600.027 231.65C601.147 230.203 601.894 228.523 602.267 226.61H585.537C583.437 226.61 581.92 226.027 580.987 224.86C580.1 223.647 579.657 222.317 579.657 220.87C579.657 220.17 579.75 219.493 579.937 218.84C580.17 218.14 580.52 217.51 580.987 216.95C581.454 216.39 582.06 215.947 582.807 215.62C583.554 215.293 584.464 215.13 585.537 215.13H633.977C635.05 215.13 635.96 215.293 636.707 215.62C637.454 215.947 638.06 216.39 638.527 216.95C638.994 217.51 639.32 218.14 639.507 218.84C639.74 219.493 639.857 220.17 639.857 220.87C639.857 222.317 639.39 223.647 638.457 224.86C637.57 226.027 636.077 226.61 633.977 226.61H616.757ZM616.897 264.69V279.67H602.617V264.69H582.877C580.777 264.69 579.26 264.107 578.327 262.94C577.44 261.773 576.997 260.467 576.997 259.02C576.997 258.32 577.09 257.643 577.277 256.99C577.51 256.29 577.86 255.66 578.327 255.1C578.794 254.54 579.4 254.097 580.147 253.77C580.894 253.443 581.804 253.28 582.877 253.28H636.637C637.71 253.28 638.62 253.443 639.367 253.77C640.114 254.097 640.72 254.54 641.187 255.1C641.654 255.66 641.98 256.29 642.167 256.99C642.4 257.643 642.517 258.32 642.517 259.02C642.517 260.467 642.05 261.773 641.117 262.94C640.23 264.107 638.737 264.69 636.637 264.69H616.897ZM647.417 265.18C649.237 263.547 650.73 261.727 651.897 259.72C653.11 257.667 654.067 255.263 654.767 252.51C655.467 249.71 655.957 246.443 656.237 242.71C656.517 238.93 656.657 234.473 656.657 229.34V222.27C656.657 220.03 657.287 218.373 658.547 217.3C659.807 216.227 661.347 215.69 663.167 215.69C664.94 215.69 666.48 216.25 667.787 217.37C669.094 218.49 669.747 220.123 669.747 222.27V229.27C669.747 234.87 669.467 239.98 668.907 244.6C671.054 245.627 672.944 246.957 674.577 248.59C676.257 250.177 677.634 252.207 678.707 254.68C679.78 257.107 680.527 260.023 680.947 263.43C681.367 266.79 681.437 270.757 681.157 275.33H668.417C668.977 271.177 669.047 267.7 668.627 264.9C668.254 262.1 667.437 259.837 666.177 258.11C664.964 262.217 663.47 265.623 661.697 268.33C659.924 271.037 657.964 273.137 655.817 274.63C655.164 275.097 654.394 275.47 653.507 275.75C652.667 276.03 651.804 276.17 650.917 276.17C650.03 276.217 649.167 276.077 648.327 275.75C647.487 275.47 646.764 274.957 646.157 274.21C645.597 273.557 645.224 272.833 645.037 272.04C644.85 271.247 644.804 270.453 644.897 269.66C645.037 268.82 645.317 268.027 645.737 267.28C646.157 266.487 646.717 265.787 647.417 265.18ZM683.957 245.23H678.217C677.144 245.23 676.234 245.067 675.487 244.74C674.787 244.367 674.18 243.9 673.667 243.34C673.2 242.733 672.85 242.08 672.617 241.38C672.43 240.633 672.337 239.91 672.337 239.21C672.337 238.51 672.43 237.81 672.617 237.11C672.85 236.363 673.2 235.71 673.667 235.15C674.134 234.59 674.74 234.123 675.487 233.75C676.234 233.377 677.144 233.19 678.217 233.19H683.957V219.54C683.957 217.58 684.54 216.11 685.707 215.13C686.874 214.103 688.274 213.59 689.907 213.59C691.494 213.59 692.894 214.103 694.107 215.13C695.367 216.11 695.997 217.58 695.997 219.54V279.32H683.957V245.23ZM699.287 219.54C699.287 217.58 699.917 216.11 701.177 215.13C702.437 214.103 703.884 213.59 705.517 213.59C706.31 213.59 707.08 213.73 707.827 214.01C708.574 214.243 709.227 214.617 709.787 215.13C710.394 215.643 710.86 216.273 711.187 217.02C711.56 217.72 711.747 218.56 711.747 219.54V279.32H699.287V219.54ZM718.957 233.33C718.957 230.95 719.354 228.663 720.147 226.47C720.94 224.277 722.107 222.363 723.647 220.73C725.187 219.097 727.077 217.79 729.317 216.81C731.604 215.83 734.217 215.34 737.157 215.34H762.357C765.297 215.34 767.887 215.83 770.127 216.81C772.414 217.79 774.327 219.097 775.867 220.73C777.407 222.363 778.574 224.277 779.367 226.47C780.16 228.663 780.557 230.95 780.557 233.33V234.17C780.557 236.55 780.16 238.837 779.367 241.03C778.574 243.177 777.407 245.09 775.867 246.77C774.327 248.403 772.414 249.71 770.127 250.69C767.887 251.623 765.297 252.09 762.357 252.09H737.157C734.217 252.09 731.604 251.623 729.317 250.69C727.077 249.71 725.187 248.403 723.647 246.77C722.107 245.09 720.94 243.177 720.147 241.03C719.354 238.837 718.957 236.55 718.957 234.17V233.33ZM729.667 266.72V260.35C729.667 259.23 729.854 258.297 730.227 257.55C730.6 256.757 731.09 256.127 731.697 255.66C732.35 255.193 733.097 254.867 733.937 254.68C734.777 254.493 735.664 254.4 736.597 254.4C737.484 254.4 738.347 254.517 739.187 254.75C740.027 254.937 740.774 255.263 741.427 255.73C742.08 256.15 742.594 256.757 742.967 257.55C743.34 258.297 743.527 259.23 743.527 260.35V266.72H755.987V260.35C755.987 259.23 756.174 258.297 756.547 257.55C756.92 256.757 757.41 256.127 758.017 255.66C758.67 255.193 759.417 254.867 760.257 254.68C761.097 254.493 761.984 254.4 762.917 254.4C763.804 254.4 764.667 254.517 765.507 254.75C766.347 254.937 767.094 255.263 767.747 255.73C768.4 256.15 768.914 256.757 769.287 257.55C769.66 258.297 769.847 259.23 769.847 260.35V266.72H776.637C778.784 266.72 780.3 267.303 781.187 268.47C782.074 269.637 782.517 270.92 782.517 272.32C782.517 273.767 782.05 275.05 781.117 276.17C780.23 277.337 778.737 277.92 776.637 277.92H722.877C720.777 277.92 719.26 277.337 718.327 276.17C717.44 275.05 716.997 273.767 716.997 272.32C716.997 270.92 717.44 269.637 718.327 268.47C719.214 267.303 720.73 266.72 722.877 266.72H729.667ZM765.997 233.19C765.997 231.323 765.32 229.783 763.967 228.57C762.66 227.357 760.84 226.75 758.507 226.75H741.007C738.674 226.75 736.83 227.357 735.477 228.57C734.17 229.783 733.517 231.323 733.517 233.19V234.31C733.517 236.177 734.17 237.717 735.477 238.93C736.83 240.143 738.674 240.75 741.007 240.75H758.507C760.84 240.75 762.66 240.143 763.967 238.93C765.32 237.717 765.997 236.177 765.997 234.31V233.19ZM789.167 258.04V221.01C789.167 219.89 789.354 218.91 789.727 218.07C790.147 217.183 790.684 216.46 791.337 215.9C791.99 215.293 792.737 214.85 793.577 214.57C794.464 214.243 795.374 214.08 796.307 214.08C797.194 214.08 798.057 214.243 798.897 214.57C799.784 214.85 800.554 215.293 801.207 215.9C801.907 216.46 802.444 217.183 802.817 218.07C803.237 218.91 803.447 219.89 803.447 221.01V258.04H789.167ZM788.817 268.4C788.817 266.207 789.47 264.48 790.777 263.22C792.084 261.96 793.927 261.33 796.307 261.33C798.687 261.33 800.53 261.983 801.837 263.29C803.144 264.55 803.797 266.253 803.797 268.4C803.797 270.547 803.144 272.273 801.837 273.58C800.53 274.84 798.687 275.47 796.307 275.47C793.927 275.47 792.084 274.84 790.777 273.58C789.47 272.32 788.817 270.593 788.817 268.4Z" fill="#666666"/>
<path d="M48.7457 169.3C48.7457 161.4 42.3457 155 34.4457 155C26.5457 155 20.1457 161.4 20.1457 169.3C12.2457 169.3 5.8457 175.7 5.8457 183.6C5.8457 191.5 12.2457 197.9 20.1457 197.9C20.1457 205.8 26.5457 212.2 34.4457 212.2C42.3457 212.2 48.7457 205.8 48.7457 197.9C56.6457 197.9 63.0457 191.5 63.0457 183.6C63.0457 175.7 56.5457 169.3 48.7457 169.3Z" fill="#F2C9C9"/>
<path d="M48.7457 169.3C48.7457 161.4 42.3457 155 34.4457 155C26.5457 155 20.1457 161.4 20.1457 169.3C12.2457 169.3 5.8457 175.7 5.8457 183.6C5.8457 191.5 12.2457 197.9 20.1457 197.9C20.1457 205.8 26.5457 212.2 34.4457 212.2C42.3457 212.2 48.7457 205.8 48.7457 197.9C56.6457 197.9 63.0457 191.5 63.0457 183.6C63.0457 175.7 56.5457 169.3 48.7457 169.3Z" stroke="#EFB4B4" stroke-width="10" stroke-miterlimit="10" stroke-linecap="round" stroke-linejoin="round"/>
<defs>
<clipPath id="clip0">
<rect width="253" height="132" fill="white" transform="translate(1193.85 674)"/>
</clipPath>
</defs>
</svg>
