<svg width="22" height="21" viewBox="0 0 22 21" fill="none" xmlns="http://www.w3.org/2000/svg">
<path class="hover-color" fill-rule="evenodd" clip-rule="evenodd" d="M16.2355 12.7628C15.8883 12.9176 15.2054 13.125 14.0438 13.125C13.0584 13.125 12.2019 12.7899 11.2954 12.4355C10.2767 12.0374 9.22293 11.6252 7.90703 11.6252C6.98038 11.6252 6.26238 11.7364 5.71533 11.886V10.5V4.739C6.0625 4.58413 6.74718 4.375 7.90703 4.375C8.89242 4.375 9.74893 4.71012 10.6554 5.0645C11.6741 5.46263 12.7279 5.87475 14.0438 5.87475C14.8661 5.87475 15.6008 5.78638 16.2355 5.61225V12.7628ZM17.3471 4.095C16.942 3.80275 16.4178 3.71963 15.9452 3.87363C15.4403 4.03725 14.7828 4.12475 14.0437 4.12475C13.0583 4.12475 12.2018 3.78963 11.2953 3.43525C10.2766 3.03713 9.22287 2.625 7.90697 2.625C5.376 2.625 4.39587 3.458 4.22492 3.626C4.0566 3.78963 3.96191 4.01538 3.96191 4.24988V10.5V13.2501V17.5C3.96191 17.9839 4.35379 18.375 4.83859 18.375C5.3234 18.375 5.71527 17.9839 5.71527 17.5V13.7393C6.06156 13.5853 6.74362 13.3753 7.90697 13.3753C8.89236 13.3753 9.74888 13.7104 10.6554 14.0648C11.6741 14.4629 12.7278 14.875 14.0437 14.875C15.6296 14.875 16.6063 14.5443 17.148 14.2669C17.667 13.9983 17.9888 13.4768 17.9888 12.9054V5.34275C17.9888 4.85275 17.7495 4.38638 17.3471 4.095Z" fill="#666666"/>
</svg>
