<svg width="16" height="18" viewBox="0 0 16 18" fill="none" xmlns="http://www.w3.org/2000/svg">
<path class="lock-icon" fill-rule="evenodd" clip-rule="evenodd" d="M12.8571 7.71429C14.2773 7.71429 15.4286 8.86555 15.4286 10.2857V15.4286C15.4286 16.8487 14.2773 18 12.8571 18H2.57143C1.15127 18 0 16.8487 0 15.4286V10.2857C0 8.86555 1.15127 7.71429 2.57143 7.71429V5.14286C2.57143 2.30254 4.87396 0 7.71429 0C10.5546 0 12.8571 2.30254 12.8571 5.14286V7.71429ZM7.71429 1.71429C9.60783 1.71429 11.1429 3.24931 11.1429 5.14286V7.71429H4.28571V5.14286C4.28571 3.24931 5.82074 1.71429 7.71429 1.71429ZM12.8571 9.42857H2.57143C2.09804 9.42857 1.71429 9.81233 1.71429 10.2857V15.4286C1.71429 15.902 2.09804 16.2857 2.57143 16.2857H12.8571C13.3305 16.2857 13.7143 15.902 13.7143 15.4286V10.2857C13.7143 9.81233 13.3305 9.42857 12.8571 9.42857Z" fill="#666666"/>
</svg>
