<svg width="20" height="18" viewBox="0 0 20 18" fill="none" xmlns="http://www.w3.org/2000/svg">
<path class="hover-color" d="M3.93552 2.7C1.93168 2.7 0.328613 4.14 0.328613 5.85V8.1C0.328613 8.64 0.729381 9 1.33053 9C1.93168 9 2.33245 8.64 2.33245 8.1V5.85C2.33245 5.13 3.0338 4.5 3.93552 4.5H15.9586L14.6561 5.67C14.2553 6.03 14.2553 6.57 14.6561 6.93C15.0568 7.29 15.658 7.29 16.0587 6.93L19.0645 4.23C19.4653 3.87 19.4653 3.33 19.0645 2.97L16.0587 0.27C15.658 -0.09 15.0568 -0.09 14.6561 0.27C14.2553 0.63 14.2553 1.17 14.6561 1.53L15.9586 2.7H3.93552Z" fill="#666666"/>
<path d="M0.629189 13.77C0.228421 14.13 0.228421 14.67 0.629189 15.03L3.63495 17.73C4.03571 18.09 4.63687 18.09 5.03763 17.73C5.4384 17.37 5.4384 16.83 5.03763 16.47L3.73514 15.3H15.7582C17.762 15.3 19.3651 13.86 19.3651 12.15V9.9C19.3651 9.36 18.9643 9 18.3632 9C17.762 9 17.3612 9.36 17.3612 9.9V12.15C17.3612 12.96 16.6599 13.5 15.7582 13.5H3.73514L5.03763 12.33C5.4384 11.97 5.4384 11.43 5.03763 11.07C4.63687 10.71 4.03571 10.71 3.63495 11.07L0.629189 13.77Z" fill="#CCCCCC"/>
</svg>
