<svg width="21" height="21" viewBox="0 0 21 21" fill="none" xmlns="http://www.w3.org/2000/svg">
<path class="hover-color" fill-rule="evenodd" clip-rule="evenodd" d="M11.8125 9.33715V5.16077L9.3345 6.85915L8.07537 5.6009L12.1931 2.77727C12.46 2.59352 12.8074 2.5734 13.0953 2.72565C13.3822 2.87702 13.5625 3.17452 13.5625 3.50002V11.0871L11.8125 9.33715ZM4.11865 2.88099C3.77653 2.53886 3.22353 2.53886 2.8814 2.88099C2.53928 3.22311 2.53928 3.77611 2.8814 4.11824L16.8814 18.1182C17.052 18.2889 17.276 18.3746 17.5 18.3746C17.724 18.3746 17.948 18.2889 18.1187 18.1182C18.4608 17.7761 18.4608 17.2231 18.1187 16.881L4.11865 2.88099ZM14.7967 12.3215L16.055 13.5806C17.4182 11.7973 17.4025 9.07696 15.9946 7.32609C15.691 6.94984 15.1406 6.89122 14.7635 7.19309C14.3872 7.49584 14.3277 8.04622 14.6305 8.42334C15.4731 9.46984 15.5212 11.1805 14.7967 12.3215ZM16.8192 14.3444C17.8237 13.2305 18.375 11.8988 18.375 10.4996C18.375 8.78115 17.5551 7.15715 16.0667 5.92427C15.6949 5.6154 15.6424 5.06327 15.9512 4.6914C16.2592 4.31952 16.8105 4.2679 17.1832 4.57502C19.0802 6.14652 20.125 8.25177 20.125 10.4996C20.125 12.3695 19.3926 14.1353 18.0574 15.5825L16.8192 14.3444ZM11.8125 15.8386L7.34912 12.7778C7.203 12.679 7.03063 12.6247 6.85388 12.6247H3.0625V8.37483H5.90013L4.15013 6.62483H2.1875C1.7045 6.62483 1.3125 7.01596 1.3125 7.49983V13.4997C1.3125 13.9836 1.7045 14.3747 2.1875 14.3747H6.58262L12.1931 18.2221C12.341 18.3236 12.5142 18.3743 12.6875 18.3743C12.8275 18.3743 12.9675 18.3411 13.0952 18.2737C13.3822 18.1223 13.5625 17.8248 13.5625 17.4993V16.0372L11.8125 14.2872V15.8386Z" fill="#666666"/>
</svg>
