<svg width="22" height="21" viewBox="0 0 22 21" fill="none" xmlns="http://www.w3.org/2000/svg">
<path class="hover-color" fill-rule="evenodd" clip-rule="evenodd" d="M14.8711 9.33333H7.85767C7.21478 9.33333 6.68877 9.85833 6.68877 10.5C6.68877 11.1417 7.21478 11.6667 7.85767 11.6667H14.8711C15.514 11.6667 16.04 11.1417 16.04 10.5C16.04 9.85833 15.514 9.33333 14.8711 9.33333Z" fill="#666666"/>
<path class="hover-color" fill-rule="evenodd" clip-rule="evenodd" d="M19.5468 17.4997C19.5468 18.1425 19.0231 18.6663 18.3779 18.6663H4.35103C3.7058 18.6663 3.18213 18.1425 3.18213 17.4997V3.49967C3.18213 2.85684 3.7058 2.33301 4.35103 2.33301H18.3779C19.0231 2.33301 19.5468 2.85684 19.5468 3.49967V17.4997ZM18.3778 0H4.35096C2.41759 0 0.844238 1.57033 0.844238 3.5V17.5C0.844238 19.4297 2.41759 21 4.35096 21H18.3778C20.3112 21 21.8845 19.4297 21.8845 17.5V3.5C21.8845 1.57033 20.3112 0 18.3778 0Z" fill="#666666"/>
</svg>
