<svg width="37" height="42" viewBox="0 0 37 42" fill="none" xmlns="http://www.w3.org/2000/svg">
<g filter="url(#filter0_d)">
<path fill-rule="evenodd" clip-rule="evenodd" d="M27.5 16.7143C29.9853 16.7143 32 18.761 32 21.2857V30.4286C32 32.9533 29.9853 35 27.5 35H9.5C7.01472 35 5 32.9533 5 30.4286V21.2857C5 18.761 7.01472 16.7143 9.5 16.7143V12.1429C9.5 7.0934 13.5294 3 18.5 3C23.4706 3 27.5 7.0934 27.5 12.1429V16.7143ZM18.5 6.04762C21.8137 6.04762 24.5 8.77655 24.5 12.1429V16.7143H12.5V12.1429C12.5 8.77655 15.1863 6.04762 18.5 6.04762ZM27.5 19.7619H9.5C8.67157 19.7619 8 20.4441 8 21.2857V30.4286C8 31.2701 8.67157 31.9524 9.5 31.9524H27.5C28.3284 31.9524 29 31.2701 29 30.4286V21.2857C29 20.4441 28.3284 19.7619 27.5 19.7619Z" fill="#666666"/>
<path d="M32.25 21.2857C32.25 18.7115 30.2604 16.6029 27.75 16.4708V12.1429C27.75 6.95905 23.6123 2.75 18.5 2.75C13.3877 2.75 9.25 6.95905 9.25 12.1429V16.4708C6.73957 16.6029 4.75 18.7115 4.75 21.2857V30.4286C4.75 33.0876 6.87295 35.25 9.5 35.25H27.5C30.1271 35.25 32.25 33.0876 32.25 30.4286V21.2857ZM18.5 6.29762C21.6719 6.29762 24.25 8.91089 24.25 12.1429V16.4643H12.75V12.1429C12.75 8.91089 15.3281 6.29762 18.5 6.29762ZM8.25 21.2857C8.25 20.5785 8.81334 20.0119 9.5 20.0119H27.5C28.1867 20.0119 28.75 20.5785 28.75 21.2857V30.4286C28.75 31.1358 28.1867 31.7024 27.5 31.7024H9.5C8.81334 31.7024 8.25 31.1358 8.25 30.4286V21.2857Z" stroke="#666666" stroke-width="0.5"/>
</g>
<defs>
<filter id="filter0_d" x="0.5" y="0.5" width="36" height="41" filterUnits="userSpaceOnUse" color-interpolation-filters="sRGB">
<feFlood flood-opacity="0" result="BackgroundImageFix"/>
<feColorMatrix in="SourceAlpha" type="matrix" values="0 0 0 0 0 0 0 0 0 0 0 0 0 0 0 0 0 0 127 0"/>
<feOffset dy="2"/>
<feGaussianBlur stdDeviation="2"/>
<feColorMatrix type="matrix" values="0 0 0 0 0 0 0 0 0 0 0 0 0 0 0 0 0 0 0.25 0"/>
<feBlend mode="normal" in2="BackgroundImageFix" result="effect1_dropShadow"/>
<feBlend mode="normal" in="SourceGraphic" in2="effect1_dropShadow" result="shape"/>
</filter>
</defs>
</svg>
