<svg width="22" height="21" viewBox="0 0 22 21" fill="none" xmlns="http://www.w3.org/2000/svg">
<path class="plus-icon hover-color" fill-rule="evenodd" clip-rule="evenodd" d="M14.1611 9.33333H11.8233V7C11.8233 6.35833 11.2973 5.83333 10.6544 5.83333C10.0115 5.83333 9.4855 6.35833 9.4855 7V9.33333H7.14769C6.50479 9.33333 5.97879 9.85833 5.97879 10.5C5.97879 11.1417 6.50479 11.6667 7.14769 11.6667H9.4855V14C9.4855 14.6417 10.0115 15.1667 10.6544 15.1667C11.2973 15.1667 11.8233 14.6417 11.8233 14V11.6667H14.1611C14.804 11.6667 15.33 11.1417 15.33 10.5C15.33 9.85833 14.804 9.33333 14.1611 9.33333ZM18.8368 17.5C18.8368 18.1428 18.3131 18.6667 17.6678 18.6667H3.64097C2.99574 18.6667 2.47207 18.1428 2.47207 17.5V3.5C2.47207 2.85717 2.99574 2.33333 3.64097 2.33333H17.6678C18.3131 2.33333 18.8368 2.85717 18.8368 3.5V17.5ZM17.6679 0H3.641C1.70762 0 0.134277 1.57033 0.134277 3.5V17.5C0.134277 19.4297 1.70762 21 3.641 21H17.6679C19.6012 21 21.1746 19.4297 21.1746 17.5V3.5C21.1746 1.57033 19.6012 0 17.6679 0Z" fill="#666666"/>
</svg>