<svg width="18" height="18" viewBox="0 0 18 18" fill="none" xmlns="http://www.w3.org/2000/svg">
<path class="disable-move-icon" d="M17.41 4.125V15C17.41 16.65 16.0652 18 14.4215 18H8.96743C8.16053 18 7.39846 17.6775 6.83811 17.1075L0.973145 11.1225C0.973145 11.1225 1.91453 10.2 1.94441 10.185C2.10878 10.0425 2.31051 9.9675 2.53464 9.9675C2.69901 9.9675 2.84844 10.0125 2.98292 10.0875C3.01281 10.095 6.20305 11.9325 6.20305 11.9325V3C6.20305 2.3775 6.70362 1.875 7.32374 1.875C7.94386 1.875 8.44444 2.3775 8.44444 3V8.25H9.19156V1.125C9.19156 0.5025 9.69214 0 10.3123 0C10.9324 0 11.433 0.5025 11.433 1.125V8.25H12.1801V1.875C12.1801 1.2525 12.6807 0.75 13.3008 0.75C13.9209 0.75 14.4215 1.2525 14.4215 1.875V8.25H15.1686V4.125C15.1686 3.5025 15.6692 3 16.2893 3C16.9094 3 17.41 3.5025 17.41 4.125Z" fill="#666666"/>
</svg>
