<svg width="17" height="18" viewBox="0 0 17 18" fill="none" xmlns="http://www.w3.org/2000/svg">
<path class="hover-color" d="M11.1032 9.00045L12.5175 10.4147L15.3459 7.58624C16.908 6.02414 16.908 3.49148 15.3459 1.92939C13.7838 0.367288 11.2511 0.367288 9.68903 1.92939L6.86061 4.75781L8.27482 6.17203L11.1032 3.3436C11.8843 2.56255 13.1506 2.56255 13.9317 3.3436C14.7127 4.12465 14.7127 5.39098 13.9317 6.17203L11.1032 9.00045Z" fill="#666666"/>
<path class="hover-color" d="M8.27487 11.829L9.68908 13.2432L6.86065 16.0716C5.29856 17.6337 2.7659 17.6337 1.2038 16.0716C-0.358298 14.5095 -0.358298 11.9768 1.2038 10.4147L4.03223 7.58632L5.44644 9.00053L2.61801 11.829C1.83696 12.61 1.83696 13.8763 2.61801 14.6574C3.39906 15.4384 4.66539 15.4384 5.44644 14.6574L8.27487 11.829Z" fill="#666666"/>
<path class="hover-color" d="M11.1033 7.58617C11.4938 7.19565 11.4938 6.56248 11.1033 6.17196C10.7128 5.78143 10.0796 5.78143 9.68908 6.17196L5.44644 10.4146C5.05591 10.8051 5.05591 11.4383 5.44644 11.8288C5.83696 12.2193 6.47013 12.2193 6.86065 11.8288L11.1033 7.58617Z" fill="#666666"/>
</svg>
