<svg width="22" height="21" viewBox="0 0 22 21" fill="none" xmlns="http://www.w3.org/2000/svg">
<path class="hover-color" d="M11.9097 13H2.90967C1.80967 13 0.909668 12.1 0.909668 11V2C0.909668 0.9 1.80967 0 2.90967 0H11.9097C13.0097 0 13.9097 0.9 13.9097 2V11C13.9097 12.1 13.0097 13 11.9097 13Z" fill="#666666"/>
<path class="hover-color" d="M19.4097 11.2V18.5H12.1097V11.2H19.4097ZM19.5097 9H11.9097C10.8097 9 9.90967 9.9 9.90967 11V18.7C9.90967 19.8 10.8097 20.7 11.9097 20.7H19.5097C20.6097 20.7 21.5097 19.8 21.5097 18.7V11.1C21.5097 9.9 20.6097 9 19.5097 9Z" fill="#666666"/>
</svg>
