<svg width="8" height="4" viewBox="0 0 8 4" fill="none" xmlns="http://www.w3.org/2000/svg">
<path d="M4.1119 -0.000342727C4.20952 -0.000835579 4.3063 0.0155037 4.39667 0.0477376C4.48704 0.0799715 4.56924 0.127466 4.63855 0.187498L7.60559 2.77841C7.67475 2.8388 7.72961 2.9105 7.76704 2.98941C7.80447 3.06831 7.82373 3.15289 7.82373 3.23829C7.82373 3.3237 7.80447 3.40828 7.76704 3.48718C7.72961 3.56609 7.67475 3.63779 7.60559 3.69818C7.53643 3.75857 7.45432 3.80648 7.36396 3.83917C7.27359 3.87185 7.17674 3.88867 7.07894 3.88867C6.98113 3.88867 6.88428 3.87185 6.79392 3.83917C6.70355 3.80648 6.62145 3.75857 6.55229 3.69818L4.1119 1.5542L1.6641 3.61398C1.59587 3.68023 1.51271 3.73348 1.41983 3.77039C1.32695 3.8073 1.22635 3.82708 1.12432 3.8285C1.02229 3.82991 0.921023 3.81292 0.826853 3.7786C0.732683 3.74427 0.647637 3.69335 0.577032 3.62902C0.506427 3.56468 0.451782 3.48832 0.416517 3.4047C0.381251 3.32108 0.366123 3.23201 0.372078 3.14305C0.378033 3.05409 0.404943 2.96717 0.451125 2.88771C0.497307 2.80825 0.561767 2.73796 0.640475 2.68125L3.60751 0.181021C3.74316 0.0668167 3.9235 0.00197349 4.1119 -0.000342727Z" fill="#666666"/>
</svg>
