<svg width="21" height="20" viewBox="0 0 21 20" fill="none" xmlns="http://www.w3.org/2000/svg">
<path class="zoom-out-icon" d="M15.2531 12.5786H14.3514L14.0319 12.2699C15.1504 10.9663 15.8237 9.27387 15.8237 7.43282C15.8237 3.32762 12.5025 0 8.40515 0C4.30781 0 0.986572 3.32762 0.986572 7.43282C0.986572 11.538 4.30781 14.8656 8.40515 14.8656C10.2427 14.8656 11.9318 14.191 13.2329 13.0703L13.5411 13.3905V14.2939L19.2477 20L20.9483 18.2962L15.2531 12.5786ZM8.40515 12.5786C5.56326 12.5786 3.26921 10.2802 3.26921 7.43282C3.26921 4.58548 5.56326 2.28702 8.40515 2.28702C11.247 2.28702 13.5411 4.58548 13.5411 7.43282C13.5411 10.2802 11.247 12.5786 8.40515 12.5786ZM5.55185 6.86106H11.2585V8.00457H5.55185V6.86106Z" fill="#666666"/>
</svg>
