<svg width="22" height="21" viewBox="0 0 22 21" fill="none" xmlns="http://www.w3.org/2000/svg">
<path class="hover-color" d="M14.4861 16.59H6.63525C5.48379 16.59 4.54169 15.645 4.54169 14.49V6.61499C4.54169 5.45999 5.48379 4.51499 6.63525 4.51499H14.4861C15.6376 4.51499 16.5797 5.45999 16.5797 6.61499V14.49C16.5797 15.645 15.6376 16.59 14.4861 16.59Z" fill="#666666"/>
<path class="hover-color" d="M8.93817 2.1L9.04285 8.925C9.04285 8.925 9.04285 9.03 8.93817 9.03H2.13409C2.13409 9.03 2.02941 9.03 2.02941 8.925V2.1C2.13409 2.1 2.13409 2.1 2.13409 2.1H8.93817ZM8.93817 0H2.13409C0.982631 0 0.0405273 0.945 0.0405273 2.1V8.82C0.0405273 9.975 0.982631 10.92 2.13409 10.92H8.83349C9.98495 10.92 10.9271 9.975 10.9271 8.82V2.1C11.0317 0.945 10.0896 0 8.93817 0Z" fill="#666666"/>
<path class="hover-color" d="M18.9873 12.075C19.0919 12.075 19.0919 12.075 18.9873 12.075L19.0919 18.9C19.0919 18.9 19.0919 19.005 18.9873 19.005H12.2879C12.2879 19.005 12.1832 19.005 12.1832 18.9V12.18C12.1832 12.18 12.1832 12.075 12.2879 12.075H18.9873ZM18.9873 9.975H12.2879C11.1364 9.975 10.1943 10.92 10.1943 12.075V18.9C10.1943 20.055 11.1364 21 12.2879 21H18.9873C20.1387 21 21.0808 20.055 21.0808 18.9V12.18C21.0808 10.92 20.1387 9.975 18.9873 9.975Z" fill="#666666"/>
</svg>
