<svg width="23" height="21" viewBox="0 0 23 21" fill="none" xmlns="http://www.w3.org/2000/svg">
<path class="hover-color" d="M19.8351 21H10.1325C8.93334 21 7.95219 20.055 7.95219 18.9V9.45C7.95219 8.295 8.93334 7.35 10.1325 7.35H19.8351C21.0342 7.35 22.0154 8.295 22.0154 9.45V18.9C22.0154 20.055 21.0342 21 19.8351 21Z" fill="#666666"/>
<path class="hover-color" d="M11.3317 2.31V9.975H3.37347V2.31H11.3317ZM11.5498 0H3.15544C1.95625 0 0.975098 0.945 0.975098 2.1V10.08C0.975098 11.235 1.95625 12.18 3.15544 12.18H11.4407C12.6399 12.18 13.6211 11.235 13.6211 10.08V2.1C13.7301 0.945 12.7489 0 11.5498 0Z" fill="#666666"/>
</svg>
