<svg width="18" height="18" viewBox="0 0 18 18" fill="none" xmlns="http://www.w3.org/2000/svg">
<path class="hover-color" d="M14.0575 15.3C15.861 15.3 17.3037 13.86 17.3037 12.15V9.9C17.3037 9.36 16.943 9 16.402 9C15.861 9 15.5003 9.36 15.5003 9.9V12.15C15.5003 12.96 14.8691 13.5 14.0575 13.5H3.23677L4.40902 12.33C4.76971 11.97 4.76971 11.43 4.40902 11.07C4.04833 10.71 3.50729 10.71 3.1466 11.07L0.441417 13.77C0.0807257 14.13 0.0807257 14.67 0.441417 15.03L3.1466 17.73C3.50729 18.09 4.04833 18.09 4.40902 17.73C4.76971 17.37 4.76971 16.83 4.40902 16.47L3.23677 15.3H14.0575Z" fill="#666666"/>
<path d="M17.0332 4.23C17.3939 3.87 17.3939 3.33 17.0332 2.97L14.328 0.27C13.9673 -0.09 13.4263 -0.09 13.0656 0.27C12.7049 0.63 12.7049 1.17 13.0656 1.53L14.2378 2.7H3.41712C1.61366 2.7 0.170898 4.14 0.170898 5.85V8.1C0.170898 8.64 0.531589 9 1.07263 9C1.61366 9 1.97435 8.64 1.97435 8.1V5.85C1.97435 5.13 2.60556 4.5 3.41712 4.5H14.2378L13.0656 5.67C12.7049 6.03 12.7049 6.57 13.0656 6.93C13.4263 7.29 13.9673 7.29 14.328 6.93L17.0332 4.23Z" fill="#CCCCCC"/>
</svg>
