<svg width="22" height="21" viewBox="0 0 22 21" fill="none" xmlns="http://www.w3.org/2000/svg">
<path class="hover-color" d="M19.103 9.88835H16.5496V6.72815C16.5496 5.6068 15.6304 4.68932 14.5068 4.68932H11.3406V2.03883C11.3406 0.917476 10.4213 0 9.29784 0H2.14822C1.02471 0 0.105469 0.917476 0.105469 2.03883V9.17476C0.105469 10.2961 1.02471 11.2136 2.14822 11.2136H4.70165V14.3738C4.70165 15.4951 5.62089 16.4126 6.7444 16.4126H9.91066V18.9612C9.91066 20.0825 10.8299 21 11.9534 21H19.0009C20.1244 21 21.0436 20.0825 21.0436 18.9612V11.9272C21.1458 10.8058 20.2265 9.88835 19.103 9.88835ZM2.25035 9.17476V2.14078H9.29784V9.17476H2.25035ZM12.0555 18.9612V11.9272H19.103V18.9612H12.0555Z" fill="#666666"/>
</svg>
