<svg width="8" height="5" viewBox="0 0 8 5" fill="none" xmlns="http://www.w3.org/2000/svg">
<path d="M4.00014 4.03941C3.90143 4.0399 3.80359 4.02356 3.71221 3.99132C3.62083 3.95909 3.53772 3.9116 3.46764 3.85156L0.467639 1.26065C0.39771 1.20026 0.34224 1.12856 0.304394 1.04966C0.266549 0.97075 0.24707 0.886177 0.24707 0.800768C0.24707 0.715359 0.266549 0.630786 0.304394 0.551879C0.34224 0.472972 0.39771 0.401275 0.467639 0.340882C0.537568 0.280488 0.620586 0.232582 0.711952 0.199897C0.803319 0.167213 0.901245 0.150391 1.00014 0.150391C1.09903 0.150391 1.19696 0.167213 1.28833 0.199897C1.37969 0.232582 1.46271 0.280488 1.53264 0.340882L4.00014 2.48486L6.47514 0.425086C6.54413 0.35883 6.62821 0.305581 6.72212 0.26867C6.81603 0.231759 6.91775 0.211979 7.02092 0.210567C7.12408 0.209156 7.22647 0.226142 7.32169 0.260466C7.41691 0.29479 7.5029 0.345712 7.57429 0.410047C7.64568 0.474382 7.70093 0.550747 7.73659 0.634365C7.77224 0.717982 7.78754 0.807055 7.78152 0.896011C7.7755 0.984968 7.74829 1.07189 7.70159 1.15136C7.6549 1.23082 7.58972 1.3011 7.51014 1.35781L4.51014 3.85804C4.37298 3.97225 4.19064 4.03709 4.00014 4.03941Z" fill="#666666"/>
</svg>
