<svg width="69" height="69" viewBox="0 0 69 69" fill="none" xmlns="http://www.w3.org/2000/svg">
<path d="M50.415 22.7239C49.157 14.9719 42.034 9.03888 33.432 9.03888C23.929 9.03888 16.228 16.2639 16.228 25.1889C16.228 26.0729 16.33 26.9229 16.466 27.7559C10.312 27.9769 5.36505 32.7709 5.36505 38.5849V38.9759C5.36505 44.9429 10.567 49.8219 16.925 49.8219H36.152H44.516H48.834C56.807 49.8219 63.318 43.7019 63.318 36.2219C63.318 29.2519 57.64 23.4719 50.415 22.7239Z" fill="#9DACB2" stroke="#9DACB2" stroke-width="2" stroke-miterlimit="10" stroke-linejoin="round"/>
<path d="M53.7981 39.3327C52.9141 33.5867 47.9671 29.1667 41.9661 29.1667C35.3361 29.1667 29.9811 34.5387 29.9811 41.1517C29.9811 41.7977 30.0491 42.4437 30.1511 43.0557C25.8671 43.2257 22.4161 46.7787 22.4161 51.0967V51.3857C22.4161 55.8227 26.0371 59.4437 30.4741 59.4437H43.8701H49.7011H52.7101C58.2691 59.4437 62.8081 54.9047 62.8081 49.3457C62.7911 44.1777 58.8471 39.8767 53.7981 39.3327Z" fill="#75888E" stroke="#75888E" stroke-width="2" stroke-miterlimit="10" stroke-linejoin="round"/>
</svg>
