<svg width="69" height="69" viewBox="0 0 69 69" fill="none" xmlns="http://www.w3.org/2000/svg">
<path d="M42.7139 27.078C34.7409 27.078 28.2639 20.618 28.2639 12.628C28.2639 10.265 28.8419 8.03804 29.8449 6.06604C22.9769 8.05504 17.9449 14.396 17.9449 21.91C17.9449 31.022 25.3399 38.417 34.4519 38.417C42.6289 38.417 49.4119 32.45 50.7209 24.647C48.4259 26.194 45.6719 27.078 42.7139 27.078Z" fill="#FFC661" stroke="#FFC661" stroke-width="2" stroke-miterlimit="10" stroke-linejoin="round"/>
<path d="M49.429 35.782C48.239 28.0301 41.558 22.097 33.483 22.097C24.558 22.097 17.333 29.322 17.333 38.247C17.333 39.131 17.418 39.981 17.554 40.814C11.791 41.035 7.133 45.8291 7.133 51.643V52.034C7.133 58.001 12.012 62.88 17.979 62.88H36.033H43.887H47.933C55.413 62.88 61.533 56.76 61.533 49.2801C61.55 42.3271 56.212 36.53 49.429 35.782Z" fill="#BFDEEF" stroke="#BFDEEF" stroke-width="2" stroke-miterlimit="10" stroke-linejoin="round"/>
</svg>
