<svg width="68" height="69" viewBox="0 0 68 69" fill="none" xmlns="http://www.w3.org/2000/svg">
<path d="M59.1089 22.7161C59.1089 29.2271 53.8389 34.4971 47.3279 34.4971C40.8169 34.4971 35.5469 29.2271 35.5469 22.7161C35.5469 16.2051 40.8169 10.9351 47.3279 10.9351C53.8219 10.9351 59.1089 16.2051 59.1089 22.7161Z" fill="#FFC661" stroke="#FFC661" stroke-width="2" stroke-miterlimit="10" stroke-linejoin="round"/>
<path d="M49.096 31.5901C47.906 23.8381 41.225 17.9051 33.15 17.9051C24.225 17.9051 17 25.1301 17 34.0551C17 34.9391 17.085 35.7891 17.221 36.6221C11.458 36.8601 6.79996 41.6371 6.79996 47.4511V47.8421C6.79996 53.8091 11.679 58.6881 17.646 58.6881H35.7H43.554H47.6C55.08 58.6881 61.2 52.5681 61.2 45.0881C61.2 38.1351 55.879 32.3381 49.096 31.5901Z" fill="#BFDEEF" stroke="#BFDEEF" stroke-width="2" stroke-miterlimit="10" stroke-linejoin="round"/>
</svg>
