<svg width="68" height="69" viewBox="0 0 68 69" fill="none" xmlns="http://www.w3.org/2000/svg">
<path d="M49.096 21.3349C47.906 13.5829 41.225 7.64996 33.15 7.64996C24.225 7.64996 17 14.875 17 23.8C17 24.684 17.085 25.5339 17.221 26.3669C11.458 26.6049 6.79999 31.382 6.79999 37.196V37.5869C6.79999 43.5539 11.679 48.4329 17.646 48.4329H35.7H43.554H47.6C55.08 48.4329 61.2 42.3129 61.2 34.8329C61.2 27.8799 55.879 22.0829 49.096 21.3349Z" fill="#9DCCE0" stroke="#9DCCE0" stroke-width="2" stroke-miterlimit="10" stroke-linejoin="round"/>
<path d="M15.7248 54.179L9.06082 62.05" stroke="#9DCCE0" stroke-width="3" stroke-miterlimit="10" stroke-linejoin="round"/>
<path d="M32.7248 54.179L26.0608 62.05" stroke="#9DCCE0" stroke-width="3" stroke-miterlimit="10" stroke-linejoin="round"/>
<path d="M49.7248 54.179L43.0608 62.05" stroke="#9DCCE0" stroke-width="3" stroke-miterlimit="10" stroke-linejoin="round"/>
</svg>
