<svg width="69" height="69" viewBox="0 0 69 69" fill="none" xmlns="http://www.w3.org/2000/svg">
<path d="M48.9528 22.7239C47.6948 14.9719 40.5718 9.03888 31.9698 9.03888C22.4668 9.03888 14.7658 16.2639 14.7658 25.1889C14.7658 26.0729 14.8678 26.9229 15.0038 27.7559C8.84983 27.9769 3.90283 32.7709 3.90283 38.5849V38.9759C3.90283 44.9429 9.10482 49.8219 15.4628 49.8219H34.6898H43.0538H47.3548C55.3278 49.8219 61.8388 43.7019 61.8388 36.2219C61.8558 29.2689 56.1778 23.4719 48.9528 22.7239Z" fill="#BFDEEF" stroke="#BFDEEF" stroke-width="2" stroke-miterlimit="10" stroke-linejoin="round"/>
<path d="M56.7729 31.003C48.7999 31.003 42.3229 24.543 42.3229 16.553C42.3229 14.19 42.9009 11.963 43.9039 9.99103C37.0359 11.98 32.0039 18.321 32.0039 25.835C32.0039 34.947 39.3989 42.342 48.5109 42.342C56.6879 42.342 63.4709 36.375 64.7799 28.572C62.4849 30.102 59.7309 31.003 56.7729 31.003Z" fill="#FFC661" stroke="#FFC661" stroke-width="2" stroke-miterlimit="10" stroke-linejoin="round"/>
<path d="M52.3359 39.3328C51.4519 33.5868 46.5049 29.1667 40.5039 29.1667C33.8739 29.1667 28.5189 34.5388 28.5189 41.1518C28.5189 41.7978 28.5869 42.4437 28.6889 43.0557C24.4049 43.2257 20.9539 46.7788 20.9539 51.0968V51.3858C20.9539 55.8228 24.5749 59.4438 29.0119 59.4438H42.4079H48.2389H51.2479C56.8069 59.4438 61.3459 54.9048 61.3459 49.3458C61.3289 44.1948 57.3679 39.8938 52.3359 39.3328Z" fill="#9DCCE0" stroke="#9DCCE0" stroke-width="2" stroke-miterlimit="10" stroke-linejoin="round"/>
</svg>
