<svg width="68" height="69" viewBox="0 0 68 69" fill="none" xmlns="http://www.w3.org/2000/svg">
<path d="M50.0819 22.7239C48.8239 14.9719 41.7009 9.03888 33.0989 9.03888C23.5959 9.03888 15.8949 16.2639 15.8949 25.1889C15.8949 26.0729 15.9969 26.9229 16.1329 27.7559C9.97892 27.9769 5.03192 32.7709 5.03192 38.5849V38.9759C5.03192 44.9429 10.2339 49.8219 16.5919 49.8219H35.8189H44.1829H48.5009C56.4739 49.8219 62.9849 43.7019 62.9849 36.2219C62.9679 29.2689 57.3069 23.4719 50.0819 22.7239Z" fill="#BFDEEF" stroke="#BFDEEF" stroke-width="2" stroke-miterlimit="10" stroke-linejoin="round"/>
<path d="M53.4649 39.3329C52.5809 33.5869 47.6339 29.1669 41.6329 29.1669C35.0029 29.1669 29.6479 34.5389 29.6479 41.1519C29.6479 41.7979 29.7159 42.4439 29.8179 43.0559C25.5339 43.2259 22.0829 46.7789 22.0829 51.0969V51.3859C22.0829 55.8229 25.7039 59.444 30.1409 59.444H43.5369H49.3679H52.3769C57.9359 59.444 62.4749 54.9049 62.4749 49.3459C62.4409 44.1949 58.4969 39.8939 53.4649 39.3329Z" fill="#9DCCE0" stroke="#9DCCE0" stroke-width="2" stroke-miterlimit="10" stroke-linejoin="round"/>
</svg>
