<svg width="68" height="69" viewBox="0 0 68 69" fill="none" xmlns="http://www.w3.org/2000/svg">
<path d="M49.096 20.745C47.906 12.993 41.225 7.06 33.15 7.06C24.225 7.06 17 14.285 17 23.21C17 24.094 17.085 24.944 17.221 25.777C11.458 26.015 6.79999 30.792 6.79999 36.623V37.014C6.79999 42.981 11.679 47.86 17.646 47.86H35.7H43.554H47.6C55.08 47.86 61.2 41.74 61.2 34.26C61.2 27.29 55.879 21.51 49.096 20.745Z" fill="#9DACB2" stroke="#9DACB2" stroke-width="2" stroke-miterlimit="10" stroke-linejoin="round"/>
<path d="M15.7248 53.606L9.06082 61.46" stroke="#9DACB2" stroke-width="3" stroke-miterlimit="10" stroke-linejoin="round"/>
<path d="M32.7248 53.606L26.0608 61.46" stroke="#9DACB2" stroke-width="3" stroke-miterlimit="10" stroke-linejoin="round"/>
<path d="M49.7248 53.606L43.0608 61.46" stroke="#9DACB2" stroke-width="3" stroke-miterlimit="10" stroke-linejoin="round"/>
</svg>
