<svg width="68" height="68" viewBox="0 0 68 68" fill="none" xmlns="http://www.w3.org/2000/svg">
<path d="M66.64 33.9999H1.36005" stroke="#9DCCE0" stroke-width="3" stroke-miterlimit="10" stroke-linejoin="round"/>
<path d="M17.6801 61.1999L50.3201 6.79993" stroke="#9DCCE0" stroke-width="3" stroke-miterlimit="10" stroke-linejoin="round"/>
<path d="M17.6801 6.79993L50.3201 61.1999" stroke="#9DCCE0" stroke-width="3" stroke-miterlimit="10" stroke-linejoin="round"/>
<path d="M59.5001 43.2139L51.3741 33.9999" stroke="#9DCCE0" stroke-width="3" stroke-miterlimit="10" stroke-linejoin="round"/>
<path d="M59.5001 24.7861L51.3741 34.0001" stroke="#9DCCE0" stroke-width="3" stroke-miterlimit="10" stroke-linejoin="round"/>
<path d="M38.4539 59.857L42.6869 48.484" stroke="#9DCCE0" stroke-width="3" stroke-miterlimit="10" stroke-linejoin="round"/>
<path d="M55.0461 50.643L42.6871 48.484" stroke="#9DCCE0" stroke-width="3" stroke-miterlimit="10" stroke-linejoin="round"/>
<path d="M12.9539 50.643L25.3129 48.484" stroke="#9DCCE0" stroke-width="3" stroke-miterlimit="10" stroke-linejoin="round"/>
<path d="M29.5459 59.857L25.3129 48.484" stroke="#9DCCE0" stroke-width="3" stroke-miterlimit="10" stroke-linejoin="round"/>
<path d="M8.49997 24.7861L16.626 34.0001" stroke="#9DCCE0" stroke-width="3" stroke-miterlimit="10" stroke-linejoin="round"/>
<path d="M8.49997 43.2139L16.626 33.9999" stroke="#9DCCE0" stroke-width="3" stroke-miterlimit="10" stroke-linejoin="round"/>
<path d="M29.5459 8.14301L25.3129 19.516" stroke="#9DCCE0" stroke-width="3" stroke-miterlimit="10" stroke-linejoin="round"/>
<path d="M12.9539 17.3569L25.3129 19.5159" stroke="#9DCCE0" stroke-width="3" stroke-miterlimit="10" stroke-linejoin="round"/>
<path d="M55.0461 17.3569L42.6871 19.5159" stroke="#9DCCE0" stroke-width="3" stroke-miterlimit="10" stroke-linejoin="round"/>
<path d="M38.4539 8.14301L42.6869 19.516" stroke="#9DCCE0" stroke-width="3" stroke-miterlimit="10" stroke-linejoin="round"/>
</svg>
