<svg width="68" height="69" viewBox="0 0 68 69" fill="none" xmlns="http://www.w3.org/2000/svg">
<path d="M49.096 21.355C47.906 13.603 41.225 7.66998 33.15 7.66998C24.225 7.66998 17 14.895 17 23.82C17 24.704 17.085 25.554 17.221 26.387C11.458 26.625 6.79999 31.402 6.79999 37.216V37.607C6.79999 43.574 11.679 48.453 17.646 48.453H35.7H43.554H47.6C55.08 48.453 61.2 42.333 61.2 34.853C61.2 27.9 55.879 22.103 49.096 21.355Z" fill="#75888E" stroke="#75888E" stroke-width="2" stroke-miterlimit="10" stroke-linejoin="round"/>
<path d="M37.5869 34.8699L19.5499 49.932H30.3449L23.5959 62.0699L45.0499 44.305H33.1329L37.5869 34.8699Z" fill="#E0CF7E" stroke="#E0CF7E" stroke-width="2" stroke-miterlimit="10" stroke-linejoin="round"/>
</svg>
