<?xml version="1.0" encoding="utf-8"?>
<!-- Generator: Adobe Illustrator 26.2.1, SVG Export Plug-In . SVG Version: 6.00 Build 0)  -->
<svg version="1.1" id="레이어_1" xmlns="http://www.w3.org/2000/svg" xmlns:xlink="http://www.w3.org/1999/xlink" x="0px"
	 y="0px" viewBox="0 0 846 100.6" style="enable-background:new 0 0 846 100.6;" xml:space="preserve">
<style type="text/css">
	.st0{fill:#FFFFFF;}
</style>
<g>
	<path class="st0" d="M685,69.8c-1.5-1.3-3.5-2.5-6-3.8c-2.5-1.2-6.3-2.5-11.1-3.8l-4-1.2c-0.2,0-0.2,0-0.2,0c-1-0.4-1.9-0.6-2.5-1
		c-0.6-0.2-1.3-0.6-1.7-0.8c-0.8-0.6-1.7-1.3-2.5-2.3c-0.6-1-1-1.7-1.2-2.7c-0.2-1,0-1.7,0.4-2.5c0.6-1.3,1.5-2.5,2.7-3.1
		c1.2-0.6,2.5-1.2,4.2-1.3c2.1-0.2,4.2-0.2,6.1,0.2c1.9,0.4,4,1.2,6.1,2.5c1.3,0.6,2.3,1.3,2.9,1.9l8.1-7.1
		c-1.3-1.5-3.3-3.1-5.6-4.4c-3.1-1.7-6.1-2.9-9.6-3.5c-3.3-0.6-6.5-0.8-9.4-0.4c-3.3,0.4-6.1,1.3-9.2,3.3c-2.9,1.9-5,4.4-6.3,7.5
		c-1.2,2.5-1.3,5.4-1,8.5c0.6,3.1,1.5,5.6,3.3,7.7c0.4,0.4,1,1,1.7,1.9c0.8,0.8,1.9,1.5,2.9,2.3c1.9,1.3,4.6,2.7,7.9,3.6l4.2,1.2
		c4,1.2,7.1,1.9,8.8,2.7c1.7,0.8,2.9,1.3,3.5,2.1c0.8,0.8,1.2,1.7,1.3,2.7c0.2,1.2,0,2.1-0.6,3.1c-0.4,0.8-0.8,1.3-1.3,1.9
		c-0.6,0.6-1.3,1-2.1,1.5c-0.8,0.4-1.7,0.8-2.7,1c-1,0.2-1.7,0.4-2.5,0.6c-2.3,0.4-4.4,0.2-6.3-0.2c-1.9-0.4-3.8-1.3-6.1-2.5
		c-1.5-1-2.7-1.9-3.5-2.9s-1.3-1.9-1.7-2.7l-10,3.5c0.6,1.7,1.7,3.6,3.5,5.8c1.7,2.1,3.8,4,6.5,5.8c3.1,1.7,6.1,3.1,9.2,3.6
		c3.1,0.8,6.1,0.8,9.4,0.4c1.2-0.2,2.5-0.4,4-1c1.5-0.4,3.1-1,4.4-1.7c2.1-1,3.8-2.3,5.4-3.8s2.5-3.3,3.5-5c1-2.3,1.3-4.4,1.5-6.7
		c0-2.1-0.4-4.2-1.2-6C687.3,72.5,686.3,70.9,685,69.8z"/>
	<path class="st0" d="M718.9,85.9c-1.3,0.2-2.5,0.2-3.5,0.2s-1.7-0.2-2.1-0.8c-0.6-0.6-0.8-1.3-0.8-2.5V65h11.5V54.6h-11.5V39h-11.1
		v15.6h-7.3V65h7.3v17.7c0,2.5,0.8,5,1.9,7.1c1.3,2.1,3.1,3.8,5.2,5.2c2.1,1.3,4.2,1.9,6.3,2.1c1.3,0,3.1,0,5-0.2
		c1.9-0.2,3.5-0.4,4.6-0.6L722,85.3C721.4,85.5,720.5,85.7,718.9,85.9z"/>
	<path class="st0" d="M758.5,57.7c-3.1-1.9-6.7-2.9-10.9-2.9c-4,0-7.5,1-10.8,2.9c-3.3,1.9-5.6,4.6-7.3,7.7
		c-1.7,3.3-2.7,6.9-2.7,10.8s1,7.3,2.7,10.6c1.7,3.3,4.2,6,7.3,7.7c3.1,1.9,6.7,2.9,10.8,2.9c4.2,0,7.9-1,10.9-2.9
		c3.1-1.9,5.6-4.4,7.3-7.7c1.7-3.3,2.5-6.7,2.5-10.6s-0.8-7.5-2.5-10.8C764.1,62.1,761.6,59.6,758.5,57.7z M757.2,81.9
		c-1,1.7-2.1,3.1-3.8,4s-3.6,1.3-5.8,1.3c-2.1,0-4-0.4-5.8-1.3s-3.1-2.3-3.8-4c-1-1.7-1.3-3.6-1.3-5.8c0-2.1,0.4-4,1.3-5.8
		c1-1.7,2.3-3.1,3.8-4c1.7-1,3.6-1.5,5.8-1.5c2.1,0,4,0.4,5.6,1.5s2.9,2.3,3.8,4c1,1.7,1.3,3.6,1.3,5.8
		C758.5,78.2,758.1,80.1,757.2,81.9z"/>
	<path class="st0" d="M785.6,61.9v-7.1H775v42.4h10.6V76.1c0-1.7,0.6-3.5,1.5-5.2c1-1.7,2.5-3.1,4.2-4.2c1.9-1.2,4-1.7,6.3-1.7V54.8
		c-1.9,0-4,0.6-6.5,1.9C788.9,57.7,786.9,59.6,785.6,61.9z"/>
	<path class="st0" d="M840.7,73.2c-0.4-2.7-1-5-1.7-6.9c-0.4-1-1-2.3-2.3-4c-1.2-1.7-3.1-3.5-5.8-5c-2.7-1.5-6-2.5-9.8-2.5
		c-4.2,0-7.9,1-10.9,2.9s-5.6,4.4-7.1,7.7c-1.5,3.3-2.5,6.9-2.5,10.8s0.8,7.5,2.5,10.8c1.5,3.3,4,5.8,7.1,7.7
		c3.1,1.9,6.7,2.9,10.9,2.9c4.6,0,8.5-1,11.5-2.7c3.1-1.9,5.2-4,6.5-6.7l-9.4-4c-0.4,1.2-1.3,2.1-2.9,2.9s-3.3,1.2-5.6,1.2
		c-2.9,0-5.2-0.6-6.9-1.9c-1.7-1.3-3.1-3.1-3.8-5.4h30.5C841.1,78.2,840.9,75.7,840.7,73.2z M830.9,72.3h-20.5
		c0.4-2.7,1.5-4.6,3.6-6c1.9-1.3,4.4-2.1,7.1-2.1c1.7,0,3.5,0.4,4.8,1c1.3,0.6,2.5,1.5,3.5,2.7C830.3,69.2,830.9,70.5,830.9,72.3
		L830.9,72.3L830.9,72.3z"/>
	<path class="st0" d="M4.9,16.6v68.9c0,8.8,4.4,13.3,13.3,13.3h86.4V74.2h-72c-1.5,0-2.3-0.8-2.3-2.5V60.2h73.9V41.9H30.4V31.2
		c0-1.5,0.8-2.3,2.3-2.3h72V3.7H18.5C9.5,3.7,4.9,7.9,4.9,16.6z"/>
	<path class="st0" d="M171.4,72.3c-1.2-1.2-1.9-3.5-1.9-7.1V3.7h-25.4v64c0,5.2,0.6,9.6,1.5,13.4s2.7,7.1,5.2,9.6
		c2.5,2.5,5.6,4.4,9.6,5.8c4,1.3,8.8,1.9,14.6,1.9H244V74.2h-66.1C174.7,74.2,172.6,73.6,171.4,72.3z"/>
	<rect x="281.8" y="3.7" class="st0" width="25.5" height="94.7"/>
	<path class="st0" d="M421.8,72.1c0,1.3-0.6,1.9-1.9,1.9h-24.2c-4.4,0-8.3-0.8-11.3-2.1c-3.1-1.5-5.6-3.3-7.7-5.6
		c-1.9-1.9-3.3-4.2-4.4-6.7c-1-2.5-1.5-5.4-1.5-8.3c0-3.3,0.6-6.1,1.9-9c1.3-2.9,2.9-5.2,5.2-7.3c2.1-1.9,4.4-3.3,7.3-4.4
		c2.9-1.2,6.3-1.7,10.6-1.7H447V3.7h-51.3c-7.7,0-14.4,1.2-20.2,3.3c-5.8,2.1-10.8,5.2-15,9.2c-4.8,4.4-8.5,9.6-11.1,15.6
		s-4,12.5-4,19.4c0,6.3,1.2,12.1,3.3,17.5c2.1,5.4,5.2,10.2,9,14.4c4.4,4.8,9.8,8.6,15.9,11.3c6.3,2.7,13.6,4.2,22.1,4.2H441
		c4,0,6-1.9,6-6V46.7h-25.2L421.8,72.1L421.8,72.1z"/>
	<path class="st0" d="M562.2,6c-4.4-2.9-10-4.4-16.7-4.4c-6.9,0-12.5,1.5-16.9,4.4s-7.9,7.3-10.6,13.3l-35.5,79.3h126
		c-0.2-0.8-35.7-79.3-35.7-79.3C570.3,13.3,566.8,8.9,562.2,6z M521.9,75.9l6.9-15.6l12.7-30c0.4-1.2,1.2-1.9,1.9-2.3
		c0.8-0.4,1.5-0.6,2.3-0.6c1,0,1.7,0.2,2.5,0.8c0.8,0.4,1.3,1.2,1.9,2.3l11.5,26.9l8.1,18.4C569.7,75.9,521.9,75.9,521.9,75.9z"/>
</g>
</svg>
