<svg width="35" height="35" viewBox="0 0 35 35" fill="none" xmlns="http://www.w3.org/2000/svg">
<path d="M17.5 35C27.165 35 35 27.165 35 17.5C35 7.83502 27.165 0 17.5 0C7.83502 0 0 7.83502 0 17.5C0 27.165 7.83502 35 17.5 35Z" fill="#CBDCF7"/>
<path d="M27.9829 33.3738C27.9829 33.3738 27.9829 20.8799 17.5 20.8799C7.01709 20.8799 7.01709 33.3738 7.01709 33.3738" stroke="white" stroke-width="2" stroke-linecap="round" stroke-linejoin="round"/>
<path d="M17.4997 20.6665C20.9026 20.6665 23.6611 17.9079 23.6611 14.5051C23.6611 11.1023 20.9026 8.34375 17.4997 8.34375C14.0969 8.34375 11.3384 11.1023 11.3384 14.5051C11.3384 17.9079 14.0969 20.6665 17.4997 20.6665Z" stroke="white" stroke-width="2" stroke-linecap="round" stroke-linejoin="round"/>
</svg>
