<svg id="레이어_1" data-name="레이어 1" xmlns="http://www.w3.org/2000/svg" viewBox="0 0 305.93 99.08"><defs><style>.cls-1{fill:#fff;}</style></defs><path class="cls-1" d="M79.64,36.1a31.47,31.47,0,1,0,31.47,31.47A31.47,31.47,0,0,0,79.64,36.1Zm0,47.83A16.37,16.37,0,1,1,96,67.57,16.38,16.38,0,0,1,79.64,83.93Z"/><path class="cls-1" d="M151.13,36.1A31.47,31.47,0,1,0,182.6,67.57,31.47,31.47,0,0,0,151.13,36.1Zm0,47.83a16.37,16.37,0,1,1,16.36-16.36A16.39,16.39,0,0,1,151.13,83.93Z"/><path class="cls-1" d="M298.36,36a7.56,7.56,0,0,0-7.57,7.56v24h0a16.4,16.4,0,0,1-32.79,0h0v-24h0a7.57,7.57,0,0,0-15.13,0h0v24h0a31.53,31.53,0,0,0,63.06,0h0v-24A7.56,7.56,0,0,0,298.36,36Z"/><path class="cls-1" d="M298.36,15.27a7.57,7.57,0,1,0-7.57-7.57A7.57,7.57,0,0,0,298.36,15.27Z"/><path class="cls-1" d="M250.44,15.27a7.57,7.57,0,1,0-7.57-7.57A7.57,7.57,0,0,0,250.44,15.27Z"/><path class="cls-1" d="M31.53,83.87h0a16.41,16.41,0,0,1-16.4-16.39h0v-.14h0V7.64A7.57,7.57,0,1,0,0,7.64V67.48H0A31.53,31.53,0,0,0,31.53,99a7.57,7.57,0,0,0,0-15.14Z"/><path class="cls-1" d="M223.13,83.81h0a16.42,16.42,0,0,1-16.4-16.4h0v-.14h0V7.57a7.57,7.57,0,1,0-15.13,0V67.41h0a31.53,31.53,0,0,0,31.53,31.53,7.57,7.57,0,1,0,0-15.13Z"/></svg>