<?xml version="1.0" standalone="no"?>
<!DOCTYPE svg PUBLIC "-//W3C//DTD SVG 20010904//EN"
 "http://www.w3.org/TR/2001/REC-SVG-20010904/DTD/svg10.dtd">
<svg version="1.0" xmlns="http://www.w3.org/2000/svg"
 width="400.000000pt" height="49.000000pt" viewBox="0 0 400.000000 49.000000"
 preserveAspectRatio="xMidYMid meet">

<g transform="translate(0.000000,49.000000) scale(0.100000,-0.100000)"
fill="#000000" stroke="none">
<path d="M26 469 l-26 -20 0 -200 c0 -186 1 -200 20 -219 19 -19 33 -20 250
-20 l230 0 0 60 0 60 -185 0 -185 0 0 35 0 35 185 0 185 0 0 45 0 45 -185 0
-185 0 0 35 0 35 185 0 185 0 0 65 0 65 -224 0 c-211 0 -225 -1 -250 -21z"/>
<path d="M700 295 c0 -291 -6 -285 295 -285 l195 0 0 60 0 60 -173 0 c-121 0
-177 4 -185 12 -8 8 -12 63 -12 180 l0 168 -60 0 -60 0 0 -195z"/>
<path d="M1380 250 l0 -240 65 0 65 0 0 240 0 240 -65 0 -65 0 0 -240z"/>
<path d="M1887 479 c-56 -13 -89 -33 -129 -77 -46 -51 -61 -99 -56 -178 4 -72
38 -131 97 -171 54 -36 100 -44 253 -41 l143 3 3 128 3 127 -60 0 -60 0 -3
-67 -3 -68 -72 -3 c-87 -3 -134 14 -163 60 -28 44 -20 92 20 133 l30 30 155 3
155 3 0 65 0 64 -137 -1 c-76 -1 -155 -5 -176 -10z"/>
<path d="M2601 458 c-22 -22 -60 -95 -117 -222 -46 -104 -86 -198 -90 -208 -5
-17 9 -18 300 -18 168 0 306 2 306 4 0 2 -41 96 -90 208 -109 244 -129 268
-220 268 -51 0 -61 -3 -89 -32z m162 -211 c28 -64 48 -120 45 -122 -3 -3 -57
-4 -121 -3 l-116 3 35 80 c20 44 44 99 55 123 29 67 45 54 102 -81z"/>
<path d="M3240 240 c-50 -9 -57 -15 -62 -54 -3 -31 0 -37 27 -50 37 -18 68
-30 76 -28 4 1 14 -6 22 -16 13 -14 13 -20 3 -34 -19 -26 -69 -34 -89 -14 -14
15 -47 22 -47 11 0 -6 38 -45 45 -45 3 0 12 -3 21 -7 24 -9 83 24 94 53 16 42
-15 74 -89 90 -27 5 -46 33 -35 50 10 17 74 28 74 13 0 -5 7 -6 15 -3 38 15
-7 42 -55 34z"/>
<path d="M3416 233 c-3 -3 -6 -16 -6 -28 0 -13 -7 -28 -16 -36 -14 -11 -14
-13 0 -21 10 -6 16 -23 16 -46 0 -49 23 -82 58 -82 l27 0 -28 23 c-37 29 -36
85 2 104 l25 12 -27 12 c-18 8 -27 20 -27 35 0 24 -13 38 -24 27z"/>
<path d="M3580 162 c-50 -16 -69 -92 -32 -125 43 -39 131 -2 128 53 -2 44 -56
85 -96 72z m51 -34 c25 -28 24 -56 -3 -79 -28 -25 -32 -24 -63 8 -30 33 -30
31 -2 65 27 33 44 35 68 6z"/>
<path d="M3890 163 c-8 -3 -25 -14 -36 -25 -18 -16 -20 -25 -14 -54 5 -19 14
-41 20 -49 14 -17 86 -20 95 -4 5 7 -4 8 -27 4 -26 -5 -39 -2 -52 10 -23 24
-11 35 39 35 68 0 76 5 58 41 -12 23 -53 54 -66 48 -1 0 -9 -3 -17 -6z m52
-31 c20 -20 1 -42 -37 -42 -39 0 -55 20 -34 42 14 16 55 16 71 0z"/>
<path d="M3725 89 c0 -60 2 -69 18 -69 16 0 18 7 16 45 -2 35 2 50 20 69 l22
24 -38 0 -38 1 0 -70z"/>
</g>
</svg>
