<svg xmlns="http://www.w3.org/2000/svg" viewBox="0 0 257.29 50.53"><defs><style>.cls-1{fill:#fff;}</style></defs><g id="레이어_2" data-name="레이어 2"><g id="레이어_1-2" data-name="레이어 1"><path class="cls-1" d="M46.15,48.92a5.05,5.05,0,0,1-1.41-3.52,4.82,4.82,0,0,1,4.93-4.92,5,5,0,0,1,3.51,1.41,4.84,4.84,0,0,1,1.51,3.51,5.14,5.14,0,0,1-5,5A4.88,4.88,0,0,1,46.15,48.92Z"/><path class="cls-1" d="M60.61,25.31a25.21,25.21,0,0,1,47-12.65,5,5,0,0,1-1.8,6.83A5.15,5.15,0,0,1,99,17.68a15.28,15.28,0,0,0-28.52,7.63A15.39,15.39,0,0,0,85.73,40.58a15.15,15.15,0,0,0,12.85-7A5.13,5.13,0,0,1,105.51,32,5,5,0,0,1,106.92,39,25.15,25.15,0,0,1,60.61,25.31Z"/><path class="cls-1" d="M163.07,25.61V45.3a4.85,4.85,0,0,1-5,5,5.29,5.29,0,0,1-4.82-5c-4.32,3.62-9.14,5-14.87,5C124.2,50.32,113,39.78,113,25.61A25.25,25.25,0,0,1,138.36.2C152.52.2,163.07,11.45,163.07,25.61Zm-9.84,0c0-8.43-6.43-15.57-14.87-15.57a15.79,15.79,0,0,0-15.57,15.57c0,8.44,7.13,14.87,15.57,14.87A14.59,14.59,0,0,0,153.23,25.61Z"/><path class="cls-1" d="M204.86,6.93,189.79,47.11a5.17,5.17,0,0,1-4.72,3.31H185a5.11,5.11,0,0,1-4.72-3.31L165.18,6.93a5,5,0,1,1,9.34-3.51l10.55,28,10.45-28a5,5,0,1,1,9.34,3.51Z"/><path class="cls-1" d="M257.29,25.21a5,5,0,0,1-5,4.92H217.62a15.31,15.31,0,0,0,14.46,10.35,19.72,19.72,0,0,0,11.25-3.31c2.31-1.51,5.43-.1,6.63,2.31s-.1,5.12-2.41,6.63c-6.63,4.42-11.75,4.31-15.47,4.31a25.21,25.21,0,0,1,0-50.42C244.24,0,257.29,8.84,257.29,25.21Zm-39.67-5h29c-2.11-7-8.54-10.25-14.57-10.25A15.35,15.35,0,0,0,217.62,20.19Z"/><path class="cls-1" d="M37.07,18.22a23.93,23.93,0,0,0-4.94-8.7,23.07,23.07,0,0,0-8.13-6A26.46,26.46,0,0,0,13.56,1.39H3.48A3.54,3.54,0,0,0,0,4.93v41.8a3.54,3.54,0,0,0,3.48,3.48H13.77A24.56,24.56,0,0,0,30.05,44a24.65,24.65,0,0,0,8-15.37A25,25,0,0,0,37.07,18.22Z"/></g></g></svg>