<svg xmlns="http://www.w3.org/2000/svg" viewBox="0 0 415.25 75.54"><defs><style>.cls-1{fill:#fff;}.cls-2{fill:none;stroke:#fff;stroke-linecap:round;stroke-miterlimit:10;stroke-width:2.27px;}</style></defs><g id="레이어_2" data-name="레이어 2"><g id="레이어_1-2" data-name="레이어 1"><path class="cls-1" d="M45.4,0a4.93,4.93,0,0,0-4.92,4.92v25A25.23,25.23,0,1,0,50.43,50V4.92A5,5,0,0,0,45.4,0ZM40.48,50a15.21,15.21,0,1,1,0-.1Z"/><path class="cls-1" d="M81.47,25a25.22,25.22,0,1,0,0,50.43c3.71,0,8.83.1,15.46-4.32,2.31-1.51,3.62-4.12,2.41-6.63S95,60.67,92.71,62.18a19.7,19.7,0,0,1-11.24,3.31A15.32,15.32,0,0,1,67,55.15h34.65a5,5,0,0,0,5-4.93C106.68,33.85,93.62,25,81.47,25ZM67,45.2A15.37,15.37,0,0,1,81.47,35c6,0,12.45,3.21,14.56,10.24Z"/><path class="cls-1" d="M138.22,25.21A25.25,25.25,0,0,0,112.8,50.63c0,14.16,11.25,24.71,25.42,24.71,5.72,0,10.54-1.41,14.86-5a5.3,5.3,0,0,0,4.82,5,4.86,4.86,0,0,0,5-5V50.63C162.93,36.46,152.38,25.21,138.22,25.21Zm0,40.28c-8.44,0-15.57-6.43-15.57-14.86a15.78,15.78,0,0,1,15.57-15.57c8.43,0,14.86,7.13,14.86,15.57A14.58,14.58,0,0,1,138.22,65.49Z"/><path class="cls-1" d="M194.17,25.11A25.23,25.23,0,0,0,169,50.32V70.51a5,5,0,1,0,10,0V50.32a15.26,15.26,0,0,1,15.27-15.26,5,5,0,0,0,5-5A5,5,0,0,0,194.17,25.11Z"/><path class="cls-1" d="M230.42,24.81a25.18,25.18,0,0,0-15.26,5.12v-25a5,5,0,0,0-9.95,0V50a25.22,25.22,0,1,0,25.21-25.21Zm0,40.48A15.26,15.26,0,0,1,215.16,50v-.1a15.27,15.27,0,1,1,15.26,15.37Z"/><path class="cls-1" d="M289.28,25.14a24.73,24.73,0,0,0-2.6-.13,23.68,23.68,0,0,0-3.05.19,22.83,22.83,0,0,0-2.88.52l4.71,2.87a1.85,1.85,0,0,0,1.9,0l4.87-3A21.87,21.87,0,0,0,289.28,25.14ZM296,26.76l-8.6,5.17a1.81,1.81,0,0,1-1.88,0l-8.36-5A25.2,25.2,0,1,0,296,26.76Zm-9.27,38.73a15.27,15.27,0,1,1,15.26-15.27A15.33,15.33,0,0,1,286.68,65.49Z"/><path class="cls-1" d="M343,25a25.22,25.22,0,1,0,25.21,25.21A25.23,25.23,0,0,0,343,25Zm0,40.48a15.27,15.27,0,1,1,15.26-15.27A15.33,15.33,0,0,1,343,65.49Z"/><path class="cls-1" d="M395.86,45.1l17.58-11.55a5,5,0,1,0-6.33-7.63l-22.8,15V5.12a5,5,0,0,0-5-4.92,4.93,4.93,0,0,0-4.93,4.92V70.21a5,5,0,0,0,4.93,5,5,5,0,0,0,5-5V52.64l3.11-2.11,19.09,22.9a4.79,4.79,0,0,0,6.93.6,4.93,4.93,0,0,0,.7-6.93Z"/><line class="cls-2" x1="301.79" y1="16.65" x2="301.79" y2="25.14"/><path class="cls-1" d="M297.64,20.06v2.27l-5.41,3.3-4.87,3a1.85,1.85,0,0,1-1.9,0l-4.71-2.87-5.56-3.39V20.06l8.44,5.14,2.78,1.69,2.87-1.75Z"/><path class="cls-1" d="M304.41,18.21l-2.62,1.6-4.15,2.52-5.41,3.3-4.87,3a1.85,1.85,0,0,1-1.9,0l-4.71-2.87-5.56-3.39-6.77-4.12a1.83,1.83,0,0,1,0-3.12l17-10.38a1.85,1.85,0,0,1,1.9,0l17.05,10.38A1.83,1.83,0,0,1,304.41,18.21Z"/></g></g></svg>