<svg xmlns="http://www.w3.org/2000/svg" viewBox="0 0 281.61 99.55"><defs><style>.cls-1{fill:#fff;}.cls-2{fill:none;stroke:#fff;stroke-linecap:round;stroke-linejoin:round;stroke-width:8px;}</style></defs><g id="레이어_2" data-name="레이어 2"><g id="레이어_1-2" data-name="레이어 1"><path class="cls-1" d="M23.39,28.83V75.24A25.37,25.37,0,0,1,16,93.32a26.16,26.16,0,0,1-9.35,5.93,4.67,4.67,0,0,1-1.7.3A5,5,0,0,1,.29,96.24a4.91,4.91,0,0,1,3-6.33,15.88,15.88,0,0,0,5.62-3.62,15,15,0,0,0,4.52-11.05V28.83a5,5,0,0,1,10,0Z"/><path class="cls-1" d="M79.64,49.33V69a4.86,4.86,0,0,1-5,5,5.3,5.3,0,0,1-4.83-5c-4.31,3.62-9.14,5-14.86,5C40.77,74,29.52,63.49,29.52,49.33A25.25,25.25,0,0,1,54.93,23.91C69.09,23.91,79.64,35.16,79.64,49.33Zm-9.85,0c0-8.44-6.42-15.57-14.86-15.57A15.78,15.78,0,0,0,39.36,49.33c0,8.43,7.13,14.86,15.57,14.86A14.58,14.58,0,0,0,69.79,49.33Z"/><path class="cls-1" d="M156.08,44.4a1,1,0,0,1,.1.51V69.32a5,5,0,0,1-5,5,5,5,0,0,1-4.92-5V44a10.25,10.25,0,0,0-20.5,0V69.32a5,5,0,0,1-4.92,5,5,5,0,0,1-5-5V44a10.2,10.2,0,0,0-20.39,0V69.32a5,5,0,1,1-10,0V44a20.18,20.18,0,0,1,20.2-20.09,19.86,19.86,0,0,1,15.16,6.93A19.88,19.88,0,0,1,136,23.91,20.17,20.17,0,0,1,156.18,44C156.18,44.2,156.18,44.3,156.08,44.4Z"/><path class="cls-1" d="M172.15,69.42v25a5,5,0,0,1-9.94,0V49.33a25.15,25.15,0,1,1,9.94,20.09Zm0-20.09v.1a15.32,15.32,0,1,0,0-.1Z"/><path class="cls-1" d="M218.26,69.22V28.73a5,5,0,0,1,9.94,0V69.22a5,5,0,1,1-9.94,0Z"/><path class="cls-1" d="M233.93,49a25.21,25.21,0,0,1,47-12.65,5.05,5.05,0,0,1-1.81,6.83,5.15,5.15,0,0,1-6.83-1.81A15.29,15.29,0,0,0,243.77,49,15.39,15.39,0,0,0,259,64.29a15.18,15.18,0,0,0,12.86-7,5.12,5.12,0,0,1,6.93-1.5,5,5,0,0,1,1.4,6.93A25.15,25.15,0,0,1,233.93,49Z"/><polyline class="cls-2" points="218.26 7.95 223.17 12.87 232.04 4"/><path class="cls-2" d="M48.7,53.38a8.3,8.3,0,0,0,11.75,0"/></g></g></svg>